<?xml version="1.0" standalone="no"?>
<!DOCTYPE svg PUBLIC "-//W3C//DTD SVG 1.1//EN" "http://www.w3.org/Graphics/SVG/1.1/DTD/svg11.dtd" >
<svg>
<metadata>
Created by FontForge 20120731 at Mon Nov  3 06:13:45 2014
 By root
Copyright (c) 2011 by Emil Bertell. All rights reserved.
</metadata>
<defs>
<font id="UVFMishka" horiz-adv-x="1032" >
  <font-face 
    font-family="UVF Mishka"
    font-weight="400"
    font-stretch="normal"
    units-per-em="2048"
    panose-1="2 0 0 0 0 0 0 0 0 0"
    ascent="1536"
    descent="-512"
    x-height="1018"
    cap-height="1482"
    bbox="-3698.5 -2486.01 5972.27 4299.01"
    underline-thickness="102"
    underline-position="-102"
    unicode-range="U+0020-FB06"
  />
<missing-glyph horiz-adv-x="409" 
 />
    <glyph glyph-name="ff" unicode="ff" horiz-adv-x="1062" 
d="M1106 1583q75 0 121 -32.5t56 -81.5t0.5 -102t-43.5 -99t-79 -68q-79 -37 -126 0q-34 27 -23 67q12 43 71 58q47 11 80.5 44t40 67t-26 61t-104.5 27q-107 0 -150.5 -106.5t-43.5 -346.5v-194q3 -54 39 -65t180 -11q28 0 38.5 -14.5t-1 -29t-37.5 -14.5
q-143 0 -179.5 -11.5t-39.5 -65.5v-490q-3 -334 -57 -541.5t-161 -304t-276 -96.5q-147 0 -224 68t-85 170q-100 -95 -277 -95q-83 0 -146 31.5t-96 80t-45.5 108t-2.5 115.5t41 102.5t77 68.5q77 37 126 -2q35 -27 27 -68q-9 -46 -69 -61q-90 -22 -117 -94q-25 -69 22 -133
q60 -82 193 -89q11 -1 23 -1q83 0 136 67t83 230.5t31 433.5v502q-3 46 -16.5 56.5t-55.5 10.5q-28 0 -38 14.5t2 29t38 14.5q40 0 53.5 11t16.5 58v53q0 125 20.5 217t66 159.5t122 101.5t184.5 34q51 0 89.5 -22t59 -57t25 -78.5t-7 -85t-42.5 -79t-77 -58.5
q-77 -37 -124 0q-34 26 -24 65q11 43 70 57q37 9 68.5 32.5t45 51.5t11.5 55t-33 44.5t-87 17.5q-103 0 -143 -106.5t-40 -348.5v-36q3 -55 39 -66.5t180 -11.5q28 0 38.5 -14.5t-1 -29t-37.5 -14.5q-143 0 -179.5 -11.5t-39.5 -65.5v-490q-3 -265 -47 -434q75 33 122 -6
q35 -29 25 -70q-12 -43 -69 -57q-98 -23 -128 -95q-28 -67 20 -131q61 -81 200 -89q14 -1 29 -1q51 0 91 20.5t69 56t49.5 95.5t33 126.5t20 162.5t10.5 190t3 222v502q-3 46 -16 56.5t-55 10.5q-28 0 -38 14.5t2 29t38 14.5q40 0 53 11t16 58v209q0 252 98 382t314 130z
" />
    <glyph glyph-name="fi" unicode="fi" horiz-adv-x="948" 
d="M616 1243q45 18 32 56q-13 41 -80 66q-47 17 -107 17q-106 0 -150.5 -112.5t-44.5 -354.5v-28q3 -59 36 -72.5t140 -13.5q28 0 38 -14.5t-2 -29t-38 -14.5q-106 0 -138.5 -14t-35.5 -74v-479q-2 -195 -28 -339t-67 -231t-102.5 -139.5t-125 -71t-144.5 -18.5
q-83 0 -146.5 31.5t-96.5 80t-45.5 108t-2.5 115.5t41 102.5t78 68.5q77 37 126 -2q35 -27 27 -68q-9 -46 -69 -61q-90 -21 -117 -93q-25 -69 22 -134q59 -81 190 -89q12 -1 24 -1q84 0 137.5 67t83.5 230.5t31 433.5v502q-3 46 -16.5 56.5t-55.5 10.5q-28 0 -38 14.5t2 29
t38 14.5q40 0 53.5 11t16.5 58v53q0 527 412 527q61 0 111.5 -18t83 -47.5t54 -66t26.5 -76t-1 -75.5t-27.5 -65.5t-54.5 -44.5q-73 -35 -123 16q-39 40 -32 95q6 59 64 76q2 0 5 1q1 0 2 1t2 1q4 0 12 4zM1090 426q9 60 34 68q18 6 25 -24q5 -23 0 -58q-67 -412 -289 -412
q-52 0 -94 12t-83 45.5t-68 88.5t-43.5 146.5t-16.5 213.5v242q0 79 10 103t53 56q79 59 103 3q18 -40 18 -201v-203q0 -265 26 -352.5t116 -87.5q159 0 209 360z" />
    <glyph glyph-name="fl" unicode="fl" horiz-adv-x="946" 
d="M1090 426q9 60 33 68q18 6 25 -24q5 -23 -1 -58q-67 -412 -287 -412q-52 0 -94 12t-83 45.5t-68 88.5t-43.5 146.5t-16.5 213.5v670q0 100 -24 150t-82 50q-105 0 -144 -107.5t-39 -353.5v-24q2 -26 11 -43t20.5 -26.5t37 -14t46 -5.5t61.5 -1q28 0 38 -14.5t-2 -29
t-38 -14.5q-39 0 -60.5 -1t-46 -6t-36.5 -15t-20.5 -27.5t-10.5 -44.5v-473q-2 -195 -28 -339t-67 -231t-102.5 -139.5t-125 -71t-144.5 -18.5q-83 0 -146.5 31.5t-96.5 80t-45.5 108t-2.5 115.5t41 102.5t78 68.5q77 37 126 -2q35 -27 27 -68q-9 -46 -69 -61
q-90 -21 -117 -93q-25 -69 22 -134q59 -81 190 -89q12 -1 24 -1q84 0 137.5 67t83.5 230.5t31 433.5v502q-3 46 -16.5 56.5t-55.5 10.5q-28 0 -38 14.5t2 29t38 14.5q40 0 53.5 11t16.5 58v53q0 246 98 380.5t283 134.5q57 0 105 9.5t68 17t40.5 5t40.5 -23.5
q22 -22 22 -240v-692q0 -91 2 -152t7.5 -113.5t15 -83t25.5 -52.5t37.5 -30.5t52.5 -8.5q159 0 211 360z" />
    <glyph glyph-name="st" unicode="st" horiz-adv-x="1382" 
d="M1524 426q9 60 33 68q17 6 24 -24q5 -23 0 -58q-16 -97 -47.5 -173t-68 -119.5t-80.5 -72t-80.5 -38t-71.5 -9.5q-52 0 -94 12t-83 45.5t-68 88.5t-43.5 146.5t-16.5 213.5v418q0 52 -7 74t-19.5 27t-45.5 5q-28 0 -38.5 14t1 28.5t37.5 14.5q66 0 114 52t48 168
q0 60 -33 102.5t-81.5 57t-108 -1.5t-107.5 -64q-49 -50 -55.5 -137.5t20.5 -169.5t70 -131q72 -66 72 -162q0 -51 -38 -94t-108 -43q-54 0 -81.5 32t-18.5 67t45 44q42 8 58 25.5t16 44.5q0 46 -56 75t-161 29q-120 0 -189 -36.5t-69 -106.5q0 -35 25.5 -64t67 -49
t95 -42.5t109 -42.5t109 -51t95 -67.5t67 -91.5t25.5 -123q0 -86 -35 -148.5t-96 -95.5t-130 -48t-152 -15q-158 0 -256.5 82t-98.5 213q0 60 42 108t124 48q76 0 105 -55q23 -43 -1 -79q-14 -22 -42 -28q-47 -11 -64.5 -30.5t-17.5 -51.5q0 -58 57.5 -102t169.5 -44
q88 0 160 23t119 74.5t47 124.5q0 37 -33 65.5t-85 49t-115.5 42t-127 51.5t-115.5 69.5t-85 104.5t-33 148q0 75 48 128t124.5 77t173.5 24q78 0 149 -22q-31 65 -45 134t1.5 146t68.5 130q64 64 148 86t154 3.5t118.5 -72.5t48.5 -130q0 -18 -1 -52t-1 -67v-35
q6 -47 42.5 -57t176.5 -10q28 0 38.5 -14.5t-1 -29t-37.5 -14.5q-138 0 -175.5 -10.5t-43.5 -58.5v-463q0 -91 2 -152t8 -113.5t15.5 -83t25.5 -52.5t37.5 -30.5t52.5 -8.5q27 0 55 8.5t63 33t63.5 63t54 104.5t37.5 151z" />
    <glyph glyph-name="ct" unicode="ct" horiz-adv-x="1269" 
d="M1386 446q8 59 33 68q20 7 27 -25q5 -22 0 -57q-16 -98 -46 -175t-64 -124t-74.5 -78t-76 -43t-69.5 -12q-105 0 -177 57t-105 203q-25 -61 -61 -108t-73.5 -75t-81.5 -46t-81.5 -24.5t-75.5 -6.5q-59 0 -111.5 12t-109 46t-97 88t-66.5 146.5t-26 213.5q0 252 98 382
t314 130q29 0 41 -2q-24 48 -37.5 99.5t-16.5 108t16.5 111t61.5 95.5q52 52 116.5 77t125 20.5t112 -29t82.5 -72.5t31 -109v-154q4 -47 41 -57t178 -10q28 0 38 -14.5t-2 -29t-38 -14.5q-138 0 -175.5 -10.5t-41.5 -58.5v-463q0 -265 26 -352.5t116 -87.5q32 0 66.5 18.5
t70.5 59t66.5 119t45.5 183.5zM741 1087q65 0 112.5 52t47.5 168q0 60 -33 102.5t-81.5 57t-108 -1.5t-107.5 -64q-36 -36 -49 -93.5t-5.5 -117.5t28 -116.5t49.5 -96.5q37 -31 47.5 -81.5t-2.5 -100t-45 -94t-76 -64.5q-78 -36 -125 0q-34 26 -25 65q12 44 72 58
q47 12 80.5 45t40 67.5t-26 61.5t-104.5 27q-107 0 -150.5 -107.5t-43.5 -347.5q0 -440 245 -440q36 0 72 8t78 31.5t76.5 59.5t64 97.5t43.5 140.5q-4 66 -4 103v418q0 52 -6.5 74t-19 27t-46.5 5q-28 0 -38 14t2 28.5t38 14.5z" />
    <glyph glyph-name="ish" unicode="ish" horiz-adv-x="2242" 
d="M2498 -139q26 30 45 19q18 -10 2 -40q-8 -15 -23 -30q-33 -34 -86 -55t-92 -21q-64 0 -114.5 13t-100.5 51.5t-83.5 101t-54 167.5t-20.5 246v199q0 44 1 121q1 195 -10 245q-13 61 -59 72q-15 4 -36 4q-35 0 -69 -16t-73 -65t-68 -127.5t-48 -216t-19 -316.5
q0 -10 -2 -14v-43q2 -54 -8.5 -88.5t-31.5 -48t-49 -18t-60 0.5q-14 1 -22.5 3.5t-13.5 9t-6.5 14t-1 24t2 32.5t3 45t1.5 58q0 68 2 419t2 491v76q-384 32 -903 270q-63 29 -121.5 43t-104 13.5t-85.5 -11.5t-68 -32t-48.5 -47.5t-30.5 -58t-11 -64t8 -66t27 -62.5
q5 37 34.5 62.5t69.5 25.5q44 0 75.5 -30.5t31.5 -71.5v-6q0 -7 -7 -25q-3 -14 -14 -29q-21 -30 -51 -47t-74 -10.5t-86 49.5q-88 88 -79 210q9 115 97 193q113 98 291 72q84 -13 174 -55q505 -233 877 -266q36 733 475 733q147 0 234 -110q81 -102 71 -242
q-11 -160 -136 -277q-163 -152 -462 -166v-71q0 -54 -1 -181t-1 -200q26 88 63.5 150t79 93.5t79.5 44.5t77 13q52 0 90.5 -12t73.5 -45t57 -88.5t34.5 -146t12.5 -214.5l-2 -199q0 -205 21 -316t64.5 -154.5t123.5 -43.5q29 0 71 18t65 44zM798 1116q-23 -23 -24 -44.5
t16.5 -40t48 -40.5t70 -43.5t84 -51.5t89 -62.5t85 -78t71.5 -96.5t49.5 -120t18.5 -146q0 -102 -35.5 -180t-95 -123t-128 -67.5t-143.5 -22.5q-97 0 -174 49t-117 133q-79 -182 -225 -182q-52 0 -94 12t-83 45.5t-68 88.5t-43.5 146.5t-16.5 213.5v242q0 79 10 103t53 56
q79 59 103 3q18 -40 18 -201v-203q0 -265 26 -352.5t116 -87.5q118 0 176 200q-11 57 -11 94q0 70 43 128.5t125 58.5q61 0 92 -43.5t21 -91.5t-51 -60q-48 -13 -65 -36t-17 -60q0 -71 52 -130.5t151 -59.5q122 0 220.5 85t98.5 214q0 52 -30.5 100t-80 86.5t-109 77.5
t-118.5 82.5t-108.5 91.5t-80 115t-30.5 143q0 55 20 95.5t42 49.5q24 13 50 4.5t29.5 -32t-30.5 -62.5zM1873 1898q-98 0 -156 -59.5t-89.5 -206t-37.5 -405.5q289 16 430 174q98 109 92 247q-5 119 -83 191q-65 59 -156 59z" />
    <glyph glyph-name="ishk" unicode="ishk" horiz-adv-x="3301" 
d="M3447 426q7 60 32 68q18 6 25 -24q5 -23 0 -58q-67 -412 -289 -412q-64 0 -116.5 18t-96 57.5t-68 111t-24.5 169.5v6q0 24 0.5 60.5t0.5 54.5t-0.5 44t-3 38.5t-7 30t-12 24.5t-18.5 15.5t-26.5 11t-35.5 2.5q-40 0 -87.5 -37.5t-90 -101.5t-71 -164t-28.5 -211v-6
q-2 -43 -15 -70t-33 -37.5t-46.5 -14t-56.5 0.5q-14 1 -22.5 3.5t-13 9t-6 14.5t-0.5 24t2.5 32.5t3 45t1.5 57.5q0 68 1 419t1 491v12q-266 22 -600 113q-24 7 -28.5 24.5t8.5 30t34 6.5q321 -93 588 -119q4 156 25.5 283t56 211.5t76.5 146t91 95t94 48.5t91 15
q168 0 293 -118q110 -104 132 -249q25 -164 -80 -290q-149 -178 -501 -202q-47 -3 -96 -3v-4q0 -70 -1 -243t-1 -277q58 194 173 331t216 162q102 26 146 -29q30 -38 13 -83q-19 -47 -72 -50q-30 -2 -64 13q-59 25 -119 0t-108.5 -85.5t-87 -144.5t-60.5 -178q55 91 127 143
t133 52q132 0 200.5 -77t68.5 -270v-6q0 -158 27.5 -224t113.5 -66q159 0 211 360zM2494 -139q29 31 48 18q17 -12 -1 -44q-7 -12 -20 -25q-35 -35 -87.5 -55.5t-92.5 -20.5q-64 0 -114.5 13t-100.5 51.5t-83.5 101t-54 167.5t-20.5 246v199q0 44 1 121q1 195 -10 245
q-13 61 -59 72q-15 4 -36 4q-35 0 -69 -16t-72.5 -65t-67 -127.5t-47.5 -216t-19 -316.5q0 -6 -4 -14q0 -12 1 -27t1 -16q1 -54 -10 -88.5t-31.5 -48t-49 -18t-60.5 0.5q-14 1 -22.5 3.5t-13 9t-6 14.5t-0.5 24t2.5 32.5t3 45t1.5 57.5q0 68 1 419t1 491q0 102 6 188
q-402 -26 -915 125q-118 35 -213 36.5t-149.5 -25t-82.5 -69t-23 -94.5t40 -102q5 37 35 63.5t69 26.5q44 0 75 -30t31 -72v-6q0 -5 -4 -25q-9 -22 -16 -29q-21 -30 -51 -47t-74 -10.5t-86 49.5q-105 106 -81 229t162.5 175t387.5 -13q503 -152 901 -125q61 621 467 621
q172 0 245 -96q64 -84 22 -199q-47 -131 -205 -230q-145 -91 -353 -130q-4 -126 -4 -211q0 -242 -2 -381q27 88 64.5 150t79 93.5t79 44.5t76.5 13q52 0 90.5 -12t73.5 -45t57 -88.5t34.5 -146t12.5 -214.5v-199q0 -206 20.5 -316t64 -154t124.5 -44q27 0 68.5 18t64.5 44z
M797 1116q-23 -23 -24 -44.5t16.5 -40t48 -40.5t70 -43.5t84 -51.5t89 -62.5t85 -78t71.5 -96.5t49.5 -120t18.5 -146q0 -102 -36 -180.5t-95.5 -123t-128 -67t-142.5 -22.5q-98 0 -174.5 48.5t-116.5 133.5q-79 -182 -227 -182q-52 0 -94 12t-82.5 45.5t-67 88.5t-43 146.5
t-16.5 213.5v242q0 80 9.5 104t53.5 55q77 58 101 6q18 -47 18 -204v-203q0 -264 26.5 -352t115.5 -88q120 0 178 200q-11 43 -11 94q0 44 16 84.5t55 71.5t95 31q61 0 92.5 -43.5t21.5 -91.5t-52 -60q-47 -13 -64.5 -36t-17.5 -60q0 -71 52 -130.5t151 -59.5
q122 0 220.5 85t98.5 214q0 52 -30.5 100t-80 86.5t-109 77.5t-118.5 82.5t-108.5 91.5t-80 115t-30.5 143q0 55 19.5 95.5t41.5 49.5q25 13 51.5 5t30.5 -32t-30 -63zM2771 1898q-53 0 -93.5 -36t-73.5 -117.5t-52 -229t-21 -356.5q355 4 509 166q104 110 86 257
q-16 128 -113 220q-103 96 -242 96zM1870 1898q-88 0 -143 -47t-89 -164t-45 -319q268 54 406 192q96 97 89 192q-7 86 -95 124q-52 22 -123 22z" />
    <glyph glyph-name="os" unicode="os" horiz-adv-x="1687" 
d="M1149 1116q-23 -23 -24 -44.5t16.5 -40t48 -40.5t70 -43.5t84 -51.5t89 -62.5t85 -78t71.5 -96.5t49.5 -120t18.5 -146q0 -102 -36 -180.5t-95.5 -123t-128 -67t-142.5 -22.5q-145 0 -237 102.5t-92 257.5q0 70 43 128.5t123 58.5q38 0 65.5 -17.5t38.5 -44t11.5 -54
t-14 -50t-38.5 -29.5q-48 -13 -66 -36t-18 -60q0 -71 52 -130.5t151 -59.5q123 0 221 85t98 214q0 55 -33.5 105t-89 92t-115.5 80.5t-127 90t-108 101.5q-35 -99 -115.5 -174t-183.5 -117v-29q-1 -116 -31 -208.5t-75.5 -148.5t-104.5 -92.5t-114 -50.5t-109 -14
q-57 0 -100.5 11t-85.5 42.5t-68.5 85t-43 142t-17.5 208.5v17q1 109 27.5 197t67 143.5t95 94t106 55.5t105.5 22q25 2 34.5 -12.5t-1 -29.5t-33.5 -15q-216 0 -219 -443v-16q2 -259 34 -351t132 -92q102 0 159 102.5t58 340.5h-19q-132 0 -196 57.5t-64 153.5t51 153.5
t148 57.5q75 0 111 -14q132 -50 151 -304q92 47 163.5 123.5t96.5 165.5q-43 75 -43 166q0 55 20 95.5t42 49.5q25 13 51.5 5t30 -32t-30.5 -63zM420 721q0 -74 56.5 -120t160.5 -46q-2 133 -15.5 203t-31 88t-49.5 20q-59 0 -90 -34t-31 -111z" />
    <glyph glyph-name="sp" unicode="sp" horiz-adv-x="1742" 
d="M1692 530v-16q-1 -116 -31 -208.5t-75.5 -148.5t-105 -92.5t-114.5 -50.5t-109 -14q-87 0 -133 43v-266q0 -32 1 -93.5t1 -64.5q2 -55 -9 -89.5t-31.5 -47.5t-49 -17.5t-61.5 0.5q-14 1 -22 3.5t-12.5 9t-5.5 14.5t-1 24t1.5 32.5t3 45.5t1.5 58v1272q0 15 -7 29.5
t-13.5 21.5t-17.5 18q-6 6 -8 8.5t-4.5 6t-1 5t5.5 3t12 2t20 0.5q53 0 78.5 46t25.5 103q0 79 -28 137.5t-72.5 85t-96 31.5t-103 -17t-89.5 -65q-43 -49 -45.5 -114.5t29 -128t88.5 -115.5q94 -65 94 -180q0 -51 -37.5 -94t-107.5 -43q-54 0 -81 32t-18 67t45 44
q40 8 56 25.5t16 44.5q0 46 -56 75t-161 29q-119 0 -188.5 -36.5t-69.5 -106.5q0 -40 33 -71.5t85 -54.5t115.5 -46.5t127 -54t115.5 -68.5t85 -98.5t33 -137.5q0 -70 -23.5 -124t-62.5 -88t-94 -56t-112 -30.5t-122 -8.5q-158 0 -256 82t-98 213q0 59 42.5 107.5
t123.5 48.5q77 0 105 -55q23 -43 -1 -80q-14 -21 -41 -27q-48 -11 -66 -30.5t-18 -51.5q0 -58 58 -102t172 -44q137 0 231 57t94 165q0 37 -33 65.5t-85 49t-115.5 42t-127 51.5t-115.5 69.5t-85 104.5t-33 148q0 112 97.5 170.5t248.5 58.5q59 0 111 -12q-37 53 -53.5 107
t-5 115t58.5 114q42 48 99 75t115 32t115.5 -12t101.5 -53t71.5 -97t27.5 -137v-406q51 120 127.5 185t165.5 65q53 0 90.5 -9.5t74.5 -39.5t59 -83t36 -142t15 -214zM1507 500v16q0 285 -18.5 365t-104.5 80q-47 0 -93.5 -46t-83 -124t-59.5 -189.5t-24 -232.5v-4
q0 -306 166 -306q214 0 217 441z" />
    <glyph glyph-name="tt" unicode="tt" horiz-adv-x="1095" 
d="M1240 426q9 60 33 68q17 6 24 -24q5 -23 0 -58q-16 -98 -44 -173t-60.5 -119.5t-71.5 -72t-73 -37.5t-70 -10q-219 0 -293 217q-51 -119 -122 -168t-146 -49q-334 0 -334 506v440q-1 58 -15 71t-57 13q-28 0 -38.5 14t1 28.5t37.5 14.5q43 0 57 15t15 74v61q0 81 10 105
t53 55q77 59 101 5q18 -44 18 -204v-35q6 -49 30 -58t148 -9h129q44 0 57.5 13t14.5 71v114q0 80 10 104.5t54 55.5q77 59 101 3q17 -46 17 -206v-88q6 -49 30.5 -58t148.5 -9q28 0 38.5 -14.5t-1 -29t-37.5 -14.5q-54 0 -79.5 -1t-48.5 -4t-31 -11.5t-12.5 -19.5t-7.5 -33
v-463q0 -170 18.5 -266.5t54.5 -135t99 -38.5q33 0 65.5 15.5t68 52t64.5 112t44 180.5zM437 66q28 0 56 11t59.5 37t59 78.5t46.5 126.5q-14 74 -14 187v444q-1 58 -15 73t-57 15h-129q-54 0 -79.5 -1t-48.5 -4t-30.5 -11.5t-12 -19.5t-7.5 -33v-463q0 -170 18.5 -266.5
t54.5 -135t99 -38.5z" />
    <glyph glyph-name="vs" unicode="vs" horiz-adv-x="1576" 
d="M1038 1116q-23 -23 -24 -44.5t16.5 -40t48 -40.5t70 -43.5t84 -51.5t89 -62.5t85 -78t71.5 -96.5t49.5 -120t18.5 -146q0 -82 -24 -149t-63 -111.5t-91.5 -75t-108.5 -44t-114 -13.5q-145 0 -237.5 102.5t-92.5 257.5q0 70 43 128.5t125 58.5q37 0 64.5 -17.5t38 -44
t11 -54t-14 -50t-38.5 -29.5q-48 -13 -65.5 -36t-17.5 -60q0 -71 52.5 -130.5t151.5 -59.5q122 0 221 85t99 214q0 49 -26.5 93.5t-74 83t-97.5 71.5t-113 77t-105 82q-35 -89 -131 -143.5t-209 -65.5q-37 -243 -131.5 -403t-202.5 -160q-147 0 -234.5 161.5t-88.5 444.5
v277q0 80 9.5 103t53.5 56q77 58 101 6q18 -47 18 -204v-223q1 -85 3 -147t8.5 -129.5t18.5 -113t30.5 -84t46.5 -57t65 -18.5q66 0 126.5 140.5t88.5 348.5q-157 14 -226 138q-54 98 -32 213q20 104 90 146q34 21 74 21q89 0 146 -60t57 -198q0 -94 -13 -196
q93 14 178.5 65.5t108.5 128.5q-98 108 -98 242q0 55 20.5 95.5t42.5 49.5q24 13 50 4.5t29.5 -32t-30.5 -62.5zM547 1020q-57 0 -91 -69q-37 -77 -13 -166q28 -108 134 -148q32 -12 70 -16q10 82 10 200q0 104 -25 151.5t-85 47.5z" />
    <glyph glyph-name="ws" unicode="ws" horiz-adv-x="2060" 
d="M1522 1116q-23 -23 -24 -44.5t16.5 -40t48 -40.5t70 -43.5t84 -51.5t89 -62.5t85 -78t71.5 -96.5t49.5 -120t18.5 -146q0 -102 -36 -180.5t-95.5 -123t-128 -67t-142.5 -22.5q-145 0 -237.5 102.5t-92.5 257.5q0 70 43 128.5t123 58.5q62 0 93.5 -43.5t21.5 -91.5
t-51 -60q-48 -13 -66 -36t-18 -60q0 -32 12 -64t35 -61t64.5 -47t93.5 -18q122 0 219.5 85t97.5 214q0 52 -30 99.5t-82 88t-107.5 77t-121 84.5t-107.5 93q-55 -102 -144 -171t-186 -75q-32 -245 -114.5 -403t-188.5 -158q-88 0 -157 61t-110 175q-42 -111 -100 -173.5
t-123 -62.5q-146 0 -234 162t-89 444v277q0 56 5 82t16 39.5t42 37.5q79 59 103 3q18 -40 18 -201v-223q0 -103 3 -176.5t13.5 -151t28.5 -125.5t50 -78.5t77 -30.5q46 0 88 76.5t72 206.5q-24 117 -27 264v277q0 78 10 101.5t54 57.5q78 58 102 4q18 -42 18 -202v-223
q0 -102 3 -176t13.5 -151.5t29 -125.5t50.5 -78.5t77 -30.5q64 0 119 144.5t79 359.5q-150 19 -219 144q-55 99 -34 213q19 103 89 142q30 17 66 17q186 0 186 -258q0 -95 -10 -200q87 4 164.5 69.5t122.5 159.5q-72 99 -72 211q0 55 19.5 95.5t41.5 49.5q25 13 51.5 5
t30.5 -32t-30 -63zM1122 625q8 126 8 196q0 104 -25 151.5t-85 47.5q-57 0 -87 -68q-34 -76 -8 -165q32 -108 139 -147q27 -10 58 -15z" />
    <glyph glyph-name=".notdef" horiz-adv-x="409" 
 />
    <glyph glyph-name="NULL" horiz-adv-x="0" 
 />
    <glyph glyph-name="nonmarkingreturn" horiz-adv-x="682" 
 />
    <glyph glyph-name="space" unicode=" " horiz-adv-x="600" 
 />
    <glyph glyph-name="exclam" unicode="!" horiz-adv-x="561" 
d="M358 354q-49 -16 -72.5 44.5t-23.5 168.5v676q0 162 19 203q25 53 102 -6q43 -32 53 -56.5t10 -103.5q0 -74 -4 -206.5t-13 -299t-28 -289t-43 -131.5zM352 203q43 0 75 -30t32 -71q0 -42 -32 -72t-75 -30q-44 0 -75 29.5t-31 72.5q0 41 31 71t75 30z" />
    <glyph glyph-name="quotedbl" unicode="&#x22;" horiz-adv-x="643" 
d="M225 1440q36 -33 43.5 -57.5t3.5 -100.5q-7 -115 -41.5 -267t-62.5 -159q-12 -4 -23 11t-20 47t-14.5 81t-6 114t4.5 146q4 79 9 118t16.5 72.5t33.5 30.5t57 -36zM492 1440q36 -33 43.5 -57.5t3.5 -100.5q-6 -114 -41.5 -266.5t-63.5 -159.5q-12 -4 -23 11t-20 47
t-14.5 81t-7 114t3.5 146q4 77 9.5 117.5t17.5 73t34.5 30t57.5 -35.5z" />
    <glyph glyph-name="numbersign" unicode="#" horiz-adv-x="1394" 
d="M1143 805q-5 0 -111 4l-37 -426h117q134 0 163 -16q37 -20 -7 -78q-18 -24 -29.5 -32.5t-31.5 -12.5t-64 -4q-45 0 -162 6q-35 -352 -51 -357q-23 -8 -35 22t-12 81v260q-216 12 -488 33q-35 -389 -55 -396q-23 -8 -35 22t-12 81v303q-182 17 -189 31q-13 47 103 47h86
l-4 487q-178 17 -185 31q-13 47 103 47h82v305q0 161 17 200q23 56 99 0q1 -2 3 -3q43 -31 53 -55t10 -105q0 -63 -20 -340l428 6v297q0 160 16 199q22 56 95 3q4 -2 7 -5q44 -31 54 -55.5t10 -104.5q0 -76 -19 -332h70q134 0 163 -16q37 -20 -7 -78q-18 -24 -29.5 -32.5
t-31.5 -12.5t-64 -4zM883 381l-4 436q-72 3 -435 29l-41 -471z" />
    <glyph glyph-name="dollar" unicode="$" horiz-adv-x="980" 
d="M680 807q41 8 56.5 25.5t15.5 44.5q0 39 -40 66t-118 36q-10 -165 -27 -336q66 -26 113 -52.5t94 -66t71.5 -94.5t24.5 -123q0 -80 -29.5 -139t-83 -93t-115.5 -51.5t-138 -21.5q-20 -174 -31 -178q-25 -8 -36 20t-11 80v76q-146 9 -235 90.5t-89 204.5q0 59 43 107.5
t125 48.5q76 0 104 -55q23 -43 -1 -80q-14 -21 -41 -27q-48 -11 -65 -30.5t-17 -51.5q0 -51 44.5 -92.5t131.5 -51.5v435q-101 51 -159 125t-58 190q0 85 59 139.5t160 77.5v131q0 157 16 196q25 55 101 -1q42 -33 51.5 -56.5t9.5 -101.5q0 -57 -8 -158q129 -9 205 -73
t76 -166q0 -52 -37.5 -94.5t-108.5 -42.5q-54 0 -81 32t-17.5 67t45.5 44zM803 283q0 17 -6 32t-22 28t-29 22.5t-42 22t-44.5 18.5t-54 20t-54.5 20q-12 -142 -39 -385q126 8 208.5 65t82.5 157zM279 838q0 -44 38 -76.5t109 -63.5q0 195 2 275q-149 -29 -149 -135z" />
    <glyph glyph-name="percent" unicode="%" horiz-adv-x="2113" 
d="M1219 1440q37 -31 42.5 -54.5t-6.5 -105.5q-24 -143 -179.5 -763.5t-178.5 -627.5q-26 -8 -33 23.5t2 79.5l199 1251q0 4 2 8q-93 -126 -215 -198q0 -11 1 -34.5t1 -37.5v-12q-1 -116 -31 -208.5t-75.5 -148.5t-104.5 -92.5t-114 -50.5t-109 -14q-57 0 -100.5 11
t-85.5 42.5t-69.5 85t-44.5 142t-18 208.5v14q2 110 29 198.5t68 144t95.5 94.5t106 56t105.5 22q33 2 37 -21q4 -22 -19 -33q-9 -4 -20 -4q-214 0 -217 -442v-17q0 -258 32.5 -350t133.5 -92q50 0 87.5 22.5t67.5 72.5t45.5 137.5t16.5 209.5v35q-114 -11 -197 34t-82 142
q0 95 51.5 153t147.5 58q74 0 110 -13q120 -45 146 -255q143 89 250 281q12 43 27 63t39 17.5t57 -31.5zM1747 811q74 0 109 -13q153 -57 155 -382v-15q-1 -116 -31 -208.5t-75 -148.5t-104 -92.5t-113.5 -50.5t-108.5 -14q-58 0 -102 11t-85.5 43t-68.5 85.5t-43.5 142
t-17.5 208.5v16q1 109 27.5 197t67 144t95 94.5t106.5 55.5t105 21q25 2 34.5 -12.5t-1 -29.5t-33.5 -15q-216 0 -219 -442v-17q2 -258 34 -350t132 -92q217 0 217 444v2q0 95 -5 161.5t-12.5 104t-20.5 59t-25.5 28t-32.5 8.5q-50 0 -67 22q-15 18 21 29q23 6 62 6z
M451 1176q0 -54 32.5 -86t80 -40t106.5 -1q-3 88 -11 143.5t-22 81.5t-28 34.5t-36 10.5q-60 0 -91 -33.5t-31 -109.5z" />
    <glyph glyph-name="ampersand" unicode="&#x26;" horiz-adv-x="1466" 
d="M1247 977q105 104 219 84q72 -13 107 -65q31 -51 -2 -87q-28 -29 -57.5 -36t-53 3.5t-49 25.5t-46.5 28.5t-44 13.5t-43 -20q-26 -26 -50.5 -62t-40.5 -64.5t-39.5 -83.5t-32.5 -79t-34 -93t-32 -87q109 -103 170 -203t61 -209v-16q-1 -98 -46.5 -181t-117 -136.5
t-158 -83t-174.5 -29.5q-77 0 -144 14.5t-106.5 36t-70 45.5t-34 43.5t0.5 30.5q5 10 22 6t32 -16.5t46 -29.5t65 -33t88.5 -27t115.5 -11q143 0 241.5 103.5t98.5 252.5v17q0 137 -146 286q-38 -87 -79.5 -151t-100.5 -120.5t-140.5 -86t-183.5 -29.5q-80 0 -155 23
t-136.5 66t-98.5 111t-38 151v16q2 107 51.5 207t125.5 177t186 155q-72 101 -72 200v17q1 87 33 157.5t84 114t116.5 67t133.5 23.5q98 0 168 -56q83 -67 53 -166q-41 -137 -293 -284q-25 -13 -74 -47q60 -66 224 -197.5t196 -158.5q40 99 57 139t53 116t70 127t74 91z
M522 -12q61 0 115.5 20.5t95.5 53.5t79.5 84.5t67 104t58.5 120.5q-46 42 -221 183t-246 222q-107 -102 -165 -224.5t-60 -244.5v-16q0 -121 76.5 -212t199.5 -91zM479 1047q0 -65 56 -140q21 14 62 38.5t48 29.5q204 118 226 231q15 75 -53 118q-47 30 -113 30
q-106 0 -165 -76t-61 -213v-18z" />
    <glyph glyph-name="quotesingle" unicode="'" horiz-adv-x="491" 
d="M326 1440q43 -32 53 -56.5t10 -103.5q0 -120 -29 -280.5t-59 -170.5q-13 -4 -26.5 10.5t-26 48.5t-22 83.5t-15.5 120t-6 151.5q0 162 19 203q25 53 102 -6z" />
    <glyph glyph-name="parenleft" unicode="(" horiz-adv-x="563" 
d="M723 1653q46 0 43 -20q-2 -18 -35 -32q-21 -8 -41 -8q-113 0 -206.5 -80.5t-155.5 -221t-96.5 -329t-36.5 -405.5v-25q1 -227 26 -414.5t76.5 -336.5t138.5 -232.5t203 -83.5q43 0 43 -21q-1 -19 -32 -31q-20 -7 -44 -7q-176 0 -311.5 140.5t-209 393t-75.5 578.5
q0 2 1 12.5t1 12.5q2 190 42.5 364.5t110 308t158.5 233.5t192.5 152t207.5 52z" />
    <glyph glyph-name="parenright" unicode=")" horiz-adv-x="561" 
d="M-44 1653q177 0 312.5 -140.5t208.5 -392.5t75 -579v-25q-2 -190 -43 -364.5t-110 -308t-158.5 -233.5t-192.5 -152t-207 -52q-45 0 -44 18t34 32q20 9 41 9q150 0 263.5 139.5t172 372.5t60.5 525v24q0 226 -25 414.5t-77 337t-139 232t-202 83.5q-43 0 -43 21
q0 19 31 32q19 7 43 7z" />
    <glyph glyph-name="asterisk" unicode="*" horiz-adv-x="1024" 
d="M920 1210q7 -32 -12 -42t-76 -18q-3 -1 -5 -1q-90 -16 -237 -8q78 -60 153 -150q33 -42 47 -61.5t22 -42.5t-6.5 -34t-51.5 -15q-37 -3 -52.5 4t-46.5 45q-64 74 -123 196q-15 -100 -53 -202q-12 -32 -20 -50.5t-18 -38t-19 -26.5t-20 -9.5t-23 7t-27 29.5
q-22 31 -23.5 46.5t15.5 63.5q28 79 102 195q-90 -34 -192 -51q-34 -5 -53 -7.5t-41.5 -3t-32.5 4t-18 14t-6 27t12 42.5q14 38 28 48.5t64 19.5q71 10 205 6q-76 65 -133 133q-32 40 -47 71t-14.5 66.5t18.5 77.5q6 12 15.5 14t23 -6.5t26 -18.5t29.5 -29t26.5 -30.5
t24.5 -29.5q53 -67 113 -178q13 89 49 184q12 32 19.5 49t18.5 37.5t20 26.5t21 8t25.5 -8t30.5 -31q27 -32 29.5 -48.5t-15.5 -64.5q-25 -64 -104 -196q83 34 194 51q12 2 30.5 5.5t25.5 4t19 2.5t15.5 0t11 -2.5t10 -6t6.5 -9.5t7 -14.5t6 -19.5t7 -26z" />
    <glyph glyph-name="plus" unicode="+" horiz-adv-x="1081" 
d="M877 623q58 0 86 -2t56.5 -10.5t20.5 -25.5t-22 -48q-24 -30 -40.5 -36.5t-72.5 -6.5q-98 0 -284 14q-21 -177 -45.5 -321t-36.5 -148q-22 -7 -32.5 19t-10.5 73q0 10 -0.5 71.5t-1 149.5t-0.5 164q-442 32 -451 55q-7 22 19 31.5t73 9.5q25 0 357 4v222q0 148 16 183
q22 47 90 -5q39 -30 48 -52t9 -94q0 -60 -20 -252q48 1 104.5 2t91 2t46.5 1z" />
    <glyph glyph-name="comma" unicode="," horiz-adv-x="536" 
d="M322 254q99 0 90 -164q-7 -98 -59.5 -209.5t-82.5 -120.5q-14 -4 -13 12q0 9 24 87q38 127 -2 168q-10 10 -25 16q-31 12 -46.5 47t-11 71t37 64.5t88.5 28.5z" />
    <glyph glyph-name="hyphen" unicode="-" horiz-adv-x="851" 
d="M588 530q57 0 84.5 -2t56 -10.5t20.5 -25.5t-22 -48q-24 -30 -40.5 -36.5t-72.5 -6.5q-92 0 -297.5 28.5t-212.5 49.5q-7 22 19.5 31.5t73.5 9.5q28 0 187.5 5t203.5 5z" />
    <glyph glyph-name="period" unicode="." horiz-adv-x="520" 
d="M291 209q106 0 106 -94q0 -46 -31.5 -83.5t-74.5 -37.5t-75 38.5t-32 82.5q0 41 31 67.5t76 26.5z" />
    <glyph glyph-name="slash" unicode="/" horiz-adv-x="851" 
d="M719 1745q23 -22 27.5 -59t-1.5 -67.5t-22 -90.5q-34 -133 -298.5 -882.5t-289.5 -756.5q-26 -8 -30 23.5t8 79.5q4 16 202 724t215 775q13 51 23.5 88.5t24.5 77t29 62.5t32 38t37.5 12t42.5 -24z" />
    <glyph glyph-name="zero" unicode="0" horiz-adv-x="948" 
d="M477 1018q91 0 162 -30.5t115 -79.5t72.5 -117.5t39.5 -138t11 -146.5q0 -141 -57 -258t-149.5 -182.5t-197.5 -65.5h-2q-91 0 -161.5 30.5t-114.5 79.5t-72.5 117.5t-39.5 138t-11 146.5q0 141 56.5 258t149 182.5t197.5 65.5h2zM465 59q127 0 177 102t50 339
q0 243 -44.5 348.5t-162.5 105.5h-2q-126 0 -176.5 -102.5t-50.5 -339.5q0 -243 44.5 -348t162.5 -105h2z" />
    <glyph glyph-name="one" unicode="1" horiz-adv-x="530" 
d="M393 1081q56 8 56 -137q0 -42 -1.5 -348t-1.5 -367q0 -160 -17 -201q-25 -56 -103 3q-44 34 -54.5 59t-9.5 103q6 186 28.5 397.5t49.5 349.5q-106 -140 -221 -235q-40 -34 -62 -40.5t-30 7.5q-10 11 5 30.5t64 63.5q158 143 234 256q39 59 63 59z" />
    <glyph glyph-name="two" unicode="2" horiz-adv-x="983" 
d="M842 432q6 56 33 64q22 6 31 -26q7 -21 3 -52q-30 -241 -155 -346.5t-295 -59.5q-136 34 -174 39q-146 12 -150 -88q0 -23 -21 -36q-25 -16 -34 17q-4 13 -4 33q0 42 43 91l-2 2q2 0 6 4q27 31 61 55q267 240 357 366.5t90 260.5q0 123 -45 196.5t-131 73.5
q-111 0 -204.5 -76t-131.5 -217q-16 -58 0 -121t66 -109t122 -46q21 0 30 -15t0 -30t-32 -15q-91 0 -159.5 53.5t-91.5 138t1 187.5q38 140 160 233t268 93q69 0 132 -19t114 -55.5t81 -97.5t30 -139q0 -59 -31 -125t-76.5 -122.5t-116 -122.5t-129.5 -113t-137 -105
q84 13 150 -15q155 -72 237 -16t105 260z" />
    <glyph glyph-name="three" unicode="3" horiz-adv-x="858" 
d="M539 612q49 -2 90 -15.5t78 -40t58 -75.5t21 -116q0 -112 -67 -215.5t-173.5 -165.5t-219.5 -62q-106 0 -183 52.5t-114 136.5t-37 188q0 59 36 105.5t105 46.5q52 0 78 -37t17.5 -77t-42.5 -50q-44 -12 -69 -35t-25 -53q0 -201 234 -201q112 0 182 98t70 234
q0 151 -56 192.5t-162 7.5q-46 -14 -57 3q-10 17 33 40q8 5 18 9l2 2q120 82 164.5 144.5t44.5 119.5q0 91 -33.5 140.5t-99.5 49.5q-81 0 -151.5 -57.5t-98.5 -161.5q-20 -73 23 -141q18 -27 4 -48q-14 -20 -36 0q-5 4 -9 9q-33 41 -43 95.5t6 117.5q29 105 123.5 177.5
t204.5 72.5q71 0 137 -25t113 -81.5t47 -133.5q0 -141 -213 -250z" />
    <glyph glyph-name="four" unicode="4" horiz-adv-x="944" 
d="M829 184q49 -3 67.5 -25.5t14.5 -43.5q-1 -6 -5 -8t-13.5 -1.5t-21 2t-33 4t-43.5 3.5q-70 6 -136 6q-2 -115 -2 -236q0 -162 -17 -202q-26 -54 -103 4q-32 24 -43 37t-16.5 40t-4.5 82t14 277q-124 -3 -413 -27q-28 -3 -43 6q-6 0 -13 7q-16 16 -2 38q2 9 13 35
q249 513 503 887q25 34 53.5 43t39.5 -2q41 -11 41 -135q0 -23 -1.5 -153t-3 -316.5t-2.5 -315.5q24 0 52.5 -1t63.5 -2.5t54 -2.5zM102 170q183 20 390 23q39 577 81 808q-25 -38 -51.5 -80.5t-47.5 -76t-50.5 -85t-45.5 -79t-49 -87.5t-44.5 -80.5t-48 -89t-43.5 -81.5
t-47 -89t-44 -83z" />
    <glyph glyph-name="five" unicode="5" horiz-adv-x="960" 
d="M911 1153q0 22 21 36q24 16 34 -14q5 -14 5 -36q0 -41 -41 -90t-104 -85.5t-137.5 -51t-141.5 15.5q-19 9 -41 20t-36.5 18.5t-32 15.5t-31 12.5t-29 8t-31 3t-31.5 -4.5q-33 -11 -71 -225q-28 -152 6 -164q10 -4 26 2q80 28 160.5 39.5t158.5 2.5t138 -40t96.5 -95.5
t36.5 -155.5q0 -112 -67 -215.5t-173.5 -165.5t-219.5 -62q-106 0 -183 52.5t-114 136.5t-37 188q0 59 36 105.5t105 46.5q52 0 78 -37t17 -77t-44 -50q-42 -12 -67 -35t-25 -53q0 -104 51 -152.5t176 -48.5q112 0 185 98.5t73 233.5q0 184 -85 235.5t-289 -16.5
q-35 -12 -57 -15t-40 5t-25.5 28.5t-9.5 60.5t3.5 96.5t17.5 141.5q32 226 115 262q32 14 59.5 20t60.5 2t51 -8t63.5 -18t66.5 -20q136 -34 173 -39q145 -11 150 88z" />
    <glyph glyph-name="six" unicode="6" horiz-adv-x="960" 
d="M657 1331q70 0 147 -35.5t117 -80.5t15 -70q-13 -10 -20.5 -9t-22 11t-27 25t-35.5 31.5t-47.5 31t-63 24t-81.5 9.5q-83 0 -153 -64.5t-113.5 -168t-67.5 -227t-24 -247.5q0 -285 47 -424t168 -139q76 0 128.5 62.5t74.5 150t22 188.5q0 221 -83 283t-263 -2
q-50 -15 -56 3t45 46q3 1 5 2q66 33 138 47t144 3t129.5 -47.5t93 -114t35.5 -187.5q0 -118 -34.5 -215t-93.5 -161t-137 -99t-167 -35q-181 0 -293 153t-112 451q0 158 39 294.5t101 228t140 157t156 95.5t149 30z" />
    <glyph glyph-name="seven" unicode="7" horiz-adv-x="892" 
d="M852 1184q0 -2 -1 -4.5t-1 -3.5q-6 -40 -86.5 -274t-176.5 -502.5t-102 -286.5q-27 -78 -43.5 -117t-39.5 -70.5t-47.5 -25.5t-55.5 43q-32 38 -34 60.5t26 102.5q67 177 201.5 461t242.5 484q-97 -64 -233.5 -107t-255.5 -43q-72 0 -120 30.5t-65 76t-19 95.5t12.5 92
t35.5 62q52 49 68 28q13 -17 -11 -56q-28 -42 6.5 -95t116.5 -53q104 0 212 9.5t213.5 40t121.5 77.5q3 11 11.5 17t16 -0.5t7.5 -28.5v-12z" />
    <glyph glyph-name="eight" unicode="8" horiz-adv-x="972" 
d="M328 963q0 -47 25 -90t66 -76t93.5 -68.5t107 -66.5t107 -70t93.5 -79t66 -94.5t25 -115.5q0 -105 -36 -181t-101.5 -118.5t-145.5 -62t-179 -19.5q-175 0 -281.5 97.5t-106.5 267.5q0 226 242 311q75 23 68 -1q-5 -17 -52 -56q-3 -3 -22.5 -18.5t-32 -27t-31.5 -33.5
t-31 -43.5t-21 -52t-9 -63.5q0 -131 84 -221t211 -90q126 0 190 76t64 200q0 59 -19 107.5t-51.5 83.5t-74.5 64.5t-88 55t-92.5 51t-88.5 55t-74.5 64.5t-51.5 83.5t-19 107.5q0 89 31.5 156t88 106t127 57.5t154.5 18.5q144 0 220.5 -91.5t76.5 -240.5q0 -87 -60.5 -167
t-125.5 -89q-37 -6 -43 5t26 36q63 52 89 86q45 61 45 131q0 118 -66 190t-176 72q-109 0 -165 -70.5t-56 -176.5z" />
    <glyph glyph-name="nine" unicode="9" horiz-adv-x="985" 
d="M524 1102q180 0 290 -152.5t110 -451.5q0 -121 -20.5 -228.5t-56 -188t-82.5 -147.5t-99.5 -112t-108.5 -76t-108 -45t-99 -14q-63 0 -140 32.5t-119.5 75t-18.5 66.5q9 13 25.5 9.5t29.5 -15.5t37.5 -30t50 -34.5t67 -28.5t87.5 -12q77 0 145 66t112 170t69.5 229.5
t25.5 247.5q0 285 -47 424t-168 139q-58 0 -102 -33t-70 -90.5t-38.5 -127t-12.5 -150.5q0 -203 78 -272t266 -9q48 14 56 -2q9 -16 -38 -43l-12 -6q-69 -35 -144.5 -46.5t-147 4t-129 55t-92 113.5t-34.5 173q0 123 35 221.5t95.5 160.5t139 95t168.5 33z" />
    <glyph glyph-name="colon" unicode=":" horiz-adv-x="552" 
d="M324 795q106 0 106 -95q0 -44 -31.5 -82t-74.5 -38q-42 0 -74.5 38t-32.5 82q0 41 31.5 68t75.5 27zM311 209q107 0 107 -94q0 -46 -32 -83.5t-75 -37.5t-74.5 38t-31.5 83q0 41 30.5 67.5t75.5 26.5z" />
    <glyph glyph-name="semicolon" unicode=";" horiz-adv-x="561" 
d="M332 795q106 0 106 -95q0 -44 -31.5 -82t-74.5 -38q-42 0 -74.5 38t-32.5 82q0 41 31.5 68t75.5 27zM322 254q99 0 90 -164q-7 -98 -59.5 -209.5t-82.5 -120.5q-14 -4 -13 12q0 9 24 87q38 127 -2 168q-10 10 -25 16q-31 12 -46.5 47t-11 71t37 64.5t88.5 28.5z" />
    <glyph glyph-name="less" unicode="&#x3c;" horiz-adv-x="1146" 
d="M829 1014l11 4l43 18l20 6q17 8 27 11l16 6l23 6q20 4 26 4h13q4 0 12 -4q4 0 8 -4q7 -4 10 -12l4 -15v-6v-6q0 -18 -6 -39l-4 -14q0 -3 -4 -11q0 -6 -2 -8q-6 -16 -14 -26q-8 -11 -25 -21q-2 0 -2 -2q-22 -13 -61 -27l-17 -8l-22 -6l-25 -10l-45 -14q-9 -2 -33 -10
t-39 -11l-38 -12l-21 -6l-41 -11q-302 -84 -438 -110l2 -2h2l70 -29l32 -14l56 -23q17 -5 43 -16q59 -25 206 -82l256 -102l25 -11l41 -18q30 -13 37 -17l12 -6q23 -10 39 -26q4 -4 4 -6l4 -7v-6v-4q0 -4 -2 -6q0 -1 -1 -3t-1 -3q-7 -11 -35 -29l-12 -8q-4 0 -8 -4
q-2 0 -4 -2q-2 0 -5 -1t-5 -1q-16 -4 -27 -2h-6q-36 12 -56 20q-4 1 -28 13l-15 6l-198 94q-339 167 -475 250q-37 23 -45 33h-2q-1 1 -3 2t-2 2q-2 2 -2 8v2v6l7 10q5 7 18 17q18 15 51 28l96 39l52 23l249 106l41 17l97 41q9 5 27 11.5t22 8.5l26 12l33 13z" />
    <glyph glyph-name="equal" unicode="=" horiz-adv-x="1204" 
d="M940 733q57 0 84.5 -2t56 -10t20.5 -25t-22 -47q-22 -31 -39 -38t-73 -7q-114 0 -485 29t-378 49q-6 22 21 32.5t74 10.5q28 0 363.5 4t377.5 4zM940 412q57 0 84.5 -2t56 -10.5t20.5 -25.5t-22 -48q-16 -22 -26 -30t-28.5 -11.5t-57.5 -3.5q-110 0 -483 29t-380 48
q-6 22 21 32.5t74 10.5q28 0 363.5 5.5t377.5 5.5z" />
    <glyph glyph-name="greater" unicode="&#x3e;" horiz-adv-x="1146" 
d="M1036 651h2q4 -8 4 -10q2 -5 0 -10q-3 -13 -22 -29l-16 -8q-11 -8 -21 -10l-6 -4q-2 0 -4.5 -1t-3.5 -1l-113 -50l-264 -110l-41 -19l-100 -41l-35 -16l-31 -12l-41 -17q-11 -7 -27 -12q-58 -26 -73 -31q-6 -1 -15 -4l-12 -4l-10 -4q-8 -4 -17 -4q-81 -22 -86 27
q0 1 -1 3t-1 3q0 8 4 28q0 4 5 19q12 47 30 63l4 4q21 15 78 39l17 6q8 4 47 17q33 11 45 14q60 20 256 76q225 60 338 84l16 4h-4l-31 12l-39 17q-9 3 -39.5 15.5t-50.5 19.5l-108 45l-207 81l-152 60l-37 16l-18 6l-6 5l-19 6q-62 25 -94 45q-2 2 -9 7.5t-9 8.5l-4 6
q-4 8 -4 15q0 6 4 10q0 2 2 4q2 4 12 14l10 6q1 1 6 4t7 5q29 16 43 18q9 3 22 0q8 -4 14 -4l19 -6q1 -1 24 -10l9 -5q4 0 8 -4l74 -32q237 -113 452 -228l127 -67q72 -44 86 -56q4 -4 6 -4z" />
    <glyph glyph-name="question" unicode="?" horiz-adv-x="1017" 
d="M528 1507q71 0 137 -23t123.5 -69.5t92 -128t34.5 -188.5q0 -84 -23.5 -149.5t-81.5 -119.5t-92 -77.5t-116 -71.5q-89 -53 -130.5 -83.5t-75 -92.5t-17.5 -139q4 -20 -5.5 -31.5t-22 -5.5t-17.5 30q-14 65 -5.5 121t32.5 94.5t59.5 76.5t74.5 68t78 68.5t70 77.5
t50.5 95t19.5 122q0 174 -59.5 262.5t-155.5 88.5q-246 0 -316 -263q-16 -58 -1.5 -124t55.5 -115q23 -27 10 -50q-13 -22 -41 -8q-14 7 -27 23q-51 60 -67.5 141.5t8.5 175.5q38 139 148.5 217t260.5 78zM358 203q43 0 75 -30t32 -71q0 -42 -32 -72t-75 -30q-44 0 -75 29.5
t-31 72.5q0 41 31 71t75 30z" />
    <glyph glyph-name="at" unicode="@" horiz-adv-x="1425" 
d="M1233 248q25 30 45 22q17 -8 4 -33q-4 -7 -10 -14q-78 -85 -232.5 -148t-357.5 -63q-120 0 -223.5 40.5t-183.5 118.5t-126 202t-47 280v15q2 216 94.5 379t252.5 249t364 86q104 0 194.5 -43t162 -126.5t112.5 -220t41 -310.5q0 -80 -22.5 -148t-58 -110.5t-77 -66
t-80.5 -23.5q-45 0 -86 17t-80.5 64t-58.5 120q-27 -91 -72 -140t-106 -49q-47 0 -84 14t-70 47.5t-51 100t-18 162.5v10q1 75 22 135.5t52.5 97.5t72.5 62t79 35t73 10q62 0 92 -37q10 34 49 51q60 29 75 -5q9 -21 9 -119v-11v-219q0 -162 28 -229.5t89 -67.5q66 0 116 84
t50 223q0 161 -36.5 286.5t-101 202.5t-149 116.5t-184.5 39.5q-141 0 -247 -46.5t-172 -134.5t-98.5 -207.5t-33.5 -270.5v-14q0 -287 119.5 -445t336.5 -158q155 0 308 51.5t225 137.5zM844 774v2q0 199 -107 199q-141 0 -141 -287v-10q0 -167 21 -227t85 -60
q61 0 101.5 110t40.5 273z" />
    <glyph glyph-name="A" unicode="A" horiz-adv-x="1798" 
d="M1921 426q9 60 33 68q18 6 25 -24q5 -23 -1 -58q-67 -412 -286 -412q-46 0 -81.5 7t-75.5 26.5t-73.5 58t-68 97.5t-67 149.5t-62.5 210.5q-107 -1 -283 -8.5t-264 -8.5q-72 -266 -169.5 -399t-250.5 -133q-127 0 -195.5 96.5t-68.5 241.5q0 121 85 203t187 82
q80 0 114 -64q27 -49 6 -92q-16 -32 -52 -33q-39 0 -77.5 -8t-78 -26t-64 -54t-24.5 -86q0 -88 52 -141t136 -53q97 0 188 134t148 375q0 14 6 29l7 27q65 308 117.5 491.5t92.5 259.5t85 101l-70 18q-27 7 -68 4.5t-86.5 -7.5t-91.5 -23.5t-83 -43t-61 -66t-26 -91.5
q-1 -32 34.5 -60t100.5 -45q60 -17 68 -63q8 -41 -28 -67q-50 -38 -126 1q-46 24 -75.5 89.5t-26.5 144.5q2 90 73.5 165.5t188 110.5t238.5 11q72 -14 127.5 -41.5t106.5 -78.5t90.5 -129t74.5 -190.5t65 -265.5q84 -430 156 -610t168 -180q159 0 211 360zM745 645
q72 0 240 -1t258 -1q-8 31 -10 49q-23 111 -50.5 252.5t-40 202.5t-31.5 132t-38 106t-47 59q-49 -6 -119 -214t-162 -585z" />
    <glyph glyph-name="B" unicode="B" horiz-adv-x="1454" 
d="M1124 762q143 -21 220.5 -98.5t78.5 -227.5v-16q-1 -107 -44.5 -188.5t-120.5 -131.5t-178.5 -75t-225.5 -25q-141 0 -270 68q-94 -68 -228 -68q-75 0 -134.5 31.5t-92.5 80t-48 108t-7.5 115t36.5 102.5t76 69q77 37 126 -2q35 -28 26 -69q-9 -45 -68 -60
q-84 -20 -108 -91q-24 -69 22 -134q57 -82 182 -90q11 -1 23 -1q90 0 143.5 68t80 227t28.5 434v560q-84 -22 -152.5 -58t-111.5 -77.5t-64 -85t-14.5 -85.5t41.5 -75q29 -28 57 -32.5t86 9.5q47 11 60 -35q15 -51 -24 -115q-14 -22 -32 -40q-57 -52 -119.5 -46.5
t-95.5 58.5q-60 97 -62.5 198t47 186.5t150 153.5t238.5 103q4 16 12.5 28.5t16.5 19.5t31 24q57 40 80.5 28.5t31.5 -71.5q74 4 113 4q215 0 321.5 -76.5t106.5 -255.5v-14q-3 -236 -234 -332zM1239 406v16q0 151 -84 222t-258 67q-25 -2 -70 -2h-6q-20 -415 -176 -588
q108 -62 223 -62q176 0 272.5 91t98.5 256zM899 1380q-51 0 -76 -2v-610q5 0 17 -1t18 -1q159 0 238 76t80 237v17q-1 68 -14 117t-43 88t-85 59t-135 20z" />
    <glyph glyph-name="C" unicode="C" horiz-adv-x="933" 
d="M1016 436q9 60 33 68q18 6 25 -24q5 -23 -1 -58q-31 -193 -173.5 -307.5t-356.5 -114.5q-74 0 -139.5 21.5t-127 73t-106 130t-71 199.5t-27.5 274v17q1 125 26.5 233t68 184.5t95 136t111.5 94.5t115 53t108 18q77 0 142.5 -27t108.5 -71t68.5 -101t28.5 -115
t-17.5 -116t-64.5 -101q-29 -30 -63.5 -45.5t-75 -9t-74.5 40.5q-57 57 -60 125q-1 54 34 66q13 5 30 1q58 -14 87 -10t55 31q20 20 30.5 47.5t10.5 58t-17 60t-47 53.5t-83.5 38.5t-123.5 14.5q-130 0 -219 -164.5t-92 -482.5v-16q3 -652 319 -652q176 0 297.5 107
t145.5 270z" />
    <glyph glyph-name="D" unicode="D" horiz-adv-x="1409" 
d="M889 1440q120 0 207 -33.5t151.5 -111.5t97 -212.5t33.5 -328.5v-17q-2 -150 -37 -275t-93 -209t-134.5 -142t-159.5 -84.5t-170 -26.5q-139 0 -249 63q-92 -63 -222 -63q-75 0 -134 31.5t-92.5 80t-48 108t-7.5 115t36 102.5t76 69q77 37 126 -2q35 -27 27 -68
q-9 -46 -69 -61q-84 -20 -108 -91q-24 -69 22 -134q57 -82 182 -90q11 -1 23 -1q90 0 143.5 68t80 227t28.5 434v545q-70 -27 -132 -67.5t-101.5 -82.5t-66 -85t-26.5 -76t19 -55q29 -28 57 -32.5t86 9.5q47 11 60 -35q15 -51 -24 -115q-14 -22 -32 -40
q-55 -52 -118.5 -46.5t-96.5 58.5q-39 64 -43 137t25.5 144t83.5 136.5t134.5 119.5t176.5 88q4 31 16 46.5t46 41.5q57 40 81.5 27.5t32.5 -74.5q49 8 113 8zM1194 725v16q0 343 -76 491t-262 148q-51 0 -76 -4q0 -14 1 -46t1 -50v-479q-6 -496 -184 -684q84 -58 219 -58
q183 0 279.5 166.5t97.5 499.5z" />
    <glyph glyph-name="E" unicode="E" horiz-adv-x="944" 
d="M1044 434q8 60 33 69q19 6 27 -25q5 -23 0 -58q-32 -188 -189 -305t-358 -117q-83 0 -164 19.5t-154.5 59.5t-119.5 112t-47 165v17q1 122 73 202t185 119q-212 73 -215 330v14q1 83 34.5 152t85 113t116.5 74.5t127 43.5t120 13q77 0 142 -27t108 -71t68.5 -101
t28.5 -115t-17.5 -116t-63.5 -101q-30 -30 -64.5 -45.5t-75.5 -8.5t-75 42q-58 58 -60 126q-1 53 35 64q13 4 29 0q58 -14 87.5 -10t56.5 31q24 25 34.5 59t1.5 71t-36.5 69t-87.5 52.5t-144 20.5q-113 0 -189 -83t-77 -238v-17q0 -142 52 -222.5t151 -80.5h12q8 0 23.5 1
t23.5 1q61 0 58 -21q-3 -19 -44 -31q-22 -7 -47 -7q-124 0 -198 -72.5t-74 -216.5v-18q0 -135 100.5 -222.5t233.5 -87.5q167 0 299 109t155 268z" />
    <glyph glyph-name="F" unicode="F" horiz-adv-x="1042" 
d="M1501 1794q58 -46 85 -114.5t18 -140t-44 -136.5t-105 -110.5t-161 -55.5q-219 -21 -481 31q8 -39 8 -172v-160q6 -45 43.5 -54.5t177.5 -9.5q28 0 38 -14t-2 -28.5t-38 -14.5q-127 0 -168.5 -9t-50.5 -44q-18 -762 -467 -762q-75 0 -134.5 31.5t-92.5 80t-48 108
t-7.5 115t36.5 102.5t76 69q77 37 126 -2q35 -27 27 -68q-9 -46 -69 -61q-84 -20 -108 -91q-24 -69 22 -134q57 -82 182 -90q11 -1 23 -1q88 0 141 64.5t80.5 215.5t30.5 409q-4 40 -18.5 49.5t-53.5 9.5q-28 0 -38.5 14.5t1 28.5t37.5 14q40 0 54.5 11.5t17.5 54.5v205
q0 77 9 101t48 54q-134 23 -204 23q-104 0 -180.5 -17.5t-118 -46t-63.5 -65.5t-23 -75.5t8.5 -75.5t26.5 -66.5t36 -48.5q23 -23 47.5 -26.5t75.5 7.5q41 10 51 -31q12 -46 -25 -102q-11 -16 -24 -29q-29 -29 -63.5 -34.5t-64 7.5t-54.5 38q-45 45 -67 116.5t-18.5 151
t36.5 159.5t88.5 144t146.5 104.5t203 40.5q86 0 173.5 -20t158.5 -47.5t141 -54t147 -40.5t150 -6q70 7 120 27.5t74.5 47t34.5 57.5t4.5 61t-20.5 56t-37 44q-30 24 -59 25.5t-86 -19.5q-44 -16 -63 28q-20 49 11 116q12 24 29 45q30 38 69.5 49t75.5 -0.5t68 -38.5z" />
    <glyph glyph-name="G" unicode="G" horiz-adv-x="976" 
d="M664 1018q58 -13 87 -9t56 31q24 24 34.5 58.5t1.5 71.5t-36.5 69t-87.5 53t-144 21q-62 0 -116 -39.5t-97.5 -116t-69 -203t-26.5 -288.5v-17q0 -222 30 -353.5t85 -184t143 -52.5q52 0 93 20t66.5 54.5t40.5 73.5t21 84v88q0 56 5.5 82.5t16.5 41t42 38.5q79 59 103 2
q18 -42 18 -201l-2 -109v2v1q-2 -179 -35.5 -319.5t-87 -229.5t-127.5 -146.5t-152.5 -80.5t-167.5 -23q-75 0 -135 31.5t-93 80t-48 108t-8 115t36 102.5t76 69q77 37 126 -2q35 -27 27 -68q-9 -46 -69 -61q-83 -20 -108 -91q-24 -69 22 -135q58 -83 183 -91q12 -1 24 -1
q77 0 136 33.5t106 107t74.5 200t33.5 302.5q-87 -137 -249 -137q-68 0 -123 15t-110 57.5t-92 111.5t-60.5 184.5t-24.5 268.5v14q2 149 38 274t91.5 205.5t126 136.5t139 80.5t131.5 24.5q77 0 142 -27t108 -70.5t68.5 -100.5t28.5 -115t-17.5 -116t-63.5 -101
q-30 -30 -64 -45.5t-74 -9.5t-74 40q-57 57 -60 126q-2 54 34 65q12 4 28 0z" />
    <glyph glyph-name="H" unicode="H" horiz-adv-x="1507" 
d="M1507 1800q98 0 166 -103q76 -116 69 -287q-10 -223 -161 -406q-123 -150 -326 -244v-254q0 -265 26 -352.5t116 -87.5q157 0 209 360q9 60 34 68q18 6 25 -24q5 -23 0 -58q-69 -412 -289 -412q-52 0 -94 12t-83 45.5t-68 88.5t-43.5 146.5t-16.5 213.5v184
q-121 -37 -295 -59q-12 -144 -47 -256.5t-82.5 -184t-110 -118t-127 -65.5t-135.5 -19q-75 0 -134.5 31.5t-92.5 80t-47.5 108t-7.5 115.5t35.5 102.5t74.5 68.5q76 36 125 -2q37 -28 28 -69q-9 -46 -69 -61q-83 -20 -108 -91q-23 -69 23 -134q58 -83 182 -91q12 -1 24 -1
q82 0 140.5 52.5t98 182t50.5 336.5q-208 -9 -485 19q-25 3 -33 19.5t3 30.5t32 11q256 -26 487 -16v625q0 56 5.5 82.5t16.5 40.5t42 38q78 59 103 3q17 -41 17 -201v-482q0 -16 -1 -47t-1 -45q156 17 289 60v180q0 145 15 268t40 210.5t60.5 156t74 111.5t82.5 70.5
t83.5 38.5t80.5 11zM1255 934v-109q272 135 368 374q69 172 30 341q-29 123 -97 173q-30 22 -61 22q-54 0 -95.5 -38.5t-75 -127t-51.5 -248.5t-18 -387z" />
    <glyph glyph-name="I" unicode="I" horiz-adv-x="888" 
d="M748 1479q78 58 102 3q18 -41 18 -202v-479q-2 -180 -32 -321t-78 -230t-114.5 -146.5t-136.5 -80.5t-149 -23q-75 0 -135 31.5t-93 80t-48 108t-8 115t36 102.5t76 69q77 37 126 -2q35 -27 27 -68q-9 -46 -69 -61q-84 -20 -108 -91q-24 -69 22 -134q57 -82 182 -90
q11 -1 23 -1q69 0 120.5 37.5t91.5 120.5t61 226.5t22 344.5v510q-62 -24 -197 -24q-76 0 -129 -14t-78 -37.5t-35 -52.5t-2.5 -60t23.5 -59.5t39 -51.5q27 -26 56.5 -30t87.5 10q47 11 60 -35q15 -51 -24 -115q-13 -22 -32 -41q-34 -34 -75 -40t-75.5 9t-64.5 44
q-46 46 -72.5 104.5t-31 116.5t14 114t56.5 99t102.5 69.5t147.5 26.5q207 0 233 66q0 6 4 18v2q0 2 2 4q1 3 2.5 6.5t3 6t4.5 6t4 5t5 5.5l5.5 5.5t6.5 5.5t6.5 5t8 6.5t8.5 6.5z" />
    <glyph glyph-name="J" unicode="J" horiz-adv-x="999" 
d="M1047 713q73 18 102 12t5 -29.5t-87 -42.5q-105 -32 -215 -82v-67q0 -213 -16.5 -384.5t-43.5 -289.5t-68.5 -205t-84 -136.5t-98 -79t-103.5 -39t-106 -9.5q-191 0 -253 142q-61 138 17 355q86 237 292 451q128 132 282 230v764q-61 -27 -197 -27q-90 0 -148 -20
t-78 -50.5t-19.5 -68t19 -71.5t46.5 -62q26 -27 54.5 -31.5t86.5 8.5q47 11 60 -35q15 -51 -24 -115q-14 -22 -32 -40q-34 -34 -75 -40.5t-75.5 9t-64.5 45.5q-46 46 -72.5 104.5t-31 116.5t14 114t56.5 99t103 69.5t147 26.5q208 0 234 64q0 6 4 18v2q0 2 2 4q10 28 53 58
q78 59 103 3q18 -40 18 -202q0 -46 -1 -289.5t-1 -353.5q92 44 195 74zM342 -573q64 0 111.5 22t85 73.5t61.5 129.5t40 197t22.5 267.5t7.5 348.5q-255 -172 -403 -422q-123 -209 -124 -384q0 -154 97 -208q43 -24 102 -24z" />
    <glyph glyph-name="K" unicode="K" horiz-adv-x="1593" 
d="M1735 428q9 60 34 68q18 5 25 -26q5 -22 0 -56q-69 -414 -289 -414q-64 0 -116.5 18t-96 57.5t-68 111t-24.5 169.5v115q0 24 0.5 60.5t0.5 54t-0.5 44.5t-3 39t-7.5 29.5t-12.5 24.5t-19 15.5t-27 11t-35.5 2.5q-69 0 -137 -67.5t-123 -211.5q-23 -104 -61 -186
t-83.5 -135.5t-102 -88t-113.5 -49t-120 -14.5q-75 0 -134.5 31.5t-93 80t-48 108t-7 115.5t36.5 103.5t76 69.5q77 37 126 -2q36 -29 27 -70q-9 -45 -69 -59q-83 -20 -108 -91q-24 -69 22 -135q57 -83 182 -91q11 -1 23 -1q68 0 120.5 37.5t92 121t60.5 226.5t22 344v512
q-70 -26 -197 -26q-76 0 -129 -14t-78 -37.5t-35 -52t-2.5 -59.5t23.5 -59t39 -51q27 -27 56.5 -30.5t87.5 10.5q46 10 60 -35q15 -51 -23 -115q-13 -23 -33 -43q-34 -34 -75 -40t-75.5 9.5t-64.5 45.5q-46 46 -72.5 104.5t-31 116.5t14 114t56.5 99t102.5 69.5t147.5 26.5
q207 0 233 64q0 6 4 18v2q0 4 2 4q9 27 54 58q78 60 102 4q18 -40 18 -203v-373q91 272 193 415.5t199 143.5q268 0 268 -249q0 -67 -36.5 -114.5t-107.5 -47.5q-80 0 -130 48q-41 39 -21 72q7 11 20 19q51 31 68.5 54t17.5 61q0 92 -100 92q-80 0 -183 -193.5t-194 -533.5
v-12q104 153 254 153q64 0 110.5 -16t83.5 -53.5t55.5 -106t18.5 -168.5v-115q0 -159 27.5 -224.5t114.5 -65.5q157 0 209 362z" />
    <glyph glyph-name="L" unicode="L" horiz-adv-x="1124" 
d="M1206 430q7 59 32 67q18 7 26 -23q6 -23 0 -58q-67 -412 -367 -412q-55 0 -102.5 13t-91 41.5t-69 50t-67.5 61.5q-125 -170 -325 -170q-95 0 -142 74q-44 69 -19 151q28 92 130 132q60 24 139 24q70 0 148 -29q14 112 14 291q0 300 49 498q-161 48 -338 162
q-20 14 -18.5 32.5t17 24.5t34.5 -4q166 -110 319 -158q99 326 359 326q93 0 126 -75q32 -71 -9 -159q-46 -101 -159 -146q-80 -33 -179 -28q-17 -169 -17 -473q0 -212 -67 -367q20 -16 69 -57.5t74 -60t67 -36.5t83 -18q138 0 197 69t87 257zM922 1458q-90 0 -136.5 -65
t-68.5 -224q167 -13 256 75q59 58 53 126q-5 61 -61 81q-19 7 -43 7zM264 63q84 0 135 45t78 140q-72 55 -145 55q-147 0 -198 -72q-36 -50 -5 -102q32 -57 114 -65q10 -1 21 -1z" />
    <glyph glyph-name="M" unicode="M" horiz-adv-x="2236" 
d="M2316 426q8 59 33 68q20 7 27 -25q5 -22 0 -57q-67 -412 -289 -412q-52 0 -94 12t-83 45.5t-68 88.5t-43.5 146.5t-16.5 213.5v448v278q-4 112 -36 142q-22 21 -67 21q-30 0 -59 -12t-63 -46.5t-61.5 -89t-50.5 -149t-34 -217.5v-725q2 -54 -8.5 -88.5t-31.5 -48t-49 -18
t-60 0.5q-14 1 -22.5 3.5t-13.5 9t-6.5 14t-1 24t2 32.5t3 45t1.5 58q0 55 2 382.5t2 396.5q0 265 -1 291q-6 104 -40 132q-22 17 -64 17q-29 0 -56 -10.5t-59.5 -40t-58.5 -77t-49.5 -129t-36.5 -187.5v-29q0 -44 1 -79.5t1 -53.5q0 -180 -29.5 -321t-77.5 -230
t-115.5 -146.5t-138 -80.5t-149.5 -23q-75 0 -134.5 31.5t-92.5 80t-47.5 108t-7.5 115.5t35.5 102.5t74.5 68.5q77 37 126 -2q35 -27 27 -68q-9 -46 -69 -61q-84 -20 -108 -91q-23 -69 23 -134q58 -83 183 -90q11 -1 23 -1q69 0 120.5 37.5t91.5 120.5t60.5 226.5
t20.5 344.5q0 19 -1 75t-1 83q0 307 -116 426q-76 77 -172 46q-86 -27 -139 -126q-48 -87 -48 -198q0 -178 62.5 -261.5t158.5 -41.5q72 30 95 93q19 52 -8 80q-27 29 -81 -1q-58 -33 -96 0q-32 28 -20 73q16 55 90 78q73 24 128 -42q53 -62 50 -151q-3 -108 -91 -163
q-17 -11 -36 -19q-140 -59 -233 37.5t-93 323.5q0 113 44 202t111.5 136t151.5 56.5t161.5 -21.5t144 -114t96.5 -206q26 93 64 159t80.5 99.5t81 47.5t79.5 14q53 0 92 -13.5t73.5 -46.5t57 -95.5t33.5 -154.5q27 86 64.5 147.5t78.5 92.5t78.5 44t75.5 13q65 0 111 -20.5
t83 -74t55.5 -156t18.5 -255.5v-448q0 -266 25.5 -353t115.5 -87q159 0 209 360z" />
    <glyph glyph-name="N" unicode="N" horiz-adv-x="1634" 
d="M1716 426q8 59 32 68q19 7 26 -23q6 -23 0 -59q-67 -412 -289 -412q-52 0 -94 12t-82.5 45.5t-67 88.5t-43 146.5t-16.5 213.5v455q0 267 -1 292q-6 108 -41 136q-22 18 -63 18q-27 0 -53.5 -11t-56.5 -36.5t-56.5 -74t-49 -115.5t-38 -169.5t-20.5 -228.5v-543
q0 -160 -16 -200q-23 -55 -98 -2q-2 2 -5 4q-31 24 -42.5 39t-16 40.5t-4.5 82.5v753q0 305 -116 424q-75 78 -172 49q-87 -27 -141 -125q-49 -88 -49 -200q0 -178 63 -261.5t159 -41.5q72 30 95 93q19 52 -8 80q-27 29 -81 -1q-58 -33 -97 0q-32 28 -19 73q15 55 89 78
q73 24 128 -42q53 -62 50 -151q-3 -108 -91 -163q-17 -11 -36 -19q-140 -59 -231.5 37t-91.5 324q0 87 26 161t69.5 123t101 78.5t119 35t124 -15.5t116 -65.5t96 -121.5t62.5 -177q21 82 51 146t61 102.5t67.5 63.5t68.5 34t64 9q51 0 89.5 -12.5t73 -46.5t56.5 -91
t34.5 -147.5t12.5 -214.5v-455q0 -91 2 -152t8 -113.5t15.5 -83t25.5 -52.5t37.5 -30.5t52.5 -8.5q159 0 211 360z" />
    <glyph glyph-name="O" unicode="O" horiz-adv-x="1067" 
d="M535 1489q498 0 501 -715v-51q-2 -165 -38.5 -295.5t-91 -208.5t-126.5 -129.5t-138 -70.5t-132 -19q-65 0 -122.5 21.5t-110.5 73t-91 130t-61.5 199.5t-24.5 274v54q0 18 2 28q-102 82 -102 269t149 313.5t386 126.5zM852 713v39q0 351 -81.5 514.5t-268.5 163.5
t-313 -99.5t-126 -257.5q0 -125 48 -196q22 164 88 279t149 161q57 33 112.5 40t61.5 -28q0 -12 -14 -18.5t-40.5 -12t-39.5 -10.5q-73 -35 -105.5 -151.5t-37.5 -323.5q61 15 114.5 65t79.5 119q23 60 72 61q41 2 63 -37q30 -53 -14 -124t-132.5 -119.5t-182.5 -52.5v-14
q0 -334 64.5 -493t193.5 -159q50 0 93.5 19t83.5 66t68.5 120t45.5 187.5t18 261.5z" />
    <glyph glyph-name="P" unicode="P" horiz-adv-x="1359" 
d="M932 1440q217 0 321.5 -102t106.5 -312v-16q-1 -98 -33 -178.5t-84.5 -134.5t-122 -90.5t-143 -53t-150.5 -16.5h-20q-75 -537 -449 -537q-75 0 -135 31.5t-93 80t-48 108t-8 115t36 102.5t76 69q77 37 126 -2q35 -27 27 -68q-9 -46 -69 -61q-84 -20 -108 -91
q-24 -69 22 -134q57 -82 182 -90q11 -1 23 -1q90 0 143.5 68t80.5 227.5t28 433.5v560q-83 -22 -151.5 -58t-111.5 -77.5t-64.5 -85.5t-14.5 -86.5t41 -75.5q29 -26 56.5 -30t86.5 9q47 11 60 -35q15 -51 -24 -115q-14 -22 -32 -40q-55 -52 -118.5 -46.5t-96.5 58.5
q-60 98 -62.5 198.5t47 186t150.5 153.5t240 103q4 21 16 35t42 37q57 40 81.5 28.5t32.5 -71.5q70 4 113 4zM1176 995v17q0 85 -10.5 145.5t-39 114t-85.5 81t-142 27.5q-51 0 -76 -2q2 -29 2 -98v-479q-3 -112 -12 -203q14 -2 47 -2q313 0 316 399z" />
    <glyph glyph-name="Q" unicode="Q" horiz-adv-x="1155" 
d="M809 -342q-50 0 -92 17t-70 41.5t-53.5 66t-40.5 75t-33 83.5q-111 -27 -211 -27q-158 0 -204 85q-36 64 9 142t138 109q42 14 88 14q49 0 89 -17.5t70 -51.5t50.5 -69t42.5 -85q72 36 131 91.5t108.5 136t77 193t27.5 247.5q0 336 -81.5 491.5t-268.5 155.5
q-121 0 -225.5 -70.5t-166 -189.5t-61.5 -256q0 -103 23 -178.5t59.5 -111.5t83 -42.5t92 16.5t89 77t71.5 130q22 59 70 61q41 2 63 -36q31 -53 -14 -125q-34 -54 -84 -98.5t-105.5 -70t-113.5 -35t-110.5 10t-94 62t-66 123.5t-24.5 192q0 155 68.5 292t195 222.5
t280.5 85.5q502 0 502 -684q0 -129 -27.5 -239.5t-73.5 -192t-110.5 -147.5t-134 -108.5t-149.5 -72.5q23 -52 40.5 -83t44.5 -66t61 -51.5t77 -16.5q104 0 169 41t120 131q30 50 55 50q20 0 15 -30q-3 -24 -23 -55q-70 -112 -168 -172.5t-205 -60.5zM328 -23q82 0 170 27
q-36 95 -74 145t-102 50q-47 0 -86.5 -23t-54 -55.5t-11 -65t45 -55.5t112.5 -23z" />
    <glyph glyph-name="R" unicode="R" horiz-adv-x="1542" 
d="M1686 426q7 60 32 68q18 6 25 -24q5 -23 0 -58q-16 -98 -42 -172.5t-56 -119t-66 -72.5t-68.5 -38t-68.5 -10q-64 0 -116.5 18t-96 57.5t-68 111t-24.5 169.5q0 134 -40.5 192.5t-148.5 57.5q-55 -8 -121 -8h-14q-59 -598 -457 -598q-75 0 -134.5 31.5t-92.5 80
t-47.5 108t-7.5 115.5t35.5 102.5t74.5 68.5q78 36 127 -2q36 -28 27 -69q-9 -45 -68 -60q-84 -20 -108 -91q-24 -69 22 -134q57 -82 182 -90q11 -1 23 -1q90 0 143.5 68t80 227t28.5 434v562q-84 -23 -152.5 -59t-111.5 -78t-64 -85.5t-14.5 -85.5t41.5 -75
q28 -28 56.5 -32.5t86.5 9.5q45 10 58 -34q16 -51 -22 -115q-14 -22 -32 -41q-57 -52 -120 -46.5t-95 58.5q-61 97 -63.5 198t47 186.5t150.5 153.5t239 103q4 16 12.5 28.5t16.5 19.5t31 24q56 40 80 28.5t32 -71.5q74 4 113 4q217 0 321.5 -102t106.5 -312v-16
q-3 -252 -209 -351q86 -23 129 -94t43 -209q0 -158 27.5 -224t113.5 -66q26 0 49.5 8.5t50.5 33t49 63t42.5 104t32.5 151.5zM823 1378v-577q0 -52 -4 -142q10 -2 39 -2q165 0 240.5 74t75.5 266v17q0 67 -6 117t-23 99t-47 80.5t-80 50.5t-119 19q-51 0 -76 -2z" />
    <glyph glyph-name="S" unicode="S" 
d="M784 1096q103 23 103 75q0 111 -85 174.5t-212 63.5q-60 0 -116.5 -16t-104 -46.5t-76.5 -82t-29 -115.5q0 -45 40 -87.5t103.5 -80.5t141 -79.5t154.5 -94t140.5 -114t103.5 -150t40 -191.5q0 -91 -46.5 -161.5t-121 -110.5t-156 -60t-163.5 -20q-114 0 -211 49
t-157 142t-60 210q0 62 52 118t140 56q67 0 101 -40.5t23 -85.5t-56 -56q-115 -26 -115 -88q0 -97 86 -170.5t217 -73.5q65 0 132.5 18t124.5 50t93.5 82.5t36.5 110.5q0 53 -40 100t-103.5 86t-140.5 79.5t-154.5 90.5t-141 108.5t-103.5 144t-40 187.5q0 85 39.5 154.5
t102.5 111.5t136.5 64t147.5 22q81 0 152 -23.5t127.5 -68.5t89.5 -118.5t33 -165.5q0 -54 -46.5 -106t-123.5 -52q-57 0 -86.5 36t-20 75t48.5 49z" />
    <glyph glyph-name="T" unicode="T" horiz-adv-x="1073" 
d="M877 801q-8 -801 -467 -801q-75 0 -135 31.5t-93 80t-48 108t-8 115t36 102.5t76 69q77 37 126 -2q35 -27 27 -68q-9 -46 -69 -61q-84 -20 -108 -91q-24 -69 22 -135q58 -83 184 -89q10 -1 20 -1q91 0 144.5 68t80 227t27.5 434v347q0 77 9.5 101t50.5 54
q-138 23 -205 23q-104 0 -180.5 -16t-118 -42.5t-64 -61t-23.5 -69.5t8 -70t25.5 -62.5t34.5 -45.5q26 -26 55 -30t87 10q47 11 60 -35q15 -51 -24 -115q-13 -22 -32 -41q-34 -34 -75 -40t-75.5 9t-64.5 44q-48 48 -70 121t-16.5 152t40.5 158.5t93 142.5t151 102.5
t205 39.5q86 0 173.5 -20.5t158.5 -48t141 -54t146.5 -40.5t150.5 -5q70 7 120 27.5t74.5 47t34.5 57.5t4.5 61t-20.5 56t-37 44q-30 24 -58.5 24.5t-84.5 -18.5q-46 -17 -64 28q-20 50 12 117q11 24 27 44q30 38 69.5 48.5t75 -1t68.5 -37.5q49 -39 75.5 -94.5t30 -113.5
t-16 -117.5t-57.5 -107.5t-100 -82t-138 -42q-68 -7 -134 -7.5t-128.5 5.5t-110.5 13.5t-109 19.5q11 -56 11 -172v-295z" />
    <glyph glyph-name="U" unicode="U" horiz-adv-x="1593" 
d="M1737 426q9 60 33 68q17 6 24 -24q5 -23 0 -58q-67 -412 -289 -412q-55 0 -98.5 14t-84 48.5t-69 101t-41.5 162.5q-26 -94 -64 -161t-80 -101t-80.5 -49t-78.5 -15q-65 0 -111 21.5t-83 76t-55.5 157.5t-18.5 257q0 46 -1 168t-1 240q0 123 -9 207.5t-26 138t-47.5 83
t-66 40t-89.5 10.5q-95 0 -176.5 -95.5t-81.5 -236.5q0 -174 73.5 -251t174.5 -34q70 29 92 98q17 57 -11 90q-29 34 -83 3q-59 -34 -97 1q-32 28 -20 73q15 56 90 79q81 25 140 -55t41.5 -188t-123.5 -152q-54 -23 -105 -24t-95 22t-77 67t-52 115t-19 162q0 92 32 169.5
t84 127t116.5 76.5t131.5 27q173 0 280 -143t107 -423q0 -17 1 -155t1 -240v-281q4 -114 37 -144q21 -21 66 -21q33 0 64.5 14.5t67.5 57t64 109t49.5 180.5t28.5 261v580q0 162 18 202q25 54 103 -4q31 -24 42 -37.5t16 -39.5t5 -82q0 -22 -1 -319t-1 -482
q0 -265 26.5 -352.5t115.5 -87.5q159 0 211 360z" />
    <glyph glyph-name="V" unicode="V" horiz-adv-x="1302" 
d="M1239 1440q44 -31 54 -55.5t10 -104.5q0 -320 -36 -567.5t-101 -401.5t-151 -232.5t-190 -78.5q-114 0 -190 185t-76 513q0 57 -1 110t-1 112q0 123 -9 207.5t-26 138t-47.5 83t-66 40t-89.5 10.5q-95 0 -176.5 -95.5t-81.5 -236.5q0 -174 73 -251t173 -34q71 29 93 98
q18 57 -10 90q-28 34 -83 3q-59 -34 -97 1q-31 28 -19 73q16 56 90 79q80 25 138.5 -55t41.5 -188t-123 -152q-54 -23 -105 -24t-95 22t-77 67t-52 115t-19 162q0 92 32 169.5t84 127t116.5 76.5t131.5 27q173 0 279 -143t106 -423q0 -17 1 -62t1 -147q0 -133 1.5 -224
t6 -166.5t12 -120t19.5 -75t27.5 -42t38.5 -11.5q34 0 69.5 37t72.5 126t66 220t47.5 338.5t18.5 460.5q0 161 16 201q23 57 96 3q4 -2 7 -5z" />
    <glyph glyph-name="W" unicode="W" horiz-adv-x="1939" 
d="M1876 1440q43 -31 53 -55t10 -105q0 -215 -16.5 -398t-47 -322.5t-73 -246.5t-96 -175.5t-114.5 -103t-130 -34.5q-70 0 -128.5 74t-94.5 213q-62 -142 -147 -214.5t-183 -72.5q-114 0 -191 185t-77 513q0 57 -1 110t-1 112q0 123 -9 207.5t-26 138t-47.5 83t-66 40
t-89.5 10.5q-95 0 -176.5 -95.5t-81.5 -236.5q0 -174 73.5 -251t174.5 -34q70 29 92 98q17 57 -11 90q-29 34 -83 3q-59 -34 -97 1q-32 28 -20 73q15 56 90 79q80 25 139.5 -55t43 -188t-122.5 -152q-55 -23 -106.5 -24t-95.5 22t-77 67t-52 115t-19 162q0 92 32 169.5
t84 127t116.5 76.5t131.5 27q173 0 280 -143t107 -423q0 -17 1 -62t1 -147q0 -134 1.5 -224.5t5.5 -166.5t11 -120t19 -74.5t27.5 -42t38.5 -11.5q34 0 69.5 37t72.5 126t66 220t47.5 338.5t18.5 460.5q0 164 19 204q24 54 102 -5q43 -32 53 -56.5t10 -103.5q0 -66 -4 -188
q-4 -242 -4 -394q0 -133 1.5 -224t6 -166.5t12 -120t19.5 -75t27.5 -42t38.5 -11.5q34 0 69.5 37t72.5 126t66 220t47.5 338.5t18.5 460.5q0 161 16 201q23 57 96 3q4 -2 7 -5z" />
    <glyph glyph-name="X" unicode="X" horiz-adv-x="1470" 
d="M1552 426q8 59 32 68q19 7 26 -23q6 -23 0 -59q-67 -412 -289 -412q-51 0 -114.5 30.5t-132 89.5t-137.5 160t-120 228q-21 -65 -39 -114t-42.5 -104.5t-49 -95.5t-57 -78.5t-68 -62.5t-80 -38.5t-94.5 -14.5q-153 0 -234 103.5t-81 271.5q0 103 67 178.5t162 75.5
q80 0 115 -63q27 -49 7 -92q-16 -34 -54 -34q-74 0 -136.5 -40t-62.5 -103q0 -112 64 -171.5t174 -59.5q72 0 142.5 76.5t124 193t93.5 260.5q4 16 8 22l-20 68q-31 118 -56.5 207.5t-54.5 180.5t-54.5 155t-52 115t-53 76.5t-51.5 25.5q-34 0 -69.5 -29t-60 -81t-33.5 -114
t12 -137t75 -141q39 -49 27 -72q-10 -20 -41 3q-17 13 -35 36q-61 78 -86 165.5t-13.5 163t43.5 137.5t86 98t114 36q294 0 446 -573q21 76 40 136.5t44.5 130.5t52 121t58 95t68 67t75.5 23q71 0 132 -53t80.5 -140t-30.5 -198q-31 -63 -93.5 -96t-135.5 2q-34 16 -51 44
t-15.5 56.5t12.5 53.5t33.5 39t47.5 10q50 -9 76 3.5t42 45.5q30 65 -6.5 116.5t-109.5 51.5q-127 0 -283 -649q51 -193 128 -364t151.5 -269t125.5 -98q159 0 211 360z" />
    <glyph glyph-name="Y" unicode="Y" horiz-adv-x="1417" 
d="M1266 1403q78 58 102 3q18 -41 18 -202l-4 -960q-2 -180 -34.5 -321t-85.5 -230t-127.5 -146.5t-153 -80.5t-168.5 -23q-75 0 -134 31.5t-92.5 80t-48 108t-7.5 115t36 102.5t76 69q77 37 126 -2q35 -27 27 -68q-9 -46 -69 -61q-83 -20 -108 -91q-24 -69 22 -135
q57 -83 182 -91q11 -1 23 -1q82 0 144 37.5t110 121t73.5 227t26.5 345.5v50q-51 -152 -128 -216.5t-157 -64.5q-52 0 -91 12.5t-75 46.5t-58.5 90.5t-36 147.5t-13.5 215q0 45 -1 136t-1 210q0 153 -12.5 247.5t-44 145.5t-72.5 68t-109 18q-95 0 -176.5 -95t-81.5 -236
q0 -175 73.5 -252t174.5 -35q71 31 92 99q17 57 -11 89q-29 32 -83 2q-58 -32 -97 1q-32 29 -20 74q15 56 90 79q81 25 140 -54.5t41.5 -187t-123.5 -151.5q-54 -23 -105 -24t-95 21.5t-77 66t-52 114.5t-19 162q0 92 32 169.5t84 126.5t116.5 76t131.5 27q173 0 279 -141.5
t106 -421.5q0 -17 1 -124.5t1 -209.5v-73q-1 -237 15.5 -306.5t95.5 -69.5q32 0 62.5 14.5t65.5 56.5t62.5 107.5t48 177t27.5 255.5q2 248 2 567q0 56 5.5 82.5t16.5 41t42 38.5z" />
    <glyph glyph-name="Z" unicode="Z" horiz-adv-x="1079" 
d="M1167 375q6 58 29 64q16 5 23 -23q6 -22 2 -56q-15 -113 -51.5 -198.5t-89.5 -136.5t-121 -79.5t-145 -27.5t-163 19q-31 8 -79 22t-86 25t-82.5 22.5t-77 15t-60.5 1t-42.5 -18t-14.5 -43.5q0 -21 -23 -36q-27 -17 -38 14q-5 13 -5 34v56q0 89 25.5 170.5t69.5 148
t102 129.5t123 120t131.5 112.5t130.5 114.5t116.5 119.5t92 133.5t55.5 150q-121 -81 -373 -35q-26 5 -71 13l-67.5 12t-60 9.5t-57.5 6.5t-49.5 1t-46 -5t-37.5 -13.5t-33.5 -22.5t-24 -33.5t-19.5 -45.5q-23 -73 1 -148t90.5 -126.5t157.5 -51.5q46 0 66 -15t0.5 -29.5
t-68.5 -14.5q-183 0 -270.5 123t-34.5 299q98 329 563 246q31 -6 75 -16t73.5 -17t64.5 -13t57.5 -6t43 6t30 22t9.5 42q0 21 21 35q27 17 39 -12q5 -14 5 -37v-62q0 -109 -39 -208.5t-103 -178t-143 -152.5t-164 -146t-160 -143.5t-137 -160.5t-89 -182q38 34 90 44.5
t117.5 -2t120 -30t130.5 -47.5q105 -42 181 -52.5t138 12.5t99.5 93t52.5 189z" />
    <glyph glyph-name="bracketleft" unicode="[" horiz-adv-x="978" 
d="M715 1573q57 0 84.5 -2t56 -10.5t20.5 -25.5t-22 -48q-24 -30 -40.5 -36.5t-72.5 -6.5q-68 0 -224.5 18.5t-235.5 38.5q10 -42 10 -90q0 -42 -1 -891.5t-1 -910.5q0 -121 -6 -162q18 1 95 3.5t143.5 4.5t101.5 2q57 0 84.5 -2t56 -10.5t20.5 -25.5t-22 -48
q-24 -30 -40.5 -36.5t-72.5 -6.5q-60 0 -191.5 16.5t-211.5 34.5q-29 -7 -78 31q-32 25 -43 38t-16.5 40t-4.5 82q12 431 54 1198.5t71 777.5q2 0 6 1t5 1q24 15 84 15q28 0 187.5 5t203.5 5z" />
    <glyph glyph-name="backslash" unicode="\" horiz-adv-x="851" 
d="M133 1745q22 21 42.5 24t37.5 -12t32 -38t29 -62.5t24.5 -77t23.5 -88.5q17 -67 215 -775t202 -724q12 -48 8 -79.5t-30 -23.5q-25 7 -289.5 756.5t-298.5 882.5q-16 60 -22 90.5t-1.5 67.5t27.5 59z" />
    <glyph glyph-name="bracketright" unicode="]" horiz-adv-x="978" 
d="M811 1489q45 -32 55.5 -56.5t7.5 -103.5q-12 -430 -53 -1197.5t-69 -776.5q-4 -2 -13 -2q-23 -17 -82 -17q-28 0 -188.5 -4t-202.5 -4q-57 0 -84.5 2t-56.5 10t-21 25t21 47q24 31 41.5 38t73.5 7q65 0 222 -19t236 -38q-8 33 -8 90q0 42 1 890.5t1 909.5q0 123 6 162
q-34 0 -167 -4t-173 -4q-57 0 -84.5 2t-56 10t-20.5 25t22 47q23 31 40 38t73 7q62 0 193.5 -17t209.5 -36q27 7 76 -31z" />
    <glyph glyph-name="asciicircum" unicode="^" horiz-adv-x="1550" 
d="M825 1194q-19 19 -34 31q-121 -104 -389.5 -313.5t-286.5 -200.5q-38 21 39 94l540 508q58 52 89.5 73t50.5 13q22 -5 77 -60q88 -86 316 -358t219 -293q-16 -39 -96 33z" />
    <glyph glyph-name="underscore" unicode="_" horiz-adv-x="2088" 
d="M1825 -129q57 0 84.5 -2t56 -10.5t20.5 -25.5t-22 -48q-22 -30 -39 -36.5t-74 -6.5q-169 0 -955 29t-792 49q-7 21 20 31t73 10q28 0 807 5t821 5z" />
    <glyph glyph-name="grave" unicode="`" horiz-adv-x="686" 
d="M666 1192q28 -18 17 -33q-15 -18 -59 0q-8 3 -16 8q-205 109 -346 236q-29 27 -44 55t-10 51.5t32 34.5q17 6 23 7.5t20 3t24.5 -4.5t20.5 -18q8 -9 41.5 -49t46.5 -54.5t43.5 -49t50 -53.5t47.5 -46t54.5 -48t54.5 -40z" />
    <glyph glyph-name="a" unicode="a" 
d="M1174 426q9 60 34 68q18 6 25 -24q5 -23 0 -58q-69 -412 -289 -412q-51 0 -92 12t-80 40.5t-68 83.5t-45 134q-42 -131 -110.5 -200.5t-159.5 -69.5q-58 0 -102 11t-85.5 42.5t-68.5 85t-43.5 142t-17.5 208.5v17q1 116 31 207.5t75 147t104 92.5t113.5 51t108.5 14
q91 0 141 -47q4 22 15.5 35t41.5 36q79 59 104 1q17 -41 17 -199v-338q0 -265 26 -352.5t116 -87.5q157 0 209 360zM637 651v2q0 308 -164 308q-216 0 -219 -443v-16q2 -260 34 -351.5t132 -91.5q94 0 155.5 169.5t61.5 422.5z" />
    <glyph glyph-name="b" unicode="b" horiz-adv-x="874" 
d="M553 1018q57 0 105.5 -26.5t89 -82.5t63.5 -156t23 -235q0 -118 -31.5 -212t-79.5 -150t-110.5 -92.5t-119.5 -50t-112 -13.5q-57 0 -100 12t-82 45.5t-63.5 89t-39 146t-14.5 213.5v729q0 80 10.5 104.5t54.5 57.5q77 59 102 2q17 -42 17 -201v-471q26 85 61.5 145
t75 90.5t76 43t74.5 12.5zM414 59q105 0 170 109.5t65 349.5q0 245 -20.5 340.5t-93.5 95.5q-34 0 -66 -15t-67.5 -59.5t-62.5 -116t-46.5 -195.5t-22.5 -287q8 -126 38 -174t106 -48z" />
    <glyph glyph-name="c" unicode="c" horiz-adv-x="681" 
d="M809 426q9 60 34 68q18 6 25 -24q5 -23 0 -58q-16 -97 -52.5 -173t-80 -119.5t-95.5 -72t-94.5 -38t-82.5 -9.5q-59 0 -112.5 12t-110 46t-97 88t-66.5 146.5t-26 213.5q0 252 97.5 382t314.5 130q75 0 121 -32.5t56 -81.5t0 -101.5t-44 -98.5t-80 -67q-77 -37 -124 0
q-34 26 -25 65q11 44 71 58q48 12 81.5 45t40.5 67.5t-25.5 61.5t-104.5 27q-107 0 -150.5 -107.5t-43.5 -347.5q0 -440 245 -440q33 0 68 8.5t77.5 33t77.5 63t64 104.5t41 151z" />
    <glyph glyph-name="d" unicode="d" 
d="M1176 426q9 60 33 68q18 6 25 -24q5 -23 -1 -58q-67 -412 -287 -412q-51 0 -91.5 12t-79.5 40.5t-68 83.5t-45 134q-42 -130 -112 -200t-161 -70q-57 0 -100.5 11t-85.5 42.5t-69 85t-44 142t-18 208.5v15q2 116 32 208.5t75 148.5t104.5 92.5t114 50.5t108.5 14
q89 0 135 -43v262q0 56 5.5 82t16.5 40t42 38q78 58 102 3q18 -41 18 -202v-692q0 -110 3 -178.5t11 -124t24.5 -83t40.5 -41t61 -13.5q159 0 211 360zM639 651v2q0 308 -166 308q-214 0 -217 -443v-16q0 -258 32.5 -350.5t133.5 -92.5q94 0 154.5 168.5t62.5 423.5z" />
    <glyph glyph-name="e" unicode="e" horiz-adv-x="768" 
d="M901 426q9 60 33 68q18 6 25 -24q5 -23 -1 -58q-16 -97 -59 -173t-95.5 -119.5t-116 -72t-115.5 -38t-99 -9.5q-66 0 -122 15t-106.5 52t-86 93.5t-56 144.5t-20.5 201q0 252 98 382t314 130q107 0 171 -62q78 -76 29 -196q-74 -185 -424 -398q14 -157 66 -226.5
t158 -69.5q38 0 81 8.5t97.5 33t99 63t81 104.5t48.5 151zM461 961q-107 0 -151 -107.5t-44 -347.5q0 -61 2 -90q205 130 269 296q43 113 6 191q-27 58 -82 58z" />
    <glyph glyph-name="f" unicode="f" horiz-adv-x="448" 
d="M493 1430q75 0 121.5 -32.5t57 -82t0.5 -102.5t-44 -99t-80 -67q-78 -37 -125 0q-34 27 -23 67q11 42 70 57q47 11 80.5 44t40 67t-26 61t-104.5 27q-106 0 -150.5 -108t-44.5 -347v-36q1 -22 2 -32.5t7.5 -21.5t12 -14t24.5 -6.5t37 -3.5h56q28 0 38 -14.5t-2 -29
t-38 -14.5q-37 0 -55 -0.5t-36.5 -3.5t-24.5 -6.5t-12 -14t-7 -21t-2 -31.5v-490q-1 -140 -14.5 -254t-36 -196.5t-56.5 -144.5t-72 -100.5t-86.5 -62t-96.5 -32.5t-105 -9q-83 0 -146 31.5t-96 80t-45.5 108t-2 115.5t41.5 102.5t78 68.5q77 37 126 -2q35 -28 26 -69
q-9 -45 -68 -60q-91 -21 -118 -93q-26 -68 21 -133q59 -82 190 -90q13 -1 26 -1q62 0 106.5 37.5t77.5 122t50 226t18 345.5v502q-3 46 -17 56.5t-55 10.5q-28 0 -38.5 14.5t1 29t37.5 14.5q42 0 55.5 11t14.5 58v53q0 253 98 384t314 131z" />
    <glyph glyph-name="g" unicode="g" horiz-adv-x="876" 
d="M705 1042q78 58 102 4q18 -42 18 -202v-668q-8 -799 -467 -799q-75 0 -135 31.5t-93 80t-48 108t-8 115t36 102.5t76 69q77 37 126 -2q35 -27 27 -68q-9 -46 -69 -61q-83 -20 -108 -91q-24 -69 22 -135q57 -82 182 -90q11 -1 23 -1q91 0 144.5 68.5t80 228t27.5 434.5v43
q-42 -101 -105.5 -155t-144.5 -54q-57 0 -100.5 11t-85.5 42.5t-69 85t-44 142t-18 208.5v17q2 116 32 207.5t75 147t104.5 92.5t114 51t108.5 14q92 0 139 -47q3 16 11.5 28.5t15.5 18.5t31 24zM424 59q91 0 151.5 161t65.5 403v61q-8 277 -166 277q-214 0 -217 -443v-16
q0 -257 33 -350t133 -93z" />
    <glyph glyph-name="h" unicode="h" horiz-adv-x="1048" 
d="M1192 426q9 60 33 68q17 6 24 -24q5 -23 0 -58q-67 -412 -288 -412q-52 0 -94 12t-82.5 45.5t-67.5 88.5t-43.5 146.5t-16.5 213.5v6q0 269 -1 286q-5 108 -38 137q-21 19 -65 19q-35 0 -69 -16t-73 -65t-68 -127.5t-48 -216t-19 -316.5q0 -8 -2 -10q2 -23 2 -47
q2 -54 -9 -88.5t-31.5 -48t-49 -18t-61.5 0.5q-14 1 -22.5 4t-13 9.5t-6 14t-0.5 23.5t2.5 32.5t3 45t1.5 57.5v1047q0 80 10 104.5t54 57.5q77 58 101 4q17 -47 17 -203v-481q27 88 65 150t79.5 93.5t79.5 44.5t77 13q51 0 89.5 -12t73.5 -45t56.5 -88.5t34.5 -146
t13 -214.5v-6q0 -91 2 -152t8 -113.5t15.5 -83t25.5 -52.5t37.5 -30.5t52.5 -8.5q159 0 211 360z" />
    <glyph glyph-name="i" unicode="i" horiz-adv-x="473" 
d="M616 426q8 59 32 68q19 7 26 -23q6 -23 0 -59q-67 -412 -289 -412q-52 0 -94 12t-82.5 45.5t-67 88.5t-43 146.5t-16.5 213.5v242q0 80 9.5 104t53.5 55q77 58 101 6q18 -47 18 -204v-203q0 -264 26.5 -352t115.5 -88q158 0 210 360zM170 1042q-43 0 -75 31t-32 72
t32 71.5t75 30.5q44 0 75 -30t31 -72t-31 -72.5t-75 -30.5z" />
    <glyph glyph-name="j" unicode="j" horiz-adv-x="348" 
d="M145 909q79 59 103 3q18 -40 18 -201v-561q-10 -801 -467 -801q-75 0 -135 31.5t-93 80t-48 108t-8 115t36 102.5t76 69q76 36 126 -1q36 -28 27 -68q-9 -46 -69 -60q-83 -20 -108 -91q-24 -69 22 -135q57 -83 182 -91q11 -1 23 -1q91 0 144.5 68t80 227t27.5 434v613
q0 79 10 103t53 56zM170 1247q44 0 75 -30t31 -72t-31 -72.5t-75 -30.5q-42 0 -73 31t-31 72t30.5 71.5t73.5 30.5z" />
    <glyph glyph-name="k" unicode="k" horiz-adv-x="1048" 
d="M1192 426q9 60 33 68q18 5 25 -24q5 -23 -1 -58q-67 -412 -286 -412q-64 0 -116.5 18t-96.5 57.5t-68.5 111t-24.5 169.5v6q0 24 0.5 60.5t0.5 54t-0.5 44.5t-3 39t-7.5 29.5t-12.5 24.5t-19 15.5t-27 11t-35.5 2.5q-40 0 -87 -37.5t-89 -102t-70 -164t-28 -210.5
q0 -3 -3 -6q-1 -44 -13.5 -71.5t-32.5 -38t-46.5 -14t-56.5 0.5q-14 1 -22.5 4t-13.5 9.5t-6.5 14.5t-1 24t2 32t3 45t1.5 57v1049q0 79 10.5 103.5t53.5 56.5q78 60 102 4q18 -40 18 -203v-621q30 99 78 188t101.5 151.5t109 103.5t103.5 53q102 26 145 -29q30 -38 12 -83
q-19 -47 -73 -50q-29 -1 -64 13q-58 25 -118 -0.5t-108.5 -86t-87 -145t-59.5 -178.5q55 92 126.5 143.5t133.5 51.5q132 0 200.5 -76t68.5 -269v-6q0 -161 27 -227t114 -66q156 0 209 363z" />
    <glyph glyph-name="l" unicode="l" horiz-adv-x="473" 
d="M616 426q8 59 33 68q19 7 26 -23q5 -23 -1 -59q-67 -412 -287 -412q-52 0 -94 12t-83 45.5t-68 88.5t-43.5 146.5t-16.5 213.5v731q0 79 10 103.5t53 56.5q79 60 103 3q18 -41 18 -202v-692q0 -91 2 -152t7.5 -113.5t15 -83t25.5 -52.5t37.5 -30.5t52.5 -8.5
q158 0 210 360z" />
    <glyph glyph-name="m" unicode="m" horiz-adv-x="1603" 
d="M1747 426q9 60 33 68q17 6 24 -24q5 -23 0 -58q-67 -412 -288 -412q-52 0 -93.5 12t-82 45.5t-68 88.5t-44 146.5t-16.5 213.5v6q0 269 -1 286q-5 108 -38 137q-21 19 -65 19q-31 0 -60.5 -12t-63.5 -47.5t-61.5 -91t-50 -152t-32.5 -221.5q0 -17 -1 -50.5t-1 -66.5
q0 -32 1 -93t1 -64q2 -54 -9 -88.5t-31.5 -48t-49 -18t-60.5 0.5q-14 1 -22.5 3.5t-13.5 9t-6.5 14t-1 24t2 32.5t3 45t1.5 58q0 55 2 155t2 169q0 44 1 121q1 195 -10 245q-13 61 -59 72q-15 4 -36 4q-35 0 -69 -16t-73 -65t-68 -127.5t-48 -216t-19 -316.5v-57
q2 -54 -8.5 -88.5t-31.5 -48t-49 -18t-60 0.5q-14 1 -22.5 3.5t-13.5 9t-6.5 14t-1 24t2 32.5t3 45t1.5 58v695q0 78 10 101.5t54 57.5q78 58 102 4q18 -42 18 -202v-127q26 88 63.5 150t79 93.5t79.5 44.5t77 13q42 0 74.5 -7.5t63 -27.5t53 -53t39.5 -86t26 -125
q22 70 51.5 124.5t59.5 86.5t64.5 52.5t63.5 28t60 7.5q52 0 90.5 -12t73 -45t56.5 -88.5t34.5 -146t12.5 -214.5v-6q0 -91 2 -152t8 -113.5t15.5 -83t25.5 -52.5t37.5 -30.5t52.5 -8.5q159 0 211 360z" />
    <glyph glyph-name="n" unicode="n" horiz-adv-x="1050" 
d="M1192 426q9 60 34 68q18 6 25 -24q5 -23 0 -58q-69 -412 -288 -412q-52 0 -94 12t-83 45.5t-68.5 88.5t-44 146.5t-16.5 213.5v6q0 45 1 123q1 194 -10 243q-13 60 -57 72q-15 4 -36 4q-35 0 -69 -16t-73 -65t-67.5 -127.5t-47.5 -216t-19 -316.5q0 -7 -3 -10
q0 -14 1.5 -30t1.5 -17q1 -54 -10 -88.5t-32 -48t-49.5 -18t-60.5 0.5q-14 1 -22.5 3.5t-13.5 9t-6.5 14t-1 24t2 32.5t3 45t1.5 58v695q0 78 10 101.5t54 57.5q78 58 102 4q18 -42 18 -202v-127q27 88 64.5 150t79 93.5t79 44.5t76.5 13q52 0 90.5 -12t73.5 -45t57 -88.5
t35 -146t13 -214.5v-6q0 -266 25.5 -353t115.5 -87q159 0 209 360z" />
    <glyph glyph-name="o" unicode="o" horiz-adv-x="931" 
d="M1077 735q28 21 49 7q19 -13 1 -35q-4 -6 -11 -11q-137 -109 -293 -161v-21q-2 -116 -32 -208.5t-75 -148.5t-104.5 -92.5t-114 -50.5t-108.5 -14q-57 0 -101 11t-86 42.5t-69 85t-43.5 142t-17.5 208.5v17q1 109 28 197t67.5 143.5t95.5 94t106.5 55.5t105.5 22
q31 2 36 -20q5 -21 -17 -32q-9 -5 -21 -5q-214 0 -217 -443v-16q0 -257 33 -350t133 -93q214 0 217 443h-21q-132 0 -196 57.5t-64 153.5t51.5 153.5t149.5 57.5h8q24 0 38 -0.5t42.5 -7t47 -18t42.5 -36.5t39.5 -59.5t28 -89.5t16.5 -125q125 45 256 147zM420 721
q0 -74 57 -120t160 -46h2q-1 101 -8.5 165t-21.5 94t-28.5 40t-37.5 12q-61 0 -92 -34t-31 -111z" />
    <glyph glyph-name="p" unicode="p" horiz-adv-x="892" 
d="M567 1018q53 0 90.5 -9.5t74.5 -39.5t59 -82.5t36 -142t15 -214.5v-16q-2 -116 -32 -208.5t-75 -148.5t-104.5 -92.5t-114 -50.5t-108.5 -14q-88 0 -134 43v-266q0 -32 1 -93.5t1 -64.5q2 -55 -9 -89.5t-31.5 -47.5t-49 -17.5t-61.5 0.5q-14 1 -22.5 3.5t-13 9t-6 14.5
t-0.5 24t2.5 32.5t3 45.5t1.5 58v1231q0 57 5 82t16 39t43 38q78 58 102 4q18 -42 18 -202v-78q51 120 127.5 186t165.5 66zM657 500v16q0 286 -18 365.5t-104 79.5q-47 0 -93.5 -46t-83.5 -124t-60 -189.5t-24 -232.5v-4q0 -306 166 -306q214 0 217 441z" />
    <glyph glyph-name="q" unicode="q" horiz-adv-x="911" 
d="M823 -223q0 -126 4 -158q1 -55 -10 -89.5t-31.5 -47.5t-49 -17.5t-60.5 0.5q-14 1 -22.5 3.5t-13.5 9t-6.5 14.5t-1 24t2 32.5t3 45.5t1.5 58v559q-42 -102 -105.5 -156.5t-144.5 -54.5q-57 0 -100.5 11t-85.5 42.5t-69 85t-44 142t-18 208.5v17q2 116 32 207.5t75 147
t104.5 92.5t114 51t108.5 14q92 0 139 -47q4 16 12.5 28.5t15 18t29.5 24.5q79 59 103 3q18 -40 18 -201v-1067zM639 651v2q0 308 -166 308q-214 0 -217 -443v-16q0 -257 33 -350t133 -93q62 0 111.5 78t77 213t28.5 301z" />
    <glyph glyph-name="r" unicode="r" horiz-adv-x="854" 
d="M623 1075q268 0 268 -250q0 -67 -36 -114t-107 -47q-81 0 -131 47q-41 38 -20 72q6 10 19 18q51 32 67.5 55.5t16.5 61.5q0 92 -98 92q-28 0 -60.5 -16t-70 -50.5t-71.5 -97.5t-62.5 -147t-45 -210t-16.5 -276v-57q2 -54 -8.5 -88.5t-31.5 -48t-49 -18t-60 0.5
q-14 1 -22.5 3.5t-13.5 9t-6.5 14t-1 24t2 32.5t3 45t1.5 58v695q0 78 10 101.5t54 57.5q78 58 102 4q18 -42 18 -202v-152q31 104 76.5 182.5t94.5 120t93.5 61t84.5 19.5z" />
    <glyph glyph-name="s" unicode="s" horiz-adv-x="792" 
d="M254 1116q-23 -23 -24 -44.5t16.5 -40t48 -40.5t70 -43.5t84 -51.5t89 -62.5t85 -78t71.5 -96.5t49.5 -120t18.5 -146q0 -102 -36 -180.5t-95.5 -123t-128 -67t-142.5 -22.5q-145 0 -237 102.5t-92 257.5q0 70 43 128.5t123 58.5q38 0 65.5 -17.5t38.5 -44t11.5 -54
t-14 -50t-38.5 -29.5q-48 -13 -66 -36t-18 -60q0 -71 52 -130.5t151 -59.5q123 0 221 85t98 214q0 52 -30.5 100t-80 86.5t-108.5 77.5t-118.5 82.5t-109 91.5t-80 115t-30.5 143q0 55 20 95.5t42 49.5q25 13 51.5 5t30 -32t-30.5 -63z" />
    <glyph glyph-name="t" unicode="t" horiz-adv-x="534" 
d="M679 426q9 60 33 68q17 6 24 -24q5 -23 0 -58q-16 -98 -44 -173t-60.5 -119.5t-71.5 -72t-73 -37.5t-70 -10q-334 0 -334 506v440q-1 58 -15 71t-57 13q-28 0 -38.5 14t1 28.5t37.5 14.5q43 0 57 15t15 74v61q0 81 10 105t53 55q77 59 101 5q18 -44 18 -204v-35
q6 -49 30 -58t148 -9q28 0 38.5 -14.5t-1 -29t-37.5 -14.5q-54 0 -79.5 -1t-48.5 -4t-30.5 -11.5t-12 -19.5t-7.5 -33v-463q0 -170 18.5 -266.5t54.5 -135t99 -38.5q33 0 65.5 15.5t68 52t64.5 112t44 180.5z" />
    <glyph glyph-name="u" unicode="u" horiz-adv-x="1042" 
d="M1184 426q9 60 34 68q18 6 25 -24q5 -23 0 -58q-67 -412 -289 -412q-51 0 -91.5 12t-79.5 40.5t-68 82.5t-45 133q-42 -130 -111 -199t-160 -69q-58 0 -102 11t-85.5 42.5t-68.5 85t-43.5 142t-17.5 208.5v394q0 80 9.5 103t53.5 56q79 59 103 3q18 -40 18 -201v-342
q0 -257 32.5 -350t131.5 -93q87 0 147 141.5t72 370.5v312q0 78 10 101.5t54 57.5q79 59 103 3q18 -40 18 -201v-338q0 -266 25.5 -353t115.5 -87q159 0 209 360z" />
    <glyph glyph-name="v" unicode="v" horiz-adv-x="819" 
d="M969 735q17 18 34.5 15.5t19 -18t-16.5 -36.5q-38 -38 -115.5 -78.5t-159.5 -52.5q-38 -244 -133 -404.5t-203 -160.5q-146 0 -234 162t-89 444v277q0 56 5 82t16 39.5t42 37.5q79 59 103 3q18 -40 18 -201v-226q0 -102 3 -174t13.5 -147t28.5 -121t50 -75t77 -29
q65 0 125 140.5t88 348.5q-156 14 -225 138q-54 99 -31 214q20 104 90 146q33 20 72 20q90 0 146.5 -60t56.5 -198q0 -81 -11 -196q66 12 134.5 47.5t95.5 62.5zM547 1020q-57 0 -91 -69q-37 -77 -13 -166q29 -108 136 -148q32 -12 70 -16q10 110 10 200q0 103 -26 151
t-86 48z" />
    <glyph glyph-name="w" unicode="w" horiz-adv-x="1308" 
d="M1458 735q11 11 22 14.5t19 -0.5t12 -11t0.5 -18.5t-14.5 -23.5q-43 -43 -130.5 -86.5t-178.5 -48.5q-32 -245 -114.5 -403t-188.5 -158q-87 0 -155.5 61t-111.5 175q-42 -111 -99.5 -173.5t-123.5 -62.5q-146 0 -234 162t-89 444v277q0 56 5 82t16 39.5t42 37.5
q79 59 103 3q18 -40 18 -201v-226q0 -102 3 -175t13.5 -150.5t28.5 -125t50 -78t77 -30.5q46 0 88 76t74 207q-27 117 -27 264v277q0 57 5 82t16 39t43 38q77 58 101 6q17 -38 17 -193v-11v-226q0 -72 2 -126t6.5 -115.5t12 -105.5t20.5 -86t30.5 -68t43.5 -42t58 -16
q66 0 120 143.5t78 360.5q-151 19 -219 144q-55 100 -33 213q19 103 89 142q31 17 67 17q184 0 184 -258q0 -95 -10 -200q73 4 153.5 43.5t110.5 70.5zM1122 625q8 84 8 196q0 104 -25 151.5t-85 47.5q-57 0 -87 -68q-34 -76 -8 -165q32 -108 139 -147q27 -10 58 -15z" />
    <glyph glyph-name="x" unicode="x" horiz-adv-x="1202" 
d="M1346 426q9 60 33 68q17 6 24 -24q5 -23 0 -58q-67 -412 -287 -412q-48 0 -102.5 17.5t-115.5 54.5t-123 104.5t-113 157.5q-21 -59 -41 -104.5t-48.5 -90.5t-60.5 -74t-75.5 -47t-94.5 -18q-120 0 -191 87.5t-71 229.5q0 115 72 175q-6 6 -9 14q-53 112 -65.5 218
t12 181.5t80 121.5t131.5 46q47 0 82.5 -7t68.5 -25.5t59.5 -44.5t57 -71t58 -97t65.5 -130q26 84 53 146.5t64 117t85 83t105 28.5q70 0 122 -53t63 -140t-39 -198q-30 -63 -94.5 -96t-137.5 2q-55 27 -63.5 79.5t21 91.5t71.5 32q50 -9 76.5 3.5t40.5 45.5q34 66 13 118
t-91 52q-140 0 -244 -406q3 -9 11 -24.5t10 -20.5q99 -214 203 -353.5t174 -139.5q159 0 211 360zM360 66q71 0 138 101.5t118 256.5q-9 15 -26 59q-18 46 -50 128q-96 249 -140.5 324t-116.5 75q-34 0 -65 -24t-51.5 -69.5t-27.5 -103.5t8 -134t54 -153q0 -1 1 -3t1 -3
q32 8 55 8q62 0 93.5 -43t21.5 -91t-51 -60q-48 -13 -66 -36t-18 -60q0 -42 3.5 -68.5t15 -52.5t37 -38.5t66.5 -12.5z" />
    <glyph glyph-name="y" unicode="y" horiz-adv-x="884" 
d="M715 1042q77 58 101 6q18 -47 18 -204v-694q-8 -801 -467 -801q-75 0 -134.5 31.5t-92.5 80t-48 108t-7.5 115t36.5 102.5t76 69q76 36 126 -1q36 -28 27 -68q-9 -46 -69 -60q-83 -20 -108 -91q-25 -69 21 -135q57 -83 182 -91q11 -1 23 -1q90 0 143.5 68t80 227
t28.5 434v76q-89 -213 -252 -213q-57 0 -101 11t-86 42.5t-69 85t-43.5 142t-17.5 208.5v394q0 56 5 82t16 39.5t42 37.5q79 59 103 3q18 -40 18 -201v-342q0 -257 33 -350t133 -93q86 0 145.5 141.5t73.5 370.5v312q0 57 5 82t16 39t43 38z" />
    <glyph glyph-name="z" unicode="z" horiz-adv-x="1005" 
d="M1149 453q6 56 28 64q16 6 23 -23q6 -22 2 -56q-13 -96 -43 -172t-72.5 -126t-95 -83.5t-112.5 -46.5t-121.5 -12t-126.5 16q-65 16 -123.5 24.5t-124.5 9t-105.5 -25t-39.5 -75.5q0 -22 -24 -36q-28 -16 -39 14q-5 13 -5 34q0 17 3 36.5t5.5 29.5t10 37.5t8.5 31.5
q37 177 139 291q-133 20 -189 125t-14 244q90 297 490 225q27 -5 61 -14t59.5 -16t52.5 -14t46 -7.5t35 5t24 21.5t8 43q0 22 23 36q26 17 38 -11q5 -14 5 -37q0 -86 -35 -133q-21 -75 -59.5 -133.5t-86.5 -97t-102 -72t-110 -66.5t-107.5 -70.5t-97.5 -94.5t-76 -128
q66 39 174.5 39t202.5 -36q74 -30 135 -42t119 -4t101 41t73.5 99.5t42.5 165.5zM188 715q-17 -57 1 -120t73 -109t133 -46q48 39 118.5 81.5t121.5 71.5t107 79t92 112q-92 -21 -265 9q-52 10 -81 15.5t-71.5 11t-66.5 4.5t-54.5 -6t-48.5 -18t-34 -34t-25 -51z" />
    <glyph glyph-name="braceleft" unicode="{" horiz-adv-x="1089" 
d="M944 -614q43 0 43 -21q0 -19 -31 -31q-20 -8 -45 -8q-103 0 -180.5 26t-139.5 86.5t-94 169.5t-32 265v33q-1 130 -14.5 220.5t-45 158t-87.5 99.5t-138 32q-29 0 -54 15t-22 28q-2 10 9 17t34 7q160 0 226.5 128t68.5 401v22q1 118 28.5 211.5t73.5 154t110.5 100.5
t136 56.5t153.5 16.5q45 0 42 -20q-2 -18 -36 -32q-19 -8 -39 -8q-85 0 -139 -25t-86.5 -83.5t-45 -142t-13.5 -213.5v-33q0 -246 -79 -386.5t-222 -185.5q145 -52 232.5 -191.5t90.5 -361.5v-24q0 -264 66 -372.5t229 -108.5z" />
    <glyph glyph-name="bar" unicode="|" horiz-adv-x="391" 
d="M223 1808q33 -25 44 -38.5t16.5 -40.5t3.5 -82q-11 -426 -53 -1196t-70 -779q-32 -10 -47 28.5t-15 106.5v1803q0 161 18 202q25 54 103 -4z" />
    <glyph glyph-name="braceright" unicode="}" horiz-adv-x="1091" 
d="M911 483q29 0 53.5 -15t22.5 -28q2 -10 -9 -17t-34 -7q-160 0 -227.5 -128.5t-67.5 -400.5v-22q-1 -118 -28.5 -211.5t-73.5 -154t-110.5 -100.5t-136 -56.5t-153.5 -16.5q-46 0 -43 20q2 18 35 32q21 8 41 8q84 0 138.5 25t87 83.5t45.5 142.5t14 213v33q0 477 299 572
q-144 52 -231.5 191.5t-90.5 361.5v24q0 264 -66 372.5t-229 108.5q-43 0 -43 21q0 19 31 32q19 7 43 7q104 0 182 -26t140 -86.5t94.5 -169.5t32.5 -265v-31q1 -104 9 -181t27 -142t51 -105t81 -62t116 -22z" />
    <glyph glyph-name="asciitilde" unicode="~" horiz-adv-x="1636" 
d="M1524 932q22 -47 -3 -48q-22 -2 -49 28q-10 11 -16 24q-39 84 -135.5 113t-216.5 8t-250 -82l-29 -14q-170 -81 -313 -74.5t-244.5 71t-152.5 172.5q-22 47 -7 76q12 21 31 1q8 -8 15 -23q61 -127 222 -142.5t365 82.5q19 9 21 11q165 71 318.5 59.5t273 -83.5
t170.5 -179z" />
    <glyph glyph-name="exclamdown" unicode="&#xa1;" horiz-adv-x="417" 
d="M203 911q49 16 72.5 -44.5t23.5 -168.5v-675q0 -162 -19 -203q-25 -53 -102 6q-43 32 -53 56.5t-10 103.5q0 74 4 206t13 298.5t28 289t43 131.5zM209 1063q-43 0 -75 29.5t-32 70.5q0 42 32 72.5t75 30.5q44 0 75 -30t31 -73q0 -41 -31 -70.5t-75 -29.5z" />
    <glyph glyph-name="cent" unicode="&#xa2;" horiz-adv-x="800" 
d="M461 1313q32 -24 43.5 -38.5t16.5 -41t3 -82.5l-4 -141q52 -14 81.5 -51t32 -83.5t-10.5 -94t-44.5 -87t-72.5 -57.5q-1 0 -2 -1t-2 -1q-20 -388 -35 -569h4q33 0 68 8.5t77.5 33t77.5 63t64 104.5t41 151q9 60 34 68q18 6 25 -24q5 -23 0 -58q-16 -94 -51 -168.5
t-76.5 -118.5t-91.5 -73t-92.5 -40t-83.5 -12q-24 -304 -45 -313q-32 -10 -47 28.5t-15 106.5q0 1 -1 65.5t-1 120.5q-64 13 -116.5 43.5t-98.5 86.5t-72 150t-26 218q0 216 71 342.5t228 159.5v106q0 162 19 203q25 54 102 -4zM225 506q0 -317 127 -406q-1 139 -5 443
t-5 399q-63 -34 -90 -139.5t-27 -296.5zM510 805q36 34 39 71t-33 62z" />
    <glyph glyph-name="sterling" unicode="&#xa3;" horiz-adv-x="1249" 
d="M1186 422q9 60 33 68q17 6 24 -24q5 -23 0 -58q-67 -412 -366 -412q-55 0 -102.5 13t-91 41.5t-69 50t-67.5 61.5q-125 -170 -324 -170q-95 0 -143 74q-45 69 -19 151q28 92 129 132q61 24 140 24q74 0 147 -27q14 97 17 252q-322 15 -328 33t15.5 25.5t60.5 7.5
q8 0 43.5 1.5t96 4t112.5 4.5q3 280 47 461q-163 45 -336 161q-21 14 -20 32t17 24.5t34 -2.5q174 -113 319 -160q54 177 145 251.5t213 74.5q93 0 126 -75q32 -71 -9 -159q-46 -101 -159 -146q-80 -33 -179 -28q-13 -139 -16 -426q200 8 209 8q47 0 69.5 -1.5t46 -8
t16.5 -20.5t-18 -39q-20 -25 -34 -31t-58 -6q-9 0 -231 8q-6 -179 -68 -322q23 -18 70.5 -58t73 -59t67.5 -37t82 -18q139 0 198 68.5t87 255.5zM901 1452q-89 0 -136 -66.5t-67 -224.5q165 -13 254 74q59 59 53 128q-5 61 -60 82q-20 7 -44 7zM246 55q83 0 134 45.5
t77 141.5q-74 53 -146 53q-147 0 -198 -72q-35 -50 -4 -102q33 -57 116 -65q10 -1 21 -1z" />
    <glyph glyph-name="currency" unicode="&#xa4;" horiz-adv-x="1308" 
d="M1196 1315q25 -14 -25 -64l-174 -184q66 -127 66 -319q0 -174 -86 -314q6 -4 22 -20q42 -42 126.5 -153.5t78.5 -123.5q-13 -27 -63 23q-10 10 -89 84t-100 96l-26 27q-117 -127 -267 -127h-2q-161 0 -262 98l-6 -6q-43 -43 -153.5 -126.5t-122.5 -76.5q-28 11 22 61
q160 170 180 191l27 25q-82 132 -82 348q0 143 59 264l-12 12q-44 44 -127 153.5t-76 123.5q14 25 64 -25q13 -13 50 -48t81.5 -77t56.5 -53l9 -10q58 78 136 122t163 44h2q181 0 284 -121q62 55 148.5 118.5t97.5 57.5zM653 299q126 0 177 102.5t51 339.5q0 243 -45.5 348
t-163.5 105h-2q-126 0 -177 -102t-51 -338q0 -243 45 -349t162 -106h4z" />
    <glyph glyph-name="yen" unicode="&#xa5;" horiz-adv-x="1824" 
d="M846 590l-6 -41l-9 -76q200 8 209 8q47 0 69.5 -1.5t46 -8.5t17 -20.5t-17.5 -38.5q-20 -25 -34 -31t-58 -6q-12 0 -238 8q-11 -147 -14 -162l-8 -45q-7 -54 -19 -115q-12 -62 -20 -67q-31 -8 -47 29q-55 66 -29 337q0 19 -2 27q-360 20 -364 35q-6 18 15 25.5t60 7.5
q15 0 285 12l-6 131q-349 16 -354 33q-6 18 15 25.5t60 7.5q13 0 275 12v41q0 57 -1 109.5t-1 111.5q0 123 -9 207.5t-26 138t-47.5 83t-66 40t-89.5 10.5q-95 0 -176.5 -95.5t-81.5 -236.5q0 -174 73 -250.5t173 -33.5q72 30 93 98q18 57 -10 89q-28 34 -83 3
q-59 -34 -97 1q-32 29 -19 73q15 56 89 78q80 26 139 -53.5t42 -187.5t-123 -152q-54 -23 -105.5 -24t-95.5 22t-77 67t-52 115t-19 162q0 92 32 169t84.5 126.5t117 76.5t131.5 27q151 0 254.5 -120t126.5 -345q39 86 87 155t97.5 117t108 83.5t113.5 56.5t120.5 34
t121.5 17t122 4q73 0 98 -24q19 -19 -18 -31q-33 -11 -99 -11q-130 0 -243 -41t-211 -127.5t-171 -232t-112 -342.5q129 6 178 6q47 0 69.5 -1.5t46 -8t17 -20.5t-17.5 -39q-20 -25 -34 -31t-58 -6q-61 0 -217 6z" />
    <glyph glyph-name="brokenbar" unicode="&#xa6;" horiz-adv-x="391" 
d="M223 1808q33 -25 44 -38.5t16.5 -40.5t3.5 -82q-7 -267 -48 -501t-75 -245q-32 -10 -47 28.5t-15 106.5v574q0 161 18 202q25 54 103 -4zM223 580q32 -24 43.5 -38t17 -41.5t3.5 -82.5q-7 -267 -48 -501t-75 -245q-32 -10 -47 28.5t-15 106.5v574q0 162 19 203
q25 54 102 -4z" />
    <glyph glyph-name="section" unicode="&#xa7;" horiz-adv-x="1193" 
d="M776 1518q106 0 185 -59.5t110 -152.5t10 -192q-12 -57 -57 -94t-113 -23q-51 12 -68.5 53t-0.5 78t53 39q96 7 109 68q21 89 -40.5 148t-187.5 59q-48 0 -91 -8.5t-82 -29.5t-67.5 -52t-45.5 -79t-17 -108q0 -70 63.5 -141t230.5 -213q39 -33 60 -51
q79 -68 127.5 -135.5t64 -130t11.5 -121t-32 -115t-63.5 -104.5t-84.5 -97q-36 -36 -68 -31q-23 3 -15 25q4 12 17 25q62 62 92 119t30.5 123t-48 140t-145.5 158q-21 18 -84 69.5t-90.5 75.5t-79 71t-77 79t-55.5 75t-42.5 83t-12.5 80q0 95 46 169t121 116t161 63t176 21z
M481 213q23 -19 74 -62t78 -65.5t72 -63.5t70 -68t56.5 -66t48 -70.5t28.5 -69t12 -72.5q0 -95 -46 -168t-121 -114.5t-161 -62.5t-176 -21q-106 0 -184.5 59t-109 151.5t-9.5 190.5q12 57 57 95t111 22q51 -11 68.5 -52t0.5 -78.5t-53 -39.5q-44 -3 -73.5 -20t-35.5 -46
q-19 -89 42.5 -148.5t187.5 -59.5q60 0 111.5 14.5t95.5 45.5t69 87t25 131q0 77 -96 177q-55 58 -232 208l-1 1l-1 1l-1 1l-1 1h-1l-1 1l-1 1l-1 1l-1 1l-1 1v1h-1l-1 1l-1 1l-1 1l-1 1l-1 1h-1l-1 1l-1 1l-1 1l-1 1l-1 1l-2 1q-79 68 -127.5 135.5t-64 130t-11.5 120.5
t32 114.5t63.5 104.5t84.5 97q38 36 69 31q23 -4 12 -27q-5 -10 -17 -22q-62 -62 -91.5 -119t-29.5 -123t48.5 -140t145.5 -157z" />
    <glyph glyph-name="dieresis" unicode="&#xa8;" horiz-adv-x="831" 
d="M627 1440q59 -3 83.5 -33.5t14.5 -77.5q-12 -63 -47 -94t-82 -25q-42 7 -67.5 42t-30.5 77q-6 65 27 90.5t102 20.5zM242 1446q57 -3 79.5 -36t12.5 -81q-13 -63 -48.5 -94t-82.5 -25q-41 7 -67.5 41.5t-31.5 73.5q-6 62 36.5 94t101.5 27z" />
    <glyph glyph-name="copyright" unicode="&#xa9;" horiz-adv-x="1495" 
d="M813 1393q120 0 223.5 -41t183.5 -119t126 -202.5t47 -280.5v-15q-3 -216 -95.5 -379.5t-252 -249.5t-363.5 -86q-120 0 -223.5 41t-183.5 119.5t-126 203t-47 280.5v14q3 216 95.5 379.5t252 249.5t363.5 86zM1251 727v14q0 287 -119.5 445t-336.5 160q-141 -1 -247 -48
t-172 -135t-98.5 -207t-33.5 -270v-16q0 -286 119.5 -444t336.5 -158h2q276 0 411.5 174.5t137.5 484.5zM965 535q5 38 21 40q12 2 14 -23q1 -12 -1 -28q-21 -118 -93.5 -185t-188.5 -67q-50 0 -92 21.5t-77.5 68.5t-55.5 130.5t-21 197.5v10q1 89 22.5 164t55 123.5
t75.5 82.5t83 48.5t79 14.5q68 0 119.5 -35t72.5 -84t14 -105t-46 -96q-19 -18 -39.5 -27t-45 -5t-44.5 24q-38 40 -35 84q3 33 28 32q4 0 9 -1q35 -8 52 -5.5t34 19.5q14 14 20.5 35t1 43t-22 41.5t-52.5 32t-86 12.5q-76 0 -129.5 -99.5t-54.5 -289.5v-11q0 -201 38 -296
t115 -95q96 0 156 63.5t74 164.5z" />
    <glyph glyph-name="ordfeminine" unicode="&#xaa;" horiz-adv-x="1370" 
d="M1204 961q8 59 33 68q19 6 27 -25q5 -23 0 -58q-69 -411 -289 -411q-51 0 -92 12t-80 40.5t-68 83.5t-45 134q-42 -131 -110.5 -200.5t-159.5 -69.5q-58 0 -102 11t-86 42.5t-69 85t-43.5 142t-17.5 208.5v16q1 116 31 207.5t75 147t104.5 92.5t114 51t108.5 14
q91 0 141 -47q4 22 16 35.5t41 36.5q79 59 103 2q18 -42 18 -201v-338q0 -266 25.5 -353t115.5 -87q157 0 209 361zM668 1186v2q0 307 -164 307q-216 0 -219 -442v-17q1 -106 5 -175.5t14.5 -124.5t29.5 -84t47 -43.5t70 -14.5q94 0 155.5 169.5t61.5 422.5z" />
    <glyph glyph-name="guillemotleft" unicode="&#xab;" horiz-adv-x="1009" 
d="M283 549q62 -75 158 -199t106 -143q27 -46 11 -69q-11 -16 -29 2q-2 3 -5 7q-67 97 -157.5 179.5t-171.5 134.5l-17 11q-17 10 -29.5 18.5t-26 20.5t-16.5 21q-6 19 5 37.5t22.5 27.5t45.5 31q4 3 7 5q81 50 174.5 134.5t163.5 184.5q16 24 31 12q18 -14 0 -55
q-3 -8 -8 -16q-10 -19 -103.5 -140t-160.5 -204zM868 952q16 24 31 12q18 -14 0 -55q-3 -8 -8 -16q-10 -19 -103.5 -140t-160.5 -204q62 -75 158 -199t106 -143q27 -46 11 -69q-11 -16 -29 2q-2 3 -5 7q-67 97 -157.5 179.5t-171.5 134.5q-1 1 -12.5 8t-22 13.5t-22.5 15.5
t-20.5 18t-10.5 16q-6 19 4.5 37.5t23.5 28.5t45 31q4 3 6 4q81 50 174.5 134.5t163.5 184.5z" />
    <glyph glyph-name="logicalnot" unicode="&#xac;" horiz-adv-x="1120" 
d="M885 481v37q-109 0 -442.5 28.5t-338.5 49.5q-7 22 19.5 31.5t73.5 9.5q28 0 322.5 5t336.5 5q40 0 68.5 -3.5t46 -12t27.5 -16t13.5 -23t4.5 -24.5t-0.5 -29t-1.5 -29q0 -84 -28 -224.5t-50 -146.5q-22 -7 -31.5 19t-9.5 73q0 28 -5 118t-5 132z" />
    <glyph glyph-name="registered" unicode="&#xae;" horiz-adv-x="1495" 
d="M813 1413q120 0 223.5 -41t183.5 -119t126 -202.5t47 -280.5v-14q-3 -216 -95.5 -379.5t-252 -249.5t-363.5 -86q-120 0 -223.5 41t-183.5 119t-126 202.5t-47 280.5v14q3 216 95.5 379.5t252 249.5t363.5 86zM1251 748v14q0 287 -119.5 444.5t-336.5 159.5
q-141 -1 -247 -48t-172 -134.5t-98.5 -206.5t-33.5 -270v-17q0 -286 119.5 -444t336.5 -158h2q276 0 411.5 175t137.5 485zM840 674q4 -4 13.5 -16.5t14.5 -18.5q145 -205 179 -277q22 -47 12 -59q-33 -49 -121 68q-27 37 -77.5 99t-67.5 85q-61 83 -64 104h-41
q-15 -340 -41 -350q-29 -8 -43 28t-14 99v672q-49 -13 -86.5 -34.5t-58 -45.5t-30 -48.5t-6.5 -45t17 -33.5q17 -15 34 -17.5t52 5.5q30 6 37 -26q8 -41 -28 -81q-3 -4 -7 -8q-33 -31 -70.5 -27.5t-58.5 35.5q-31 50 -33.5 104.5t22 103.5t81 90.5t137.5 62.5q3 51 17.5 64
t52.5 -13q24 -16 32 -35q50 4 76 4q130 0 193 -61t63 -187v-10q-3 -185 -186 -231zM690 696q10 -2 37 -2q99 0 143.5 44t44.5 159v10q0 50 -6.5 86t-23 69t-50.5 49.5t-85 16.5q-34 0 -50 -2v-28q0 -180 -10 -402z" />
    <glyph glyph-name="macron" unicode="&#xaf;" horiz-adv-x="851" 
d="M588 1407q57 0 84.5 -2t56 -10t20.5 -25t-22 -47q-22 -31 -39 -38t-74 -7q-92 0 -297.5 28.5t-212.5 49.5q-7 22 19.5 31.5t73.5 9.5q28 0 187.5 5t203.5 5z" />
    <glyph glyph-name="degree" unicode="&#xb0;" horiz-adv-x="804" 
d="M440 1296q151 -10 215 -88.5t41 -199.5q-35 -163 -127 -243.5t-211 -59.5q-57 8 -104 39t-76.5 75.5t-47.5 92.5t-24 96q-20 152 70 226t264 62zM588 1010q14 72 -26 119.5t-134 56.5q-106 7 -162 -41t-47 -135q10 -67 51.5 -125t106.5 -68q77 -12 132.5 38.5t78.5 154.5
z" />
    <glyph glyph-name="plusminus" unicode="&#xb1;" horiz-adv-x="1204" 
d="M934 297q57 0 84.5 -2t56 -10.5t20.5 -25.5t-22 -48q-24 -30 -40 -36.5t-72 -6.5q-110 0 -449 28.5t-346 49.5q-7 22 19 31.5t73 9.5q19 0 301 4q-2 14 -2 45q0 10 -0.5 71.5t-1 149.5t-0.5 164q-442 32 -451 55q-7 22 19.5 31.5t73.5 9.5q24 0 356 4v221q0 149 16 184
q22 47 90 -5q39 -30 48.5 -52t9.5 -94q0 -51 -21 -252q230 4 242 4q58 0 86 -2t56.5 -10.5t20.5 -25.5t-22 -48q-24 -30 -40 -36.5t-72 -6.5q-85 0 -285 15q-36 -295 -66 -420q282 4 318 4z" />
    <glyph glyph-name="twosuperior" unicode="&#xb2;" horiz-adv-x="1075" 
d="M903 883q6 55 33 63q22 7 32 -24q7 -22 3 -54q-30 -241 -155 -346t-296 -59q-136 34 -173 39q-145 11 -150 -88q0 -22 -21 -36q-24 -16 -34 14q-5 14 -5 36q0 41 43 90l-2 2q2 0 6 4q28 32 62 56q266 240 356 365.5t90 260.5q0 123 -45 197t-131 74q-111 0 -204.5 -76
t-131.5 -217q-14 -42 -5 -91t30.5 -90t65.5 -68.5t98 -27.5q21 0 30 -14.5t0 -29.5t-32 -15q-91 0 -159.5 53.5t-91.5 138t1 187.5q38 140 160 232.5t268 92.5q69 0 131.5 -19t113.5 -55.5t81 -97.5t30 -139q0 -59 -31 -125t-76.5 -122.5t-115.5 -122t-129 -113t-137 -105.5
q85 13 149 -14q155 -72 237 -16t105 260z" />
    <glyph glyph-name="threesuperior" unicode="&#xb3;" horiz-adv-x="999" 
d="M649 1063q49 -2 90.5 -15.5t78.5 -40.5t58 -76t21 -116q0 -112 -67 -215.5t-174 -165t-220 -61.5q-106 0 -183 52.5t-114 136.5t-37 188q0 58 36.5 104.5t105.5 46.5q52 0 78 -37t17.5 -77t-42.5 -50q-44 -12 -69 -35t-25 -53q0 -200 233 -200q112 0 182 97.5t70 233.5
q0 104 -27.5 157t-76 58t-113.5 -14q-48 -14 -57 3t35 40q7 4 16 8l2 2q120 82 164.5 144.5t44.5 119.5q0 91 -33.5 141t-99.5 50q-81 0 -151.5 -57.5t-98.5 -161.5q-20 -75 22 -142q12 -19 8 -37t-17.5 -19t-31.5 18q-71 88 -36 213q29 105 123 177t204 72q71 0 137 -25
t113 -81t47 -133q0 -141 -213 -250z" />
    <glyph glyph-name="acute" unicode="&#xb4;" horiz-adv-x="655" 
d="M516 1571q41 -15 35 -57t-49 -87q-142 -147 -322 -256q-48 -31 -70 -17q-17 11 3 31q3 3 8 7q45 34 92 84.5t72 82t78 103.5t65 88q18 25 43.5 27.5t44.5 -6.5z" />
    <glyph glyph-name="mu" unicode="&#xb5;" horiz-adv-x="1370" 
d="M1204 426q8 59 33 68q20 7 27 -25q5 -22 0 -57q-67 -412 -289 -412q-51 0 -92 12t-80 40.5t-68 82.5t-45 133q-43 -135 -102 -201.5t-148 -66.5q-97 0 -182 102q-54 -765 -90 -778q-32 -10 -47 28.5t-15 106.5v990q-4 28 -4 40v394q0 57 5 82t16 39t43 38q79 59 103 3
q18 -40 18 -201v-66q7 -33 4 -90l-4 -117v-69q0 -249 41 -346t143 -97q85 0 136 138t63 374v312q0 56 5 82t16 39.5t42 37.5q79 59 103 3q18 -40 18 -201v-338q0 -266 25.5 -353t115.5 -87q159 0 209 360z" />
    <glyph glyph-name="mu" unicode="&#x3bc;" horiz-adv-x="1370" 
d="M1204 426q8 59 33 68q20 7 27 -25q5 -22 0 -57q-67 -412 -289 -412q-51 0 -92 12t-80 40.5t-68 82.5t-45 133q-43 -135 -102 -201.5t-148 -66.5q-97 0 -182 102q-54 -765 -90 -778q-32 -10 -47 28.5t-15 106.5v990q-4 28 -4 40v394q0 57 5 82t16 39t43 38q79 59 103 3
q18 -40 18 -201v-66q7 -33 4 -90l-4 -117v-69q0 -249 41 -346t143 -97q85 0 136 138t63 374v312q0 56 5 82t16 39.5t42 37.5q79 59 103 3q18 -40 18 -201v-338q0 -266 25.5 -353t115.5 -87q159 0 209 360z" />
    <glyph glyph-name="paragraph" unicode="&#xb6;" horiz-adv-x="1622" 
d="M670 1548q140 0 271 -28t234.5 -75.5t182.5 -114t120 -140.5t40 -157.5t-50 -162.5q-32 -54 -95 -60t-118 46q-57 57 -59 127q-1 53 34 65q13 5 30 1q58 -14 85.5 -10t55.5 30q58 56 -12 148q-75 98 -245 176q-214 98 -444 98q-192 0 -295.5 -107t-103.5 -268v-16
q1 -197 89 -299.5t245 -102.5q25 0 35 2q0 13 1 40.5t1 43.5v443q0 80 9.5 104t53.5 55q78 59 102 5q17 -44 17 -203v-393q-8 -799 -467 -799q-75 0 -134.5 31.5t-92.5 80t-48 108t-7.5 115t36.5 102.5t76 69q77 37 126 -2q35 -28 26 -69q-9 -45 -68 -60q-83 -20 -108 -91
q-24 -69 22 -135q57 -83 182 -91q11 -1 23 -1q82 0 133 55.5t79.5 184t35.5 346.5q-77 0 -152.5 16.5t-147.5 53.5t-127 90.5t-89 134t-35 178.5v16q1 137 72 233t193.5 141.5t287.5 45.5zM1071 1348q32 -25 43 -38.5t17 -41t4 -80.5q-8 -301 -53 -739t-76 -449
q-32 -10 -47 28.5t-15 106.5q0 42 3 497.5t3 516.5q0 162 19 203q25 54 102 -4z" />
    <glyph glyph-name="periodcentered" unicode="&#xb7;" horiz-adv-x="417" 
d="M315 592q0 -43 -31 -73t-75 -30t-75.5 30t-31.5 73q0 41 31.5 70.5t75.5 29.5t75 -29.5t31 -70.5z" />
    <glyph glyph-name="cedilla" unicode="&#xb8;" horiz-adv-x="849" 
d="M651 -182q53 -47 77 -104t18.5 -111.5t-36.5 -106.5t-80.5 -91t-120.5 -63t-151 -24q-66 0 -124 33.5t-89.5 86t-40.5 110.5t21.5 113t97.5 87q73 35 121 -5q36 -30 29 -74q-9 -47 -66 -62q-78 -19 -110 -75t14 -105.5t166 -49.5q58 0 116.5 22.5t100 62.5t63 88t6.5 105
t-69 107q-41 38 -88.5 56.5t-80 19t-56.5 4t-27 15.5q-5 25 19 77t47 86q26 44 60 40q24 -3 27 -28q1 -15 -8 -32l-49 -109q14 0 37.5 -2t80.5 -20t95 -51z" />
    <glyph glyph-name="onesuperior" unicode="&#xb9;" horiz-adv-x="632" 
d="M475 1573q55 8 55 -137q0 -42 -1 -348t-1 -367q0 -161 -18 -202q-24 -55 -102 3q-44 34 -54.5 59t-9.5 103q6 186 28.5 398.5t49.5 349.5q-108 -143 -221 -236q-40 -34 -62 -40.5t-30 7.5q-10 11 5 30.5t64 63.5q158 143 234 256q40 60 63 60z" />
    <glyph glyph-name="ordmasculine" unicode="&#xba;" horiz-adv-x="1269" 
d="M1108 1268q28 21 49 7q19 -13 1 -35q-4 -6 -11 -11q-139 -111 -293 -162v-20q-2 -116 -32 -208.5t-75 -148.5t-104.5 -93t-114 -51t-108.5 -14q-57 0 -101 11t-86 43t-69.5 85.5t-44 142t-17.5 208.5v16q1 109 28 197t68 143.5t95.5 94t106.5 55.5t106 22q31 2 36 -20
q5 -21 -17 -32q-9 -5 -21 -5q-214 0 -217 -442v-17q0 -257 33 -349.5t133 -92.5q214 0 217 442h-21q-132 0 -196 57.5t-64 153.5t51.5 153.5t149.5 57.5h8q24 0 38 -0.5t42.5 -7t47 -18t42.5 -36.5t39.5 -59.5t28 -89.5t16.5 -125q123 44 256 148zM451 1253q0 -74 57 -120
t160 -46h2q-1 101 -8.5 165.5t-22 94.5t-29 40t-37.5 12q-61 0 -91.5 -34.5t-30.5 -111.5z" />
    <glyph glyph-name="guillemotright" unicode="&#xbb;" horiz-adv-x="1009" 
d="M815 639q2 -2 24.5 -16.5t41 -29.5t22.5 -26q7 -19 -3 -36.5t-21.5 -26.5t-43.5 -29q-8 -5 -12 -8q-81 -51 -174.5 -136t-161.5 -184q-17 -25 -31 -12q-18 17 1 60l6 12q13 21 111.5 148.5t154.5 193.5q-58 69 -156 196t-110 148q-26 47 -9 69q12 15 29 -4l4 -6
q67 -96 156.5 -177.5t171.5 -135.5zM559 567q7 -19 -3 -36.5t-21.5 -26.5t-43.5 -29q-8 -5 -12 -8q-81 -51 -174.5 -136t-161.5 -184q-17 -25 -31 -12q-18 17 1 60l6 12q13 21 111.5 148.5t154.5 193.5q-58 69 -156 196t-110 148q-26 47 -9 69q12 15 29 -4l4 -6
q67 -96 156.5 -177.5t171.5 -135.5q2 -2 24.5 -16.5t41 -29.5t22.5 -26z" />
    <glyph glyph-name="onequarter" unicode="&#xbc;" horiz-adv-x="1789" 
d="M475 1737q55 8 55 -138q0 -42 -1 -347.5t-1 -366.5q0 -161 -18 -202q-24 -55 -102 3q-44 34 -54.5 59t-9.5 103q6 186 28.5 397.5t49.5 349.5q-106 -140 -221 -235q-40 -34 -62 -40.5t-30 7.5q-10 11 5 30.5t64 63.5q158 143 234 256q40 60 63 60zM1116 1745
q23 -22 27.5 -59t-1.5 -67.5t-22 -90.5q-34 -133 -298.5 -882.5t-289.5 -756.5q-26 -8 -30 23.5t8 79.5q4 17 202.5 724.5t215.5 774.5q13 51 23.5 88.5t24.5 77t28.5 62.5t31.5 38.5t37.5 12t42.5 -24.5zM1604 184q49 -3 67.5 -25.5t14.5 -43.5q-2 -9 -11 -10t-42 4t-64 6
q-71 6 -135 6q-2 -115 -2 -236q0 -163 -18 -203q-25 -55 -103 5q-32 24 -43 37t-16.5 40t-4.5 82q1 22 15 277q-125 -3 -414 -27q-28 -3 -43 6q-5 0 -12 7q-16 16 -2 38q3 13 12 35q246 508 504 887q25 34 53 43t39 -2q41 -11 41 -135q0 -25 -1 -152.5t-2.5 -317
t-2.5 -315.5q24 0 52.5 -1t63.5 -2.5t54 -2.5zM877 170q184 20 389 23q39 568 82 808q-25 -38 -51.5 -80.5t-47.5 -76t-50.5 -85t-45.5 -79t-49 -87.5t-44.5 -80.5t-48 -89t-43.5 -81.5t-47 -89t-44 -83z" />
    <glyph glyph-name="onehalf" unicode="&#xbd;" horiz-adv-x="1855" 
d="M475 1798q55 8 55 -137q0 -42 -1 -348t-1 -367q0 -160 -17 -201q-25 -56 -103 3q-44 34 -54.5 58.5t-9.5 102.5q6 186 28.5 398.5t49.5 349.5q-108 -143 -221 -236q-68 -59 -92 -32q-10 11 5 30.5t64 63.5q158 143 234 256q39 59 63 59zM1032 1745q23 -22 27.5 -59
t-1.5 -67.5t-22 -90.5q-34 -133 -298 -882.5t-289 -756.5q-26 -8 -30.5 23.5t7.5 79.5q4 17 202.5 724.5t215.5 774.5q13 51 23.5 88.5t24.5 77t28.5 62.5t31.5 38.5t37.5 12t42.5 -24.5zM1683 432q6 55 33 63q21 7 32 -23q7 -21 3 -54q-30 -241 -155.5 -346.5t-295.5 -59.5
q-136 34 -173 39q-145 11 -150 -88q0 -23 -21 -36q-25 -16 -34 17q-4 13 -4 33q0 42 43 91l-3 2q3 0 7 4q27 31 61 55q267 240 357 366.5t90 260.5q0 123 -45 196.5t-132 73.5q-111 0 -204 -76t-131 -217q-16 -58 0 -121t66 -109t122 -46q21 0 30 -15t0 -30t-32 -15
q-91 0 -159.5 53.5t-91.5 138t1 187.5q38 140 160 233t268 93q69 0 131.5 -19t113.5 -55.5t81 -97.5t30 -139q0 -59 -31 -125t-76.5 -122.5t-115.5 -122t-129 -113t-137 -105.5q83 13 149 -15q155 -72 237 -16t105 260z" />
    <glyph glyph-name="threequarters" unicode="&#xbe;" horiz-adv-x="1998" 
d="M649 1280q49 -2 90.5 -15.5t78.5 -40.5t58 -76t21 -116q0 -112 -67 -215.5t-174 -165t-220 -61.5q-106 0 -183 52.5t-114 136.5t-37 188q0 58 36.5 104.5t105.5 46.5q52 0 78 -37t17.5 -77t-42.5 -50q-44 -12 -69 -35t-25 -53q0 -200 233 -200q112 0 182 97.5t70 233.5
q0 104 -27.5 157t-76 58t-113.5 -14q-48 -14 -57 3t35 40q7 4 16 8l2 2q120 82 164.5 145t44.5 120q0 91 -33.5 140.5t-99.5 49.5q-81 0 -151.5 -57.5t-98.5 -161.5q-20 -74 22 -141q18 -27 4 -48q-14 -20 -36 0q-5 4 -9 9q-71 88 -36 213q29 105 123 177t204 72
q71 0 137 -25t113 -81t47 -133q0 -141 -213 -250zM1329 1745q23 -22 27.5 -59t-1.5 -67.5t-22 -90.5q-34 -133 -298.5 -882.5t-289.5 -756.5q-26 -8 -30 23.5t8 79.5q4 17 202.5 724.5t215.5 774.5q13 51 23.5 88.5t24.5 77t28.5 62.5t31.5 38.5t37.5 12t42.5 -24.5z
M1812 184q49 -3 67.5 -25.5t14.5 -43.5q-1 -6 -5 -8t-13.5 -1.5t-21 2t-33 4t-43.5 3.5q-70 6 -136 6q-2 -115 -2 -236q0 -162 -17 -202q-26 -54 -103 4q-32 24 -43 37t-16.5 40t-4.5 82t14 277q-124 -3 -413 -27q-28 -3 -43 6q-6 0 -13 7q-16 16 -2 38q2 9 13 35
q246 508 504 887q25 34 53 43t39 -2q41 -11 41 -135q0 -23 -1.5 -153t-3 -316.5t-2.5 -315.5q24 0 52.5 -1t63.5 -2.5t54 -2.5zM1085 170q183 20 390 23q39 577 81 808q-25 -38 -51.5 -80.5t-47.5 -76t-50.5 -85t-45.5 -79t-49 -87.5t-44.5 -80.5t-48 -89t-43.5 -81.5
t-47 -89t-44 -83z" />
    <glyph glyph-name="questiondown" unicode="&#xbf;" horiz-adv-x="1017" 
d="M489 -205q-56 0 -109.5 14t-104.5 45.5t-89 77.5t-61 116.5t-23 156.5q0 65 17 121t46 96t67 76.5t80 62t85.5 52.5t83.5 49.5t73.5 52t56 59.5t31 72.5t-2.5 91.5q-4 20 5.5 31.5t22 5t17.5 -30.5q14 -65 5.5 -121t-32.5 -94.5t-59.5 -76.5t-74.5 -68t-78 -68.5
t-70 -77.5t-50.5 -95t-19.5 -122q0 -174 59.5 -262t155.5 -88q246 0 316 262q16 58 1.5 124.5t-55.5 115.5q-23 27 -10 50q13 22 41 8q14 -7 27 -23q51 -60 67.5 -142t-8.5 -176q-38 -139 -149 -217t-261 -78zM659 1100q-43 0 -74.5 29.5t-31.5 70.5q0 42 31.5 72.5
t74.5 30.5q44 0 75.5 -30t31.5 -73q0 -41 -31.5 -70.5t-75.5 -29.5z" />
    <glyph glyph-name="Agrave" unicode="&#xc0;" horiz-adv-x="1798" 
d="M1921 426q9 60 33 68q18 6 25 -24q5 -23 -1 -58q-67 -412 -287 -412q-46 0 -81.5 7t-75.5 26.5t-73.5 58t-68 97.5t-67 149.5t-62.5 210.5q-107 -1 -282.5 -8.5t-263.5 -8.5q-72 -266 -169.5 -399t-250.5 -133q-127 0 -195.5 96.5t-68.5 241.5q0 121 85 203t187 82
q80 0 114 -64q27 -49 6 -92q-16 -32 -52 -33q-39 0 -77.5 -8t-78 -26t-64 -54t-24.5 -86q0 -88 52 -141t136 -53q97 0 188 134t148 375q0 14 6 29l6 27q65 308 117.5 491.5t92.5 259.5t85 101l-69 18q-27 7 -68 4.5t-86.5 -7.5t-91.5 -23.5t-83 -43t-61 -66t-26 -91.5
q-1 -32 34.5 -60t100.5 -45q60 -17 68 -63q8 -41 -28 -67q-50 -38 -126 1q-46 24 -75.5 89.5t-26.5 144.5q1 67 44 128.5t112.5 101.5t159 58.5t183.5 -1.5q91 -18 157 -57.5t124 -119.5t102.5 -208.5t81.5 -319.5q84 -430 156 -610t168 -180q159 0 211 360zM745 645
q72 0 240 -1t258 -1q-8 31 -10 49q-23 111 -50.5 252.5t-40 202.5t-31.5 132t-38 106t-47 59q-49 -6 -119 -214t-162 -585zM1247 1642q28 -17 17 -32q-12 -18 -56 -1q-9 4 -18 9q-208 111 -346 235q-29 27 -44 55t-10.5 52t31.5 35q21 7 30.5 9.5t27 -2t30.5 -20.5
q8 -9 41.5 -49t46.5 -54.5t43.5 -49t50 -53.5t47.5 -46t54.5 -48t54.5 -40z" />
    <glyph glyph-name="Aacute" unicode="&#xc1;" horiz-adv-x="1799" 
d="M1921 426q9 60 33 68q18 6 25 -24q5 -23 -1 -58q-67 -412 -287 -412q-46 0 -81.5 7t-75.5 26.5t-73.5 58t-68 97.5t-67 149.5t-62.5 210.5q-107 -1 -282.5 -8.5t-263.5 -8.5q-72 -266 -169.5 -399t-250.5 -133q-127 0 -195.5 96.5t-68.5 241.5q0 121 85 203t187 82
q80 0 114 -64q27 -49 6 -92q-16 -32 -52 -33q-39 0 -77.5 -8t-78 -26t-64 -54t-24.5 -86q0 -88 52 -141t136 -53q97 0 188 134t148 375q0 14 6 29l6 27q65 308 117.5 491.5t92.5 259.5t85 101l-69 18q-27 7 -68 4.5t-86.5 -7.5t-91.5 -23.5t-83 -43t-61 -66t-26 -91.5
q-1 -32 34.5 -60t100.5 -45q60 -17 68 -63q8 -41 -28 -67q-50 -38 -126 1q-46 24 -75.5 89.5t-26.5 144.5q1 67 44 128.5t112.5 101.5t159 58.5t183.5 -1.5q91 -18 157 -57.5t124 -119.5t102.5 -208.5t81.5 -319.5q84 -430 156 -610t168 -180q159 0 211 360zM745 645
q72 0 240 -1t258 -1q-8 31 -10 49q-23 111 -50.5 252.5t-40 202.5t-31.5 132t-38 106t-47 59q-49 -6 -119 -214t-162 -585zM1216 2062q41 -15 35 -56.5t-49 -86.5q-142 -147 -322 -256q-48 -31 -70 -17q-17 10 3 30q3 3 8 7q45 34 92 84.5t72.5 83t77 103t65.5 88.5
q18 25 43.5 27t44.5 -7z" />
    <glyph glyph-name="Acircumflex" unicode="&#xc2;" horiz-adv-x="1797" 
d="M1921 426q9 60 33 68q18 6 25 -24q5 -23 -1 -58q-67 -412 -287 -412q-46 0 -81.5 7t-75.5 26.5t-73.5 58t-68 97.5t-67 149.5t-62.5 210.5q-107 -1 -282.5 -8.5t-263.5 -8.5q-72 -266 -169.5 -399t-250.5 -133q-127 0 -195.5 96.5t-68.5 241.5q0 121 85 203t187 82
q80 0 114 -64q27 -49 6 -92q-16 -32 -52 -33q-39 0 -77.5 -8t-78 -26t-64 -54t-24.5 -86q0 -88 52 -141t136 -53q97 0 188 134t148 375q0 14 6 29l6 27q65 308 117.5 491.5t92.5 259.5t85 101l-69 18q-27 7 -68 4.5t-86.5 -7.5t-91.5 -23.5t-83 -43t-61 -66t-26 -91.5
q-1 -32 34.5 -60t100.5 -45q60 -17 68 -63q8 -41 -28 -67q-50 -38 -126 1q-46 24 -75.5 89.5t-26.5 144.5q1 67 44 128.5t112.5 101.5t159 58.5t183.5 -1.5q91 -18 157 -57.5t124 -119.5t102.5 -208.5t81.5 -319.5q84 -430 156 -610t168 -180q159 0 211 360zM745 645
q72 0 240 -1t258 -1q-8 31 -10 49q-23 111 -50.5 252.5t-40 202.5t-31.5 132t-38 106t-47 59q-49 -6 -119 -214t-162 -585zM1411 1642q27 -21 14 -35q-16 -17 -59 6q-8 4 -15 9q-115 71 -280 240q-95 -95 -328 -240q-49 -32 -72 -17q-16 12 6 32q2 3 5 5q160 120 332 349
q36 44 73 42.5t56 -42.5q115 -232 268 -349z" />
    <glyph glyph-name="Atilde" unicode="&#xc3;" horiz-adv-x="1798" 
d="M1921 426q9 60 33 68q18 6 25 -24q5 -23 -1 -58q-67 -412 -287 -412q-46 0 -81.5 7t-75.5 26.5t-73.5 58t-68 97.5t-67 149.5t-62.5 210.5q-107 -1 -282.5 -8.5t-263.5 -8.5q-72 -266 -169.5 -399t-250.5 -133q-127 0 -195.5 96.5t-68.5 241.5q0 121 85 203t187 82
q80 0 114 -64q27 -49 6 -92q-16 -32 -52 -33q-39 0 -77.5 -8t-78 -26t-64 -54t-24.5 -86q0 -88 52 -141t136 -53q97 0 188 134t148 375q0 14 6 29l6 27q65 308 117.5 491.5t92.5 259.5t85 101l-69 18q-27 7 -68 4.5t-86.5 -7.5t-91.5 -23.5t-83 -43t-61 -66t-26 -91.5
q-1 -32 34.5 -60t100.5 -45q60 -17 68 -63q8 -41 -28 -67q-50 -38 -126 1q-46 24 -75.5 89.5t-26.5 144.5q1 67 44 128.5t112.5 101.5t159 58.5t183.5 -1.5q91 -18 157 -57.5t124 -119.5t102.5 -208.5t81.5 -319.5q84 -430 156 -610t168 -180q159 0 211 360zM745 645
q72 0 240 -1t258 -1q-8 31 -10 49q-23 111 -50.5 252.5t-40 202.5t-31.5 132t-38 106t-47 59q-49 -6 -119 -214t-162 -585zM993 1692l-10 6q-98 47 -169.5 40.5t-100.5 -67.5q-9 -22 -25 -15q-17 8 -11 31q1 3 3 7q19 41 49 77t75 65.5t97.5 32t116.5 -23.5l12 -8
q93 -44 174 -36t111 71q12 27 33 6q24 -23 21 -62q-1 -14 -7 -26q-39 -81 -144.5 -114t-224.5 16z" />
    <glyph glyph-name="Adieresis" unicode="&#xc4;" horiz-adv-x="1798" 
d="M1921 426q9 60 33 68q18 6 25 -24q5 -23 -1 -58q-67 -412 -287 -412q-46 0 -81.5 7t-75.5 26.5t-73.5 58t-68 97.5t-67 149.5t-62.5 210.5q-107 -1 -282.5 -8.5t-263.5 -8.5q-72 -266 -169.5 -399t-250.5 -133q-127 0 -195.5 96.5t-68.5 241.5q0 121 85 203t187 82
q80 0 114 -64q27 -49 6 -92q-16 -32 -52 -33q-39 0 -77.5 -8t-78 -26t-64 -54t-24.5 -86q0 -88 52 -141t136 -53q97 0 188 134t148 375q0 14 6 29l6 27q65 308 117.5 491.5t92.5 259.5t85 101l-69 18q-27 7 -68 4.5t-86.5 -7.5t-91.5 -23.5t-83 -43t-61 -66t-26 -91.5
q-1 -32 34.5 -60t100.5 -45q60 -17 68 -63q8 -41 -28 -67q-50 -38 -126 1q-46 24 -75.5 89.5t-26.5 144.5q1 67 44 128.5t112.5 101.5t159 58.5t183.5 -1.5q91 -18 157 -57.5t124 -119.5t102.5 -208.5t81.5 -319.5q84 -430 156 -610t168 -180q159 0 211 360zM745 645
q72 0 240 -1t258 -1q-8 31 -10 49q-23 111 -50.5 252.5t-40 202.5t-31.5 132t-38 106t-47 59q-49 -6 -119 -214t-162 -585zM1237 1849q59 -3 83 -33t15 -77q-12 -63 -47 -94t-82 -25q-42 7 -67.5 42t-30.5 77q-6 65 27 90t102 20zM852 1855q57 -3 79.5 -35.5t12.5 -80.5
q-13 -63 -48.5 -94t-82.5 -25q-41 7 -67 41t-31 74q-6 62 36 93.5t101 26.5z" />
    <glyph glyph-name="Aring" unicode="&#xc5;" horiz-adv-x="1799" 
d="M1921 426q9 60 33 68q18 6 25 -24q5 -23 -1 -58q-67 -412 -287 -412q-46 0 -81.5 7t-75.5 26.5t-73.5 58t-68 97.5t-67 149.5t-62.5 210.5q-107 -1 -282.5 -8.5t-263.5 -8.5q-72 -266 -169.5 -399t-250.5 -133q-127 0 -195.5 96.5t-68.5 241.5q0 121 85 203t187 82
q80 0 114 -64q27 -49 6 -92q-16 -32 -52 -33q-39 0 -77.5 -8t-78 -26t-64 -54t-24.5 -86q0 -88 52 -141t136 -53q97 0 188 134t148 375q0 14 6 29l6 27q65 308 117.5 491.5t92.5 259.5t85 101l-69 18q-27 7 -68 4.5t-86.5 -7.5t-91.5 -23.5t-83 -43t-61 -66t-26 -91.5
q-1 -32 34.5 -60t100.5 -45q60 -17 68 -63q8 -41 -28 -67q-50 -38 -126 1q-46 24 -75.5 89.5t-26.5 144.5q1 67 44 128.5t112.5 101.5t159 58.5t183.5 -1.5q91 -18 157 -57.5t124 -119.5t102.5 -208.5t81.5 -319.5q84 -430 156 -610t168 -180q159 0 211 360zM745 645
q72 0 240 -1t258 -1q-8 31 -10 49q-23 111 -50.5 252.5t-40 202.5t-31.5 132t-38 106t-47 59q-49 -6 -119 -214t-162 -585zM1050 1978q92 -6 131 -54t25 -122q-21 -100 -77.5 -149t-129.5 -37q-66 10 -106 65.5t-47 120.5q-12 102 41 143t163 33zM1124 1806q8 40 -13.5 66
t-72.5 29q-59 5 -87.5 -17.5t-22.5 -77.5q3 -35 25.5 -65.5t58.5 -36.5q40 -6 70 20.5t42 81.5z" />
    <glyph glyph-name="AE" unicode="&#xc6;" horiz-adv-x="2050" 
d="M2150 436q8 59 33 68q20 7 27 -25q5 -22 0 -57q-32 -188 -188 -305t-357 -117q-84 0 -165 19.5t-155 59.5t-120 112t-47 165v17q3 151 118 245l-4 17q-89 -9 -268.5 -31.5t-257.5 -30.5q-36 -142 -75 -242.5t-90 -177.5t-116.5 -115t-146.5 -38q-129 0 -197.5 96.5
t-68.5 241.5q0 121 85 203t187 82q80 0 115 -62q27 -49 7 -92q-16 -34 -54 -35q-39 0 -77.5 -8t-77.5 -26t-63 -54t-24 -86q0 -89 51 -141.5t135 -52.5q97 0 187 131t147 368h-4q-38 -3 -47 24.5t6.5 57t36.5 31.5q5 0 17 1t18 1q57 268 110 430t93.5 223.5t87.5 79.5
q-13 5 -54 14q-27 7 -68 4.5t-86 -8t-90.5 -24t-82.5 -43t-61.5 -66t-26.5 -92.5q-1 -32 35 -58t102 -44q59 -17 67 -63q7 -41 -29 -68q-50 -37 -126 2q-46 23 -75 88.5t-28 144.5q2 89 73.5 164.5t188.5 111t240 11.5q104 -21 178.5 -73.5t132.5 -153.5q71 87 185.5 130.5
t220.5 43.5q77 0 142 -27t108 -71t68.5 -101t28.5 -115t-17.5 -116t-63.5 -101q-30 -30 -64.5 -45.5t-75 -9t-75.5 40.5q-56 58 -58 127q-1 54 34 65q12 4 28 0q58 -14 87.5 -10t56.5 31q20 20 30 47.5t10 58t-17 60t-47 53.5t-84 38.5t-124 14.5q-112 0 -188.5 -83.5
t-77.5 -237.5v-17q0 -27 4 -67q2 -11 12 -52.5t15 -66.5q52 -117 172 -117h59q62 0 59 -20q-2 -18 -44 -30q-23 -7 -48 -7q-124 0 -197.5 -73t-74.5 -218v-16q0 -134 101 -222t233 -88q167 0 299 109t155 268zM795 688l479 41l-29 150q-19 53 -22 114q-36 183 -61.5 261
t-71.5 116q-52 -5 -133 -188t-162 -494zM1315 637l-17 -16l25 18q-6 0 -8 -2z" />
    <glyph glyph-name="Ccedilla" unicode="&#xc7;" horiz-adv-x="933" 
d="M688 -182q53 -47 77 -104t18.5 -111.5t-36.5 -106.5t-80.5 -91t-120.5 -63t-151 -24q-66 0 -124 33.5t-89.5 86t-40.5 110.5t21.5 113t97.5 87q73 35 121 -5q36 -30 29 -74q-9 -47 -66 -62q-78 -19 -110 -75t14 -105.5t166 -49.5q58 0 116.5 22.5t100 62.5t63 88t6.5 105
t-69 107q-41 38 -88.5 56.5t-80 19t-56.5 4t-27 15.5q-5 24 15.5 72.5t43.5 82.5q-61 14 -113 45t-99 87t-80.5 131.5t-53 183.5t-20.5 239v17q1 125 26.5 233t68 184.5t95 136t111.5 94.5t115 53t108 18q77 0 142.5 -27t108.5 -71t68.5 -101t28.5 -115t-17.5 -116
t-64.5 -101q-29 -30 -63.5 -45.5t-75 -9t-74.5 40.5q-57 57 -60 125q-1 54 34 66q13 5 30 1q58 -14 87 -10t55 31q20 20 30.5 47.5t10.5 58t-17 60t-47 53.5t-83.5 38.5t-123.5 14.5q-130 0 -219 -164.5t-92 -482.5v-16q3 -652 319 -652q176 0 297.5 107t145.5 270
q9 60 33 68q18 6 25 -24q5 -23 -1 -58q-31 -193 -173.5 -307.5t-356.5 -114.5h-19l-49 -109q14 0 37.5 -2t80.5 -20t95 -51z" />
    <glyph glyph-name="Egrave" unicode="&#xc8;" horiz-adv-x="944" 
d="M1044 434q8 60 33 69q19 6 27 -25q5 -23 0 -58q-32 -188 -189 -305t-358 -117q-83 0 -164 19.5t-154.5 59.5t-119.5 112t-47 165v17q1 122 73 202t185 119q-212 73 -215 330v14q1 83 34.5 152t85 113t116.5 74.5t127 43.5t120 13q77 0 142 -27t108 -71t68.5 -101
t28.5 -115t-17.5 -116t-63.5 -101q-30 -30 -64.5 -45.5t-75.5 -8.5t-75 42q-58 58 -60 126q-1 53 35 64q13 4 29 0q58 -14 87.5 -10t56.5 31q24 25 34.5 59t1.5 71t-36.5 69t-87.5 52.5t-144 20.5q-113 0 -189 -83t-77 -238v-17q0 -142 52 -222.5t151 -80.5h12q8 0 23.5 1
t23.5 1q61 0 58 -21q-3 -19 -44 -31q-22 -7 -47 -7q-124 0 -198 -72.5t-74 -216.5v-18q0 -135 100.5 -222.5t233.5 -87.5q167 0 299 109t155 268zM733 1602q28 -17 17 -32q-12 -19 -54 -2q-10 4 -20 9q-208 111 -346 235q-29 27 -44 55t-10.5 52t31.5 35q17 6 23 7.5t20 3
t24.5 -4.5t20.5 -18q8 -9 41.5 -49t46.5 -54.5t43.5 -49t50 -53.5t47.5 -46t54.5 -48t54.5 -40z" />
    <glyph glyph-name="Eacute" unicode="&#xc9;" horiz-adv-x="944" 
d="M1044 434q8 60 33 69q19 6 27 -25q5 -23 0 -58q-32 -188 -189 -305t-358 -117q-83 0 -164 19.5t-154.5 59.5t-119.5 112t-47 165v17q1 122 73 202t185 119q-212 73 -215 330v14q1 83 34.5 152t85 113t116.5 74.5t127 43.5t120 13q77 0 142 -27t108 -71t68.5 -101
t28.5 -115t-17.5 -116t-63.5 -101q-30 -30 -64.5 -45.5t-75.5 -8.5t-75 42q-58 58 -60 126q-1 53 35 64q13 4 29 0q58 -14 87.5 -10t56.5 31q24 25 34.5 59t1.5 71t-36.5 69t-87.5 52.5t-144 20.5q-113 0 -189 -83t-77 -238v-17q0 -142 52 -222.5t151 -80.5h12q8 0 23.5 1
t23.5 1q61 0 58 -21q-3 -19 -44 -31q-22 -7 -47 -7q-124 0 -198 -72.5t-74 -216.5v-18q0 -135 100.5 -222.5t233.5 -87.5q167 0 299 109t155 268zM662 1980q41 -16 34.5 -57t-49.5 -86q-70 -73 -159 -142.5t-162 -113.5q-49 -32 -71 -17q-17 12 4 32q3 3 7 6q45 34 92 84.5
t72 82t78 103.5t65 88q18 25 44 27t45 -7z" />
    <glyph glyph-name="Ecircumflex" unicode="&#xca;" horiz-adv-x="944" 
d="M1044 434q8 60 33 69q19 6 27 -25q5 -23 0 -58q-32 -188 -189 -305t-358 -117q-83 0 -164 19.5t-154.5 59.5t-119.5 112t-47 165v17q1 122 73 202t185 119q-212 73 -215 330v14q1 83 34.5 152t85 113t116.5 74.5t127 43.5t120 13q77 0 142 -27t108 -71t68.5 -101
t28.5 -115t-17.5 -116t-63.5 -101q-30 -30 -64.5 -45.5t-75.5 -8.5t-75 42q-58 58 -60 126q-1 53 35 64q13 4 29 0q58 -14 87.5 -10t56.5 31q24 25 34.5 59t1.5 71t-36.5 69t-87.5 52.5t-144 20.5q-113 0 -189 -83t-77 -238v-17q0 -142 52 -222.5t151 -80.5h12q8 0 23.5 1
t23.5 1q61 0 58 -21q-3 -19 -44 -31q-22 -7 -47 -7q-124 0 -198 -72.5t-74 -216.5v-18q0 -135 100.5 -222.5t233.5 -87.5q167 0 299 109t155 268zM877 1602q27 -21 14 -35q-16 -17 -59 5q-8 4 -15 9q-115 71 -280 240q-95 -95 -328 -240q-48 -32 -72 -17q-16 11 3 32
q3 3 7 6q162 122 332 348q36 44 73 42.5t56 -42.5q114 -229 269 -348z" />
    <glyph glyph-name="Edieresis" unicode="&#xcb;" horiz-adv-x="944" 
d="M1044 434q8 60 33 69q19 6 27 -25q5 -23 0 -58q-32 -188 -189 -305t-358 -117q-83 0 -164 19.5t-154.5 59.5t-119.5 112t-47 165v17q1 122 73 202t185 119q-212 73 -215 330v14q1 83 34.5 152t85 113t116.5 74.5t127 43.5t120 13q77 0 142 -27t108 -71t68.5 -101
t28.5 -115t-17.5 -116t-63.5 -101q-30 -30 -64.5 -45.5t-75.5 -8.5t-75 42q-58 58 -60 126q-1 53 35 64q13 4 29 0q58 -14 87.5 -10t56.5 31q24 25 34.5 59t1.5 71t-36.5 69t-87.5 52.5t-144 20.5q-113 0 -189 -83t-77 -238v-17q0 -142 52 -222.5t151 -80.5h12q8 0 23.5 1
t23.5 1q61 0 58 -21q-3 -19 -44 -31q-22 -7 -47 -7q-124 0 -198 -72.5t-74 -216.5v-18q0 -135 100.5 -222.5t233.5 -87.5q167 0 299 109t155 268zM723 1849q59 -3 83 -33t15 -77q-12 -63 -47 -94t-82 -25q-42 7 -67.5 42t-30.5 77q-6 65 27 90t102 20zM338 1855
q57 -3 79.5 -35.5t12.5 -80.5q-13 -63 -48.5 -94t-82.5 -25q-41 7 -67 41t-31 74q-6 62 36 93.5t101 26.5z" />
    <glyph glyph-name="Igrave" unicode="&#xcc;" horiz-adv-x="888" 
d="M748 1479q78 58 102 3q18 -41 18 -202v-479q-2 -180 -32 -321t-78 -230t-114.5 -146.5t-136.5 -80.5t-149 -23q-75 0 -135 31.5t-93 80t-48 108t-8 115t36 102.5t76 69q77 37 126 -2q35 -27 27 -68q-9 -46 -69 -61q-84 -20 -108 -91q-24 -69 22 -134q57 -82 182 -90
q11 -1 23 -1q69 0 120.5 37.5t91.5 120.5t61 226.5t22 344.5v510q-62 -24 -197 -24q-76 0 -129 -14t-78 -37.5t-35 -52.5t-2.5 -60t23.5 -59.5t39 -51.5q27 -26 56.5 -30t87.5 10q47 11 60 -35q15 -51 -24 -115q-13 -22 -32 -41q-34 -34 -75 -40t-75.5 9t-64.5 44
q-46 46 -72.5 104.5t-31 116.5t14 114t56.5 99t102.5 69.5t147.5 26.5q207 0 233 66q0 6 4 18v2q0 2 2 4q1 3 2.5 6.5t3 6t4.5 6t4 5t5 5.5l5.5 5.5t6.5 5.5t6.5 5t8 6.5t8.5 6.5zM666 1602q28 -18 17 -33q-15 -18 -59 0q-8 3 -16 8q-208 111 -346 235q-29 27 -44 55t-10 52
t32 35q17 6 23 7.5t20 3t24.5 -4.5t20.5 -18q8 -9 41.5 -49t46.5 -54.5t43.5 -49t50 -53.5t47.5 -46t54.5 -48t54.5 -40z" />
    <glyph glyph-name="Iacute" unicode="&#xcd;" horiz-adv-x="888" 
d="M748 1479q78 58 102 3q18 -41 18 -202v-479q-2 -180 -32 -321t-78 -230t-114.5 -146.5t-136.5 -80.5t-149 -23q-75 0 -135 31.5t-93 80t-48 108t-8 115t36 102.5t76 69q77 37 126 -2q35 -27 27 -68q-9 -46 -69 -61q-84 -20 -108 -91q-24 -69 22 -134q57 -82 182 -90
q11 -1 23 -1q69 0 120.5 37.5t91.5 120.5t61 226.5t22 344.5v510q-62 -24 -197 -24q-76 0 -129 -14t-78 -37.5t-35 -52.5t-2.5 -60t23.5 -59.5t39 -51.5q27 -26 56.5 -30t87.5 10q47 11 60 -35q15 -51 -24 -115q-13 -22 -32 -41q-34 -34 -75 -40t-75.5 9t-64.5 44
q-46 46 -72.5 104.5t-31 116.5t14 114t56.5 99t102.5 69.5t147.5 26.5q207 0 233 66q0 6 4 18v2q0 2 2 4q1 3 2.5 6.5t3 6t4.5 6t4 5t5 5.5l5.5 5.5t6.5 5.5t6.5 5t8 6.5t8.5 6.5zM633 1980q41 -16 34.5 -57t-49.5 -86q-70 -73 -159 -142.5t-162 -113.5q-48 -31 -70 -17
q-17 11 3 31q3 3 8 7q45 34 92 84.5t72 82t78 103.5t65 88q18 25 43.5 27t44.5 -7z" />
    <glyph glyph-name="Icircumflex" unicode="&#xce;" horiz-adv-x="888" 
d="M748 1479q78 58 102 3q18 -41 18 -202v-479q-2 -180 -32 -321t-78 -230t-114.5 -146.5t-136.5 -80.5t-149 -23q-75 0 -135 31.5t-93 80t-48 108t-8 115t36 102.5t76 69q77 37 126 -2q35 -27 27 -68q-9 -46 -69 -61q-84 -20 -108 -91q-24 -69 22 -134q57 -82 182 -90
q11 -1 23 -1q69 0 120.5 37.5t91.5 120.5t61 226.5t22 344.5v510q-62 -24 -197 -24q-76 0 -129 -14t-78 -37.5t-35 -52.5t-2.5 -60t23.5 -59.5t39 -51.5q27 -26 56.5 -30t87.5 10q47 11 60 -35q15 -51 -24 -115q-13 -22 -32 -41q-34 -34 -75 -40t-75.5 9t-64.5 44
q-46 46 -72.5 104.5t-31 116.5t14 114t56.5 99t102.5 69.5t147.5 26.5q207 0 233 66q0 6 4 18v2q0 2 2 4q1 3 2.5 6.5t3 6t4.5 6t4 5t5 5.5l5.5 5.5t6.5 5.5t6.5 5t8 6.5t8.5 6.5zM891 1602q27 -21 14 -35q-16 -17 -59 5q-8 4 -15 9q-115 71 -280 240q-95 -95 -328 -240
q-48 -31 -70 -17q-17 10 1 31q4 3 8 7q162 122 332 348q36 44 73 42.5t56 -42.5q114 -231 268 -348z" />
    <glyph glyph-name="Idieresis" unicode="&#xcf;" horiz-adv-x="888" 
d="M748 1479q78 58 102 3q18 -41 18 -202v-479q-2 -180 -32 -321t-78 -230t-114.5 -146.5t-136.5 -80.5t-149 -23q-75 0 -135 31.5t-93 80t-48 108t-8 115t36 102.5t76 69q77 37 126 -2q35 -27 27 -68q-9 -46 -69 -61q-84 -20 -108 -91q-24 -69 22 -134q57 -82 182 -90
q11 -1 23 -1q69 0 120.5 37.5t91.5 120.5t61 226.5t22 344.5v510q-62 -24 -197 -24q-76 0 -129 -14t-78 -37.5t-35 -52.5t-2.5 -60t23.5 -59.5t39 -51.5q27 -26 56.5 -30t87.5 10q47 11 60 -35q15 -51 -24 -115q-13 -22 -32 -41q-34 -34 -75 -40t-75.5 9t-64.5 44
q-46 46 -72.5 104.5t-31 116.5t14 114t56.5 99t102.5 69.5t147.5 26.5q207 0 233 66q0 6 4 18v2q0 2 2 4q1 3 2.5 6.5t3 6t4.5 6t4 5t5 5.5l5.5 5.5t6.5 5.5t6.5 5t8 6.5t8.5 6.5zM717 1849q59 -3 83 -33t15 -77q-12 -63 -47 -94t-82 -25q-42 7 -67.5 42t-30.5 77
q-6 65 27 90t102 20zM332 1855q57 -3 79.5 -35.5t12.5 -80.5q-13 -63 -48.5 -94t-82.5 -25q-41 7 -67 41t-31 74q-6 62 36 93.5t101 26.5z" />
    <glyph glyph-name="Eth" unicode="&#xd0;" horiz-adv-x="1452" 
d="M932 1440q120 0 207 -33.5t151.5 -111.5t97 -212.5t33.5 -328.5v-17q-2 -150 -37 -275t-93 -209t-134.5 -142t-159.5 -84.5t-170 -26.5q-139 0 -249 63q-92 -63 -222 -63q-75 0 -134 31.5t-92.5 80t-48 108t-7.5 115t36 102.5t76 69q77 37 126 -2q35 -27 27 -68
q-9 -46 -69 -61q-84 -20 -108 -91q-24 -69 22 -134q57 -82 182 -90q11 -1 23 -1q113 0 170 112t74 384q-238 31 -244 55q-7 22 19 31.5t73 9.5q18 0 158 4q0 20 1 64.5t1 68.5v545q-70 -27 -132 -67.5t-101.5 -82.5t-66 -85t-26.5 -76t19 -55q29 -28 57 -32.5t86 9.5
q47 11 60 -35q15 -51 -24 -115q-14 -22 -32 -40q-55 -52 -118.5 -46.5t-96.5 58.5q-39 64 -43 137t25.5 144t83.5 136.5t134.5 119.5t176.5 88q4 31 16 46.5t46 41.5q57 40 81.5 27.5t32.5 -74.5q49 8 113 8zM872 662q57 0 85 -2t56 -10.5t21 -26t-22 -48.5
q-24 -30 -40.5 -36.5t-72.5 -6.5q-9 0 -23 1t-35 2t-34 2q-41 -289 -166 -420q84 -58 219 -58q183 0 279.5 166.5t97.5 499.5v16q0 343 -76 491t-262 148q-51 0 -76 -4q0 -14 1 -46t1 -50v-479q-5 -133 -6 -139h53z" />
    <glyph glyph-name="Ntilde" unicode="&#xd1;" horiz-adv-x="1634" 
d="M1716 426q8 59 32 68q19 7 26 -23q6 -23 0 -59q-67 -412 -289 -412q-52 0 -94 12t-82.5 45.5t-67 88.5t-43 146.5t-16.5 213.5v455q0 267 -1 292q-6 108 -41 136q-22 18 -63 18q-27 0 -53.5 -11t-56.5 -36.5t-56.5 -74t-49 -115.5t-38 -169.5t-20.5 -228.5v-543
q0 -160 -16 -200q-23 -55 -98 -2q-2 2 -5 4q-31 24 -42.5 39t-16 40.5t-4.5 82.5v753q0 305 -116 424q-75 78 -172 49q-87 -27 -141 -125q-49 -88 -49 -200q0 -178 63 -261.5t159 -41.5q72 30 95 93q19 52 -8 80q-27 29 -81 -1q-58 -33 -97 0q-32 28 -19 73q15 55 89 78
q73 24 128 -42q53 -62 50 -151q-3 -108 -91 -163q-17 -11 -36 -19q-140 -59 -231.5 37t-91.5 324q0 87 26 161t69.5 123t101 78.5t119 35t124 -15.5t116 -65.5t96 -121.5t62.5 -177q21 82 51 146t61 102.5t67.5 63.5t68.5 34t64 9q51 0 89.5 -12.5t73 -46.5t56.5 -91
t34.5 -147.5t12.5 -214.5v-455q0 -91 2 -152t8 -113.5t15.5 -83t25.5 -52.5t37.5 -30.5t52.5 -8.5q159 0 211 360zM907 1671l-10 6q-98 47 -169.5 41t-100.5 -67q-9 -22 -25 -15q-17 7 -11 30q1 3 3 7q19 41 49 77t75 66t97.5 32.5t116.5 -23.5l12 -8q93 -44 174 -36.5
t111 70.5q12 27 33 6q24 -23 21 -62q-1 -14 -7 -26q-39 -81 -144.5 -114t-224.5 16z" />
    <glyph glyph-name="Ograve" unicode="&#xd2;" horiz-adv-x="1067" 
d="M535 1489q498 0 501 -715v-51q-2 -165 -38.5 -295.5t-91 -208.5t-126.5 -129.5t-138 -70.5t-132 -19q-65 0 -122.5 21.5t-110.5 73t-91 130t-61.5 199.5t-24.5 274v54q0 18 2 28q-102 82 -102 269t149 313.5t386 126.5zM852 713v39q0 351 -81.5 514.5t-268.5 163.5
t-313 -99.5t-126 -257.5q0 -125 48 -196q22 164 88 279t149 161q57 33 112.5 40t61.5 -28q0 -12 -14 -18.5t-40.5 -12t-39.5 -10.5q-73 -35 -105.5 -151.5t-37.5 -323.5q61 15 114.5 65t79.5 119q23 60 72 61q41 2 63 -37q30 -53 -14 -124t-132.5 -119.5t-182.5 -52.5v-14
q0 -334 64.5 -493t193.5 -159q50 0 93.5 19t83.5 66t68.5 120t45.5 187.5t18 261.5zM754 1602q28 -18 17 -33q-15 -18 -59 0q-8 3 -16 8q-208 111 -346 235q-29 27 -44 55t-10 52t32 35q17 6 23 7.5t20 3t24.5 -4.5t20.5 -18q8 -9 41.5 -49t46.5 -54.5t43.5 -49t50 -53.5
t47.5 -46t54.5 -48t54.5 -40z" />
    <glyph glyph-name="Oacute" unicode="&#xd3;" horiz-adv-x="1067" 
d="M535 1489q498 0 501 -715v-51q-2 -165 -38.5 -295.5t-91 -208.5t-126.5 -129.5t-138 -70.5t-132 -19q-65 0 -122.5 21.5t-110.5 73t-91 130t-61.5 199.5t-24.5 274v54q0 18 2 28q-102 82 -102 269t149 313.5t386 126.5zM852 713v39q0 351 -81.5 514.5t-268.5 163.5
t-313 -99.5t-126 -257.5q0 -125 48 -196q22 164 88 279t149 161q57 33 112.5 40t61.5 -28q0 -12 -14 -18.5t-40.5 -12t-39.5 -10.5q-73 -35 -105.5 -151.5t-37.5 -323.5q61 15 114.5 65t79.5 119q23 60 72 61q41 2 63 -37q30 -53 -14 -124t-132.5 -119.5t-182.5 -52.5v-14
q0 -334 64.5 -493t193.5 -159q50 0 93.5 19t83.5 66t68.5 120t45.5 187.5t18 261.5zM723 1980q41 -15 35 -56.5t-49 -86.5q-142 -147 -322 -256q-48 -31 -70 -17q-17 11 3 31q3 3 8 7q45 34 92 84.5t72 82t78 103.5t65 88q18 25 43.5 27t44.5 -7z" />
    <glyph glyph-name="Ocircumflex" unicode="&#xd4;" horiz-adv-x="1067" 
d="M535 1489q498 0 501 -715v-51q-2 -165 -38.5 -295.5t-91 -208.5t-126.5 -129.5t-138 -70.5t-132 -19q-65 0 -122.5 21.5t-110.5 73t-91 130t-61.5 199.5t-24.5 274v54q0 18 2 28q-102 82 -102 269t149 313.5t386 126.5zM852 713v39q0 351 -81.5 514.5t-268.5 163.5
t-313 -99.5t-126 -257.5q0 -125 48 -196q22 164 88 279t149 161q57 33 112.5 40t61.5 -28q0 -12 -14 -18.5t-40.5 -12t-39.5 -10.5q-73 -35 -105.5 -151.5t-37.5 -323.5q61 15 114.5 65t79.5 119q23 60 72 61q41 2 63 -37q30 -53 -14 -124t-132.5 -119.5t-182.5 -52.5v-14
q0 -334 64.5 -493t193.5 -159q50 0 93.5 19t83.5 66t68.5 120t45.5 187.5t18 261.5zM897 1602q27 -20 15 -35q-14 -17 -56 4q-9 4 -18 10q-117 73 -281 240q-95 -95 -328 -240q-48 -31 -70 -17q-17 10 1 31q4 3 8 7q162 122 332 348q36 44 73 42.5t56 -42.5
q114 -231 268 -348z" />
    <glyph glyph-name="Otilde" unicode="&#xd5;" horiz-adv-x="1067" 
d="M535 1489q498 0 501 -715v-51q-2 -165 -38.5 -295.5t-91 -208.5t-126.5 -129.5t-138 -70.5t-132 -19q-65 0 -122.5 21.5t-110.5 73t-91 130t-61.5 199.5t-24.5 274v54q0 18 2 28q-102 82 -102 269t149 313.5t386 126.5zM852 713v39q0 351 -81.5 514.5t-268.5 163.5
t-313 -99.5t-126 -257.5q0 -125 48 -196q22 164 88 279t149 161q57 33 112.5 40t61.5 -28q0 -12 -14 -18.5t-40.5 -12t-39.5 -10.5q-73 -35 -105.5 -151.5t-37.5 -323.5q61 15 114.5 65t79.5 119q23 60 72 61q41 2 63 -37q30 -53 -14 -124t-132.5 -119.5t-182.5 -52.5v-14
q0 -334 64.5 -493t193.5 -159q50 0 93.5 19t83.5 66t68.5 120t45.5 187.5t18 261.5zM500 1671l-11 6q-98 47 -169.5 41t-100.5 -67q-9 -22 -25 -15q-17 7 -11 30q1 3 3 7q19 41 49 77t75 66t97.5 32.5t116.5 -23.5q2 -2 5.5 -3.5t5.5 -2.5t2 -2q93 -44 173.5 -36.5
t110.5 70.5q12 27 33 6q24 -23 21 -62q-1 -14 -7 -26q-25 -52 -82.5 -87t-131.5 -40.5t-154 29.5z" />
    <glyph glyph-name="Odieresis" unicode="&#xd6;" horiz-adv-x="1067" 
d="M535 1489q498 0 501 -715v-51q-2 -165 -38.5 -295.5t-91 -208.5t-126.5 -129.5t-138 -70.5t-132 -19q-65 0 -122.5 21.5t-110.5 73t-91 130t-61.5 199.5t-24.5 274v54q0 18 2 28q-102 82 -102 269t149 313.5t386 126.5zM852 713v39q0 351 -81.5 514.5t-268.5 163.5
t-313 -99.5t-126 -257.5q0 -125 48 -196q22 164 88 279t149 161q57 33 112.5 40t61.5 -28q0 -12 -14 -18.5t-40.5 -12t-39.5 -10.5q-73 -35 -105.5 -151.5t-37.5 -323.5q61 15 114.5 65t79.5 119q23 60 72 61q41 2 63 -37q30 -53 -14 -124t-132.5 -119.5t-182.5 -52.5v-14
q0 -334 64.5 -493t193.5 -159q50 0 93.5 19t83.5 66t68.5 120t45.5 187.5t18 261.5zM743 1849q59 -3 83.5 -33t15.5 -77q-12 -63 -47 -94t-82 -25q-42 7 -68 42t-31 77q-6 65 27 90t102 20zM358 1855q57 -3 80 -35.5t13 -80.5q-13 -63 -49 -94t-83 -25q-41 7 -67 41t-31 74
q-6 62 36 93.5t101 26.5z" />
    <glyph glyph-name="multiply" unicode="&#xd7;" horiz-adv-x="958" 
d="M850 915q0 -10 4 -26q3 -26 -6 -47q-2 0 -2 -2q0 -5 -4 -9l-11 -14l-6 -6l-6 -8l-8 -8l-23 -23l-28 -29l-12 -10l-60 -49q-20 -16 -31 -27l-49 -36q-34 -28 -35 -29l25 -25l45 -45l37 -35q13 -13 28.5 -27.5t25 -24t14.5 -13.5q4 -5 26 -27l23 -24q1 -2 10 -11
q52 -62 24 -84q-15 -10 -30 -12q-4 -2 -15 -2q-1 0 -4 -1t-4 -1h-6q-4 -2 -14 -2h-4q-14 0 -31 10q-1 0 -2 1t-2 1q-16 12 -29 25l-8 8l-6 8l-8 6l-80 86l-51 60l-52 59q-162 -122 -166 -125q-186 -141 -202 -131q-4 0 -8 4v2l-5 4v3q-2 2 -2 8t4 14q3 3 3 6l14 23l6 8
l23 24l149 152q10 6 16 16q5 4 11 10t12.5 13t9.5 10l43 43l8 10l-43 50q-89 104 -129 155l-41 49l-38 52l-5 6q-11 14 -22 37q-3 9 -2 10t2.5 4t3.5 4q1 0 2 1t2 1q27 11 86 -45q4 -6 31 -33l53 -51l43 -43l68 -65l34 -33q3 -3 8 -8.5t10 -10t9 -8.5l39 41l135 135l25 25
q37 37 67 61q7 7 19 15l16 10l6 4q2 1 6 2t5 2h4q13 3 22 0q2 0 4 -2q8 -3 15 -16q4 -3 8 -17q4 -16 4 -24q0 -1 1 -4.5t1 -4.5z" />
    <glyph glyph-name="Oslash" unicode="&#xd8;" horiz-adv-x="1067" 
d="M860 1679q23 -22 27.5 -59t-1.5 -67.5t-22 -90.5l-22 -78q191 -167 194 -610v-51q-2 -165 -38.5 -295.5t-91 -208.5t-126.5 -129.5t-138 -70.5t-132 -19q-73 0 -143 31q-78 -204 -91 -207q-26 -8 -30 23t8 79q3 18 41 150q-192 166 -195 622v54q0 18 2 28
q-102 82 -102 269t149 313.5t386 126.5q79 0 147 -21q12 45 22.5 78.5t23.5 66t27 52t30 30.5t35 7t40 -23zM852 713v39q0 306 -64 471q-203 -610 -387 -1098q57 -66 142 -66q50 0 93.5 19t83.5 66t68.5 120t45.5 187.5t18 261.5zM485 987q26 67 82 60l95 342
q-68 41 -160 41q-187 0 -313 -99.5t-126 -257.5q0 -125 48 -196q22 164 88 279t149 161q57 33 112.5 40t61.5 -28q0 -12 -14 -18.5t-40.5 -12t-39.5 -10.5q-73 -35 -105.5 -151.5t-37.5 -323.5q64 16 119.5 61.5t80.5 112.5zM285 711q0 -318 57 -473l152 546
q-97 -56 -209 -59v-14z" />
    <glyph glyph-name="Ugrave" unicode="&#xd9;" horiz-adv-x="1593" 
d="M1737 426q9 60 33 68q17 6 24 -24q5 -23 0 -58q-67 -412 -289 -412q-55 0 -98.5 14t-84 48.5t-69 101t-41.5 162.5q-26 -94 -64 -161t-80 -101t-80.5 -49t-78.5 -15q-65 0 -111 21.5t-83 76t-55.5 157.5t-18.5 257q0 46 -1 168t-1 240q0 123 -9 207.5t-26 138t-47.5 83
t-66 40t-89.5 10.5q-95 0 -176.5 -95.5t-81.5 -236.5q0 -174 73.5 -251t174.5 -34q70 29 92 98q17 57 -11 90q-29 34 -83 3q-59 -34 -97 1q-32 28 -20 73q15 56 90 79q81 25 140 -55t41.5 -188t-123.5 -152q-54 -23 -105 -24t-95 22t-77 67t-52 115t-19 162q0 92 32 169.5
t84 127t116.5 76.5t131.5 27q173 0 280 -143t107 -423q0 -17 1 -155t1 -240v-281q4 -114 37 -144q21 -21 66 -21q33 0 64.5 14.5t67.5 57t64 109t49.5 180.5t28.5 261v580q0 162 18 202q25 54 103 -4q31 -24 42 -37.5t16 -39.5t5 -82q0 -22 -1 -319t-1 -482
q0 -265 26.5 -352.5t115.5 -87.5q159 0 211 360zM1171 1602q28 -18 17 -33q-15 -18 -59 0q-8 3 -16 8q-208 111 -346 235q-29 27 -44 55t-10 52t32 35q17 6 23 7.5t20 3t24.5 -4.5t20.5 -18q8 -9 41.5 -49t46.5 -54.5t43.5 -49t50 -53.5t47.5 -46t54.5 -48t54.5 -40z" />
    <glyph glyph-name="Uacute" unicode="&#xda;" horiz-adv-x="1593" 
d="M1737 426q9 60 33 68q17 6 24 -24q5 -23 0 -58q-67 -412 -289 -412q-55 0 -98.5 14t-84 48.5t-69 101t-41.5 162.5q-26 -94 -64 -161t-80 -101t-80.5 -49t-78.5 -15q-65 0 -111 21.5t-83 76t-55.5 157.5t-18.5 257q0 46 -1 168t-1 240q0 123 -9 207.5t-26 138t-47.5 83
t-66 40t-89.5 10.5q-95 0 -176.5 -95.5t-81.5 -236.5q0 -174 73.5 -251t174.5 -34q70 29 92 98q17 57 -11 90q-29 34 -83 3q-59 -34 -97 1q-32 28 -20 73q15 56 90 79q81 25 140 -55t41.5 -188t-123.5 -152q-54 -23 -105 -24t-95 22t-77 67t-52 115t-19 162q0 92 32 169.5
t84 127t116.5 76.5t131.5 27q173 0 280 -143t107 -423q0 -17 1 -155t1 -240v-281q4 -114 37 -144q21 -21 66 -21q33 0 64.5 14.5t67.5 57t64 109t49.5 180.5t28.5 261v580q0 162 18 202q25 54 103 -4q31 -24 42 -37.5t16 -39.5t5 -82q0 -22 -1 -319t-1 -482
q0 -265 26.5 -352.5t115.5 -87.5q159 0 211 360zM1149 1980q41 -15 35 -56.5t-49 -86.5q-142 -147 -322 -256q-48 -31 -70 -17q-17 11 3 31q3 3 8 7q45 34 92 84.5t72 82t78 103.5t65 88q18 25 43.5 27t44.5 -7z" />
    <glyph glyph-name="Ucircumflex" unicode="&#xdb;" horiz-adv-x="1593" 
d="M1737 426q9 60 33 68q17 6 24 -24q5 -23 0 -58q-67 -412 -289 -412q-55 0 -98.5 14t-84 48.5t-69 101t-41.5 162.5q-26 -94 -64 -161t-80 -101t-80.5 -49t-78.5 -15q-65 0 -111 21.5t-83 76t-55.5 157.5t-18.5 257q0 46 -1 168t-1 240q0 123 -9 207.5t-26 138t-47.5 83
t-66 40t-89.5 10.5q-95 0 -176.5 -95.5t-81.5 -236.5q0 -174 73.5 -251t174.5 -34q70 29 92 98q17 57 -11 90q-29 34 -83 3q-59 -34 -97 1q-32 28 -20 73q15 56 90 79q81 25 140 -55t41.5 -188t-123.5 -152q-54 -23 -105 -24t-95 22t-77 67t-52 115t-19 162q0 92 32 169.5
t84 127t116.5 76.5t131.5 27q173 0 280 -143t107 -423q0 -17 1 -155t1 -240v-281q4 -114 37 -144q21 -21 66 -21q33 0 64.5 14.5t67.5 57t64 109t49.5 180.5t28.5 261v580q0 162 18 202q25 54 103 -4q31 -24 42 -37.5t16 -39.5t5 -82q0 -22 -1 -319t-1 -482
q0 -265 26.5 -352.5t115.5 -87.5q159 0 211 360zM1343 1602q27 -20 15 -35q-14 -17 -56 4q-9 4 -18 10q-115 71 -280 240q-95 -95 -328 -240q-48 -32 -72 -17q-16 11 3 32q3 3 7 6q162 122 332 348q36 44 73 42.5t56 -42.5q114 -231 268 -348z" />
    <glyph glyph-name="Udieresis" unicode="&#xdc;" horiz-adv-x="1593" 
d="M1737 426q9 60 33 68q17 6 24 -24q5 -23 0 -58q-67 -412 -289 -412q-55 0 -98.5 14t-84 48.5t-69 101t-41.5 162.5q-26 -94 -64 -161t-80 -101t-80.5 -49t-78.5 -15q-65 0 -111 21.5t-83 76t-55.5 157.5t-18.5 257q0 46 -1 168t-1 240q0 123 -9 207.5t-26 138t-47.5 83
t-66 40t-89.5 10.5q-95 0 -176.5 -95.5t-81.5 -236.5q0 -174 73.5 -251t174.5 -34q70 29 92 98q17 57 -11 90q-29 34 -83 3q-59 -34 -97 1q-32 28 -20 73q15 56 90 79q81 25 140 -55t41.5 -188t-123.5 -152q-54 -23 -105 -24t-95 22t-77 67t-52 115t-19 162q0 92 32 169.5
t84 127t116.5 76.5t131.5 27q173 0 280 -143t107 -423q0 -17 1 -155t1 -240v-281q4 -114 37 -144q21 -21 66 -21q33 0 64.5 14.5t67.5 57t64 109t49.5 180.5t28.5 261v580q0 162 18 202q25 54 103 -4q31 -24 42 -37.5t16 -39.5t5 -82q0 -22 -1 -319t-1 -482
q0 -265 26.5 -352.5t115.5 -87.5q159 0 211 360zM1190 1849q59 -3 83 -33t15 -77q-12 -63 -47 -94t-82 -25q-42 7 -67.5 42t-30.5 77q-6 65 27 90t102 20zM805 1855q57 -3 79.5 -35.5t12.5 -80.5q-13 -63 -48.5 -94t-82.5 -25q-41 7 -67 41t-31 74q-6 62 36 93.5t101 26.5z
" />
    <glyph glyph-name="Yacute" unicode="&#xdd;" horiz-adv-x="1417" 
d="M1266 1403q78 58 102 3q18 -41 18 -202l-4 -960q-2 -180 -34.5 -321t-85.5 -230t-127.5 -146.5t-153 -80.5t-168.5 -23q-75 0 -134 31.5t-92.5 80t-48 108t-7.5 115t36 102.5t76 69q77 37 126 -2q35 -27 27 -68q-9 -46 -69 -61q-83 -20 -108 -91q-24 -69 22 -135
q57 -83 182 -91q11 -1 23 -1q82 0 144 37.5t110 121t73.5 227t26.5 345.5v50q-51 -152 -128 -216.5t-157 -64.5q-52 0 -91 12.5t-75 46.5t-58.5 90.5t-36 147.5t-13.5 215q0 45 -1 136t-1 210q0 153 -12.5 247.5t-44 145.5t-72.5 68t-109 18q-95 0 -176.5 -95t-81.5 -236
q0 -175 73.5 -252t174.5 -35q71 31 92 99q17 57 -11 89q-29 32 -83 2q-58 -32 -97 1q-32 29 -20 74q15 56 90 79q81 25 140 -54.5t41.5 -187t-123.5 -151.5q-54 -23 -105 -24t-95 21.5t-77 66t-52 114.5t-19 162q0 92 32 169.5t84 126.5t116.5 76t131.5 27q173 0 279 -141.5
t106 -421.5q0 -17 1 -124.5t1 -209.5v-73q-1 -237 15.5 -306.5t95.5 -69.5q32 0 62.5 14.5t65.5 56.5t62.5 107.5t48 177t27.5 255.5q2 248 2 567q0 56 5.5 82.5t16.5 41t42 38.5zM1143 1980q41 -16 34.5 -57t-49.5 -86q-70 -73 -159 -142.5t-162 -113.5q-48 -31 -70 -17
q-17 11 3 31q3 3 8 7q45 34 92 84.5t72 82t78 103.5t65 88q18 25 43.5 27t44.5 -7z" />
    <glyph glyph-name="Thorn" unicode="&#xde;" horiz-adv-x="931" 
d="M549 1018q57 0 105.5 -26.5t88.5 -82.5t63 -156t23 -235q0 -118 -31.5 -212t-79 -150t-110 -92.5t-119.5 -50t-112 -13.5q-110 0 -162 47q-31 -367 -51 -375q-32 -10 -47 28.5t-15 106.5v1412q0 161 18 202q25 54 103 -4q32 -24 43.5 -38t17 -41.5t3.5 -82.5
q-7 -202 -25 -526q21 68 49 120.5t56.5 83.5t61.5 51t61.5 27t58.5 7zM410 59q105 0 170 109.5t65 349.5q0 244 -21 340t-94 96q-28 0 -54.5 -11t-56.5 -37t-55 -76.5t-46.5 -121.5t-35 -180.5t-16.5 -246.5q8 -126 38 -174t106 -48z" />
    <glyph glyph-name="germandbls" unicode="&#xdf;" horiz-adv-x="1083" 
d="M637 829q53 -5 106 -19.5t108 -43t96.5 -67t68 -97.5t26.5 -129q0 -203 -114.5 -338t-296.5 -135q-103 0 -175.5 89t-72.5 226q0 58 36 104t105 46q52 0 78 -36.5t17 -76t-44 -49.5q-42 -12 -67 -35.5t-25 -52.5q0 -139 150 -139q62 0 103 26.5t62.5 78t29.5 112t8 145.5
q0 60 -15.5 113.5t-41.5 91.5t-59.5 68.5t-70.5 44.5t-74 19t-69 -7q-48 -14 -57 3t35 40q7 4 16 8q2 0 2 2q123 85 166 164.5t43 183.5q0 132 -55.5 204.5t-139.5 72.5q-47 0 -82.5 -17t-58 -52t-37 -76t-21.5 -102.5t-9.5 -116.5t-2.5 -132v-692q-8 -799 -467 -799
q-71 0 -125.5 25t-83 64.5t-39 88.5t-0.5 96t40.5 87.5t76.5 62.5q77 37 126 -2q35 -27 27 -68q-9 -46 -69 -61q-92 -22 -118 -82q-23 -54 24 -100q55 -53 174 -53q90 0 143 68.5t79.5 228t27.5 434.5v741q0 89 11.5 162.5t41 141t75.5 113.5t120 73.5t170 27.5
q47 0 95.5 -11.5t96 -37.5t84.5 -63t59.5 -92.5t22.5 -120.5q0 -217 -260 -353z" />
    <glyph glyph-name="agrave" unicode="&#xe0;" 
d="M1174 426q9 60 34 68q18 6 25 -24q5 -23 0 -58q-69 -412 -289 -412q-51 0 -92 12t-80 40.5t-68 83.5t-45 134q-42 -131 -110.5 -200.5t-159.5 -69.5q-58 0 -102 11t-85.5 42.5t-68.5 85t-43.5 142t-17.5 208.5v17q1 116 31 207.5t75 147t104 92.5t113.5 51t108.5 14
q91 0 141 -47q4 22 15.5 35t41.5 36q79 59 104 1q17 -41 17 -199v-338q0 -265 26 -352.5t116 -87.5q157 0 209 360zM637 651v2q0 308 -164 308q-216 0 -219 -443v-16q2 -260 34 -351.5t132 -91.5q94 0 155.5 169.5t61.5 422.5zM735 1192q28 -17 17 -32q-12 -19 -54 -2
q-10 4 -20 9q-205 109 -346 236q-29 27 -44 54.5t-10.5 51.5t31.5 35q17 6 23 7.5t20 3t24.5 -4.5t20.5 -18q8 -9 41.5 -49t46.5 -54.5t43.5 -49t50 -53.5t47.5 -46t54.5 -48t54.5 -40z" />
    <glyph glyph-name="aacute" unicode="&#xe1;" 
d="M1174 426q9 60 34 68q18 6 25 -24q5 -23 0 -58q-69 -412 -289 -412q-51 0 -92 12t-80 40.5t-68 83.5t-45 134q-42 -131 -110.5 -200.5t-159.5 -69.5q-58 0 -102 11t-85.5 42.5t-68.5 85t-43.5 142t-17.5 208.5v17q1 116 31 207.5t75 147t104 92.5t113.5 51t108.5 14
q91 0 141 -47q4 22 15.5 35t41.5 36q79 59 104 1q17 -41 17 -199v-338q0 -265 26 -352.5t116 -87.5q157 0 209 360zM637 651v2q0 308 -164 308q-216 0 -219 -443v-16q2 -260 34 -351.5t132 -91.5q94 0 155.5 169.5t61.5 422.5zM705 1571q41 -16 34.5 -57.5t-49.5 -86.5
q-70 -73 -159 -142.5t-162 -113.5q-49 -32 -71 -17q-17 12 4 32q3 3 7 6q45 34 92 84.5t72 82t78 103.5t65 88q18 25 44 27.5t45 -6.5z" />
    <glyph glyph-name="acircumflex" unicode="&#xe2;" 
d="M1174 426q9 60 34 68q18 6 25 -24q5 -23 0 -58q-69 -412 -289 -412q-51 0 -92 12t-80 40.5t-68 83.5t-45 134q-42 -131 -110.5 -200.5t-159.5 -69.5q-58 0 -102 11t-85.5 42.5t-68.5 85t-43.5 142t-17.5 208.5v17q1 116 31 207.5t75 147t104 92.5t113.5 51t108.5 14
q91 0 141 -47q4 22 15.5 35t41.5 36q79 59 104 1q17 -41 17 -199v-338q0 -265 26 -352.5t116 -87.5q157 0 209 360zM637 651v2q0 308 -164 308q-216 0 -219 -443v-16q2 -260 34 -351.5t132 -91.5q94 0 155.5 169.5t61.5 422.5zM879 1192q27 -21 14 -35q-16 -17 -59 5
q-8 4 -15 9q-115 71 -280 240q-95 -95 -328 -240q-48 -31 -70 -17q-17 10 1 31q4 3 8 7q159 120 331 348q36 44 73 42.5t56 -42.5q114 -229 269 -348z" />
    <glyph glyph-name="atilde" unicode="&#xe3;" 
d="M1174 426q9 60 34 68q18 6 25 -24q5 -23 0 -58q-69 -412 -289 -412q-51 0 -92 12t-80 40.5t-68 83.5t-45 134q-42 -131 -110.5 -200.5t-159.5 -69.5q-58 0 -102 11t-85.5 42.5t-68.5 85t-43.5 142t-17.5 208.5v17q1 116 31 207.5t75 147t104 92.5t113.5 51t108.5 14
q91 0 141 -47q4 22 15.5 35t41.5 36q79 59 104 1q17 -41 17 -199v-338q0 -265 26 -352.5t116 -87.5q157 0 209 360zM637 651v2q0 308 -164 308q-216 0 -219 -443v-16q2 -260 34 -351.5t132 -91.5q94 0 155.5 169.5t61.5 422.5zM483 1262l-10 6q-98 47 -169.5 40.5
t-100.5 -67.5q-9 -22 -25 -15q-17 8 -11 31q1 3 3 7q19 41 49 77t75 65.5t97.5 32t116.5 -23.5l12 -8q93 -44 174 -36t111 71q12 27 33 6q24 -23 21 -62q-1 -14 -7 -26q-39 -81 -144.5 -114t-224.5 16z" />
    <glyph glyph-name="adieresis" unicode="&#xe4;" 
d="M1174 426q9 60 34 68q18 6 25 -24q5 -23 0 -58q-69 -412 -289 -412q-51 0 -92 12t-80 40.5t-68 83.5t-45 134q-42 -131 -110.5 -200.5t-159.5 -69.5q-58 0 -102 11t-85.5 42.5t-68.5 85t-43.5 142t-17.5 208.5v17q1 116 31 207.5t75 147t104 92.5t113.5 51t108.5 14
q91 0 141 -47q4 22 15.5 35t41.5 36q79 59 104 1q17 -41 17 -199v-338q0 -265 26 -352.5t116 -87.5q157 0 209 360zM637 651v2q0 308 -164 308q-216 0 -219 -443v-16q2 -260 34 -351.5t132 -91.5q94 0 155.5 169.5t61.5 422.5zM727 1440q59 -3 83.5 -33.5t14.5 -77.5
q-12 -63 -47 -94t-82 -25q-42 7 -67.5 42t-30.5 77q-6 65 27 90.5t102 20.5zM342 1446q57 -3 79.5 -36t12.5 -81q-13 -63 -48.5 -94t-82.5 -25q-41 7 -67 41t-31 74q-6 62 36 94t101 27z" />
    <glyph glyph-name="aring" unicode="&#xe5;" 
d="M1174 426q9 60 34 68q18 6 25 -24q5 -23 0 -58q-69 -412 -289 -412q-51 0 -92 12t-80 40.5t-68 83.5t-45 134q-42 -131 -110.5 -200.5t-159.5 -69.5q-58 0 -102 11t-85.5 42.5t-68.5 85t-43.5 142t-17.5 208.5v17q1 116 31 207.5t75 147t104 92.5t113.5 51t108.5 14
q91 0 141 -47q4 22 15.5 35t41.5 36q79 59 104 1q17 -41 17 -199v-338q0 -265 26 -352.5t116 -87.5q157 0 209 360zM637 651v2q0 308 -164 308q-216 0 -219 -443v-16q2 -260 34 -351.5t132 -91.5q94 0 155.5 169.5t61.5 422.5zM498 1507q92 -6 130.5 -54t24.5 -122
q-21 -100 -77.5 -149t-129.5 -37q-66 10 -106 65.5t-47 120.5q-12 102 41.5 143t163.5 33zM571 1335q8 40 -13.5 66t-72.5 29q-59 5 -87.5 -17.5t-22.5 -77.5q3 -35 25.5 -65.5t58.5 -36.5q40 -6 70 20.5t42 81.5z" />
    <glyph glyph-name="ae" unicode="&#xe6;" horiz-adv-x="1329" 
d="M1462 426q8 59 33 68q19 7 26 -23q5 -23 -1 -59q-13 -82 -45 -148.5t-74.5 -110t-90.5 -75t-100 -47.5t-94.5 -23.5t-81.5 -7.5q-286 0 -362 279q-4 4 -4 10q-42 -139 -113 -214t-166 -75q-57 0 -100.5 11t-85.5 42.5t-69 85t-44 142t-18 208.5v17q2 116 32 207.5t75 147
t104.5 92.5t114 51t108.5 14q91 0 141 -47q3 15 11 27t17 19.5t30 24.5q32 24 53.5 30t34.5 -7t19.5 -37t8.5 -65q91 55 234 55q107 0 171 -62q78 -76 29 -196q-74 -185 -424 -398q14 -156 66.5 -226t157.5 -70q38 0 81 8.5t97.5 33t99 63t81 104.5t48.5 151zM639 651v2
q0 308 -166 308q-214 0 -217 -443v-16q0 -257 33 -350t133 -93q62 0 111.5 78t77 213t28.5 301zM1022 961q-107 0 -151 -107.5t-44 -347.5q0 -61 2 -90q205 130 269 296q43 113 6 191q-27 58 -82 58z" />
    <glyph glyph-name="ccedilla" unicode="&#xe7;" horiz-adv-x="681" 
d="M563 -182q53 -47 77 -104t18.5 -111.5t-36.5 -106.5t-80.5 -91t-120.5 -63t-151 -24q-66 0 -124 33.5t-89.5 86t-40.5 110.5t21.5 113t97.5 87q73 35 121 -5q36 -30 29 -74q-9 -47 -66 -62q-78 -19 -110 -75t14 -105.5t166 -49.5q58 0 116.5 22.5t100 62.5t63 88t6.5 105
t-69 107q-41 38 -88.5 56.5t-80 19t-56.5 4t-27 15.5q-5 25 18.5 77.5t46.5 85.5q-268 86 -268 486q0 252 97.5 382t314.5 130q75 0 121 -32.5t56 -81.5t0 -101.5t-44 -98.5t-80 -67q-77 -37 -124 0q-34 26 -25 65q11 44 71 58q48 12 81.5 45t40.5 67.5t-25.5 61.5
t-104.5 27q-107 0 -150.5 -107.5t-43.5 -347.5q0 -440 245 -440q33 0 68 8.5t77.5 33t77.5 63t64 104.5t41 151q9 60 34 68q18 6 25 -24q5 -23 0 -58q-16 -97 -52.5 -173t-80 -119.5t-95.5 -72t-94.5 -38t-82.5 -9.5q-42 0 -62 2l-2 -2l-49 -109q14 0 37.5 -2t80.5 -20
t95 -51z" />
    <glyph glyph-name="egrave" unicode="&#xe8;" horiz-adv-x="768" 
d="M901 426q9 60 33 68q18 6 25 -24q5 -23 -1 -58q-16 -97 -59 -173t-95.5 -119.5t-116 -72t-115.5 -38t-99 -9.5q-66 0 -122 15t-106.5 52t-86 93.5t-56 144.5t-20.5 201q0 252 98 382t314 130q107 0 171 -62q78 -76 29 -196q-74 -185 -424 -398q14 -157 66 -226.5
t158 -69.5q38 0 81 8.5t97.5 33t99 63t81 104.5t48.5 151zM461 961q-107 0 -151 -107.5t-44 -347.5q0 -61 2 -90q205 130 269 296q43 113 6 191q-27 58 -82 58zM604 1192q28 -17 17 -32q-12 -19 -54 -2q-10 4 -20 9q-205 109 -346 236q-29 27 -44 54.5t-10.5 51.5t31.5 35
q17 6 23 7.5t20 3t24.5 -4.5t20.5 -18q8 -9 41.5 -49t46.5 -54.5t43.5 -49t50 -53.5t47.5 -46t54.5 -48t54.5 -40z" />
    <glyph glyph-name="eacute" unicode="&#xe9;" horiz-adv-x="768" 
d="M901 426q9 60 33 68q18 6 25 -24q5 -23 -1 -58q-16 -97 -59 -173t-95.5 -119.5t-116 -72t-115.5 -38t-99 -9.5q-66 0 -122 15t-106.5 52t-86 93.5t-56 144.5t-20.5 201q0 252 98 382t314 130q107 0 171 -62q78 -76 29 -196q-74 -185 -424 -398q14 -157 66 -226.5
t158 -69.5q38 0 81 8.5t97.5 33t99 63t81 104.5t48.5 151zM461 961q-107 0 -151 -107.5t-44 -347.5q0 -61 2 -90q205 130 269 296q43 113 6 191q-27 58 -82 58zM614 1571q41 -15 35 -57t-49 -87q-70 -73 -159 -142.5t-162 -113.5q-49 -32 -71 -17q-17 12 4 32q3 3 7 6
q45 34 92 84.5t72 82t78 103.5t65 88q18 25 43.5 27.5t44.5 -6.5z" />
    <glyph glyph-name="ecircumflex" unicode="&#xea;" horiz-adv-x="768" 
d="M901 426q9 60 33 68q18 6 25 -24q5 -23 -1 -58q-16 -97 -59 -173t-95.5 -119.5t-116 -72t-115.5 -38t-99 -9.5q-66 0 -122 15t-106.5 52t-86 93.5t-56 144.5t-20.5 201q0 252 98 382t314 130q107 0 171 -62q78 -76 29 -196q-74 -185 -424 -398q14 -157 66 -226.5
t158 -69.5q38 0 81 8.5t97.5 33t99 63t81 104.5t48.5 151zM461 961q-107 0 -151 -107.5t-44 -347.5q0 -61 2 -90q205 130 269 296q43 113 6 191q-27 58 -82 58zM788 1192q27 -20 15 -35q-14 -17 -56 4q-9 4 -18 10q-115 71 -280 240q-95 -95 -328 -240q-48 -32 -72 -17
q-16 11 3 32q3 3 7 6q162 122 332 348q36 44 73 42.5t56 -42.5q114 -231 268 -348z" />
    <glyph glyph-name="edieresis" unicode="&#xeb;" horiz-adv-x="768" 
d="M901 426q9 60 33 68q18 6 25 -24q5 -23 -1 -58q-16 -97 -59 -173t-95.5 -119.5t-116 -72t-115.5 -38t-99 -9.5q-66 0 -122 15t-106.5 52t-86 93.5t-56 144.5t-20.5 201q0 252 98 382t314 130q107 0 171 -62q78 -76 29 -196q-74 -185 -424 -398q14 -157 66 -226.5
t158 -69.5q38 0 81 8.5t97.5 33t99 63t81 104.5t48.5 151zM461 961q-107 0 -151 -107.5t-44 -347.5q0 -61 2 -90q205 130 269 296q43 113 6 191q-27 58 -82 58zM635 1440q59 -3 83.5 -33.5t14.5 -77.5q-12 -63 -47 -94t-82 -25q-42 7 -67.5 42t-30.5 77q-6 65 27 90.5
t102 20.5zM250 1446q57 -3 79.5 -36t12.5 -81q-13 -63 -48.5 -94t-82.5 -25q-41 7 -67 41t-31 74q-6 62 36 94t101 27z" />
    <glyph glyph-name="igrave" unicode="&#xec;" horiz-adv-x="473" 
d="M616 426q8 59 32 68q19 7 26 -23q6 -23 0 -59q-67 -412 -289 -412q-52 0 -94 12t-82.5 45.5t-67 88.5t-43 146.5t-16.5 213.5v242q0 80 9.5 104t53.5 55q77 58 101 6q18 -47 18 -204v-203q0 -264 26.5 -352t115.5 -88q158 0 210 360zM457 1192q28 -18 17 -33
q-15 -18 -59 0q-8 3 -16 8q-205 109 -346 236q-29 27 -44 55t-10 51.5t32 34.5q17 6 23 7.5t20 3t24.5 -4.5t20.5 -18q8 -9 41.5 -49t46.5 -54.5t43.5 -49t50 -53.5t47.5 -46t54.5 -48t54.5 -40z" />
    <glyph glyph-name="iacute" unicode="&#xed;" horiz-adv-x="473" 
d="M616 426q8 59 32 68q19 7 26 -23q6 -23 0 -59q-67 -412 -289 -412q-52 0 -94 12t-82.5 45.5t-67 88.5t-43 146.5t-16.5 213.5v242q0 80 9.5 104t53.5 55q77 58 101 6q18 -47 18 -204v-203q0 -264 26.5 -352t115.5 -88q158 0 210 360zM426 1571q41 -15 35 -57t-49 -87
q-142 -147 -322 -256q-48 -31 -70 -17q-17 11 3 31q3 3 8 7q45 34 92 84.5t72 82t78 103.5t65 88q18 25 43.5 27.5t44.5 -6.5z" />
    <glyph glyph-name="icircumflex" unicode="&#xee;" horiz-adv-x="473" 
d="M617 426q8 59 32 68q19 7 26 -23q6 -23 0 -59q-67 -412 -289 -412q-52 0 -94 12t-82.5 45.5t-67 88.5t-43 146.5t-16.5 213.5v242q0 80 9.5 104t53.5 55q77 58 101 6q18 -47 18 -204v-203q0 -264 26.5 -352t115.5 -88q158 0 210 360zM560 1192q27 -20 15 -35
q-14 -17 -56 4q-9 4 -18 10q-117 73 -281 240q-95 -95 -328 -240q-48 -31 -70 -17q-17 10 1 31q4 3 8 7q162 122 332 348q36 44 73 42.5t56 -42.5q114 -231 268 -348z" />
    <glyph glyph-name="idieresis" unicode="&#xef;" horiz-adv-x="473" 
d="M616 426q8 59 32 68q19 7 26 -23q6 -23 0 -59q-67 -412 -289 -412q-52 0 -94 12t-82.5 45.5t-67 88.5t-43 146.5t-16.5 213.5v242q0 80 9.5 104t53.5 55q77 58 101 6q18 -47 18 -204v-203q0 -264 26.5 -352t115.5 -88q158 0 210 360zM426 1440q59 -3 83.5 -33.5
t14.5 -77.5q-12 -63 -47 -94t-82 -25q-42 7 -67.5 42t-30.5 77q-6 65 27 90.5t102 20.5zM41 1446q57 -3 79.5 -36t12.5 -81q-13 -63 -48.5 -94t-82.5 -25q-41 7 -67 41t-31 74q-6 62 36 94t101 27z" />
    <glyph glyph-name="eth" unicode="&#xf0;" horiz-adv-x="985" 
d="M739 1380q39 33 59 47.5t41.5 23t31 -4t12.5 -45.5q1 -31 -6.5 -44t-45.5 -46q-27 -24 -104 -78q184 -207 184 -629q0 -298 -111 -451t-292 -153q-89 0 -167 35t-137 99t-93.5 161t-34.5 215q0 92 27.5 165t72 116t102.5 67.5t118.5 25t120 -17t106.5 -53.5
q48 -38 40 -57q-7 -18 -49 2l-8 4q-166 90 -254 16.5t-88 -301.5q0 -74 13 -143t39 -128t71 -94.5t102 -35.5q121 0 168.5 139t47.5 424q0 349 -78 522q-221 -143 -236 -133q-34 19 37 82l154 131q-57 73 -131 105q-51 22 -57.5 46t23 29t64.5 -10q119 -65 172 -108z" />
    <glyph glyph-name="ntilde" unicode="&#xf1;" horiz-adv-x="1050" 
d="M1192 426q9 60 34 68q18 6 25 -24q5 -23 0 -58q-69 -412 -288 -412q-52 0 -94 12t-83 45.5t-68.5 88.5t-44 146.5t-16.5 213.5v6q0 45 1 123q1 194 -10 243q-13 60 -57 72q-15 4 -36 4q-35 0 -69 -16t-73 -65t-67.5 -127.5t-47.5 -216t-19 -316.5q0 -7 -3 -10
q0 -14 1.5 -30t1.5 -17q1 -54 -10 -88.5t-32 -48t-49.5 -18t-60.5 0.5q-14 1 -22.5 3.5t-13.5 9t-6.5 14t-1 24t2 32.5t3 45t1.5 58v695q0 78 10 101.5t54 57.5q78 58 102 4q18 -42 18 -202v-127q27 88 64.5 150t79 93.5t79 44.5t76.5 13q52 0 90.5 -12t73.5 -45t57 -88.5
t35 -146t13 -214.5v-6q0 -266 25.5 -353t115.5 -87q159 0 209 360zM492 1262l-11 6q-98 47 -169.5 40.5t-100.5 -67.5q-9 -22 -25 -15q-17 8 -11 31q1 3 3 7q19 41 49 77t75 65.5t97.5 32t116.5 -23.5l12 -8q93 -44 174 -36t111 71q12 27 33 6q24 -23 21 -62q-1 -14 -7 -26
q-25 -52 -82.5 -87t-131.5 -40.5t-154 29.5z" />
    <glyph glyph-name="ograve" unicode="&#xf2;" horiz-adv-x="931" 
d="M1077 735q28 21 49 7q19 -13 1 -35q-4 -6 -11 -11q-137 -109 -293 -161v-21q-2 -116 -32 -208.5t-75 -148.5t-104.5 -92.5t-114 -50.5t-108.5 -14q-57 0 -101 11t-86 42.5t-69 85t-43.5 142t-17.5 208.5v17q1 109 28 197t67.5 143.5t95.5 94t106.5 55.5t105.5 22
q31 2 36 -20q5 -21 -17 -32q-9 -5 -21 -5q-214 0 -217 -443v-16q0 -257 33 -350t133 -93q214 0 217 443h-21q-132 0 -196 57.5t-64 153.5t51.5 153.5t149.5 57.5h8q24 0 38 -0.5t42.5 -7t47 -18t42.5 -36.5t39.5 -59.5t28 -89.5t16.5 -125q125 45 256 147zM420 721
q0 -74 57 -120t160 -46h2q-1 101 -8.5 165t-21.5 94t-28.5 40t-37.5 12q-61 0 -92 -34t-31 -111zM686 1192q28 -17 17 -32q-12 -19 -54 -2q-10 4 -20 9q-205 109 -346 236q-29 27 -44 54.5t-10.5 51.5t31.5 35q17 6 23 7.5t20 3t24.5 -4.5t20.5 -18q8 -9 41.5 -49
t46.5 -54.5t43.5 -49t50 -53.5t47.5 -46t54.5 -48t54.5 -40z" />
    <glyph glyph-name="oacute" unicode="&#xf3;" horiz-adv-x="931" 
d="M1077 735q28 21 49 7q19 -13 1 -35q-4 -6 -11 -11q-137 -109 -293 -161v-21q-2 -116 -32 -208.5t-75 -148.5t-104.5 -92.5t-114 -50.5t-108.5 -14q-57 0 -101 11t-86 42.5t-69 85t-43.5 142t-17.5 208.5v17q1 109 28 197t67.5 143.5t95.5 94t106.5 55.5t105.5 22
q31 2 36 -20q5 -21 -17 -32q-9 -5 -21 -5q-214 0 -217 -443v-16q0 -257 33 -350t133 -93q214 0 217 443h-21q-132 0 -196 57.5t-64 153.5t51.5 153.5t149.5 57.5h8q24 0 38 -0.5t42.5 -7t47 -18t42.5 -36.5t39.5 -59.5t28 -89.5t16.5 -125q125 45 256 147zM420 721
q0 -74 57 -120t160 -46h2q-1 101 -8.5 165t-21.5 94t-28.5 40t-37.5 12q-61 0 -92 -34t-31 -111zM655 1571q41 -15 35 -57t-49 -87q-142 -147 -322 -256q-48 -31 -70 -17q-17 11 3 31q3 3 8 7q45 34 92 84.5t72 82t78 103.5t65 88q18 25 43.5 27.5t44.5 -6.5z" />
    <glyph glyph-name="ocircumflex" unicode="&#xf4;" horiz-adv-x="931" 
d="M1077 735q28 21 49 7q19 -13 1 -35q-4 -6 -11 -11q-137 -109 -293 -161v-21q-2 -116 -32 -208.5t-75 -148.5t-104.5 -92.5t-114 -50.5t-108.5 -14q-57 0 -101 11t-86 42.5t-69 85t-43.5 142t-17.5 208.5v17q1 109 28 197t67.5 143.5t95.5 94t106.5 55.5t105.5 22
q31 2 36 -20q5 -21 -17 -32q-9 -5 -21 -5q-214 0 -217 -443v-16q0 -257 33 -350t133 -93q214 0 217 443h-21q-132 0 -196 57.5t-64 153.5t51.5 153.5t149.5 57.5h8q24 0 38 -0.5t42.5 -7t47 -18t42.5 -36.5t39.5 -59.5t28 -89.5t16.5 -125q125 45 256 147zM420 721
q0 -74 57 -120t160 -46h2q-1 101 -8.5 165t-21.5 94t-28.5 40t-37.5 12q-61 0 -92 -34t-31 -111zM829 1192q27 -20 15 -35q-14 -17 -56 4q-9 4 -18 10q-117 73 -281 240q-97 -97 -327 -240q-48 -32 -72 -17q-16 11 3 32q3 3 7 6q162 122 332 348q36 44 73 42.5t56 -42.5
q114 -231 268 -348z" />
    <glyph glyph-name="otilde" unicode="&#xf5;" horiz-adv-x="931" 
d="M1077 735q28 21 49 7q19 -13 1 -35q-4 -6 -11 -11q-137 -109 -293 -161v-21q-2 -116 -32 -208.5t-75 -148.5t-104.5 -92.5t-114 -50.5t-108.5 -14q-57 0 -101 11t-86 42.5t-69 85t-43.5 142t-17.5 208.5v17q1 109 28 197t67.5 143.5t95.5 94t106.5 55.5t105.5 22
q31 2 36 -20q5 -21 -17 -32q-9 -5 -21 -5q-214 0 -217 -443v-16q0 -257 33 -350t133 -93q214 0 217 443h-21q-132 0 -196 57.5t-64 153.5t51.5 153.5t149.5 57.5h8q24 0 38 -0.5t42.5 -7t47 -18t42.5 -36.5t39.5 -59.5t28 -89.5t16.5 -125q125 45 256 147zM420 721
q0 -74 57 -120t160 -46h2q-1 101 -8.5 165t-21.5 94t-28.5 40t-37.5 12q-61 0 -92 -34t-31 -111zM432 1262l-10 6q-98 47 -169.5 40.5t-100.5 -67.5q-9 -22 -25 -15q-17 8 -11 31q1 3 3 7q19 41 49 77t75 65.5t97.5 32t116.5 -23.5l12 -8q93 -44 174 -36t111 71q12 27 33 6
q24 -23 21 -62q-1 -14 -7 -26q-39 -81 -144.5 -114t-224.5 16z" />
    <glyph glyph-name="odieresis" unicode="&#xf6;" horiz-adv-x="931" 
d="M1077 735q28 21 49 7q19 -13 1 -35q-4 -6 -11 -11q-137 -109 -293 -161v-21q-2 -116 -32 -208.5t-75 -148.5t-104.5 -92.5t-114 -50.5t-108.5 -14q-57 0 -101 11t-86 42.5t-69 85t-43.5 142t-17.5 208.5v17q1 109 28 197t67.5 143.5t95.5 94t106.5 55.5t105.5 22
q31 2 36 -20q5 -21 -17 -32q-9 -5 -21 -5q-214 0 -217 -443v-16q0 -257 33 -350t133 -93q214 0 217 443h-21q-132 0 -196 57.5t-64 153.5t51.5 153.5t149.5 57.5h8q24 0 38 -0.5t42.5 -7t47 -18t42.5 -36.5t39.5 -59.5t28 -89.5t16.5 -125q125 45 256 147zM420 721
q0 -74 57 -120t160 -46h2q-1 101 -8.5 165t-21.5 94t-28.5 40t-37.5 12q-61 0 -92 -34t-31 -111zM676 1337q59 -3 83 -33t15 -77q-12 -63 -47 -94t-82 -25q-42 7 -67.5 42t-30.5 77q-6 65 27 90t102 20zM291 1343q57 -3 79.5 -35.5t12.5 -80.5q-13 -63 -48.5 -94t-82.5 -25
q-41 7 -67 41t-31 74q-6 62 36 93.5t101 26.5z" />
    <glyph glyph-name="divide" unicode="&#xf7;" horiz-adv-x="1705" 
d="M784 209q107 0 107 -94q0 -45 -32.5 -83t-74.5 -38q-43 0 -74.5 38t-31.5 83q0 41 30.5 67.5t75.5 26.5zM784 580q-43 0 -74.5 38t-31.5 82q0 41 30.5 68t75.5 27q107 0 107 -95q0 -44 -32.5 -82t-74.5 -38zM920 457q57 0 84.5 -2t56 -10.5t20.5 -25.5t-22 -48
q-24 -30 -40.5 -36.5t-72.5 -6.5q-92 0 -297.5 28.5t-212.5 49.5q-7 22 18.5 31t73.5 9q28 0 188 5.5t204 5.5z" />
    <glyph glyph-name="oslash" unicode="&#xf8;" horiz-adv-x="931" 
d="M641 1257q23 -22 27.5 -59t-1.5 -67.5t-22 -90.5l-35 -118q28 -2 52 -9.5t52.5 -29.5t49 -56.5t36.5 -96t21 -142.5q125 45 256 147q28 21 49 7q19 -13 1 -35q-4 -6 -11 -11q-137 -109 -293 -161v-21q-2 -116 -32 -208.5t-75 -148.5t-104.5 -92.5t-114 -50.5t-108.5 -14
q-59 0 -98 10q-56 -138 -66 -141q-26 -8 -30 23t8 79l16 70q-147 92 -147 448v17q1 105 26 190.5t63 140.5t90 94.5t101.5 58.5t102.5 26q13 49 23.5 85t24.5 74t28.5 59.5t31 36t36.5 10.5t42 -24zM618 502q-83 0 -141 22q-48 -142 -153 -430q32 -35 98 -35q214 0 217 443
h-21zM358 713q0 109 64 164l18 81q-181 -30 -184 -440v-16q0 -163 12 -262l99 407q-9 30 -9 66zM639 555q-3 140 -15.5 206t-37.5 89q-38 -118 -88 -264q54 -31 139 -31h2z" />
    <glyph glyph-name="ugrave" unicode="&#xf9;" horiz-adv-x="1042" 
d="M1184 426q9 60 34 68q18 6 25 -24q5 -23 0 -58q-67 -412 -289 -412q-51 0 -91.5 12t-79.5 40.5t-68 82.5t-45 133q-42 -130 -111 -199t-160 -69q-58 0 -102 11t-85.5 42.5t-68.5 85t-43.5 142t-17.5 208.5v394q0 80 9.5 103t53.5 56q79 59 103 3q18 -40 18 -201v-342
q0 -257 32.5 -350t131.5 -93q87 0 147 141.5t72 370.5v312q0 78 10 101.5t54 57.5q79 59 103 3q18 -40 18 -201v-338q0 -266 25.5 -353t115.5 -87q159 0 209 360zM691 1192q28 -17 17 -32q-12 -19 -54 -2q-10 4 -20 9q-205 109 -346 236q-29 27 -44 54.5t-10.5 51.5t31.5 35
q17 6 23 7.5t20 3t24.5 -4.5t20.5 -18q8 -9 41.5 -49t46.5 -54.5t43.5 -49t50 -53.5t47.5 -46t54.5 -48t54.5 -40z" />
    <glyph glyph-name="uacute" unicode="&#xfa;" horiz-adv-x="1042" 
d="M1184 426q9 60 34 68q18 6 25 -24q5 -23 0 -58q-67 -412 -289 -412q-51 0 -91.5 12t-79.5 40.5t-68 82.5t-45 133q-42 -130 -111 -199t-160 -69q-58 0 -102 11t-85.5 42.5t-68.5 85t-43.5 142t-17.5 208.5v394q0 80 9.5 103t53.5 56q79 59 103 3q18 -40 18 -201v-342
q0 -257 32.5 -350t131.5 -93q87 0 147 141.5t72 370.5v312q0 78 10 101.5t54 57.5q79 59 103 3q18 -40 18 -201v-338q0 -266 25.5 -353t115.5 -87q159 0 209 360zM711 1571q41 -16 34.5 -57.5t-49.5 -86.5q-70 -73 -159 -142.5t-162 -113.5q-49 -32 -71 -17q-17 12 4 32
q3 3 7 6q45 34 92.5 85t71.5 81t79 104.5t65 87.5q18 25 43.5 27.5t44.5 -6.5z" />
    <glyph glyph-name="ucircumflex" unicode="&#xfb;" horiz-adv-x="1042" 
d="M1184 426q9 60 34 68q18 6 25 -24q5 -23 0 -58q-67 -412 -289 -412q-51 0 -91.5 12t-79.5 40.5t-68 82.5t-45 133q-42 -130 -111 -199t-160 -69q-58 0 -102 11t-85.5 42.5t-68.5 85t-43.5 142t-17.5 208.5v394q0 80 9.5 103t53.5 56q79 59 103 3q18 -40 18 -201v-342
q0 -257 32.5 -350t131.5 -93q87 0 147 141.5t72 370.5v312q0 78 10 101.5t54 57.5q79 59 103 3q18 -40 18 -201v-338q0 -266 25.5 -353t115.5 -87q159 0 209 360zM823 1192q27 -20 15 -35q-14 -17 -56 4q-9 4 -18 10q-117 73 -281 240q-97 -97 -327 -240q-48 -32 -72 -17
q-16 11 3 32q3 3 7 6q162 122 332 348q36 44 73 42.5t56 -42.5q114 -231 268 -348z" />
    <glyph glyph-name="udieresis" unicode="&#xfc;" horiz-adv-x="1042" 
d="M1184 426q9 60 34 68q18 6 25 -24q5 -23 0 -58q-67 -412 -289 -412q-51 0 -91.5 12t-79.5 40.5t-68 82.5t-45 133q-42 -130 -111 -199t-160 -69q-58 0 -102 11t-85.5 42.5t-68.5 85t-43.5 142t-17.5 208.5v394q0 80 9.5 103t53.5 56q79 59 103 3q18 -40 18 -201v-342
q0 -257 32.5 -350t131.5 -93q87 0 147 141.5t72 370.5v312q0 78 10 101.5t54 57.5q79 59 103 3q18 -40 18 -201v-338q0 -266 25.5 -353t115.5 -87q159 0 209 360zM670 1440q59 -3 83.5 -33.5t14.5 -77.5q-12 -63 -47 -94t-82 -25q-42 7 -67.5 42t-30.5 77q-6 65 27 90.5
t102 20.5zM285 1446q57 -3 79.5 -36t12.5 -81q-13 -63 -48.5 -94t-82.5 -25q-41 7 -67.5 41.5t-31.5 73.5q-6 62 36.5 94t101.5 27z" />
    <glyph glyph-name="yacute" unicode="&#xfd;" horiz-adv-x="884" 
d="M715 1042q77 58 101 6q18 -47 18 -204v-694q-8 -801 -467 -801q-75 0 -134.5 31.5t-92.5 80t-48 108t-7.5 115t36.5 102.5t76 69q76 36 126 -1q36 -28 27 -68q-9 -46 -69 -60q-83 -20 -108 -91q-25 -69 21 -135q57 -83 182 -91q11 -1 23 -1q90 0 143.5 68t80 227
t28.5 434v76q-89 -213 -252 -213q-57 0 -101 11t-86 42.5t-69 85t-43.5 142t-17.5 208.5v394q0 56 5 82t16 39.5t42 37.5q79 59 103 3q18 -40 18 -201v-342q0 -257 33 -350t133 -93q86 0 145.5 141.5t73.5 370.5v312q0 57 5 82t16 39t43 38zM631 1571q41 -16 34.5 -57.5
t-49.5 -86.5q-70 -73 -159 -142.5t-162 -113.5q-48 -31 -70 -17q-17 11 3 31q3 3 8 7q45 34 92 84.5t72 82t78 103.5t65 88q18 25 43.5 27.5t44.5 -6.5z" />
    <glyph glyph-name="thorn" unicode="&#xfe;" horiz-adv-x="931" 
d="M549 1018q57 0 105.5 -26.5t88.5 -82.5t63 -156t23 -235q0 -118 -31.5 -212t-79 -150t-110 -92.5t-119.5 -50t-112 -13.5q-110 0 -162 47q-31 -367 -51 -375q-32 -10 -47 28.5t-15 106.5v1412q0 161 18 202q25 54 103 -4q32 -24 43.5 -38t17 -41.5t3.5 -82.5
q-7 -202 -25 -526q21 68 49 120.5t56.5 83.5t61.5 51t61.5 27t58.5 7zM410 59q105 0 170 109.5t65 349.5q0 244 -21 340t-94 96q-28 0 -54.5 -11t-56.5 -37t-55 -76.5t-46.5 -121.5t-35 -180.5t-16.5 -246.5q8 -126 38 -174t106 -48z" />
    <glyph glyph-name="ydieresis" unicode="&#xff;" horiz-adv-x="884" 
d="M715 1042q77 58 101 6q18 -47 18 -204v-694q-8 -801 -467 -801q-75 0 -134.5 31.5t-92.5 80t-48 108t-7.5 115t36.5 102.5t76 69q76 36 126 -1q36 -28 27 -68q-9 -46 -69 -60q-83 -20 -108 -91q-25 -69 21 -135q57 -83 182 -91q11 -1 23 -1q90 0 143.5 68t80 227
t28.5 434v76q-89 -213 -252 -213q-57 0 -101 11t-86 42.5t-69 85t-43.5 142t-17.5 208.5v394q0 56 5 82t16 39.5t42 37.5q79 59 103 3q18 -40 18 -201v-342q0 -257 33 -350t133 -93q86 0 145.5 141.5t73.5 370.5v312q0 57 5 82t16 39t43 38zM653 1440q59 -3 83.5 -33.5
t15.5 -77.5q-12 -63 -47 -94t-82 -25q-42 7 -68 42t-31 77q-6 65 27 90.5t102 20.5zM268 1446q57 -3 79.5 -36t12.5 -81q-13 -63 -48.5 -94t-82.5 -25q-41 7 -67 41t-31 74q-6 62 36 94t101 27z" />
    <glyph glyph-name="Amacron" unicode="&#x100;" horiz-adv-x="1798" 
d="M1921 426q9 60 33 68q18 6 25 -24q5 -23 -1 -58q-67 -412 -286 -412q-46 0 -81.5 7t-75.5 26.5t-73.5 58t-68 97.5t-67 149.5t-62.5 210.5q-107 -1 -283 -8.5t-264 -8.5q-72 -266 -169.5 -399t-250.5 -133q-127 0 -195.5 96.5t-68.5 241.5q0 121 85 203t187 82
q80 0 114 -64q27 -49 6 -92q-16 -32 -52 -33q-39 0 -77.5 -8t-78 -26t-64 -54t-24.5 -86q0 -88 52 -141t136 -53q97 0 188 134t148 375q0 14 6 29l7 27q65 308 117.5 491.5t92.5 259.5t85 101l-70 18q-27 7 -68 4.5t-86.5 -7.5t-91.5 -23.5t-83 -43t-61 -66t-26 -91.5
q-1 -32 34.5 -60t100.5 -45q60 -17 68 -63q8 -41 -28 -67q-50 -38 -126 1q-46 24 -75.5 89.5t-26.5 144.5q2 90 73.5 165.5t188 110.5t238.5 11q72 -14 127.5 -41.5t106.5 -78.5t90.5 -129t74.5 -190.5t65 -265.5q84 -430 156 -610t168 -180q159 0 211 360zM745 645
q72 0 240 -1t258 -1q-8 31 -10 49q-23 111 -50.5 252.5t-40 202.5t-31.5 132t-38 106t-47 59q-49 -6 -119 -214t-162 -585zM1126 1817q57 0 84.5 -2t56.5 -10t21 -25t-22 -47q-22 -31 -39 -38t-74 -7q-92 0 -297.5 28t-212.5 49q-7 22 19 31.5t73 9.5q28 0 187.5 5.5
t203.5 5.5z" />
    <glyph glyph-name="amacron" unicode="&#x101;" 
d="M1174 426q9 60 34 68q18 6 25 -24q5 -23 0 -58q-69 -412 -289 -412q-51 0 -92 12t-80 40.5t-68 83.5t-45 134q-42 -131 -110.5 -200.5t-159.5 -69.5q-58 0 -102 11t-85.5 42.5t-68.5 85t-43.5 142t-17.5 208.5v17q1 116 31 207.5t75 147t104 92.5t113.5 51t108.5 14
q91 0 141 -47q4 22 15.5 35t41.5 36q79 59 104 1q17 -41 17 -199v-338q0 -265 26 -352.5t116 -87.5q157 0 209 360zM637 651v2q0 308 -164 308q-216 0 -219 -443v-16q2 -260 34 -351.5t132 -91.5q94 0 155.5 169.5t61.5 422.5zM662 1407q57 0 84.5 -2t56 -10t20.5 -25
t-22 -47q-22 -31 -39 -38t-74 -7q-92 0 -297.5 28.5t-212.5 49.5q-7 22 19 31.5t73 9.5q28 0 188 5t204 5z" />
    <glyph glyph-name="Abreve" unicode="&#x102;" horiz-adv-x="1798" 
d="M1921 426q9 60 33 68q18 6 25 -24q5 -23 -1 -58q-67 -412 -286 -412q-46 0 -81.5 7t-75.5 26.5t-73.5 58t-68 97.5t-67 149.5t-62.5 210.5q-107 -1 -283 -8.5t-264 -8.5q-72 -266 -169.5 -399t-250.5 -133q-127 0 -195.5 96.5t-68.5 241.5q0 121 85 203t187 82
q80 0 114 -64q27 -49 6 -92q-16 -32 -52 -33q-39 0 -77.5 -8t-78 -26t-64 -54t-24.5 -86q0 -88 52 -141t136 -53q97 0 188 134t148 375q0 14 6 29l7 27q65 308 117.5 491.5t92.5 259.5t85 101l-70 18q-27 7 -68 4.5t-86.5 -7.5t-91.5 -23.5t-83 -43t-61 -66t-26 -91.5
q-1 -32 34.5 -60t100.5 -45q60 -17 68 -63q8 -41 -28 -67q-50 -38 -126 1q-46 24 -75.5 89.5t-26.5 144.5q2 90 73.5 165.5t188 110.5t238.5 11q72 -14 127.5 -41.5t106.5 -78.5t90.5 -129t74.5 -190.5t65 -265.5q84 -430 156 -610t168 -180q159 0 211 360zM745 645
q72 0 240 -1t258 -1q-8 31 -10 49q-23 111 -50.5 252.5t-40 202.5t-31.5 132t-38 106t-47 59q-49 -6 -119 -214t-162 -585zM1266 1960q8 56 46 65q31 8 50 -19q13 -19 8 -46q-31 -162 -139.5 -252t-247.5 -90q-135 0 -226 91.5t-69 232.5q9 60 51 74q34 12 54 -14
q17 -22 8 -58q-23 -90 41.5 -163t158.5 -73q90 0 170 75t95 177z" />
    <glyph glyph-name="abreve" unicode="&#x103;" 
d="M1174 426q9 60 34 68q18 6 25 -24q5 -23 0 -58q-69 -412 -289 -412q-51 0 -92 12t-80 40.5t-68 83.5t-45 134q-42 -131 -110.5 -200.5t-159.5 -69.5q-58 0 -102 11t-85.5 42.5t-68.5 85t-43.5 142t-17.5 208.5v17q1 116 31 207.5t75 147t104 92.5t113.5 51t108.5 14
q91 0 141 -47q4 22 15.5 35t41.5 36q79 59 104 1q17 -41 17 -199v-338q0 -265 26 -352.5t116 -87.5q157 0 209 360zM637 651v2q0 308 -164 308q-216 0 -219 -443v-16q2 -260 34 -351.5t132 -91.5q94 0 155.5 169.5t61.5 422.5zM760 1509q8 56 46 65q31 8 50 -19
q13 -19 8 -46q-31 -162 -139.5 -252t-247.5 -90q-135 0 -226 91.5t-69 232.5q9 60 51 74q34 12 54 -14q17 -22 8 -58q-23 -90 42 -163t159 -73q90 0 169.5 75t94.5 177z" />
    <glyph glyph-name="Aogonek" unicode="&#x104;" horiz-adv-x="1798" 
d="M1823 -481q9 33 29 33q18 0 23 -24q4 -18 -3 -40q-78 -246 -248 -246q-101 0 -174.5 84t-73.5 221q0 128 69 247t181 210q-56 7 -100.5 33.5t-91 85t-89 165t-81.5 261.5q-107 -1 -283 -8.5t-264 -8.5q-72 -266 -169.5 -399t-250.5 -133q-127 0 -195.5 96.5t-68.5 241.5
q0 121 85 203t187 82q80 0 114 -64q27 -49 6 -92q-16 -32 -52 -33q-39 0 -77.5 -8t-78 -26t-64 -54t-24.5 -86q0 -88 52 -141t136 -53q97 0 188 134t148 375q0 14 6 29l7 27q65 308 117.5 491.5t92.5 259.5t85 101l-70 18q-27 7 -68 4.5t-86.5 -7.5t-91.5 -23.5t-83 -43
t-61 -66t-26 -91.5q-1 -32 34.5 -60t100.5 -45q60 -17 68 -63q8 -41 -28 -67q-50 -38 -126 1q-46 24 -75.5 89.5t-26.5 144.5q2 90 73.5 165.5t188 110.5t238.5 11q72 -14 127.5 -41.5t106.5 -78.5t90.5 -129t74.5 -190.5t65 -265.5q84 -430 156 -610t168 -180
q159 0 211 360q9 60 33 68q18 6 25 -24q5 -23 -1 -58q-59 -356 -231 -406q-14 -14 -53 -41q-133 -98 -133 -418v-23v-40t0.5 -39t3 -36.5t6 -32.5t9.5 -27.5t14.5 -21.5t20.5 -14t27 -5q123 0 181 211zM745 645q72 0 240 -1t258 -1q-8 31 -10 49q-23 111 -50.5 252.5
t-40 202.5t-31.5 132t-38 106t-47 59q-49 -6 -119 -214t-162 -585z" />
    <glyph glyph-name="aogonek" unicode="&#x105;" 
d="M1059 -481q9 33 29 33q18 0 23 -24q4 -18 -3 -40q-78 -246 -248 -246q-101 0 -174.5 84t-73.5 221q0 131 70.5 250.5t185.5 210.5q-163 35 -209 262q-42 -131 -110.5 -200.5t-159.5 -69.5q-58 0 -102 11t-85.5 42.5t-68.5 85t-43.5 142t-17.5 208.5v17q1 116 31 207.5
t75 147t104 92.5t113.5 51t108.5 14q91 0 141 -47q4 22 15.5 35t41.5 36q79 59 104 1q17 -41 17 -199v-338q0 -265 26 -352.5t116 -87.5q157 0 209 360q9 60 34 68q18 6 25 -24q5 -23 0 -58q-64 -383 -254 -410l-49 -37q-133 -98 -133 -418v-20q0 -36 0.5 -54.5t2.5 -49
t7 -47t14 -34.5t23.5 -26t34.5 -8q122 0 180 211zM637 651v2q0 308 -164 308q-216 0 -219 -443v-16q2 -260 34 -351.5t132 -91.5q94 0 155.5 169.5t61.5 422.5z" />
    <glyph glyph-name="Cacute" unicode="&#x106;" horiz-adv-x="933" 
d="M1016 436q9 60 33 68q18 6 25 -24q5 -23 -1 -58q-31 -193 -173.5 -307.5t-356.5 -114.5q-74 0 -139.5 21.5t-127 73t-106 130t-71 199.5t-27.5 274v17q1 125 26.5 233t68 184.5t95 136t111.5 94.5t115 53t108 18q77 0 142.5 -27t108.5 -71t68.5 -101t28.5 -115
t-17.5 -116t-64.5 -101q-29 -30 -63.5 -45.5t-75 -9t-74.5 40.5q-57 57 -60 125q-1 54 34 66q13 5 30 1q58 -14 87 -10t55 31q20 20 30.5 47.5t10.5 58t-17 60t-47 53.5t-83.5 38.5t-123.5 14.5q-130 0 -219 -164.5t-92 -482.5v-16q3 -652 319 -652q176 0 297.5 107
t145.5 270zM655 1980q41 -15 35 -56.5t-49 -86.5q-142 -147 -322 -256q-48 -31 -70 -17q-17 11 3 31q3 3 8 7q45 34 92 84.5t72 82t78 103.5t65 88q18 25 43.5 27t44.5 -7z" />
    <glyph glyph-name="cacute" unicode="&#x107;" horiz-adv-x="681" 
d="M809 426q9 60 34 68q18 6 25 -24q5 -23 0 -58q-16 -97 -52.5 -173t-80 -119.5t-95.5 -72t-94.5 -38t-82.5 -9.5q-59 0 -112.5 12t-110 46t-97 88t-66.5 146.5t-26 213.5q0 252 97.5 382t314.5 130q75 0 121 -32.5t56 -81.5t0 -101.5t-44 -98.5t-80 -67q-77 -37 -124 0
q-34 26 -25 65q11 44 71 58q48 12 81.5 45t40.5 67.5t-25.5 61.5t-104.5 27q-107 0 -150.5 -107.5t-43.5 -347.5q0 -440 245 -440q33 0 68 8.5t77.5 33t77.5 63t64 104.5t41 151zM530 1571q41 -15 35 -57t-49 -87q-70 -73 -159 -142.5t-162 -113.5q-49 -32 -71 -17
q-17 12 4 32q3 3 7 6q45 34 92 84.5t72 82t78 103.5t65 88q18 25 43.5 27.5t44.5 -6.5z" />
    <glyph glyph-name="ccircumflex" unicode="&#x109;" horiz-adv-x="681" 
d="M810 426q9 60 34 68q18 6 25 -24q5 -23 0 -58q-16 -97 -52.5 -173t-80 -119.5t-95.5 -72t-94.5 -38t-82.5 -9.5q-59 0 -112.5 12t-110 46t-97 88t-66.5 146.5t-26 213.5q0 252 97.5 382t314.5 130q75 0 121 -32.5t56 -81.5t0 -101.5t-44 -98.5t-80 -67q-77 -37 -124 0
q-34 26 -25 65q11 44 71 58q48 12 81.5 45t40.5 67.5t-25.5 61.5t-104.5 27q-107 0 -150.5 -107.5t-43.5 -347.5q0 -440 245 -440q33 0 68 8.5t77.5 33t77.5 63t64 104.5t41 151zM706 1192q27 -21 14 -35q-16 -17 -59 5q-8 4 -15 9q-115 71 -280 240q-95 -95 -328 -240
q-48 -32 -72 -17q-16 11 3 32q3 3 7 6q162 122 332 348q36 44 73 42.5t56 -42.5q114 -229 269 -348z" />
    <glyph glyph-name="cdotaccent" unicode="&#x10b;" horiz-adv-x="681" 
d="M809 426q9 60 34 68q18 6 25 -24q5 -23 0 -58q-16 -97 -52.5 -173t-80 -119.5t-95.5 -72t-94.5 -38t-82.5 -9.5q-59 0 -112.5 12t-110 46t-97 88t-66.5 146.5t-26 213.5q0 252 97.5 382t314.5 130q75 0 121 -32.5t56 -81.5t0 -101.5t-44 -98.5t-80 -67q-77 -37 -124 0
q-34 26 -25 65q11 44 71 58q48 12 81.5 45t40.5 67.5t-25.5 61.5t-104.5 27q-107 0 -150.5 -107.5t-43.5 -347.5q0 -440 245 -440q33 0 68 8.5t77.5 33t77.5 63t64 104.5t41 151zM465 1329q-13 -69 -52 -103t-91 -26q-46 7 -74 45.5t-33 83.5q-7 71 29 99.5t112 23.5
q65 -4 91.5 -37.5t17.5 -85.5z" />
    <glyph glyph-name="Ccaron" unicode="&#x10c;" horiz-adv-x="933" 
d="M1016 436q9 60 33 68q18 6 25 -24q5 -23 -1 -58q-31 -193 -173.5 -307.5t-356.5 -114.5q-74 0 -139.5 21.5t-127 73t-106 130t-71 199.5t-27.5 274v17q1 125 26.5 233t68 184.5t95 136t111.5 94.5t115 53t108 18q77 0 142.5 -27t108.5 -71t68.5 -101t28.5 -115
t-17.5 -116t-64.5 -101q-29 -30 -63.5 -45.5t-75 -9t-74.5 40.5q-57 57 -60 125q-1 54 34 66q13 5 30 1q58 -14 87 -10t55 31q20 20 30.5 47.5t10.5 58t-17 60t-47 53.5t-83.5 38.5t-123.5 14.5q-130 0 -219 -164.5t-92 -482.5v-16q3 -652 319 -652q176 0 297.5 107
t145.5 270zM854 1972q49 32 72 17q16 -12 -6 -32q-2 -3 -5 -5q-159 -120 -331 -348q-36 -44 -73 -42.5t-56 42.5q-108 225 -269 348q-27 21 -14 35q16 17 59 -6q8 -4 15 -9q125 -78 280 -239q94 94 312 229q11 7 16 10z" />
    <glyph glyph-name="ccaron" unicode="&#x10d;" horiz-adv-x="681" 
d="M810 426q9 60 34 68q18 6 25 -24q5 -23 0 -58q-16 -97 -52.5 -173t-80 -119.5t-95.5 -72t-94.5 -38t-82.5 -9.5q-59 0 -112.5 12t-110 46t-97 88t-66.5 146.5t-26 213.5q0 252 97.5 382t314.5 130q75 0 121 -32.5t56 -81.5t0 -101.5t-44 -98.5t-80 -67q-77 -37 -124 0
q-34 26 -25 65q11 44 71 58q48 12 81.5 45t40.5 67.5t-25.5 61.5t-104.5 27q-107 0 -150.5 -107.5t-43.5 -347.5q0 -440 245 -440q33 0 68 8.5t77.5 33t77.5 63t64 104.5t41 151zM646 1563q48 32 72 17q16 -11 -3 -32q-3 -3 -7 -6q-162 -122 -332 -348q-36 -44 -73 -42.5
t-56 42.5q-108 225 -269 348q-27 21 -14 35q16 17 59 -5q8 -4 15 -9q123 -77 280 -240q95 95 328 240z" />
    <glyph glyph-name="Dcaron" unicode="&#x10e;" horiz-adv-x="1409" 
d="M889 1440q120 0 207 -33.5t151.5 -111.5t97 -212.5t33.5 -328.5v-17q-2 -150 -37 -275t-93 -209t-134.5 -142t-159.5 -84.5t-170 -26.5q-139 0 -249 63q-92 -63 -222 -63q-75 0 -134 31.5t-92.5 80t-48 108t-7.5 115t36 102.5t76 69q77 37 126 -2q35 -27 27 -68
q-9 -46 -69 -61q-84 -20 -108 -91q-24 -69 22 -134q57 -82 182 -90q11 -1 23 -1q90 0 143.5 68t80 227t28.5 434v545q-70 -27 -132 -67.5t-101.5 -82.5t-66 -85t-26.5 -76t19 -55q29 -28 57 -32.5t86 9.5q47 11 60 -35q15 -51 -24 -115q-14 -22 -32 -40
q-55 -52 -118.5 -46.5t-96.5 58.5q-39 64 -43 137t25.5 144t83.5 136.5t134.5 119.5t176.5 88q4 31 16 46.5t46 41.5q57 40 81.5 27.5t32.5 -74.5q49 8 113 8zM1194 725v16q0 343 -76 491t-262 148q-51 0 -76 -4q0 -14 1 -46t1 -50v-479q-6 -496 -184 -684q84 -58 219 -58
q183 0 279.5 166.5t97.5 499.5zM1090 1972q49 32 72 17q16 -12 -6 -32q-2 -3 -5 -5q-162 -122 -332 -348q-36 -44 -73 -42.5t-56 42.5q-109 226 -268 348q-27 20 -15 34q14 17 56 -4q9 -4 18 -10q128 -80 281 -239q94 94 312 229q11 7 16 10z" />
    <glyph glyph-name="dcaron" unicode="&#x10f;" horiz-adv-x="1048" 
d="M1176 426q9 60 33 68q18 6 25 -24q5 -23 -1 -58q-67 -412 -287 -412q-51 0 -91.5 12t-79.5 40.5t-68 83.5t-45 134q-42 -130 -112 -200t-161 -70q-57 0 -100.5 11t-85.5 42.5t-69 85t-44 142t-18 208.5v15q2 116 32 208.5t75 148.5t104.5 92.5t114 50.5t108.5 14
q89 0 135 -43v262q0 56 5.5 82t16.5 40t42 38q78 58 102 3q18 -41 18 -202v-692q0 -110 3 -178.5t11 -124t24.5 -83t40.5 -41t61 -13.5q159 0 211 360zM639 651v2q0 308 -166 308q-214 0 -217 -443v-16q0 -258 32.5 -350.5t133.5 -92.5q94 0 154.5 168.5t62.5 423.5z
M965 993q-27 -7 -30 25t6.5 115.5t8.5 138.5q0 36 -6.5 75.5t-13 64.5t-8.5 50t4.5 38.5t27.5 21.5t60 8q99 0 90 -166q-7 -98 -59.5 -230.5t-79.5 -140.5z" />
    <glyph glyph-name="Dcroat" unicode="&#x110;" horiz-adv-x="1409" 
d="M889 1440q120 0 207 -33.5t151.5 -111.5t97 -212.5t33.5 -328.5v-17q-2 -150 -37 -275t-93 -209t-134.5 -142t-159.5 -84.5t-170 -26.5q-139 0 -249 63q-92 -63 -222 -63q-75 0 -134 31.5t-92.5 80t-48 108t-7.5 115t36 102.5t76 69q77 37 126 -2q35 -27 27 -68
q-9 -46 -69 -61q-84 -20 -108 -91q-24 -69 22 -134q57 -82 182 -90q11 -1 23 -1q78 0 127.5 49.5t79 164t39.5 307.5q-253 31 -262 57q-7 22 19 31.5t73 9.5q22 0 174 4q0 17 1 52t1 54v545q-70 -27 -132 -67.5t-101.5 -82.5t-66 -85t-26.5 -76t19 -55q29 -28 57 -32.5
t86 9.5q47 11 60 -35q15 -51 -24 -115q-14 -22 -32 -40q-55 -52 -118.5 -46.5t-96.5 58.5q-39 64 -43 137t25.5 144t83.5 136.5t134.5 119.5t176.5 88q4 31 16 46.5t46 41.5q57 40 81.5 27.5t32.5 -74.5q49 8 113 8zM813 688q57 0 84.5 -2t56 -10t20.5 -25t-22 -47
q-22 -31 -39 -38t-73 -7q-43 0 -74 2q-38 -308 -168 -444q84 -58 219 -58q183 0 279.5 166.5t97.5 499.5v16q0 343 -76 491t-262 148q-51 0 -76 -4q0 -14 1 -46t1 -50v-479q0 -43 -4 -113h35z" />
    <glyph glyph-name="dcroat" unicode="&#x111;" 
d="M889 1296q98 27 140.5 19t14.5 -72q-18 -35 -32 -45t-68 -22q-48 -11 -119 -19v-651q0 -110 3 -178.5t11 -124t24.5 -83t40.5 -41t61 -13.5q159 0 211 360q9 60 33 68q18 6 25 -24q5 -23 -1 -58q-67 -412 -287 -412q-51 0 -91.5 12t-79.5 40.5t-68 83.5t-45 134
q-42 -130 -112 -200t-161 -70q-57 0 -100.5 11t-85.5 42.5t-69 85t-44 142t-18 208.5v15q2 116 32 208.5t75 148.5t104.5 92.5t114 50.5t108.5 14q89 0 135 -43v164q-202 -15 -213 2q-11 20 12 34.5t70 26.5q16 3 131 31v4q0 56 5.5 82t16.5 40t42 38q35 26 58 30.5
t35.5 -14.5t17.5 -49.5t7 -83.5zM639 651v2q0 308 -166 308q-214 0 -217 -443v-16q0 -258 32.5 -350.5t133.5 -92.5q94 0 154.5 168.5t62.5 423.5z" />
    <glyph glyph-name="Emacron" unicode="&#x112;" horiz-adv-x="944" 
d="M1044 434q8 60 33 69q19 6 27 -25q5 -23 0 -58q-32 -188 -189 -305t-358 -117q-83 0 -164 19.5t-154.5 59.5t-119.5 112t-47 165v17q1 122 73 202t185 119q-212 73 -215 330v14q1 83 34.5 152t85 113t116.5 74.5t127 43.5t120 13q77 0 142 -27t108 -71t68.5 -101
t28.5 -115t-17.5 -116t-63.5 -101q-30 -30 -64.5 -45.5t-75.5 -8.5t-75 42q-58 58 -60 126q-1 53 35 64q13 4 29 0q58 -14 87.5 -10t56.5 31q24 25 34.5 59t1.5 71t-36.5 69t-87.5 52.5t-144 20.5q-113 0 -189 -83t-77 -238v-17q0 -142 52 -222.5t151 -80.5h12q8 0 23.5 1
t23.5 1q61 0 58 -21q-3 -19 -44 -31q-22 -7 -47 -7q-124 0 -198 -72.5t-74 -216.5v-18q0 -135 100.5 -222.5t233.5 -87.5q167 0 299 109t155 268zM700 1694q57 0 84.5 -2t56.5 -10t21 -25t-22 -47q-22 -31 -39 -38t-74 -7q-92 0 -297.5 28t-212.5 49q-7 22 19 31.5t73 9.5
q28 0 187.5 5.5t203.5 5.5z" />
    <glyph glyph-name="emacron" unicode="&#x113;" horiz-adv-x="768" 
d="M901 426q9 60 33 68q18 6 25 -24q5 -23 -1 -58q-16 -97 -59 -173t-95.5 -119.5t-116 -72t-115.5 -38t-99 -9.5q-66 0 -122 15t-106.5 52t-86 93.5t-56 144.5t-20.5 201q0 252 98 382t314 130q107 0 171 -62q78 -76 29 -196q-74 -185 -424 -398q14 -157 66 -226.5
t158 -69.5q38 0 81 8.5t97.5 33t99 63t81 104.5t48.5 151zM461 961q-107 0 -151 -107.5t-44 -347.5q0 -61 2 -90q205 130 269 296q43 113 6 191q-27 58 -82 58zM530 1407q57 0 84.5 -2t56.5 -10t21 -25t-22 -47q-22 -31 -39 -38t-74 -7q-92 0 -297.5 28.5t-212.5 49.5
q-7 22 19 31.5t73 9.5q28 0 187.5 5t203.5 5z" />
    <glyph glyph-name="Edotaccent" unicode="&#x116;" horiz-adv-x="944" 
d="M1044 434q8 60 33 69q19 6 27 -25q5 -23 0 -58q-32 -188 -189 -305t-358 -117q-83 0 -164 19.5t-154.5 59.5t-119.5 112t-47 165v17q1 122 73 202t185 119q-212 73 -215 330v14q1 83 34.5 152t85 113t116.5 74.5t127 43.5t120 13q77 0 142 -27t108 -71t68.5 -101
t28.5 -115t-17.5 -116t-63.5 -101q-30 -30 -64.5 -45.5t-75.5 -8.5t-75 42q-58 58 -60 126q-1 53 35 64q13 4 29 0q58 -14 87.5 -10t56.5 31q24 25 34.5 59t1.5 71t-36.5 69t-87.5 52.5t-144 20.5q-113 0 -189 -83t-77 -238v-17q0 -142 52 -222.5t151 -80.5h12q8 0 23.5 1
t23.5 1q61 0 58 -21q-3 -19 -44 -31q-22 -7 -47 -7q-124 0 -198 -72.5t-74 -216.5v-18q0 -135 100.5 -222.5t233.5 -87.5q167 0 299 109t155 268zM596 1739q-13 -69 -52 -103t-91 -26q-46 7 -74 45.5t-33 83.5q-7 71 29 99.5t112 23.5q65 -4 91.5 -37.5t17.5 -85.5z" />
    <glyph glyph-name="edotaccent" unicode="&#x117;" horiz-adv-x="768" 
d="M901 426q9 60 33 68q18 6 25 -24q5 -23 -1 -58q-16 -97 -59 -173t-95.5 -119.5t-116 -72t-115.5 -38t-99 -9.5q-66 0 -122 15t-106.5 52t-86 93.5t-56 144.5t-20.5 201q0 252 98 382t314 130q107 0 171 -62q78 -76 29 -196q-74 -185 -424 -398q14 -157 66 -226.5
t158 -69.5q38 0 81 8.5t97.5 33t99 63t81 104.5t48.5 151zM461 961q-107 0 -151 -107.5t-44 -347.5q0 -61 2 -90q205 130 269 296q43 113 6 191q-27 58 -82 58zM508 1329q-13 -69 -52 -103t-91 -26q-46 7 -74 45.5t-33 83.5q-7 71 29 99.5t112 23.5q65 -4 91.5 -37.5
t17.5 -85.5z" />
    <glyph glyph-name="Eogonek" unicode="&#x118;" horiz-adv-x="944" 
d="M928 -426q9 33 29 33q18 0 23 -24q4 -18 -3 -40q-78 -245 -248 -245q-101 0 -174.5 84t-73.5 221q0 112 52.5 216.5t140.5 188.5q-62 -10 -117 -10q-83 0 -164 19.5t-154.5 59.5t-119.5 112t-47 165v17q1 122 73 202t185 119q-212 73 -215 330v14q1 83 34.5 152t85 113
t116.5 74.5t127 43.5t120 13q77 0 142 -27t108 -71t68.5 -101t28.5 -115t-17.5 -116t-63.5 -101q-30 -30 -64.5 -45.5t-75.5 -8.5t-75 42q-58 58 -60 126q-1 53 35 64q13 4 29 0q58 -14 87.5 -10t56.5 31q24 25 34.5 59t1.5 71t-36.5 69t-87.5 52.5t-144 20.5
q-113 0 -189 -83t-77 -238v-17q0 -142 52 -222.5t151 -80.5h12q8 0 23.5 1t23.5 1q61 0 58 -21q-3 -19 -44 -31q-22 -7 -47 -7q-124 0 -198 -72.5t-74 -216.5v-18q0 -135 100.5 -222.5t233.5 -87.5q167 0 299 109t155 268q8 60 33 69q19 6 27 -25q5 -23 0 -58
q-18 -108 -81.5 -195.5t-158.5 -144.5q-3 -18 -65 -60q-133 -98 -133 -417v-20q0 -36 0.5 -54.5t2.5 -49.5t7 -47.5t14 -34.5t23.5 -26t34.5 -8q122 0 180 211z" />
    <glyph glyph-name="eogonek" unicode="&#x119;" horiz-adv-x="768" 
d="M805 -426q9 33 29 33q18 0 23 -24q4 -18 -3 -40q-78 -245 -248 -245q-101 0 -174.5 84t-73.5 221q0 215 191 403q-43 -6 -76 -6q-66 0 -122 15t-106.5 52t-86 93.5t-56 144.5t-20.5 201q0 252 98 382t314 130q107 0 171 -62q78 -76 29 -196q-74 -185 -424 -398
q14 -157 66 -226.5t158 -69.5q38 0 81 8.5t97.5 33t99 63t81 104.5t48.5 151q9 60 33 68q18 6 25 -24q5 -23 -1 -58q-38 -230 -221 -338q-13 -23 -61 -54q-133 -98 -133 -417v-20q0 -36 0.5 -54.5t2.5 -49.5t7 -47.5t14 -34.5t23.5 -26t34.5 -8q122 0 180 211zM461 961
q-107 0 -151 -107.5t-44 -347.5q0 -61 2 -90q205 130 269 296q43 113 6 191q-27 58 -82 58z" />
    <glyph glyph-name="Ecaron" unicode="&#x11a;" horiz-adv-x="944" 
d="M1044 434q8 60 33 69q19 6 27 -25q5 -23 0 -58q-32 -188 -189 -305t-358 -117q-83 0 -164 19.5t-154.5 59.5t-119.5 112t-47 165v17q1 122 73 202t185 119q-212 73 -215 330v14q1 83 34.5 152t85 113t116.5 74.5t127 43.5t120 13q77 0 142 -27t108 -71t68.5 -101
t28.5 -115t-17.5 -116t-63.5 -101q-30 -30 -64.5 -45.5t-75.5 -8.5t-75 42q-58 58 -60 126q-1 53 35 64q13 4 29 0q58 -14 87.5 -10t56.5 31q24 25 34.5 59t1.5 71t-36.5 69t-87.5 52.5t-144 20.5q-113 0 -189 -83t-77 -238v-17q0 -142 52 -222.5t151 -80.5h12q8 0 23.5 1
t23.5 1q61 0 58 -21q-3 -19 -44 -31q-22 -7 -47 -7q-124 0 -198 -72.5t-74 -216.5v-18q0 -135 100.5 -222.5t233.5 -87.5q167 0 299 109t155 268zM776 1972q48 32 72 17q16 -10 -3 -31q-3 -3 -7 -6q-162 -122 -332 -348q-36 -44 -73 -42.5t-56 42.5q-109 226 -268 348
q-27 20 -15 34q14 17 56 -4q9 -4 18 -10q128 -80 281 -239q46 46 117 98.5t105.5 74.5t104.5 66z" />
    <glyph glyph-name="ecaron" unicode="&#x11b;" horiz-adv-x="768" 
d="M901 426q9 60 33 68q18 6 25 -24q5 -23 -1 -58q-16 -97 -59 -173t-95.5 -119.5t-116 -72t-115.5 -38t-99 -9.5q-66 0 -122 15t-106.5 52t-86 93.5t-56 144.5t-20.5 201q0 252 98 382t314 130q107 0 171 -62q78 -76 29 -196q-74 -185 -424 -398q14 -157 66 -226.5
t158 -69.5q38 0 81 8.5t97.5 33t99 63t81 104.5t48.5 151zM461 961q-107 0 -151 -107.5t-44 -347.5q0 -61 2 -90q205 130 269 296q43 113 6 191q-27 58 -82 58zM688 1563q48 32 72 17q16 -11 -3 -32q-3 -3 -7 -6q-162 -122 -332 -348q-36 -44 -73 -42.5t-56 42.5
q-108 225 -269 348q-27 21 -14 35q16 17 59 -5q8 -4 15 -9q123 -77 280 -240q95 95 328 240z" />
    <glyph glyph-name="gcircumflex" unicode="&#x11d;" horiz-adv-x="876" 
d="M705 1042q78 58 102 4q18 -42 18 -202v-668q-8 -799 -467 -799q-75 0 -135 31.5t-93 80t-48 108t-8 115t36 102.5t76 69q77 37 126 -2q35 -27 27 -68q-9 -46 -69 -61q-83 -20 -108 -91q-24 -69 22 -135q57 -82 182 -90q11 -1 23 -1q91 0 144.5 68.5t80 228t27.5 434.5v43
q-42 -101 -105.5 -155t-144.5 -54q-57 0 -100.5 11t-85.5 42.5t-69 85t-44 142t-18 208.5v17q2 116 32 207.5t75 147t104.5 92.5t114 51t108.5 14q92 0 139 -47q3 16 11.5 28.5t15.5 18.5t31 24zM424 59q91 0 151.5 161t65.5 403v61q-8 277 -166 277q-214 0 -217 -443v-16
q0 -257 33 -350t133 -93zM803 1192q27 -21 14 -35q-16 -17 -59 5q-8 4 -15 9q-115 71 -280 240q-95 -95 -328 -240q-48 -31 -70 -17q-17 10 1 31q4 3 8 7q162 122 332 348q36 44 73 42.5t56 -42.5q114 -231 268 -348z" />
    <glyph glyph-name="gbreve" unicode="&#x11f;" horiz-adv-x="876" 
d="M705 1042q78 58 102 4q18 -42 18 -202v-668q-8 -799 -467 -799q-75 0 -135 31.5t-93 80t-48 108t-8 115t36 102.5t76 69q77 37 126 -2q35 -27 27 -68q-9 -46 -69 -61q-83 -20 -108 -91q-24 -69 22 -135q57 -82 182 -90q11 -1 23 -1q91 0 144.5 68.5t80 228t27.5 434.5v43
q-42 -101 -105.5 -155t-144.5 -54q-57 0 -100.5 11t-85.5 42.5t-69 85t-44 142t-18 208.5v17q2 116 32 207.5t75 147t104.5 92.5t114 51t108.5 14q92 0 139 -47q3 16 11.5 28.5t15.5 18.5t31 24zM424 59q91 0 151.5 161t65.5 403v61q-8 277 -166 277q-214 0 -217 -443v-16
q0 -257 33 -350t133 -93zM684 1509q8 56 46 65q31 8 50 -19q13 -19 8 -46q-31 -162 -139.5 -252t-247.5 -90q-135 0 -226 91.5t-69 232.5q9 60 51 74q34 12 54 -14q17 -22 8 -58q-23 -90 42 -163t159 -73q90 0 169.5 75t94.5 177z" />
    <glyph glyph-name="gdotaccent" unicode="&#x121;" horiz-adv-x="876" 
d="M705 1042q78 58 102 4q18 -42 18 -202v-668q-8 -799 -467 -799q-75 0 -135 31.5t-93 80t-48 108t-8 115t36 102.5t76 69q77 37 126 -2q35 -27 27 -68q-9 -46 -69 -61q-83 -20 -108 -91q-24 -69 22 -135q57 -82 182 -90q11 -1 23 -1q91 0 144.5 68.5t80 228t27.5 434.5v43
q-42 -101 -105.5 -155t-144.5 -54q-57 0 -100.5 11t-85.5 42.5t-69 85t-44 142t-18 208.5v17q2 116 32 207.5t75 147t104.5 92.5t114 51t108.5 14q92 0 139 -47q3 16 11.5 28.5t15.5 18.5t31 24zM424 59q91 0 151.5 161t65.5 403v61q-8 277 -166 277q-214 0 -217 -443v-16
q0 -257 33 -350t133 -93zM561 1329q-13 -69 -52 -103t-91 -26q-46 7 -74 45.5t-33 83.5q-14 133 142 123q65 -4 91 -37.5t17 -85.5z" />
    <glyph glyph-name="Gcommaaccent" unicode="&#x122;" horiz-adv-x="976" 
d="M563 -688q99 0 90 -164q-7 -100 -60 -231.5t-81 -139.5q-26 -8 -28.5 24.5t7.5 115.5t9 139q0 36 -6.5 75.5t-13 64.5t-9 49t4 37.5t27.5 21.5t60 8zM664 1018q58 -13 87 -9t56 31q24 24 34.5 58.5t1.5 71.5t-36.5 69t-87.5 53t-144 21q-62 0 -116 -39.5t-97.5 -116
t-69 -203t-26.5 -288.5v-17q0 -222 30 -353.5t85 -184t143 -52.5q52 0 93 20t66.5 54.5t40.5 73.5t21 84v88q0 56 5.5 82.5t16.5 41t42 38.5q79 59 103 2q18 -42 18 -201l-2 -109v2v1q-2 -179 -35.5 -319.5t-87 -229.5t-127.5 -146.5t-152.5 -80.5t-167.5 -23
q-75 0 -135 31.5t-93 80t-48 108t-8 115t36 102.5t76 69q77 37 126 -2q35 -27 27 -68q-9 -46 -69 -61q-83 -20 -108 -91q-24 -69 22 -135q58 -83 183 -91q12 -1 24 -1q77 0 136 33.5t106 107t74.5 200t33.5 302.5q-87 -137 -249 -137q-68 0 -123 15t-110 57.5t-92 111.5
t-60.5 184.5t-24.5 268.5v14q2 149 38 274t91.5 205.5t126 136.5t139 80.5t131.5 24.5q77 0 142 -27t108 -70.5t68.5 -100.5t28.5 -115t-17.5 -116t-63.5 -101q-30 -30 -64 -45.5t-74 -9.5t-74 40q-57 57 -60 126q-2 54 34 65q12 4 28 0z" />
    <glyph glyph-name="gcommaaccent" unicode="&#x123;" horiz-adv-x="876" 
d="M705 1042q78 58 102 4q18 -42 18 -202v-668q-8 -799 -467 -799q-75 0 -135 31.5t-93 80t-48 108t-8 115t36 102.5t76 69q77 37 126 -2q35 -27 27 -68q-9 -46 -69 -61q-83 -20 -108 -91q-24 -69 22 -135q57 -82 182 -90q11 -1 23 -1q91 0 144.5 68.5t80 228t27.5 434.5v43
q-42 -101 -105.5 -155t-144.5 -54q-57 0 -100.5 11t-85.5 42.5t-69 85t-44 142t-18 208.5v17q2 116 32 207.5t75 147t104.5 92.5t114 51t108.5 14q92 0 139 -47q3 16 11.5 28.5t15.5 18.5t31 24zM424 59q91 0 151.5 161t65.5 403v61q-8 277 -166 277q-214 0 -217 -443v-16
q0 -257 33 -350t133 -93zM498 1661q27 7 30 -25t-7 -115.5t-9 -138.5q0 -31 5 -65.5t11 -58t10 -47t2.5 -38t-10 -26.5t-28.5 -17.5t-53 -5.5q-100 0 -91 166q7 98 60 230.5t80 140.5z" />
    <glyph glyph-name="hcircumflex" unicode="&#x125;" horiz-adv-x="1048" 
d="M1192 426q9 60 33 68q17 6 24 -24q5 -23 0 -58q-67 -412 -288 -412q-52 0 -94 12t-82.5 45.5t-67.5 88.5t-43.5 146.5t-16.5 213.5v6q0 269 -1 286q-5 108 -38 137q-21 19 -65 19q-35 0 -69 -16t-73 -65t-68 -127.5t-48 -216t-19 -316.5q0 -8 -2 -10q2 -23 2 -47
q2 -54 -9 -88.5t-31.5 -48t-49 -18t-61.5 0.5q-14 1 -22.5 4t-13 9.5t-6 14t-0.5 23.5t2.5 32.5t3 45t1.5 57.5v1047q0 80 10 104.5t54 57.5q77 58 101 4q17 -47 17 -203v-481q27 88 65 150t79.5 93.5t79.5 44.5t77 13q51 0 89.5 -12t73.5 -45t56.5 -88.5t34.5 -146
t13 -214.5v-6q0 -91 2 -152t8 -113.5t15.5 -83t25.5 -52.5t37.5 -30.5t52.5 -8.5q159 0 211 360zM887 1602q27 -21 14 -35q-16 -17 -59 5q-8 4 -15 9q-115 71 -280 240q-95 -95 -328 -240q-48 -31 -70 -17q-17 10 1 31q4 3 8 7q159 120 331 348q36 44 73 42.5t56 -42.5
q114 -229 269 -348z" />
    <glyph glyph-name="imacron" unicode="&#x12b;" horiz-adv-x="473" 
d="M616 426q8 59 32 68q19 7 26 -23q6 -23 0 -59q-67 -412 -289 -412q-52 0 -94 12t-82.5 45.5t-67 88.5t-43 146.5t-16.5 213.5v242q0 80 9.5 104t53.5 55q77 58 101 6q18 -47 18 -204v-203q0 -264 26.5 -352t115.5 -88q158 0 210 360zM383 1202q57 0 84.5 -2t56 -10
t20.5 -25t-22 -47q-22 -31 -39 -38t-73 -7q-92 0 -297.5 28.5t-212.5 49.5q-7 22 19 31.5t73 9.5q28 0 187.5 5t203.5 5z" />
    <glyph glyph-name="Iogonek" unicode="&#x12e;" horiz-adv-x="888" 
d="M696 -406q9 33 29 33q17 0 23 -23q4 -18 -3 -40q-78 -246 -247 -246q-101 0 -174.5 84t-73.5 221q0 203 168 381q-40 -4 -60 -4q-75 0 -135 31.5t-93 80t-48 108t-8 115t36 102.5t76 69q77 37 126 -2q35 -27 27 -68q-9 -46 -69 -61q-84 -20 -108 -91q-24 -69 22 -134
q57 -82 182 -90q11 -1 23 -1q69 0 120.5 37.5t91.5 120.5t61 226.5t22 344.5v510q-62 -24 -197 -24q-76 0 -129 -14t-78 -37.5t-35 -52.5t-2.5 -60t23.5 -59.5t39 -51.5q27 -26 56.5 -30t87.5 10q47 11 60 -35q15 -51 -24 -115q-13 -22 -32 -41q-34 -34 -75 -40t-75.5 9
t-64.5 44q-46 46 -72.5 104.5t-31 116.5t14 114t56.5 99t102.5 69.5t147.5 26.5q207 0 233 66q0 6 4 18v2q0 2 2 4q1 3 2.5 6.5t3 6t4.5 6t4 5t5 5.5l5.5 5.5t6.5 5.5t6.5 5t8 6.5t8.5 6.5q78 58 102 3q18 -41 18 -202v-479q-5 -522 -239 -711q-12 -15 -62 -49
q-133 -98 -133 -418v-20q0 -36 0.5 -54.5t2.5 -49t7 -47t14 -34.5t23.5 -26t34.5 -8q122 0 180 210z" />
    <glyph glyph-name="iogonek" unicode="&#x12f;" horiz-adv-x="473" 
d="M426 -446q9 33 29 33q18 0 23 -24q4 -18 -3 -40q-78 -246 -248 -246q-101 0 -174 84t-73 221q0 130 69 249t182 208q-149 97 -149 467v242q0 80 9.5 104t53.5 55q77 58 101 6q18 -47 18 -204v-203q0 -201 13 -293.5t53 -124.5q1 0 3 -1t3 -1q12 -4 22 -14q21 -6 48 -6
q158 0 210 360q8 59 32 68q19 7 26 -23q6 -23 0 -59q-67 -412 -289 -412q-45 0 -78 8l-10 -8q-133 -98 -133 -418v-20q0 -36 0.5 -54.5t2.5 -49t7 -47t14 -34.5t23.5 -26t34.5 -8q122 0 180 211zM170 1042q-43 0 -75 31t-32 72t32 71.5t75 30.5q44 0 75 -30t31 -72
t-31 -72.5t-75 -30.5z" />
    <glyph glyph-name="dotlessi" unicode="&#x131;" horiz-adv-x="473" 
d="M616 426q8 59 32 68q19 7 26 -23q6 -23 0 -59q-67 -412 -289 -412q-52 0 -94 12t-82.5 45.5t-67 88.5t-43 146.5t-16.5 213.5v242q0 80 9.5 104t53.5 55q77 58 101 6q18 -47 18 -204v-203q0 -264 26.5 -352t115.5 -88q158 0 210 360z" />
    <glyph glyph-name="ij" unicode="&#x133;" horiz-adv-x="821" 
d="M949 909q79 59 103 3q18 -40 18 -201q-2 -66 -2 -144q0 -264 -39 -497.5t-112.5 -414.5t-179.5 -303.5t-239.5 -164.5t-293.5 2q-132 39 -226 114.5t-139.5 169t-44 203t50 215.5t154 208.5t256.5 179.5q86 44 121 67q-8 94 -8 160v242q0 79 10 103t53 56q79 59 103 3
q18 -40 18 -201v-222q85 88 126 183.5t37 176.5t-35 147.5t-83 109.5q-13 10 -22 7t-21 -11.5t-22.5 -21t-26 -23t-32 -16t-40.5 0t-51 23.5q-40 26 -35 84q5 60 54 90q68 40 173 -16q113 -60 166.5 -157.5t44.5 -207.5t-69 -226t-164 -218q3 -203 31 -274.5t110 -71.5
q131 0 189 247q6 123 6 254q0 35 -1 103t-1 80q0 80 9.5 104t53.5 55zM232 -752q89 -29 164 -22.5t136 35t110.5 88t87.5 136.5t66 179t46 216t29 249q-75 -129 -198 -129q-108 0 -181.5 61.5t-103.5 217.5q-65 -43 -111 -64q-129 -66 -218.5 -157t-128 -186t-38.5 -194
t39 -182.5t117 -149.5t184 -98zM974 1042q-43 0 -75 31t-32 72t32 71.5t75 30.5q44 0 75 -30t31 -72t-31 -72.5t-75 -30.5z" />
    <glyph glyph-name="Kcommaaccent" unicode="&#x136;" horiz-adv-x="1593" 
d="M973 -74q99 0 90 -164q-7 -100 -60 -231t-81 -139q-26 -8 -29 24t7 115.5t9 138.5q0 36 -6.5 75.5t-13 64.5t-8.5 49t4.5 37.5t27.5 21.5t60 8zM1735 428q9 60 34 68q18 5 25 -26q5 -22 0 -56q-69 -414 -289 -414q-64 0 -116.5 18t-96 57.5t-68 111t-24.5 169.5v115
q0 24 0.5 60.5t0.5 54t-0.5 44.5t-3 39t-7.5 29.5t-12.5 24.5t-19 15.5t-27 11t-35.5 2.5q-69 0 -137 -67.5t-123 -211.5q-23 -104 -61 -186t-83.5 -135.5t-102 -88t-113.5 -49t-120 -14.5q-75 0 -134.5 31.5t-93 80t-48 108t-7 115.5t36.5 103.5t76 69.5q77 37 126 -2
q36 -29 27 -70q-9 -45 -69 -59q-83 -20 -108 -91q-24 -69 22 -135q57 -83 182 -91q11 -1 23 -1q68 0 120.5 37.5t92 121t60.5 226.5t22 344v512q-70 -26 -197 -26q-76 0 -129 -14t-78 -37.5t-35 -52t-2.5 -59.5t23.5 -59t39 -51q27 -27 56.5 -30.5t87.5 10.5q46 10 60 -35
q15 -51 -23 -115q-13 -23 -33 -43q-34 -34 -75 -40t-75.5 9.5t-64.5 45.5q-46 46 -72.5 104.5t-31 116.5t14 114t56.5 99t102.5 69.5t147.5 26.5q207 0 233 64q0 6 4 18v2q0 4 2 4q9 27 54 58q78 60 102 4q18 -40 18 -203v-373q91 272 193 415.5t199 143.5q268 0 268 -249
q0 -67 -36.5 -114.5t-107.5 -47.5q-80 0 -130 48q-41 39 -21 72q7 11 20 19q51 31 68.5 54t17.5 61q0 92 -100 92q-80 0 -183 -193.5t-194 -533.5v-12q104 153 254 153q64 0 110.5 -16t83.5 -53.5t55.5 -106t18.5 -168.5v-115q0 -159 27.5 -224.5t114.5 -65.5q157 0 209 362
z" />
    <glyph glyph-name="kcommaaccent" unicode="&#x137;" horiz-adv-x="1048" 
d="M563 -74q99 0 90 -164q-7 -100 -60 -231t-81 -139q-26 -8 -28.5 24t7.5 115t9 139q0 36 -6.5 75.5t-13 64.5t-9 49t4 37.5t27.5 21.5t60 8zM1192 426q9 60 33 68q18 5 25 -24q5 -23 -1 -58q-67 -412 -286 -412q-64 0 -116.5 18t-96.5 57.5t-68.5 111t-24.5 169.5v6
q0 24 0.5 60.5t0.5 54t-0.5 44.5t-3 39t-7.5 29.5t-12.5 24.5t-19 15.5t-27 11t-35.5 2.5q-40 0 -87 -37.5t-89 -102t-70 -164t-28 -210.5q0 -3 -3 -6q-1 -44 -13.5 -71.5t-32.5 -38t-46.5 -14t-56.5 0.5q-14 1 -22.5 4t-13.5 9.5t-6.5 14.5t-1 24t2 32t3 45t1.5 57v1049
q0 79 10.5 103.5t53.5 56.5q78 60 102 4q18 -40 18 -203v-621q30 99 78 188t101.5 151.5t109 103.5t103.5 53q102 26 145 -29q30 -38 12 -83q-19 -47 -73 -50q-29 -1 -64 13q-58 25 -118 -0.5t-108.5 -86t-87 -145t-59.5 -178.5q55 92 126.5 143.5t133.5 51.5
q132 0 200.5 -76t68.5 -269v-6q0 -161 27 -227t114 -66q156 0 209 363z" />
    <glyph glyph-name="Lacute" unicode="&#x139;" horiz-adv-x="1124" 
d="M1206 430q7 59 32 67q18 7 26 -23q6 -23 0 -58q-67 -412 -367 -412q-55 0 -102.5 13t-91 41.5t-69 50t-67.5 61.5q-125 -170 -325 -170q-95 0 -142 74q-44 69 -19 151q28 92 130 132q60 24 139 24q70 0 148 -29q14 112 14 291q0 300 49 498q-161 48 -338 162
q-20 14 -18.5 32.5t17 24.5t34.5 -4q166 -110 319 -158q99 326 359 326q93 0 126 -75q32 -71 -9 -159q-46 -101 -159 -146q-80 -33 -179 -28q-17 -169 -17 -473q0 -212 -67 -367q20 -16 69 -57.5t74 -60t67 -36.5t83 -18q138 0 197 69t87 257zM922 1458q-90 0 -136.5 -65
t-68.5 -224q167 -13 256 75q59 58 53 126q-5 61 -61 81q-19 7 -43 7zM264 63q84 0 135 45t78 140q-72 55 -145 55q-147 0 -198 -72q-36 -50 -5 -102q32 -57 114 -65q10 -1 21 -1zM854 1980q41 -15 35 -56.5t-49 -86.5q-142 -147 -322 -256q-48 -31 -70 -17q-17 11 3 31
q3 3 8 7q45 34 92 84.5t72 82t78 103.5t65 88q18 25 43.5 27t44.5 -7z" />
    <glyph glyph-name="lacute" unicode="&#x13a;" horiz-adv-x="473" 
d="M616 426q8 59 33 68q19 7 26 -23q5 -23 -1 -59q-67 -412 -287 -412q-52 0 -94 12t-83 45.5t-68 88.5t-43.5 146.5t-16.5 213.5v731q0 79 10 103.5t53 56.5q79 60 103 3q18 -41 18 -202v-692q0 -91 2 -152t7.5 -113.5t15 -83t25.5 -52.5t37.5 -30.5t52.5 -8.5
q158 0 210 360zM426 1878q41 -15 35 -56.5t-49 -86.5q-142 -147 -322 -256q-48 -31 -70 -17q-17 10 3 30q3 3 8 7q45 34 92 84.5t72.5 83t77 103t65.5 88.5q18 25 43.5 27t44.5 -7z" />
    <glyph glyph-name="Lcommaaccent" unicode="&#x13b;" horiz-adv-x="1124" 
d="M604 -74q99 0 90 -164q-7 -100 -60 -231t-81 -139q-26 -8 -28.5 24t7.5 115t9 139q0 36 -6.5 75.5t-13 64.5t-9 49t4 37.5t27.5 21.5t60 8zM1206 430q7 59 32 67q18 7 26 -23q6 -23 0 -58q-67 -412 -367 -412q-55 0 -102.5 13t-91 41.5t-69 50t-67.5 61.5
q-125 -170 -325 -170q-95 0 -142 74q-44 69 -19 151q28 92 130 132q60 24 139 24q70 0 148 -29q14 112 14 291q0 300 49 498q-161 48 -338 162q-20 14 -18.5 32.5t17 24.5t34.5 -4q166 -110 319 -158q99 326 359 326q93 0 126 -75q32 -71 -9 -159q-46 -101 -159 -146
q-80 -33 -179 -28q-17 -169 -17 -473q0 -212 -67 -367q20 -16 69 -57.5t74 -60t67 -36.5t83 -18q138 0 197 69t87 257zM922 1458q-90 0 -136.5 -65t-68.5 -224q167 -13 256 75q59 58 53 126q-5 61 -61 81q-19 7 -43 7zM264 63q84 0 135 45t78 140q-72 55 -145 55
q-147 0 -198 -72q-36 -50 -5 -102q32 -57 114 -65q10 -1 21 -1z" />
    <glyph glyph-name="lcommaaccent" unicode="&#x13c;" horiz-adv-x="473" 
d="M338 -74q99 0 90 -164q-7 -100 -60 -231t-81 -139q-26 -8 -29 24t7 115.5t9 138.5q0 36 -6.5 75.5t-13 64.5t-8.5 49t4.5 37.5t27.5 21.5t60 8zM616 426q8 59 33 68q19 7 26 -23q5 -23 -1 -59q-67 -412 -287 -412q-52 0 -94 12t-83 45.5t-68 88.5t-43.5 146.5
t-16.5 213.5v731q0 79 10 103.5t53 56.5q79 60 103 3q18 -41 18 -202v-692q0 -91 2 -152t7.5 -113.5t15 -83t25.5 -52.5t37.5 -30.5t52.5 -8.5q158 0 210 360z" />
    <glyph glyph-name="Lcaron" unicode="&#x13d;" horiz-adv-x="1124" 
d="M1206 430q7 59 32 67q18 7 26 -23q6 -23 0 -58q-67 -412 -367 -412q-55 0 -102.5 13t-91 41.5t-69 50t-67.5 61.5q-125 -170 -325 -170q-95 0 -142 74q-44 69 -19 151q28 92 130 132q60 24 139 24q70 0 148 -29q14 112 14 291q0 300 49 498q-161 48 -338 162
q-20 14 -18.5 32.5t17 24.5t34.5 -4q166 -110 319 -158q99 326 359 326q93 0 126 -75q32 -71 -9 -159q-46 -101 -159 -146q-80 -33 -179 -28q-17 -169 -17 -473q0 -212 -67 -367q20 -16 69 -57.5t74 -60t67 -36.5t83 -18q138 0 197 69t87 257zM922 1458q-90 0 -136.5 -65
t-68.5 -224q167 -13 256 75q59 58 53 126q-5 61 -61 81q-19 7 -43 7zM264 63q84 0 135 45t78 140q-72 55 -145 55q-147 0 -198 -72q-36 -50 -5 -102q32 -57 114 -65q10 -1 21 -1zM543 1346q-27 -7 -30 25t6.5 115t8.5 138q0 36 -6.5 75.5t-13 64.5t-8.5 50t4.5 38.5
t27.5 21.5t60 8q99 0 90 -166q-7 -98 -59.5 -230t-79.5 -140z" />
    <glyph glyph-name="lcaron" unicode="&#x13e;" horiz-adv-x="507" 
d="M616 426q8 59 33 68q19 7 26 -23q5 -23 -1 -59q-67 -412 -287 -412q-52 0 -94 12t-83 45.5t-68 88.5t-43.5 146.5t-16.5 213.5v731q0 79 10 103.5t53 56.5q79 60 103 3q18 -41 18 -202v-692q0 -91 2 -152t7.5 -113.5t15 -83t25.5 -52.5t37.5 -30.5t52.5 -8.5
q158 0 210 360zM455 936q-27 -7 -30 25t6.5 115t8.5 138q0 36 -6.5 75.5t-13 65t-8.5 50t4.5 38t27.5 22t60 8.5q99 0 90 -166q-7 -98 -59.5 -230.5t-79.5 -140.5z" />
    <glyph glyph-name="Lslash" unicode="&#x141;" horiz-adv-x="1124" 
d="M768 801q52 29 76.5 41t50.5 18t33.5 -9.5t3.5 -51.5q-5 -39 -16 -53.5t-60 -43.5q-61 -33 -160 -79q-3 -201 -67 -347q20 -16 69 -57.5t74 -60t67 -36.5t83 -18q138 0 197 69t87 257q7 59 32 67q18 7 26 -23q6 -23 0 -58q-67 -412 -367 -412q-55 0 -102.5 13t-91 41.5
t-69 50t-67.5 61.5q-125 -170 -325 -170q-95 0 -142 74q-44 69 -19 151q28 92 130 132q60 24 139 24q70 0 148 -29q9 79 12 187q-186 -79 -199 -66q-32 26 60 80l141 88v2q0 300 49 498q-161 48 -338 162q-20 14 -18.5 32.5t17 24.5t34.5 -4q166 -110 319 -158
q99 326 359 326q93 0 126 -75q32 -71 -9 -159q-46 -101 -159 -146q-80 -33 -179 -28q-17 -163 -17 -358q13 8 38 23.5t34 19.5zM264 63q84 0 135 45t78 140q-72 55 -145 55q-147 0 -198 -72q-36 -50 -5 -102q32 -57 114 -65q10 -1 21 -1zM922 1458q-90 0 -136.5 -65
t-68.5 -224q167 -13 256 75q59 58 53 126q-5 61 -61 81q-19 7 -43 7z" />
    <glyph glyph-name="lslash" unicode="&#x142;" horiz-adv-x="473" 
d="M420 760q52 29 76.5 41t50.5 18t33.5 -9.5t3.5 -51.5q-5 -39 -16 -53t-60 -43q-58 -34 -242 -119v-37q0 -91 2 -152t7.5 -113.5t15 -83t25.5 -52.5t37.5 -30.5t52.5 -8.5q158 0 210 360q8 59 33 68q19 7 26 -23q5 -23 -1 -59q-67 -412 -287 -412q-51 0 -92 11t-81 42
t-67 81.5t-45 134.5t-20 196q-108 -44 -119 -33q-32 26 60 80l59 35v690q0 79 10 103.5t53 56.5q79 60 103 3q18 -41 18 -202v-532q130 81 154 94z" />
    <glyph glyph-name="Nacute" unicode="&#x143;" horiz-adv-x="1634" 
d="M1716 426q8 59 32 68q19 7 26 -23q6 -23 0 -59q-67 -412 -289 -412q-52 0 -94 12t-82.5 45.5t-67 88.5t-43 146.5t-16.5 213.5v455q0 267 -1 292q-6 108 -41 136q-22 18 -63 18q-27 0 -53.5 -11t-56.5 -36.5t-56.5 -74t-49 -115.5t-38 -169.5t-20.5 -228.5v-543
q0 -160 -16 -200q-23 -55 -98 -2q-2 2 -5 4q-31 24 -42.5 39t-16 40.5t-4.5 82.5v753q0 305 -116 424q-75 78 -172 49q-87 -27 -141 -125q-49 -88 -49 -200q0 -178 63 -261.5t159 -41.5q72 30 95 93q19 52 -8 80q-27 29 -81 -1q-58 -33 -97 0q-32 28 -19 73q15 55 89 78
q73 24 128 -42q53 -62 50 -151q-3 -108 -91 -163q-17 -11 -36 -19q-140 -59 -231.5 37t-91.5 324q0 87 26 161t69.5 123t101 78.5t119 35t124 -15.5t116 -65.5t96 -121.5t62.5 -177q21 82 51 146t61 102.5t67.5 63.5t68.5 34t64 9q51 0 89.5 -12.5t73 -46.5t56.5 -91
t34.5 -147.5t12.5 -214.5v-455q0 -91 2 -152t8 -113.5t15.5 -83t25.5 -52.5t37.5 -30.5t52.5 -8.5q159 0 211 360zM1210 1980q41 -15 35 -56.5t-49 -86.5q-142 -147 -322 -256q-48 -31 -70 -17q-17 11 3 31q3 3 8 7q45 34 92 84.5t72 82t78 103.5t65 88q18 25 43.5 27
t44.5 -7z" />
    <glyph glyph-name="nacute" unicode="&#x144;" horiz-adv-x="1050" 
d="M1192 426q9 60 34 68q18 6 25 -24q5 -23 0 -58q-69 -412 -288 -412q-52 0 -94 12t-83 45.5t-68.5 88.5t-44 146.5t-16.5 213.5v6q0 45 1 123q1 194 -10 243q-13 60 -57 72q-15 4 -36 4q-35 0 -69 -16t-73 -65t-67.5 -127.5t-47.5 -216t-19 -316.5q0 -7 -3 -10
q0 -14 1.5 -30t1.5 -17q1 -54 -10 -88.5t-32 -48t-49.5 -18t-60.5 0.5q-14 1 -22.5 3.5t-13.5 9t-6.5 14t-1 24t2 32.5t3 45t1.5 58v695q0 78 10 101.5t54 57.5q78 58 102 4q18 -42 18 -202v-127q27 88 64.5 150t79 93.5t79 44.5t76.5 13q52 0 90.5 -12t73.5 -45t57 -88.5
t35 -146t13 -214.5v-6q0 -266 25.5 -353t115.5 -87q159 0 209 360zM715 1571q41 -16 34.5 -57.5t-49.5 -86.5q-70 -73 -159 -142.5t-162 -113.5q-49 -32 -71 -17q-17 12 4 32q3 3 7 6q45 34 92.5 85t71.5 81t79 104.5t65 87.5q18 25 43.5 27.5t44.5 -6.5z" />
    <glyph glyph-name="Ncommaaccent" unicode="&#x145;" horiz-adv-x="1634" 
d="M1178 -74q99 0 90 -164q-5 -66 -33 -154t-59.5 -149.5t-49.5 -66.5q-26 -8 -28.5 24t7.5 115t9 139q0 36 -6.5 75.5t-13 64.5t-8.5 49t4.5 37.5t27.5 21.5t60 8zM1716 426q8 59 32 68q19 7 26 -23q6 -23 0 -59q-67 -412 -289 -412q-52 0 -94 12t-82.5 45.5t-67 88.5
t-43 146.5t-16.5 213.5v455q0 267 -1 292q-6 108 -41 136q-22 18 -63 18q-27 0 -53.5 -11t-56.5 -36.5t-56.5 -74t-49 -115.5t-38 -169.5t-20.5 -228.5v-543q0 -160 -16 -200q-23 -55 -98 -2q-2 2 -5 4q-31 24 -42.5 39t-16 40.5t-4.5 82.5v753q0 305 -116 424
q-75 78 -172 49q-87 -27 -141 -125q-49 -88 -49 -200q0 -178 63 -261.5t159 -41.5q72 30 95 93q19 52 -8 80q-27 29 -81 -1q-58 -33 -97 0q-32 28 -19 73q15 55 89 78q73 24 128 -42q53 -62 50 -151q-3 -108 -91 -163q-17 -11 -36 -19q-140 -59 -231.5 37t-91.5 324
q0 87 26 161t69.5 123t101 78.5t119 35t124 -15.5t116 -65.5t96 -121.5t62.5 -177q21 82 51 146t61 102.5t67.5 63.5t68.5 34t64 9q51 0 89.5 -12.5t73 -46.5t56.5 -91t34.5 -147.5t12.5 -214.5v-455q0 -91 2 -152t8 -113.5t15.5 -83t25.5 -52.5t37.5 -30.5t52.5 -8.5
q159 0 211 360z" />
    <glyph glyph-name="ncommaaccent" unicode="&#x146;" horiz-adv-x="1050" 
d="M563 -74q99 0 90 -164q-7 -100 -60 -231t-81 -139q-26 -8 -28.5 24t7.5 115t9 139q0 36 -6.5 75.5t-13 64.5t-9 49t4 37.5t27.5 21.5t60 8zM1192 426q9 60 34 68q18 6 25 -24q5 -23 0 -58q-69 -412 -288 -412q-52 0 -94 12t-83 45.5t-68.5 88.5t-44 146.5t-16.5 213.5v6
q0 45 1 123q1 194 -10 243q-13 60 -57 72q-15 4 -36 4q-35 0 -69 -16t-73 -65t-67.5 -127.5t-47.5 -216t-19 -316.5q0 -7 -3 -10q0 -14 1.5 -30t1.5 -17q1 -54 -10 -88.5t-32 -48t-49.5 -18t-60.5 0.5q-14 1 -22.5 3.5t-13.5 9t-6.5 14t-1 24t2 32.5t3 45t1.5 58v695
q0 78 10 101.5t54 57.5q78 58 102 4q18 -42 18 -202v-127q27 88 64.5 150t79 93.5t79 44.5t76.5 13q52 0 90.5 -12t73.5 -45t57 -88.5t35 -146t13 -214.5v-6q0 -266 25.5 -353t115.5 -87q159 0 209 360z" />
    <glyph glyph-name="Ncaron" unicode="&#x147;" horiz-adv-x="1634" 
d="M1716 426q8 59 32 68q19 7 26 -23q6 -23 0 -59q-67 -412 -289 -412q-52 0 -94 12t-82.5 45.5t-67 88.5t-43 146.5t-16.5 213.5v455q0 267 -1 292q-6 108 -41 136q-22 18 -63 18q-27 0 -53.5 -11t-56.5 -36.5t-56.5 -74t-49 -115.5t-38 -169.5t-20.5 -228.5v-543
q0 -160 -16 -200q-23 -55 -98 -2q-2 2 -5 4q-31 24 -42.5 39t-16 40.5t-4.5 82.5v753q0 305 -116 424q-75 78 -172 49q-87 -27 -141 -125q-49 -88 -49 -200q0 -178 63 -261.5t159 -41.5q72 30 95 93q19 52 -8 80q-27 29 -81 -1q-58 -33 -97 0q-32 28 -19 73q15 55 89 78
q73 24 128 -42q53 -62 50 -151q-3 -108 -91 -163q-17 -11 -36 -19q-140 -59 -231.5 37t-91.5 324q0 87 26 161t69.5 123t101 78.5t119 35t124 -15.5t116 -65.5t96 -121.5t62.5 -177q21 82 51 146t61 102.5t67.5 63.5t68.5 34t64 9q51 0 89.5 -12.5t73 -46.5t56.5 -91
t34.5 -147.5t12.5 -214.5v-455q0 -91 2 -152t8 -113.5t15.5 -83t25.5 -52.5t37.5 -30.5t52.5 -8.5q159 0 211 360zM1325 1972q49 32 72 17q16 -12 -6 -32q-2 -3 -5 -5q-159 -120 -331 -348q-36 -44 -73 -42.5t-56 42.5q-108 225 -269 348q-27 21 -14 35q16 17 59 -6
q8 -4 15 -9q125 -78 280 -239q94 94 312 229q11 7 16 10z" />
    <glyph glyph-name="ncaron" unicode="&#x148;" horiz-adv-x="1050" 
d="M1192 426q9 60 34 68q18 6 25 -24q5 -23 0 -58q-69 -412 -288 -412q-52 0 -94 12t-83 45.5t-68.5 88.5t-44 146.5t-16.5 213.5v6q0 45 1 123q1 194 -10 243q-13 60 -57 72q-15 4 -36 4q-35 0 -69 -16t-73 -65t-67.5 -127.5t-47.5 -216t-19 -316.5q0 -7 -3 -10
q0 -14 1.5 -30t1.5 -17q1 -54 -10 -88.5t-32 -48t-49.5 -18t-60.5 0.5q-14 1 -22.5 3.5t-13.5 9t-6.5 14t-1 24t2 32.5t3 45t1.5 58v695q0 78 10 101.5t54 57.5q78 58 102 4q18 -42 18 -202v-127q27 88 64.5 150t79 93.5t79 44.5t76.5 13q52 0 90.5 -12t73.5 -45t57 -88.5
t35 -146t13 -214.5v-6q0 -266 25.5 -353t115.5 -87q159 0 209 360zM829 1563q48 32 72 17q16 -11 -3 -32q-3 -3 -7 -6q-162 -122 -332 -348q-36 -44 -73 -42.5t-56 42.5q-109 226 -268 348q-27 20 -15 35q14 17 56 -4q9 -4 18 -10q126 -78 281 -240q97 97 327 240z" />
    <glyph glyph-name="Omacron" unicode="&#x14c;" horiz-adv-x="1067" 
d="M535 1489q498 0 501 -715v-51q-2 -165 -38.5 -295.5t-91 -208.5t-126.5 -129.5t-138 -70.5t-132 -19q-65 0 -122.5 21.5t-110.5 73t-91 130t-61.5 199.5t-24.5 274v54q0 18 2 28q-102 82 -102 269t149 313.5t386 126.5zM852 713v39q0 351 -81.5 514.5t-268.5 163.5
t-313 -99.5t-126 -257.5q0 -125 48 -196q22 164 88 279t149 161q57 33 112.5 40t61.5 -28q0 -12 -14 -18.5t-40.5 -12t-39.5 -10.5q-73 -35 -105.5 -151.5t-37.5 -323.5q61 15 114.5 65t79.5 119q23 60 72 61q41 2 63 -37q30 -53 -14 -124t-132.5 -119.5t-182.5 -52.5v-14
q0 -334 64.5 -493t193.5 -159q50 0 93.5 19t83.5 66t68.5 120t45.5 187.5t18 261.5zM721 1776q57 0 84.5 -2t56 -10t20.5 -25t-22 -47q-22 -31 -39 -38t-73 -7q-92 0 -297.5 28t-212.5 49q-7 22 19 31.5t73 9.5q28 0 187.5 5.5t203.5 5.5z" />
    <glyph glyph-name="omacron" unicode="&#x14d;" horiz-adv-x="931" 
d="M1077 735q28 21 49 7q19 -13 1 -35q-4 -6 -11 -11q-137 -109 -293 -161v-21q-2 -116 -32 -208.5t-75 -148.5t-104.5 -92.5t-114 -50.5t-108.5 -14q-57 0 -101 11t-86 42.5t-69 85t-43.5 142t-17.5 208.5v17q1 109 28 197t67.5 143.5t95.5 94t106.5 55.5t105.5 22
q31 2 36 -20q5 -21 -17 -32q-9 -5 -21 -5q-214 0 -217 -443v-16q0 -257 33 -350t133 -93q214 0 217 443h-21q-132 0 -196 57.5t-64 153.5t51.5 153.5t149.5 57.5h8q24 0 38 -0.5t42.5 -7t47 -18t42.5 -36.5t39.5 -59.5t28 -89.5t16.5 -125q125 45 256 147zM420 721
q0 -74 57 -120t160 -46h2q-1 101 -8.5 165t-21.5 94t-28.5 40t-37.5 12q-61 0 -92 -34t-31 -111zM612 1325q57 0 84.5 -2t56.5 -10t21 -25t-22 -47q-22 -31 -39 -38t-74 -7q-92 0 -297.5 28.5t-212.5 49.5q-7 22 19 31.5t73 9.5q28 0 187.5 5t203.5 5z" />
    <glyph glyph-name="Ohungarumlaut" unicode="&#x150;" horiz-adv-x="1067" 
d="M535 1489q498 0 501 -715v-51q-2 -165 -38.5 -295.5t-91 -208.5t-126.5 -129.5t-138 -70.5t-132 -19q-65 0 -122.5 21.5t-110.5 73t-91 130t-61.5 199.5t-24.5 274v54q0 18 2 28q-102 82 -102 269t149 313.5t386 126.5zM852 713v39q0 351 -81.5 514.5t-268.5 163.5
t-313 -99.5t-126 -257.5q0 -125 48 -196q22 164 88 279t149 161q57 33 112.5 40t61.5 -28q0 -12 -14 -18.5t-40.5 -12t-39.5 -10.5q-73 -35 -105.5 -151.5t-37.5 -323.5q61 15 114.5 65t79.5 119q23 60 72 61q41 2 63 -37q30 -53 -14 -124t-132.5 -119.5t-182.5 -52.5v-14
q0 -334 64.5 -493t193.5 -159q50 0 93.5 19t83.5 66t68.5 120t45.5 187.5t18 261.5zM877 1980q27 -9 33 -32.5t-7.5 -52.5t-40.5 -58q-72 -74 -161 -143.5t-160 -112.5q-49 -32 -71 -17q-17 12 4 32q3 3 7 6q45 34 92 84.5t72 82t78 103.5t65 88q18 25 44 27t45 -7z
M555 1837q-71 -72 -160 -141.5t-162 -114.5q-48 -31 -70 -17q-17 10 1 31q4 3 8 7q45 34 93 85t72.5 81.5t78.5 104t65 87.5q18 25 43 27t43 -7q42 -16 36 -57t-48 -86z" />
    <glyph glyph-name="ohungarumlaut" unicode="&#x151;" horiz-adv-x="931" 
d="M1077 735q28 21 49 7q19 -13 1 -35q-4 -6 -11 -11q-137 -109 -293 -161v-21q-2 -116 -32 -208.5t-75 -148.5t-104.5 -92.5t-114 -50.5t-108.5 -14q-57 0 -101 11t-86 42.5t-69 85t-43.5 142t-17.5 208.5v17q1 109 28 197t67.5 143.5t95.5 94t106.5 55.5t105.5 22
q31 2 36 -20q5 -21 -17 -32q-9 -5 -21 -5q-214 0 -217 -443v-16q0 -257 33 -350t133 -93q214 0 217 443h-21q-132 0 -196 57.5t-64 153.5t51.5 153.5t149.5 57.5h8q24 0 38 -0.5t42.5 -7t47 -18t42.5 -36.5t39.5 -59.5t28 -89.5t16.5 -125q125 45 256 147zM420 721
q0 -74 57 -120t160 -46h2q-1 101 -8.5 165t-21.5 94t-28.5 40t-37.5 12q-61 0 -92 -34t-31 -111zM809 1571q21 -7 29.5 -22.5t5 -35t-16 -42.5t-32.5 -44q-72 -73 -161 -143t-161 -113q-48 -31 -70 -17q-17 11 3 31q3 3 8 7q45 34 92 84.5t72 82t78 103.5t65 88
q18 25 43.5 27.5t44.5 -6.5zM487 1427q-71 -73 -160 -142.5t-161 -113.5q-48 -32 -72 -17q-16 11 3 32q3 3 7 6q45 34 94 85.5t72 80t79.5 105.5t64.5 87q18 25 43 27.5t43 -6.5q42 -16 35.5 -57t-48.5 -87z" />
    <glyph glyph-name="OE" unicode="&#x152;" horiz-adv-x="1646" 
d="M1747 436q9 60 34 68q18 6 25 -24q5 -23 0 -58q-32 -188 -187.5 -305t-356.5 -117q-121 0 -237.5 40t-182.5 122q-74 -80 -163.5 -121t-168.5 -41q-66 0 -123.5 21.5t-110.5 73t-91 130t-61 199.5t-24 274v82q-100 83 -100 269q0 187 148.5 313.5t383.5 126.5
q266 0 390 -201q73 72 178 109t200 37q77 0 142 -27t108 -71t69 -101t29 -115t-17.5 -116t-63.5 -101q-30 -30 -64 -45.5t-74.5 -9t-74.5 40.5q-58 58 -60 127q-1 54 34 65q12 4 28 0q58 -14 87 -10t56 31q24 24 34.5 58t1.5 71.5t-36.5 69.5t-87 52.5t-143.5 20.5
q-112 0 -189 -83.5t-78 -237.5v-17q0 -144 51.5 -223.5t151.5 -79.5h60q62 0 59 -20q-2 -18 -44 -30q-23 -7 -48 -7q-124 0 -198 -73t-75 -218v-16q0 -134 101 -222t233 -88q167 0 299.5 109t155.5 268zM543 59q72 0 135 55.5t106 164.5q-10 42 -10 77v17q1 122 72.5 201
t185.5 120q-97 32 -155.5 112.5t-59.5 215.5v16l6 64q-32 166 -111 247t-210 81q-187 0 -313 -99.5t-126 -257.5q0 -128 46 -196q22 163 88.5 278.5t148.5 161.5q59 33 114.5 40t61.5 -28q0 -12 -14 -18.5t-40.5 -12t-39.5 -10.5q-73 -35 -105.5 -151.5t-37.5 -323.5
q61 15 114.5 65t79.5 119q23 60 72 61q41 2 63 -37q30 -53 -14 -124q-46 -71 -134.5 -119.5t-180.5 -52.5v-14q0 -334 64.5 -493t193.5 -159z" />
    <glyph glyph-name="oe" unicode="&#x153;" horiz-adv-x="1329" 
d="M1460 426q8 59 33 68q20 7 27 -25q5 -22 0 -57q-16 -97 -59.5 -173t-96 -119.5t-116.5 -72t-116 -38t-100 -9.5q-215 0 -313 162q-65 -84 -155 -123t-175 -39q-57 0 -101 11t-86 42.5t-69 85t-43.5 142t-17.5 208.5v17q1 109 28 197t67.5 143.5t95.5 94t106.5 55.5
t105.5 22q31 2 36 -20q5 -21 -17 -32q-9 -5 -21 -5q-214 0 -217 -443v-16q0 -257 33 -350t133 -93q175 0 209 295q-135 15 -213 105.5t-78 222.5q0 97 61 169.5t158 72.5q34 0 51.5 -1t54 -13.5t62.5 -37.5q103 146 326 146q92 0 162 -68q80 -77 70 -181q-15 -149 -213 -273
q-97 -61 -234 -111q12 -9 -9 -18q14 -159 66 -230t158 -71q39 0 82 8.5t97 33t99 63t81 104.5t48 151zM1020 961q-106 0 -150.5 -108t-44.5 -347q0 -51 2 -76q201 79 270 235q49 109 17 207q-23 71 -73 86q-11 3 -21 3zM401 690q0 -123 62.5 -193.5t171.5 -86.5q4 58 4 94v2
q0 118 -6.5 191.5t-21 108.5t-29 46t-39.5 14q-60 0 -101 -49t-41 -127z" />
    <glyph glyph-name="Racute" unicode="&#x154;" horiz-adv-x="1542" 
d="M1686 426q7 60 32 68q18 6 25 -24q5 -23 0 -58q-16 -98 -42 -172.5t-56 -119t-66 -72.5t-68.5 -38t-68.5 -10q-64 0 -116.5 18t-96 57.5t-68 111t-24.5 169.5q0 134 -40.5 192.5t-148.5 57.5q-55 -8 -121 -8h-14q-59 -598 -457 -598q-75 0 -134.5 31.5t-92.5 80
t-47.5 108t-7.5 115.5t35.5 102.5t74.5 68.5q78 36 127 -2q36 -28 27 -69q-9 -45 -68 -60q-84 -20 -108 -91q-24 -69 22 -134q57 -82 182 -90q11 -1 23 -1q90 0 143.5 68t80 227t28.5 434v562q-84 -23 -152.5 -59t-111.5 -78t-64 -85.5t-14.5 -85.5t41.5 -75
q28 -28 56.5 -32.5t86.5 9.5q45 10 58 -34q16 -51 -22 -115q-14 -22 -32 -41q-57 -52 -120 -46.5t-95 58.5q-61 97 -63.5 198t47 186.5t150.5 153.5t239 103q4 16 12.5 28.5t16.5 19.5t31 24q56 40 80 28.5t32 -71.5q74 4 113 4q217 0 321.5 -102t106.5 -312v-16
q-3 -252 -209 -351q86 -23 129 -94t43 -209q0 -158 27.5 -224t113.5 -66q26 0 49.5 8.5t50.5 33t49 63t42.5 104t32.5 151.5zM823 1378v-577q0 -52 -4 -142q10 -2 39 -2q165 0 240.5 74t75.5 266v17q0 67 -6 117t-23 99t-47 80.5t-80 50.5t-119 19q-51 0 -76 -2zM961 1980
q41 -16 34.5 -57t-49.5 -86q-70 -73 -159 -142.5t-162 -113.5q-49 -32 -71 -17q-17 12 4 32q3 3 7 6q45 34 92 84.5t72 82t78 103.5t65 88q18 25 44 27t45 -7z" />
    <glyph glyph-name="racute" unicode="&#x155;" horiz-adv-x="854" 
d="M623 1075q268 0 268 -250q0 -67 -36 -114t-107 -47q-81 0 -131 47q-41 38 -20 72q6 10 19 18q51 32 67.5 55.5t16.5 61.5q0 92 -98 92q-28 0 -60.5 -16t-70 -50.5t-71.5 -97.5t-62.5 -147t-45 -210t-16.5 -276v-57q2 -54 -8.5 -88.5t-31.5 -48t-49 -18t-60 0.5
q-14 1 -22.5 3.5t-13.5 9t-6.5 14t-1 24t2 32.5t3 45t1.5 58v695q0 78 10 101.5t54 57.5q78 58 102 4q18 -42 18 -202v-152q31 104 76.5 182.5t94.5 120t93.5 61t84.5 19.5zM616 1571q41 -15 35 -57t-49 -87q-70 -73 -159 -142.5t-162 -113.5q-49 -32 -71 -17q-17 12 4 32
q3 3 7 6q45 34 92 84.5t72 82t78 103.5t65 88q18 25 43.5 27.5t44.5 -6.5z" />
    <glyph glyph-name="Rcommaaccent" unicode="&#x156;" horiz-adv-x="1542" 
d="M973 -74q99 0 90 -164q-7 -100 -60 -231t-81 -139q-26 -8 -29 24t7 115.5t9 138.5q0 36 -6.5 75.5t-13 64.5t-8.5 49t4.5 37.5t27.5 21.5t60 8zM1686 426q7 60 32 68q18 6 25 -24q5 -23 0 -58q-16 -98 -42 -172.5t-56 -119t-66 -72.5t-68.5 -38t-68.5 -10
q-64 0 -116.5 18t-96 57.5t-68 111t-24.5 169.5q0 134 -40.5 192.5t-148.5 57.5q-55 -8 -121 -8h-14q-59 -598 -457 -598q-75 0 -134.5 31.5t-92.5 80t-47.5 108t-7.5 115.5t35.5 102.5t74.5 68.5q78 36 127 -2q36 -28 27 -69q-9 -45 -68 -60q-84 -20 -108 -91
q-24 -69 22 -134q57 -82 182 -90q11 -1 23 -1q90 0 143.5 68t80 227t28.5 434v562q-84 -23 -152.5 -59t-111.5 -78t-64 -85.5t-14.5 -85.5t41.5 -75q28 -28 56.5 -32.5t86.5 9.5q45 10 58 -34q16 -51 -22 -115q-14 -22 -32 -41q-57 -52 -120 -46.5t-95 58.5
q-61 97 -63.5 198t47 186.5t150.5 153.5t239 103q4 16 12.5 28.5t16.5 19.5t31 24q56 40 80 28.5t32 -71.5q74 4 113 4q217 0 321.5 -102t106.5 -312v-16q-3 -252 -209 -351q86 -23 129 -94t43 -209q0 -158 27.5 -224t113.5 -66q26 0 49.5 8.5t50.5 33t49 63t42.5 104
t32.5 151.5zM823 1378v-577q0 -52 -4 -142q10 -2 39 -2q165 0 240.5 74t75.5 266v17q0 67 -6 117t-23 99t-47 80.5t-80 50.5t-119 19q-51 0 -76 -2z" />
    <glyph glyph-name="rcommaaccent" unicode="&#x157;" horiz-adv-x="854" 
d="M481 -74q99 0 90 -164q-7 -100 -60 -231t-81 -139q-26 -8 -28.5 24t7.5 115t9 139q0 36 -6.5 75.5t-13 64.5t-9 49t4 37.5t27.5 21.5t60 8zM623 1075q268 0 268 -250q0 -67 -36 -114t-107 -47q-81 0 -131 47q-41 38 -20 72q6 10 19 18q51 32 67.5 55.5t16.5 61.5
q0 92 -98 92q-28 0 -60.5 -16t-70 -50.5t-71.5 -97.5t-62.5 -147t-45 -210t-16.5 -276v-57q2 -54 -8.5 -88.5t-31.5 -48t-49 -18t-60 0.5q-14 1 -22.5 3.5t-13.5 9t-6.5 14t-1 24t2 32.5t3 45t1.5 58v695q0 78 10 101.5t54 57.5q78 58 102 4q18 -42 18 -202v-152
q31 104 76.5 182.5t94.5 120t93.5 61t84.5 19.5z" />
    <glyph glyph-name="Rcaron" unicode="&#x158;" horiz-adv-x="1542" 
d="M1686 426q7 60 32 68q18 6 25 -24q5 -23 0 -58q-16 -98 -42 -172.5t-56 -119t-66 -72.5t-68.5 -38t-68.5 -10q-64 0 -116.5 18t-96 57.5t-68 111t-24.5 169.5q0 134 -40.5 192.5t-148.5 57.5q-55 -8 -121 -8h-14q-59 -598 -457 -598q-75 0 -134.5 31.5t-92.5 80
t-47.5 108t-7.5 115.5t35.5 102.5t74.5 68.5q78 36 127 -2q36 -28 27 -69q-9 -45 -68 -60q-84 -20 -108 -91q-24 -69 22 -134q57 -82 182 -90q11 -1 23 -1q90 0 143.5 68t80 227t28.5 434v562q-84 -23 -152.5 -59t-111.5 -78t-64 -85.5t-14.5 -85.5t41.5 -75
q28 -28 56.5 -32.5t86.5 9.5q45 10 58 -34q16 -51 -22 -115q-14 -22 -32 -41q-57 -52 -120 -46.5t-95 58.5q-61 97 -63.5 198t47 186.5t150.5 153.5t239 103q4 16 12.5 28.5t16.5 19.5t31 24q56 40 80 28.5t32 -71.5q74 4 113 4q217 0 321.5 -102t106.5 -312v-16
q-3 -252 -209 -351q86 -23 129 -94t43 -209q0 -158 27.5 -224t113.5 -66q26 0 49.5 8.5t50.5 33t49 63t42.5 104t32.5 151.5zM823 1378v-577q0 -52 -4 -142q10 -2 39 -2q165 0 240.5 74t75.5 266v17q0 67 -6 117t-23 99t-47 80.5t-80 50.5t-119 19q-51 0 -76 -2zM1219 1972
q49 32 72 17q16 -12 -6 -32q-2 -3 -5 -5q-162 -122 -332 -348q-36 -44 -73 -42.5t-56 42.5q-109 226 -268 348q-27 20 -15 34q14 17 56 -4q9 -4 18 -10q128 -80 281 -239q94 94 312 229q11 7 16 10z" />
    <glyph glyph-name="rcaron" unicode="&#x159;" horiz-adv-x="854" 
d="M623 1075q268 0 268 -250q0 -67 -36 -114t-107 -47q-81 0 -131 47q-41 38 -20 72q6 10 19 18q51 32 67.5 55.5t16.5 61.5q0 92 -98 92q-28 0 -60.5 -16t-70 -50.5t-71.5 -97.5t-62.5 -147t-45 -210t-16.5 -276v-57q2 -54 -8.5 -88.5t-31.5 -48t-49 -18t-60 0.5
q-14 1 -22.5 3.5t-13.5 9t-6.5 14t-1 24t2 32.5t3 45t1.5 58v695q0 78 10 101.5t54 57.5q78 58 102 4q18 -42 18 -202v-152q31 104 76.5 182.5t94.5 120t93.5 61t84.5 19.5zM731 1563q48 32 72 17q16 -11 -3 -32q-3 -3 -7 -6q-162 -122 -332 -348q-36 -44 -73 -42.5
t-56 42.5q-108 225 -269 348q-27 21 -14 35q16 17 59 -5q8 -4 15 -9q123 -77 280 -240q95 95 328 240z" />
    </font>
</defs>
</svg>
