<?xml version="1.0" standalone="no"?>
<!DOCTYPE svg PUBLIC "-//W3C//DTD SVG 1.1//EN" "http://www.w3.org/Graphics/SVG/1.1/DTD/svg11.dtd" >
<svg>
<metadata>
Created by FontForge 20120731 at Mon Nov  3 07:07:08 2014
 By root
Copyright (c) 2012 by Doan BC doanbc1502@gmail.com. All rights reserved.
</metadata>
<defs>
<font id="VNF-IntroInlineFat" horiz-adv-x="1458" >
  <font-face 
    font-family="VNF-Intro Inline"
    font-weight="1000"
    font-stretch="normal"
    units-per-em="2048"
    panose-1="2 0 5 3 0 0 0 2 0 4"
    ascent="1638"
    descent="-410"
    x-height="1434"
    cap-height="1434"
    bbox="-275.048 -508.5 2189 2461.05"
    underline-thickness="50"
    underline-position="-50"
    unicode-range="U+000D-F8FF"
  />
<missing-glyph horiz-adv-x="563" 
 />
    <glyph glyph-name=".notdef" horiz-adv-x="563" 
 />
    <glyph glyph-name=".null" horiz-adv-x="1024" 
 />
    <glyph glyph-name=".null" horiz-adv-x="1024" 
 />
    <glyph glyph-name="nonmarkingreturn" unicode="&#xd;" horiz-adv-x="1024" 
 />
    <glyph glyph-name="space" horiz-adv-x="563" 
 />
    <glyph glyph-name="A" unicode="A" 
d="M725 1198h2l389 -833h-776zM1010 180h-566l-84 -180h-358v53l645 1399h158l647 -1399v-53h-358zM731 1243h-12l-510 -1104h27l96 203h792l95 -203h26zM725 840l-147 -330h299z" />
    <glyph glyph-name="B" unicode="B" horiz-adv-x="1405" 
d="M793 1262q54 0 101 -22t82 -58.5t55 -85.5t20 -103t-19.5 -102.5t-54 -85t-82 -57.5t-102.5 -21h-418v535h418zM1241 993q0 -32 -8 -67t-22.5 -68t-35.5 -62t-47 -51q88 -45 130 -120.5t42 -171.5q-1 -94 -29.5 -176.5t-84.5 -144t-139 -97t-193 -35.5h-672v1434h613
q93 0 174 -34t141.5 -93.5t95.5 -140t35 -173.5zM354 1280v-1128h496q58 0 109.5 25.5t89 67.5t59.5 96t22 112q0 51 -18.5 98t-50.5 84t-76.5 60.5t-95.5 25.5v8q39 9 72.5 36.5t57.5 65t38 80t14 82.5q0 58 -22 110.5t-59.5 91.5t-88.5 62t-108 23h-439zM850 709
q53 0 100 -19.5t82.5 -54t56.5 -81.5t21 -101q0 -55 -21 -105.5t-56.5 -89.5t-82.5 -62.5t-100 -23.5h-475v537h475zM827 561h-290v-235h292q37 0 61.5 17.5t36.5 43.5t12 56.5t-12.5 56.5t-37.5 43.5t-62 17.5zM537 1106v-227h231q36 0 60.5 17t36.5 42t11.5 54.5
t-12.5 54.5t-36.5 42t-61.5 17h-229z" />
    <glyph glyph-name="C" unicode="C" horiz-adv-x="1610" 
d="M96 717q0 122 29.5 223.5t81 183t121.5 142.5t151.5 102t171 61.5t180.5 20.5q74 0 149 -14t145.5 -42.5t133.5 -72.5t113 -104.5t84.5 -138t48.5 -173.5h-360q-38 110 -118 160.5t-196 50.5q-81 0 -146.5 -29t-112 -81.5t-72 -126t-25.5 -162.5q0 -79 25 -150.5
t71.5 -126.5t112.5 -87.5t147 -33.5q58 0 110 14.5t94 43.5t71.5 72.5t44.5 101.5h360q-20 -152 -85.5 -259.5t-159.5 -175.5t-207 -99t-228 -31q-91 0 -180.5 20t-171 60.5t-151.5 101.5t-121.5 142.5t-81 183t-29.5 223.5zM1270 422q-68 -131 -181.5 -194.5t-257.5 -63.5
q-99 0 -195 36t-171 106.5t-121.5 173.5t-46.5 237t46.5 238t121.5 175t171 107.5t195 36.5q140 0 251 -58.5t180 -179.5h24q-35 64 -83.5 112t-107 80t-125.5 48t-139 16q-104 0 -203.5 -37.5t-177.5 -110t-126 -180t-48 -247.5q0 -139 48 -246.5t126 -180.5t177.5 -110.5
t203.5 -36.5q74 0 143.5 18.5t129.5 53.5t109 87t81 120h-24z" />
    <glyph glyph-name="D" unicode="D" horiz-adv-x="1520" 
d="M723 1434q140 -1 252 -41t196 -109t140 -160.5t84 -194.5t28.5 -212t-28 -212t-84.5 -194.5t-140 -160.5t-196 -109t-252 -41h-541v1434h541zM360 154h359q134 0 234 48.5t167 127.5t100.5 180t33.5 207t-33.5 207t-100.5 180t-167 127.5t-234 48.5h-359v-1126zM719 176
h-340v1084h340q103 -1 185.5 -31.5t144.5 -83t103.5 -121.5t62 -147t20.5 -160t-20.5 -160t-62 -147t-103.5 -121t-144.5 -82.5t-185.5 -30.5zM549 334h174q86 0 150 33t107 87t64.5 122.5t21.5 140.5t-21.5 140.5t-64.5 122.5t-107 87t-150 33h-174v-766z" />
    <glyph glyph-name="E" unicode="E" horiz-adv-x="1229" 
d="M354 152h602v20h-579v559h520v21h-520v510h561v20h-584v-1130zM1077 1106h-530v-203h487v-325h-487v-252h549v-326h-914v1434h895v-328z" />
    <glyph glyph-name="F" unicode="F" horiz-adv-x="1176" 
d="M555 465v-465h-373v1434h893v-328h-520v-313h461v-328h-461zM938 1280h-582v-1141h23v477h498v23h-498v623h559v18z" />
    <glyph glyph-name="G" unicode="G" horiz-adv-x="1618" 
d="M94 717q0 122 29.5 224t81 184t121.5 143t151.5 102t171 61.5t180.5 20.5q108 -1 215 -30.5t197 -91t156 -157.5t92 -229h-361q-44 92 -117 132t-182 40q-87 0 -153.5 -31.5t-111.5 -86t-68 -127t-23 -154.5q0 -89 25 -161.5t71.5 -124t112.5 -79.5t147 -28q55 0 101 8
t83.5 28t68 54t55.5 86h-306v317h678q7 -107 1.5 -211t-42.5 -209q-38 -112 -105.5 -190.5t-153 -128t-183.5 -72t-197 -22.5q-91 0 -180.5 20.5t-171 61t-151.5 101.5t-121.5 142.5t-81 183t-29.5 224.5zM971 653h356q-2 -111 -39.5 -201t-104 -154t-157 -99t-197.5 -35
q-117 0 -215 41.5t-169 115t-110.5 175t-39.5 221.5q0 118 39.5 220t110.5 176.5t169 117t215 41.5q63 0 124 -14t116 -41.5t101 -68.5t79 -95h25q-35 60 -84.5 104.5t-108.5 74t-123.5 44t-128.5 14.5q-104 0 -204 -37t-178.5 -109.5t-126.5 -179.5t-48 -247t48 -247.5
t126.5 -180t178.5 -110t204 -36.5q109 0 204 37.5t165.5 105t111 161t40.5 206.5v23h-379v-23z" />
    <glyph glyph-name="H" unicode="H" horiz-adv-x="1561" 
d="M1376 0h-375v575h-442v-575h-375v1434h375v-521h442v521h375v-1434zM381 139v592h799v-592h20v1157h-20v-540h-799v540h-23v-1157h23z" />
    <glyph glyph-name="I" unicode="I" horiz-adv-x="848" 
d="M201 170v-20h450v20h-213v1092h197v20h-416v-20h199v-1092h-217zM791 322v-322h-728v322h183v792h-168v320h698v-320h-168v-792h183z" />
    <glyph glyph-name="J" unicode="J" horiz-adv-x="1356" 
d="M1184 477q0 -117 -45 -209t-121 -155t-176 -96t-211 -33t-208.5 33t-170.5 96t-115.5 155t-42.5 209v187h346v-181q0 -42 15 -74t40.5 -54t60.5 -33t75 -11q80 0 129 43t49 129v625h-209v326h584v-957zM252 524v-41q0 -81 29 -145t79.5 -108.5t118.5 -68.5t146 -24
q79 0 149 22.5t122.5 66.5t83 108.5t30.5 148.5v801h-273v-20h250v-781q0 -81 -28 -141.5t-77 -101.5t-114.5 -61.5t-140.5 -20.5q-74 0 -138.5 21.5t-112 63t-75 102t-27.5 138.5v41h-22z" />
    <glyph glyph-name="K" unicode="K" horiz-adv-x="1450" 
d="M588 709q46 0 98.5 7t97.5 19l363 -594h24l-368 602q94 32 157.5 88.5t101.5 129t53.5 158t14.5 175.5h-20q0 -177 -57 -305t-185 -196q-55 -29 -128.5 -48.5t-153.5 -19.5h-203v569h-27v-1153h27v568h205zM184 0v1434h373v-543h27q91 0 152.5 21.5t100.5 59.5t58.5 89.5
t27.5 112t8.5 127t0.5 133.5h377q0 -73 -0.5 -144t-8 -139t-23.5 -131.5t-46.5 -122t-79 -111.5t-119.5 -98l389 -631v-57h-407l-316 555q-37 -6 -71.5 -7t-69.5 -1v-547h-373z" />
    <glyph glyph-name="L" unicode="L" horiz-adv-x="1139" 
d="M549 330h520v-330h-889v1434h369v-1104zM930 174h-553v1120h-23v-1138h576v18z" />
    <glyph glyph-name="M" unicode="M" horiz-adv-x="1761" 
d="M1448 1438h131v-1438h-375v639l-305 -320h-41l-303 320v-639h-375v1438h135l562 -623zM1403 141v951h-29l-497 -525l-492 525h-27v-951h21v924l498 -528l505 528v-924h21z" />
    <glyph glyph-name="N" unicode="N" horiz-adv-x="1597" 
d="M561 705v-705h-379v1440h133l725 -709v703h375v-1436h-131zM356 141h25v969q108 -103 214.5 -208t211.5 -208q103 -102 206 -202t210 -203h16v1005h-22v-970q-109 106 -215 210.5t-216 206.5q-100 103 -202 203.5t-205 200.5h-23v-1004z" />
    <glyph glyph-name="O" unicode="O" horiz-adv-x="1659" 
d="M274 715q0 -116 31 -208t84.5 -161.5t124.5 -115.5t151 -69.5t165 -23t165 23.5t151 69t124.5 115.5t84.5 161.5t31 208q0 115 -31 207.5t-84.5 162t-124.5 115.5t-151 69t-165 23t-165 -23.5t-151 -69.5t-124.5 -115t-84.5 -161.5t-31 -207.5zM1565 715
q0 -149 -41 -268.5t-112 -209t-165 -149t-200 -89.5t-217.5 -29.5t-217.5 30t-200 89t-165 149t-112 209t-41 268.5t41 267.5t112 208t165 149t200 89t217.5 29.5t217.5 -29.5t200 -89t165 -149t112 -208t41 -267.5zM471 715q0 -98 31 -171t81.5 -121.5t115 -73t132 -24.5
t132 24.5t115 73t81.5 121.5t31 171q0 97 -31 169.5t-81.5 121t-115 72.5t-132 24t-132 -24t-115 -72.5t-81.5 -121t-31 -169.5zM1366 715q0 -138 -46 -242t-121.5 -173.5t-171.5 -105t-196.5 -36.5t-196.5 33.5t-171.5 104t-121.5 174t-46 245.5q0 140 46 244.5
t121.5 173.5t171.5 103.5t196.5 33.5t196.5 -36t171.5 -104.5t121.5 -173.5t46 -241z" />
    <glyph glyph-name="P" unicode="P" horiz-adv-x="1421" 
d="M815 520q85 1 149 34t107 86.5t64.5 121.5t21.5 138.5t-21 138.5t-64 121t-107 85.5t-150 32.5h-463v-1141h23v383h440zM182 0v1434h631q103 0 185.5 -30t144 -81.5t102.5 -120t61.5 -145t21 -157.5t-20.5 -158t-62 -145t-102.5 -119t-144 -81t-185.5 -30h-264v-367h-367
zM815 1260q79 0 139 -30.5t100 -81t60.5 -114.5t21 -131.5t-19.5 -131.5t-60 -114.5t-100 -81t-141 -30.5h-440v715h440zM811 696q50 0 84.5 30t52 75.5t18.5 98.5t-15.5 98.5t-51.5 76t-88 31.5q-65 2 -132 1t-130 -1v-410h262z" />
    <glyph glyph-name="Q" unicode="Q" horiz-adv-x="1667" 
d="M1227 0l-35 66q-109 -58 -232 -78.5t-245 -3.5t-234 71.5t-197.5 145.5t-136.5 219.5t-51 294.5q0 149 41 267.5t112 208t165 149t200 89t217.5 29.5t217.5 -29.5t200 -89t165 -149t112 -208t41 -267.5q0 -128 -30.5 -233.5t-84.5 -190.5l147 -244v-47h-372zM1370 135
l-125 176q66 73 105 173t39 231q0 144 -48 252.5t-126 180.5t-178 108t-204.5 36t-204.5 -36.5t-178 -108.5t-126 -180t-48 -252q0 -147 49.5 -256.5t130 -182t183 -107.5t208.5 -32.5t206.5 42t177.5 116.5l110 -160h29zM473 715q0 -98 31 -171t81 -121.5t114.5 -73
t132 -24.5t132 24.5t114.5 73t81 121.5t31 171q0 97 -31 169.5t-81 121t-114.5 72.5t-132 24t-132 -24t-114.5 -72.5t-81 -121t-31 -169.5zM1370 715q0 -138 -46 -242t-121.5 -173.5t-172 -105t-197 -36.5t-197 33.5t-172 104t-121.5 174t-46 245.5q0 140 46 244.5
t121.5 173.5t172 103.5t197 33.5t197 -36t172 -104.5t121.5 -173.5t46 -241z" />
    <glyph glyph-name="R" unicode="R" horiz-adv-x="1432" 
d="M811 1260q80 0 140 -28.5t100.5 -75t60.5 -106t20.5 -121.5t-19.5 -121.5t-60 -106t-100.5 -75t-141.5 -28.5h-440v662h440zM811 575q11 0 21.5 1.5t19.5 1.5l266 -443h25l-207 338l-62 109q73 12 127 48t88.5 87t50.5 112.5t12.5 124t-26.5 121t-65.5 103.5t-105 72.5
t-144.5 27.5h-461v-1141h21v438h440zM1393 53v-53h-410l-246 422h-190v-422h-367v1434h629q106 0 190 -30t146 -81t103 -118t60 -142.5t16 -154t-27 -152t-70.5 -138t-114.5 -110.5zM809 752q50 0 83.5 26t51 65t18.5 85t-15.5 85.5t-51 65.5t-86.5 27q-65 2 -131 1t-131 -1
v-354h262z" />
    <glyph glyph-name="S" unicode="S" horiz-adv-x="1327" 
d="M436 438q0 -34 19.5 -59.5t51 -42.5t71.5 -25.5t82.5 -9t82.5 7.5t71.5 24t51 39.5t19.5 55.5q0 37 -21 60.5t-56.5 36.5t-83 19t-101.5 9q-117 8 -212.5 34t-163.5 77.5t-106 131.5t-39 197q-2 116 44 203t123 145t176 87t202.5 29t202.5 -29t176.5 -87t124 -145
t45.5 -203h-348q0 48 -28.5 78.5t-71.5 45t-94 13.5t-95 -16.5t-74.5 -45t-33.5 -71.5q-3 -41 13.5 -66.5t48 -41.5t74.5 -24t91 -13q71 -8 140.5 -17.5t132 -27t116 -46t92 -73t60.5 -109t22 -153.5q0 -90 -32.5 -163t-88.5 -127.5t-130.5 -91.5t-158.5 -55.5t-172.5 -19
t-172 18t-157.5 56t-129.5 93.5t-87 131t-30.5 170h354zM1001 1124q-29 54 -76 91.5t-104.5 58.5t-122 26.5t-126.5 -4t-118.5 -34t-99 -62.5t-67.5 -90t-23 -117q2 -92 33.5 -148t84 -87.5t122 -44.5t147.5 -19q50 -4 98.5 -7.5t93 -12.5t82 -25.5t65.5 -44.5t43.5 -71
t15.5 -105q0 -59 -25 -106.5t-67.5 -82.5t-98.5 -57t-118 -31t-125.5 -4t-121.5 24.5t-106 53t-78 82.5h-24q28 -55 76 -93t108.5 -60.5t128.5 -29t135 2.5t128 32.5t108 61.5t74.5 90t27.5 117q0 95 -35.5 150t-94 83.5t-133.5 39t-153 16.5q-75 5 -141.5 16.5t-116.5 40.5
t-79 81t-29 138q0 60 23 108.5t62 84t90.5 58t109 31.5t116.5 4.5t112.5 -23t98.5 -51.5t74 -81h26z" />
    <glyph glyph-name="T" unicode="T" horiz-adv-x="1151" 
d="M41 1106v328h1065v-328h-350v-1106h-363v1106h-352zM586 137q0 284 -1 563t-3 562h385v18h-789v-18h387v-1125h21z" />
    <glyph glyph-name="U" unicode="U" horiz-adv-x="1479" 
d="M737 309q40 0 79 11t69.5 32.5t49.5 54t19 76.5v951h349v-957q0 -118 -47 -210.5t-125.5 -156t-180.5 -97t-213 -33.5q-110 0 -212 33.5t-180.5 97t-125.5 156t-47 210.5v957h346v-951q0 -44 19.5 -76.5t50.5 -54t70 -32.5t79 -11zM737 133q77 0 150 23.5t130 68
t91.5 109.5t34.5 149v813h-23v-813q0 -80 -32.5 -141t-86 -102.5t-122.5 -62.5t-142 -21t-142 21t-122.5 62.5t-86 102.5t-32.5 141v813h-22v-813q0 -84 34.5 -149t91 -109.5t129.5 -68t150 -23.5z" />
    <glyph glyph-name="V" unicode="V" horiz-adv-x="1438" 
d="M723 236h-2l-463 1060h-27l486 -1106h10l477 1106h-24zM717 608h10l328 826h352v-56l-608 -1394h-156l-614 1394v56h352z" />
    <glyph glyph-name="W" unicode="W" horiz-adv-x="1944" 
d="M1059 1411l244 -762h6l63 244l182 541h357v-56l-498 -1392h-211l-229 690h-6l-230 -690h-202l-504 1392v56h356l184 -541l64 -244h6l242 762h176zM639 236l-381 1060h-25l400 -1106h14l324 961l323 -961h15l401 1106h-29l-378 -1060h-3l-321 946h-18l-320 -946h-2z" />
    <glyph glyph-name="X" unicode="X" horiz-adv-x="1378" 
d="M350 1296h-22l350 -536l-404 -623h29l385 598l387 -598h25l-402 623l349 536h-23l-336 -512zM682 451l-262 -451h-395v55l462 705l-413 618v56h381l227 -373h10l230 373h378v-56l-413 -618l465 -705v-55h-396l-262 451h-12z" />
    <glyph glyph-name="Y" unicode="Y" horiz-adv-x="1362" 
d="M670 649v-512h22v512l402 647h-27l-385 -622l-387 622h-27zM862 0h-362v602l-482 776v56h396l260 -478h14l260 478h398v-56l-484 -776v-602z" />
    <glyph glyph-name="Z" unicode="Z" horiz-adv-x="1251" 
d="M1186 1378l-582 -1050h588v-328h-1145v55l580 1051h-527v328h1086v-56zM899 1260l-588 -1106h727v18h-696l588 1108h-707v-20h676z" />
    <glyph glyph-name="Agrave" unicode="&#xc0;" 
d="M725 1198h2l389 -833h-776zM1010 180h-566l-84 -180h-358v53l645 1399h158l647 -1399v-53h-358zM731 1243h-12l-510 -1104h27l96 203h792l95 -203h26zM725 840l-147 -330h299zM653 1749l-22 -4l108 -203h-121l-210 240v30l311 105l155 -342v-33h-112z" />
    <glyph glyph-name="Aacute" unicode="&#xc1;" 
d="M725 1198h2l389 -833h-776zM1010 180h-566l-84 -180h-358v53l645 1399h158l647 -1399v-53h-358zM731 1243h-12l-510 -1104h27l96 203h792l95 -203h26zM725 840l-147 -330h299zM684 1538h-113v33l156 342l311 -105v-30l-211 -240h-120l108 203l-22 4z" />
    <glyph glyph-name="Acircumflex" unicode="&#xc2;" 
d="M725 1198h2l389 -833h-776zM1010 180h-566l-84 -180h-358v53l645 1399h158l647 -1399v-53h-358zM731 1243h-12l-510 -1104h27l96 203h792l95 -203h26zM725 840l-147 -330h299zM856 1528l-133 155l-125 -155h-141l176 217h-21l-178 -217h-115v33l218 292h372l219 -292v-33
h-114l-176 217h-23l176 -217h-135z" />
    <glyph glyph-name="uni1EA6" unicode="&#x1ea6;" 
d="M725 1198h2l389 -833h-776zM1010 180h-566l-84 -180h-358v53l645 1399h158l647 -1399v-53h-358zM731 1243h-12l-510 -1104h27l96 203h792l95 -203h26zM725 840l-147 -330h299zM860 1522l-133 155l-125 -155h-141l176 217h-21l-178 -217h-114v32l217 293h372l220 -293v-32
h-115l-176 217h-23l176 -217h-135zM630 2128l-23 -4l109 -203h-121l-211 240v31l311 104l156 -342v-33h-113z" />
    <glyph glyph-name="uni1EA4" unicode="&#x1ea4;" 
d="M725 1198h2l389 -833h-776zM1094 0h358v53l-647 1399h-158l-645 -1399v-53h358l84 180h566zM1245 139h-26l-95 203h-792l-96 -203h-27l510 1104h12zM725 840l-147 -330h299zM995 1522l-176 217h23l176 -217h115v32l-220 293h-372l-217 -293v-32h114l178 217h21l-176 -217
h141l125 155l133 -155h135zM723 1926h-113v33l156 342l311 -104v-31l-211 -240h-121l109 203l-23 4z" />
    <glyph glyph-name="uni1EAA" unicode="&#x1eaa;" 
d="M725 1198h2l389 -833h-776zM1010 180h-566l-84 -180h-358v53l645 1399h158l647 -1399v-53h-358zM731 1243h-12l-510 -1104h27l96 203h792l95 -203h26zM725 840l-147 -330h299zM860 1522l-133 155l-125 -155h-141l176 217h-21l-178 -217h-114v32l217 293h372l220 -293v-32
h-115l-176 217h-23l176 -217h-135zM500 1929q-88 34 -176 74q27 81 68 137.5t95 85.5t120.5 29t144.5 -31q24 -9 53.5 -21t58 -14.5t52 9.5t34.5 50q47 -20 92.5 -39t92.5 -40q-16 -75 -54 -131t-91 -88.5t-118 -37.5t-135 23q-23 9 -57 24.5t-68.5 22.5t-65 -2.5
t-46.5 -50.5zM467 2054q48 53 114.5 55t143.5 -33q43 -18 83 -26.5t76 -5.5t66.5 19t55.5 48l-17 8q-23 -27 -51.5 -40.5t-61.5 -15t-69.5 7.5t-75.5 26q-41 18 -80 26t-74.5 4.5t-67 -20t-56.5 -47.5z" />
    <glyph glyph-name="uni1EA8" unicode="&#x1ea8;" 
d="M725 1198h2l389 -833h-776zM1010 180h-566l-84 -180h-358v53l645 1399h158l647 -1399v-53h-358zM731 1243h-12l-510 -1104h27l96 203h792l95 -203h26zM725 840l-147 -330h299zM860 1522l-133 155l-125 -155h-141l176 217h-21l-178 -217h-114v32l217 293h372l220 -293v-32
h-115l-176 217h-23l176 -217h-135zM621 1892q-4 38 2.5 67.5t19.5 54t31 44.5t36 39q25 27 46 54.5t24 65.5v-1q0 12 -5.5 21t-14.5 15t-20.5 9t-22.5 3q-24 -1 -42.5 -18.5t-18.5 -56.5h-189q-1 68 19 118.5t55 84t82 50.5t100 19q62 1 112 -18t84.5 -52t53 -77t18.5 -94
q0 -33 -7.5 -59.5t-19.5 -49t-27.5 -42t-31.5 -37.5q-13 -16 -25 -31.5t-21.5 -33.5t-15 -39t-3.5 -47h-206zM744 1968q11 30 29 54.5t39 48.5l6 8v-1q25 32 46 64.5t23 72.5q2 30 -8 56.5t-31 46.5t-52.5 31.5t-73.5 11.5q-50 0 -90 -25t-62 -79h23q18 45 52 64t75 18
q75 -2 111 -36.5t34 -84.5q-1 -18 -8 -35.5t-17 -34t-22.5 -32.5t-24.5 -29q-19 -23 -37.5 -49.5t-34.5 -69.5h23z" />
    <glyph glyph-name="uni1EAC" unicode="&#x1eac;" 
d="M725 1198h2l389 -833h-776zM1010 180h-566l-84 -180h-358v53l645 1399h158l647 -1399v-53h-358zM731 1243h-12l-510 -1104h27l96 203h792l95 -203h26zM725 840l-147 -330h299zM860 1522l-133 155l-125 -155h-141l176 217h-21l-178 -217h-114v32l217 293h372l220 -293v-32
h-115l-176 217h-23l176 -217h-135zM731 -507q-43 0 -80.5 13t-65 37.5t-43.5 59t-16 76.5q0 43 16 78.5t43.5 60.5t65 38.5t80.5 13.5q41 0 77.5 -13.5t63.5 -38.5t43 -60.5t16 -78.5q0 -42 -16 -76.5t-43 -59t-63.5 -37.5t-77.5 -13zM731 -403q-41 0 -67.5 21t-26.5 61
t26.5 62t67.5 22q37 0 63.5 -22t26.5 -62t-26.5 -61t-63.5 -21zM731 -421q21 0 40.5 7t34.5 19.5t24 31t9 42.5t-9 42.5t-24 30.5t-34.5 18.5t-40.5 6.5q-47 0 -79 -25t-32 -73t32 -74t79 -26z" />
    <glyph glyph-name="Atilde" unicode="&#xc3;" 
d="M725 1198h2l389 -833h-776zM1010 180h-566l-84 -180h-358v53l645 1399h158l647 -1399v-53h-358zM731 1243h-12l-510 -1104h27l96 203h792l95 -203h26zM725 840l-147 -330h299zM469 1554q-45 17 -88 35.5t-88 38.5q27 81 68 137.5t95 85.5t120.5 29t144.5 -31
q24 -9 53.5 -20.5t58 -14t52 9.5t35.5 50q46 -20 91.5 -39t92.5 -41q-16 -75 -54 -131t-91 -88t-117.5 -37t-134.5 23q-23 9 -57 24.5t-69 22t-65.5 -3t-46.5 -50.5zM436 1679q48 52 114.5 54.5t143.5 -31.5q43 -18 83 -26.5t76 -5.5t66.5 19t55.5 48l-17 8
q-23 -28 -51.5 -41.5t-61.5 -15t-69.5 7.5t-75.5 26q-41 18 -80 26t-74.5 4.5t-67 -19.5t-56.5 -47z" />
    <glyph glyph-name="Adieresis" unicode="&#xc4;" 
d="M725 1198h2l389 -833h-776zM1010 180h-566l-84 -180h-358v53l645 1399h158l647 -1399v-53h-358zM731 1243h-12l-510 -1104h27l96 203h792l95 -203h26zM725 840l-147 -330h299zM457 1513q-42 0 -79 13.5t-64.5 38t-43.5 59t-16 76.5q0 44 16 79t43.5 59t64.5 37t79 13
t79.5 -13t65 -37t44 -59t16.5 -79q0 -42 -16.5 -76.5t-44 -59t-65 -38t-79.5 -13.5zM999 1513q-42 0 -79 13.5t-64 38t-43 59t-16 76.5q0 44 16 79t43 59t64 37t79 13q43 0 80 -13t64.5 -37t43 -59t15.5 -79q0 -42 -15.5 -76.5t-43 -59t-64.5 -38t-80 -13.5zM999 1620
q-38 0 -65 21t-27 59q0 42 27 63t65 21q39 0 67 -21t28 -63q0 -38 -28 -59t-67 -21zM999 1602q47 0 79 25t32 73t-32 75t-79 27q-48 0 -80 -27t-32 -75q0 -24 9 -42.5t24.5 -30.5t36 -18.5t42.5 -6.5zM457 1620q-37 0 -64.5 21t-27.5 59q0 42 27.5 63t64.5 21q40 0 67 -21
t27 -63q0 -38 -27 -59t-67 -21zM457 1602q48 0 80 25t32 73t-32 75t-80 27q-47 0 -79 -27t-32 -75t32 -73t79 -25z" />
    <glyph glyph-name="Abreve" unicode="&#x102;" 
d="M725 1198h2l389 -833h-776zM1010 180h-566l-84 -180h-358v53l645 1399h158l647 -1399v-53h-358zM731 1243h-12l-510 -1104h27l96 203h792l95 -203h26zM725 840l-147 -330h299zM723 1534q-90 0 -157.5 27t-112 71t-66 99t-18.5 112h129q1 -37 16 -72t43.5 -62.5t70 -44.5
t95.5 -17t95.5 17t70 44.5t43 62.5t16.5 72h127q1 -57 -20 -112t-64.5 -99t-110.5 -71t-157 -27zM723 1665q-51 0 -89 15t-64.5 40t-40.5 57t-15 66h113q1 -13 8 -26.5t19 -24.5t29.5 -18t39.5 -7q21 0 38 7t28.5 18t17.5 24.5t6 26.5h115q-1 -34 -14.5 -66t-39 -57
t-63.5 -40t-88 -15z" />
    <glyph glyph-name="uni1EB0" unicode="&#x1eb0;" 
d="M725 1198h2l389 -833h-776zM1010 180h-566l-84 -180h-358v53l645 1399h158l647 -1399v-53h-358zM731 1243h-12l-510 -1104h27l96 203h792l95 -203h26zM725 840l-147 -330h299zM723 1534q-90 0 -157.5 27t-112 71t-66 99t-18.5 112h129q1 -37 16 -72t43.5 -62.5t70 -44.5
t95.5 -17t95.5 17t70 44.5t43 62.5t16.5 72h127q1 -57 -20 -112t-64.5 -99t-110.5 -71t-157 -27zM723 1665q-51 0 -89 15t-64.5 40t-40.5 57t-15 66h113q1 -13 8 -26.5t19 -24.5t29.5 -18t39.5 -7q21 0 38 7t28.5 18t17.5 24.5t6 26.5h115q-1 -34 -14.5 -66t-39 -57
t-63.5 -40t-88 -15zM631 2128l-23 -4l109 -203h-121l-211 240v31l311 104l156 -342v-33h-113z" />
    <glyph glyph-name="uni1EAE" unicode="&#x1eae;" 
d="M725 1198h2l389 -833h-776zM1094 0h358v53l-647 1399h-158l-645 -1399v-53h358l84 180h566zM1245 139h-26l-95 203h-792l-96 -203h-27l510 1104h12zM725 840l-147 -330h299zM723 1534q90 0 157 27t110.5 71t64.5 99t20 112h-127q-2 -37 -16.5 -72t-43 -62.5t-70 -44.5
t-95.5 -17t-95.5 17t-70 44.5t-43.5 62.5t-16 72h-129q-3 -57 18.5 -112t66 -99t112 -71t157.5 -27zM723 1665q50 0 88 15t63.5 40t39 57t14.5 66h-115q0 -13 -6 -26.5t-17.5 -24.5t-28.5 -18t-38 -7q-22 0 -39.5 7t-29.5 18t-19 24.5t-8 26.5h-113q1 -34 15 -66t40.5 -57
t64.5 -40t89 -15zM720 1926h-113v33l156 342l311 -104v-31l-211 -240h-121l109 203l-23 4z" />
    <glyph glyph-name="uni1EB4" unicode="&#x1eb4;" 
d="M725 1198h2l389 -833h-776zM1010 180h-566l-84 -180h-358v53l645 1399h158l647 -1399v-53h-358zM731 1243h-12l-510 -1104h27l96 203h792l95 -203h26zM725 840l-147 -330h299zM723 1534q-90 0 -157.5 27t-112 71t-66 99t-18.5 112h129q1 -37 16 -72t43.5 -62.5t70 -44.5
t95.5 -17t95.5 17t70 44.5t43 62.5t16.5 72h127q1 -57 -20 -112t-64.5 -99t-110.5 -71t-157 -27zM723 1665q-51 0 -89 15t-64.5 40t-40.5 57t-15 66h113q1 -13 8 -26.5t19 -24.5t29.5 -18t39.5 -7q21 0 38 7t28.5 18t17.5 24.5t6 26.5h115q-1 -34 -14.5 -66t-39 -57
t-63.5 -40t-88 -15zM500 1929q-88 34 -176 74q27 81 68 137.5t95 85.5t120.5 29t144.5 -31q24 -9 53.5 -21t58 -14.5t52 9.5t34.5 50q47 -20 92.5 -39t92.5 -40q-16 -75 -54 -131t-91 -88.5t-118 -37.5t-135 23q-23 9 -57 24.5t-68.5 22.5t-65 -2.5t-46.5 -50.5zM467 2054
q48 53 114.5 55t143.5 -33q43 -18 83 -26.5t76 -5.5t66.5 19t55.5 48l-17 8q-23 -27 -51.5 -40.5t-61.5 -15t-69.5 7.5t-75.5 26q-41 18 -80 26t-74.5 4.5t-67 -20t-56.5 -47.5z" />
    <glyph glyph-name="uni1EB2" unicode="&#x1eb2;" 
d="M725 1198h2l389 -833h-776zM1010 180h-566l-84 -180h-358v53l645 1399h158l647 -1399v-53h-358zM731 1243h-12l-510 -1104h27l96 203h792l95 -203h26zM725 840l-147 -330h299zM723 1534q-90 0 -157.5 27t-112 71t-66 99t-18.5 112h129q1 -37 16 -72t43.5 -62.5t70 -44.5
t95.5 -17t95.5 17t70 44.5t43 62.5t16.5 72h127q1 -57 -20 -112t-64.5 -99t-110.5 -71t-157 -27zM723 1665q-51 0 -89 15t-64.5 40t-40.5 57t-15 66h113q1 -13 8 -26.5t19 -24.5t29.5 -18t39.5 -7q21 0 38 7t28.5 18t17.5 24.5t6 26.5h115q-1 -34 -14.5 -66t-39 -57
t-63.5 -40t-88 -15zM621 1892q-4 38 2.5 67.5t19.5 54t31 44.5t36 39q25 27 46 54.5t24 65.5v-1q0 12 -5.5 21t-14.5 15t-20.5 9t-22.5 3q-24 -1 -42.5 -18.5t-18.5 -56.5h-189q-1 68 19 118.5t55 84t82 50.5t100 19q62 1 112 -18t84.5 -52t53 -77t18.5 -94
q0 -33 -7.5 -59.5t-19.5 -49t-27.5 -42t-31.5 -37.5q-13 -16 -25 -31.5t-21.5 -33.5t-15 -39t-3.5 -47h-206zM744 1968q11 30 29 54.5t39 48.5l6 8v-1q25 32 46 64.5t23 72.5q2 30 -8 56.5t-31 46.5t-52.5 31.5t-73.5 11.5q-50 0 -90 -25t-62 -79h23q18 45 52 64t75 18
q75 -2 111 -36.5t34 -84.5q-1 -18 -8 -35.5t-17 -34t-22.5 -32.5t-24.5 -29q-19 -23 -37.5 -49.5t-34.5 -69.5h23z" />
    <glyph glyph-name="uni1EB6" unicode="&#x1eb6;" 
d="M725 1198h2l389 -833h-776zM1010 180h-566l-84 -180h-358v53l645 1399h158l647 -1399v-53h-358zM731 1243h-12l-510 -1104h27l96 203h792l95 -203h26zM725 840l-147 -330h299zM723 1534q-90 0 -157.5 27t-112 71t-66 99t-18.5 112h129q1 -37 16 -72t43.5 -62.5t70 -44.5
t95.5 -17t95.5 17t70 44.5t43 62.5t16.5 72h127q1 -57 -20 -112t-64.5 -99t-110.5 -71t-157 -27zM723 1665q-51 0 -89 15t-64.5 40t-40.5 57t-15 66h113q1 -13 8 -26.5t19 -24.5t29.5 -18t39.5 -7q21 0 38 7t28.5 18t17.5 24.5t6 26.5h115q-1 -34 -14.5 -66t-39 -57
t-63.5 -40t-88 -15zM731 -507q-43 0 -80.5 13t-65 37.5t-43.5 59t-16 76.5q0 43 16 78.5t43.5 60.5t65 38.5t80.5 13.5q41 0 77.5 -13.5t63.5 -38.5t43 -60.5t16 -78.5q0 -42 -16 -76.5t-43 -59t-63.5 -37.5t-77.5 -13zM731 -403q-41 0 -67.5 21t-26.5 61t26.5 62t67.5 22
q37 0 63.5 -22t26.5 -62t-26.5 -61t-63.5 -21zM731 -421q21 0 40.5 7t34.5 19.5t24 31t9 42.5t-9 42.5t-24 30.5t-34.5 18.5t-40.5 6.5q-47 0 -79 -25t-32 -73t32 -74t79 -26z" />
    <glyph glyph-name="Aring" unicode="&#xc5;" 
d="M725 1198h2l389 -833h-776zM731 1243h-12l-510 -1104h27l96 203h792l95 -203h26zM725 840l-147 -330h299zM727 1505q-53 0 -89 28.5t-36 82.5q0 53 36 81.5t89 28.5q25 0 47 -7.5t39 -21.5t27 -34.5t10 -46.5q0 -27 -10 -47.5t-27 -35t-39 -21.5t-47 -7zM727 1481
q30 0 56.5 9t47 26t32 42.5t11.5 57.5q0 31 -11.5 56t-32 42t-47 26t-56.5 9q-32 0 -59 -9t-47 -26t-31.5 -42t-11.5 -56q0 -32 11.5 -57.5t31.5 -42.5t47 -26t59 -9zM1010 180h-566l-84 -180h-358v53l612 1329q-72 28 -116.5 87.5t-44.5 146.5q0 57 21.5 102.5t58.5 78
t87 50t107 17.5q56 0 105.5 -17.5t86 -50t57.5 -78t21 -102.5q0 -87 -45 -146.5t-116 -87.5l616 -1329v-53h-358z" />
    <glyph glyph-name="uni1EA2" unicode="&#x1ea2;" 
d="M725 1198h2l389 -833h-776zM1010 180h-566l-84 -180h-358v53l645 1399h158l647 -1399v-53h-358zM731 1243h-12l-510 -1104h27l96 203h792l95 -203h26zM725 840l-147 -330h299zM621 1553q-4 38 2.5 67.5t19.5 54t31 44.5t36 39q25 27 46 54.5t24 65.5v-1q0 12 -5.5 21
t-14.5 15t-20.5 9t-22.5 3q-24 -1 -42.5 -18.5t-18.5 -56.5h-189q-1 68 19 118.5t55 84t82 50.5t100 19q62 1 112 -18t84.5 -52t53 -77t18.5 -94q0 -33 -7.5 -59.5t-19.5 -49t-27.5 -42t-31.5 -37.5q-13 -16 -25 -31.5t-21.5 -33.5t-15 -39t-3.5 -47h-206zM744 1629
q11 30 29 54.5t39 48.5l6 8v-1q25 32 46 64.5t23 72.5q2 30 -8 56.5t-31 46.5t-52.5 31.5t-73.5 11.5q-50 0 -90 -25t-62 -79h23q18 45 52 64t75 18q75 -2 111 -36.5t34 -84.5q-1 -18 -8 -35.5t-17 -34t-22.5 -32.5t-24.5 -29q-19 -23 -37.5 -49.5t-34.5 -69.5h23z" />
    <glyph glyph-name="uni1EA0" unicode="&#x1ea0;" 
d="M725 1198h2l389 -833h-776zM1010 180h-566l-84 -180h-358v53l645 1399h158l647 -1399v-53h-358zM731 1243h-12l-510 -1104h27l96 203h792l95 -203h26zM725 840l-147 -330h299zM638 -507q-43 0 -80.5 13t-65 37.5t-43.5 59t-16 76.5q0 43 16 78.5t43.5 60.5t65 38.5
t80.5 13.5q41 0 77.5 -13.5t63.5 -38.5t43 -60.5t16 -78.5q0 -42 -16 -76.5t-43 -59t-63.5 -37.5t-77.5 -13zM638 -403q-41 0 -67.5 21t-26.5 61t26.5 62t67.5 22q37 0 63.5 -22t26.5 -62t-26.5 -61t-63.5 -21zM638 -421q21 0 40.5 7t34.5 19.5t24 31t9 42.5t-9 42.5
t-24 30.5t-34.5 18.5t-40.5 6.5q-47 0 -79 -25t-32 -73t32 -74t79 -26z" />
    <glyph glyph-name="AE" unicode="&#xc6;" horiz-adv-x="1774" 
d="M500 313q-34 -78 -67 -156.5t-71 -156.5h-360v55l641 1379h979v-326h-467v-207h426v-326h-426v-249h485v-326h-827v313h-313zM641 645h172l6 424h-2zM975 1260v-762h-565q88 193 177.5 381.5t180.5 380.5h207zM975 479v-325h526v20h-508v557h449v21h-449v508h490v22h-727
l-539 -1143h19q42 85 82.5 170t80.5 170h576z" />
    <glyph glyph-name="AEacute" unicode="&#x1fc;" horiz-adv-x="2028" 
d="M500 313q-34 -78 -67 -156.5t-71 -156.5h-360v55l641 1379h979v-326h-467v-207h426v-326h-426v-249h485v-326h-827v313h-313zM641 645h172l6 424h-2zM975 1260v-762h-565q88 193 177.5 381.5t180.5 380.5h207zM975 479v-325h526v20h-508v557h449v21h-449v508h490v22h-727
l-539 -1143h19q42 85 82.5 170t80.5 170h576zM970 1923h-112v33l155 342l311 -105v-30l-210 -240h-121l108 203l-22 4z" />
    <glyph glyph-name="uni01E2" unicode="&#x1e2;" horiz-adv-x="2028" 
d="M1088 1634v94h606v-94h-606zM500 313h313v-313h827v326h-485v249h426v326h-426v207h467v326h-979l-641 -1379v-55h360q38 78 71 156.5t67 156.5zM817 1069h2l-6 -424h-172zM768 1260q-91 -192 -180.5 -380.5t-177.5 -381.5h565v762h-207zM399 479q-40 -85 -80.5 -170
t-82.5 -170h-19l539 1143h727v-22h-490v-508h449v-21h-449v-557h508v-20h-526v325h-576z" />
    <glyph glyph-name="Ccedilla" unicode="&#xc7;" horiz-adv-x="1610" 
d="M713 -6q-121 16 -232 69.5t-196.5 144t-136.5 218t-52 291.5q0 122 29.5 223.5t81 183t121.5 142.5t151.5 102t171 61.5t180.5 20.5q74 0 149 -14t145.5 -42.5t133.5 -72.5t113 -104.5t84.5 -138t48.5 -173.5h-360q-38 110 -118 160.5t-196 50.5q-81 0 -146.5 -29
t-112 -81.5t-72 -126t-25.5 -162.5q0 -79 25 -150.5t71.5 -126.5t112.5 -87.5t147 -33.5q58 0 110 14.5t94 43.5t71.5 72.5t44.5 101.5h360q-18 -135 -70.5 -235t-129 -167.5t-171 -106t-194.5 -50.5l-20 -92q49 -8 81 -32.5t47 -58.5t14 -74.5t-17 -80.5q-19 -45 -50.5 -76
t-71 -48.5t-85 -22.5t-91 0t-88.5 19.5t-79 37.5l16 190q17 -14 43.5 -21t52.5 -6t47 11t27 31t-2 35t-24 22t-35.5 11t-36.5 3zM797 -133q30 -8 55.5 -21.5t41.5 -33.5t21 -46t-6 -59q-11 -34 -34 -53.5t-52 -28.5t-61.5 -8.5t-63.5 8.5l-4 -18q35 -9 72 -10.5t69 9
t57.5 33.5t37.5 62q10 34 5.5 63t-20 52t-40.5 39.5t-56 25.5l45 262q142 5 254.5 76.5t175.5 202.5h-24q-68 -131 -181.5 -194.5t-257.5 -63.5q-99 0 -195 36t-171 106.5t-121.5 173.5t-46.5 237t46.5 238t121.5 175t171 107.5t195 36.5q140 0 251 -58.5t180 -179.5h24
q-35 64 -83.5 112t-107 80t-125.5 48t-139 16q-104 0 -203.5 -37.5t-177.5 -110t-126 -180t-48 -247.5q0 -139 48 -246.5t126 -180.5t177.5 -110.5t203.5 -36.5h15z" />
    <glyph glyph-name="Dcroat" unicode="&#x110;" horiz-adv-x="1520" 
d="M182 874v560h541q140 -1 252 -41t196 -109t140 -160.5t84 -194.5t28.5 -212t-28 -212t-84.5 -194.5t-140 -160.5t-196 -109t-252 -41h-541v553h-172v321h172zM549 874h188v-321h-188v-219h174q86 0 150 33t107 87t64.5 122.5t21.5 140.5t-21.5 140.5t-64.5 122.5t-107 87
t-150 33h-174v-226zM360 723h-213v-18h213v-551h359q134 0 234 48.5t167 127.5t100.5 180t33.5 207t-33.5 207t-100.5 180t-167 127.5t-234 48.5h-359v-557zM379 723v537h340q103 -1 185.5 -31.5t144.5 -83t103.5 -121.5t62 -147t20.5 -160t-20.5 -160t-62 -147t-103.5 -121
t-144.5 -82.5t-185.5 -30.5h-340v529h219v18h-219z" />
    <glyph glyph-name="Egrave" unicode="&#xc8;" horiz-adv-x="1229" 
d="M354 152h602v20h-579v559h520v21h-520v510h561v20h-584v-1130zM1077 1106h-530v-203h487v-325h-487v-252h549v-326h-914v1434h895v-328zM586 1749l-23 -4l109 -203h-121l-211 240v30l311 105l156 -342v-33h-113z" />
    <glyph glyph-name="Eacute" unicode="&#xc9;" horiz-adv-x="1229" 
d="M354 152h602v20h-579v559h520v21h-520v510h561v20h-584v-1130zM1077 1106h-530v-203h487v-325h-487v-252h549v-326h-914v1434h895v-328zM596 1538h-113v33l156 342l311 -105v-30l-211 -240h-121l109 203l-22 4z" />
    <glyph glyph-name="uni1EC0" unicode="&#x1ec0;" horiz-adv-x="1229" 
d="M354 152h602v20h-579v559h520v21h-520v510h561v20h-584v-1130zM1077 1106h-530v-203h487v-325h-487v-252h549v-326h-914v1434h895v-328zM760 1532l-133 156l-125 -156h-142l177 217h-21l-178 -217h-115v33l217 293h373l219 -293v-33h-114l-177 217h-22l176 -217h-135z
M520 2128l-23 -4l109 -203h-121l-211 240v31l311 104l156 -342v-33h-113z" />
    <glyph glyph-name="uni1EC4" unicode="&#x1ec4;" horiz-adv-x="1229" 
d="M354 152h602v20h-579v559h520v21h-520v510h561v20h-584v-1130zM1077 1106h-530v-203h487v-325h-487v-252h549v-326h-914v1434h895v-328zM760 1532l-133 156l-125 -156h-142l177 217h-21l-178 -217h-115v33l217 293h373l219 -293v-33h-114l-177 217h-22l176 -217h-135z
M385 1929q-88 34 -176 74q27 81 68 137.5t95 85.5t120.5 29t144.5 -31q24 -9 53.5 -21t58 -14.5t52 9.5t34.5 50q47 -20 92.5 -39t92.5 -40q-16 -75 -54 -131t-91 -88.5t-118 -37.5t-135 23q-23 9 -57 24.5t-68.5 22.5t-65 -2.5t-46.5 -50.5zM352 2054q48 53 114.5 55
t143.5 -33q43 -18 83 -26.5t76 -5.5t66.5 19t55.5 48l-17 8q-23 -27 -51.5 -40.5t-61.5 -15t-69.5 7.5t-75.5 26q-41 18 -80 26t-74.5 4.5t-67 -20t-56.5 -47.5z" />
    <glyph glyph-name="uni1EC2" unicode="&#x1ec2;" horiz-adv-x="1229" 
d="M354 152h602v20h-579v559h520v21h-520v510h561v20h-584v-1130zM1077 1106h-530v-203h487v-325h-487v-252h549v-326h-914v1434h895v-328zM760 1532l-133 156l-125 -156h-142l177 217h-21l-178 -217h-115v33l217 293h373l219 -293v-33h-114l-177 217h-22l176 -217h-135z
M506 1892q-4 38 2.5 67.5t19.5 54t31 44.5t36 39q25 27 46 54.5t24 65.5v-1q0 12 -5.5 21t-14.5 15t-20.5 9t-22.5 3q-24 -1 -42.5 -18.5t-18.5 -56.5h-189q-1 68 19 118.5t55 84t82 50.5t100 19q62 1 112 -18t84.5 -52t53 -77t18.5 -94q0 -33 -7.5 -59.5t-19.5 -49
t-27.5 -42t-31.5 -37.5q-13 -16 -25 -31.5t-21.5 -33.5t-15 -39t-3.5 -47h-206zM629 1968q11 30 29 54.5t39 48.5l6 8v-1q25 32 46 64.5t23 72.5q2 30 -8 56.5t-31 46.5t-52.5 31.5t-73.5 11.5q-50 0 -90 -25t-62 -79h23q18 45 52 64t75 18q75 -2 111 -36.5t34 -84.5
q-1 -18 -8 -35.5t-17 -34t-22.5 -32.5t-24.5 -29q-19 -23 -37.5 -49.5t-34.5 -69.5h23z" />
    <glyph glyph-name="uni1EC6" unicode="&#x1ec6;" horiz-adv-x="1229" 
d="M354 152h602v20h-579v559h520v21h-520v510h561v20h-584v-1130zM1077 1106h-530v-203h487v-325h-487v-252h549v-326h-914v1434h895v-328zM760 1532l-133 156l-125 -156h-142l177 217h-21l-178 -217h-115v33l217 293h373l219 -293v-33h-114l-177 217h-22l176 -217h-135z
M616 -507q-43 0 -80.5 13t-65 37.5t-43.5 59t-16 76.5q0 43 16 78.5t43.5 60.5t65 38.5t80.5 13.5q41 0 77.5 -13.5t63.5 -38.5t43 -60.5t16 -78.5q0 -42 -16 -76.5t-43 -59t-63.5 -37.5t-77.5 -13zM616 -403q-41 0 -67.5 21t-26.5 61t26.5 62t67.5 22q37 0 63.5 -22
t26.5 -62t-26.5 -61t-63.5 -21zM616 -421q21 0 40.5 7t34.5 19.5t24 31t9 42.5t-9 42.5t-24 30.5t-34.5 18.5t-40.5 6.5q-47 0 -79 -25t-32 -73t32 -74t79 -26z" />
    <glyph glyph-name="uni1EBC" unicode="&#x1ebc;" horiz-adv-x="1229" 
d="M354 152h602v20h-579v559h520v21h-520v510h561v20h-584v-1130zM1077 1106h-530v-203h487v-325h-487v-252h549v-326h-914v1434h895v-328zM449 1579q-88 34 -176 74q27 81 68 137.5t95 85.5t120.5 29t144.5 -31q24 -9 53.5 -21t58 -14.5t52 9.5t34.5 50q47 -20 92.5 -39
t92.5 -40q-16 -75 -54 -131t-91 -88.5t-118 -37.5t-135 23q-23 9 -57 24.5t-68.5 22.5t-65 -2.5t-46.5 -50.5zM416 1704q48 53 114.5 55t143.5 -33q43 -18 83 -26.5t76 -5.5t66.5 19t55.5 48l-17 8q-23 -27 -51.5 -40.5t-61.5 -15t-69.5 7.5t-75.5 26q-41 18 -80 26
t-74.5 4.5t-67 -20t-56.5 -47.5z" />
    <glyph glyph-name="Edieresis" unicode="&#xcb;" horiz-adv-x="1229" 
d="M354 152h602v20h-579v559h520v21h-520v510h561v20h-584v-1130zM1077 1106h-530v-203h487v-325h-487v-252h549v-326h-914v1434h895v-328zM381 1526q-42 0 -78 13t-63 36.5t-42.5 56.5t-15.5 74q0 42 15.5 76t42.5 58t63 37t78 13q40 0 76.5 -13t63.5 -37t43 -58t16 -76
q0 -41 -16 -74t-43 -56.5t-63.5 -36.5t-76.5 -13zM909 1526q-41 0 -77 13t-63 36.5t-42.5 56.5t-15.5 74q0 42 15.5 76t42.5 58t63 37t77 13q42 0 78 -13t62.5 -37t41.5 -58t15 -76q0 -41 -15 -74t-41.5 -56.5t-62.5 -36.5t-78 -13zM909 1628q-37 0 -63.5 20.5t-26.5 57.5
q0 40 26.5 61t63.5 21t64.5 -21t27.5 -61q0 -37 -27.5 -57.5t-64.5 -20.5zM909 1610q45 0 76 25t31 71t-31 73t-76 27q-46 0 -78 -27t-32 -73q0 -23 9 -41t24.5 -30t35.5 -18.5t41 -6.5zM381 1628q-37 0 -63.5 20.5t-26.5 57.5q0 40 26.5 61t63.5 21q38 0 65 -21t27 -61
q0 -37 -27 -57.5t-65 -20.5zM381 1610q46 0 77 25t31 71t-31 73t-77 27q-22 0 -42 -7t-35 -20t-23.5 -31.5t-8.5 -41.5t8.5 -41t23.5 -30t35 -18.5t42 -6.5z" />
    <glyph glyph-name="uni1EBA" unicode="&#x1eba;" horiz-adv-x="1229" 
d="M354 152h602v20h-579v559h520v21h-520v510h561v20h-584v-1130zM1077 1106h-530v-203h487v-325h-487v-252h549v-326h-914v1434h895v-328zM495 1553q-4 38 2.5 67.5t19.5 54t31 44.5t36 39q25 27 46 54.5t24 65.5v-1q0 12 -5.5 21t-14.5 15t-20.5 9t-22.5 3
q-24 -1 -42.5 -18.5t-18.5 -56.5h-189q-1 68 19 118.5t55 84t82 50.5t100 19q62 1 112 -18t84.5 -52t53 -77t18.5 -94q0 -33 -7.5 -59.5t-19.5 -49t-27.5 -42t-31.5 -37.5q-13 -16 -25 -31.5t-21.5 -33.5t-15 -39t-3.5 -47h-206zM618 1629q11 30 29 54.5t39 48.5l6 8v-1
q25 32 46 64.5t23 72.5q2 30 -8 56.5t-31 46.5t-52.5 31.5t-73.5 11.5q-50 0 -90 -25t-62 -79h23q18 45 52 64t75 18q75 -2 111 -36.5t34 -84.5q-1 -18 -8 -35.5t-17 -34t-22.5 -32.5t-24.5 -29q-19 -23 -37.5 -49.5t-34.5 -69.5h23z" />
    <glyph glyph-name="uni1EB8" unicode="&#x1eb8;" horiz-adv-x="1229" 
d="M354 152h602v20h-579v559h520v21h-520v510h561v20h-584v-1130zM1077 1106h-530v-203h487v-325h-487v-252h549v-326h-914v1434h895v-328zM616 -507q-43 0 -80.5 13t-65 37.5t-43.5 59t-16 76.5q0 43 16 78.5t43.5 60.5t65 38.5t80.5 13.5q41 0 77.5 -13.5t63.5 -38.5
t43 -60.5t16 -78.5q0 -42 -16 -76.5t-43 -59t-63.5 -37.5t-77.5 -13zM616 -403q-41 0 -67.5 21t-26.5 61t26.5 62t67.5 22q37 0 63.5 -22t26.5 -62t-26.5 -61t-63.5 -21zM616 -421q21 0 40.5 7t34.5 19.5t24 31t9 42.5t-9 42.5t-24 30.5t-34.5 18.5t-40.5 6.5q-47 0 -79 -25
t-32 -73t32 -74t79 -26z" />
    <glyph glyph-name="Igrave" unicode="&#xcc;" horiz-adv-x="848" 
d="M201 170v-20h450v20h-213v1092h197v20h-416v-20h199v-1092h-217zM791 322v-322h-728v322h183v792h-168v320h698v-320h-168v-792h183zM350 1745l-22 -4l108 -203h-121l-211 240v30l312 105l155 -342v-33h-112z" />
    <glyph glyph-name="Iacute" unicode="&#xcd;" horiz-adv-x="848" 
d="M201 170v-20h450v20h-213v1092h197v20h-416v-20h199v-1092h-217zM791 322v-322h-728v322h183v792h-168v320h698v-320h-168v-792h183zM391 1534h-112v33l155 342l311 -105v-30l-210 -240h-121l108 203l-22 4z" />
    <glyph glyph-name="Icircumflex" unicode="&#xce;" horiz-adv-x="848" 
d="M201 170v-20h450v20h-213v1092h197v20h-416v-20h199v-1092h-217zM791 322v-322h-728v322h183v792h-168v320h698v-320h-168v-792h183zM557 1538l-133 156l-125 -156h-141l176 217h-21l-178 -217h-115v33l218 293h372l219 -293v-33h-114l-176 217h-23l176 -217h-135z" />
    <glyph glyph-name="Itilde" unicode="&#x128;" horiz-adv-x="848" 
d="M201 170v-20h450v20h-213v1092h197v20h-416v-20h199v-1092h-217zM791 322v-322h-728v322h183v792h-168v320h698v-320h-168v-792h183zM556 1579q-88 34 -176 74q27 81 68 137.5t95 85.5t120.5 29t144.5 -31q24 -9 53.5 -21t58 -14.5t52 9.5t34.5 50q47 -20 92.5 -39
t92.5 -40q-16 -75 -54 -131t-91 -88.5t-118 -37.5t-135 23q-23 9 -57 24.5t-68.5 22.5t-65 -2.5t-46.5 -50.5zM523 1704q48 53 114.5 55t143.5 -33q43 -18 83 -26.5t76 -5.5t66.5 19t55.5 48l-17 8q-23 -27 -51.5 -40.5t-61.5 -15t-69.5 7.5t-75.5 26q-41 18 -80 26
t-74.5 4.5t-67 -20t-56.5 -47.5z" />
    <glyph glyph-name="Idieresis" unicode="&#xcf;" horiz-adv-x="848" 
d="M201 170v-20h450v20h-213v1092h197v20h-416v-20h199v-1092h-217zM791 322v-322h-728v322h183v792h-168v320h698v-320h-168v-792h183zM158 1536q-42 0 -79 13.5t-64.5 37.5t-43.5 58.5t-16 76.5q0 44 16 79t43.5 59.5t64.5 37.5t79 13t79 -13t65 -37.5t44 -59.5t16 -79
q0 -42 -16 -76.5t-44 -58.5t-65 -37.5t-79 -13.5zM700 1536q-42 0 -79 13.5t-64 37.5t-43 58.5t-16 76.5q0 44 16 79t43 59.5t64 37.5t79 13q43 0 80 -13t64.5 -37.5t43 -59.5t15.5 -79q0 -42 -15.5 -76.5t-43 -58.5t-64.5 -37.5t-80 -13.5zM700 1642q-38 0 -65 21t-27 59
q0 42 27 63t65 21q39 0 67 -21t28 -63q0 -38 -28 -59t-67 -21zM700 1624q47 0 79 25t32 73t-32 75.5t-79 27.5q-48 0 -80 -27.5t-32 -75.5q0 -24 9 -42t24.5 -30.5t36 -19t42.5 -6.5zM158 1642q-37 0 -64.5 21t-27.5 59q0 42 27.5 63t64.5 21q40 0 67 -21t27 -63
q0 -38 -27 -59t-67 -21zM158 1624q48 0 80 25t32 73t-32 75.5t-80 27.5q-47 0 -79 -27.5t-32 -75.5t32 -73t79 -25z" />
    <glyph glyph-name="uni1EC8" unicode="&#x1ec8;" horiz-adv-x="848" 
d="M215 170v-20h450v20h-213v1092h197v20h-416v-20h199v-1092h-217zM805 322v-322h-728v322h183v792h-168v320h698v-320h-168v-792h183zM316 1553q-4 38 2.5 67.5t19.5 54t31 44.5t36 39q25 27 46 54.5t24 65.5v-1q0 12 -5.5 21t-14.5 15t-20.5 9t-22.5 3
q-24 -1 -42.5 -18.5t-18.5 -56.5h-189q-1 68 19 118.5t55 84t82 50.5t100 19q62 1 112 -18t84.5 -52t53 -77t18.5 -94q0 -33 -7.5 -59.5t-19.5 -49t-27.5 -42t-31.5 -37.5q-13 -16 -25 -31.5t-21.5 -33.5t-15 -39t-3.5 -47h-206zM439 1629q11 30 29 54.5t39 48.5l6 8v-1
q25 32 46 64.5t23 72.5q2 30 -8 56.5t-31 46.5t-52.5 31.5t-73.5 11.5q-50 0 -90 -25t-62 -79h23q18 45 52 64t75 18q75 -2 111 -36.5t34 -84.5q-1 -18 -8 -35.5t-17 -34t-22.5 -32.5t-24.5 -29q-19 -23 -37.5 -49.5t-34.5 -69.5h23z" />
    <glyph glyph-name="uni1ECA" unicode="&#x1eca;" horiz-adv-x="848" 
d="M201 170v-20h450v20h-213v1092h197v20h-416v-20h199v-1092h-217zM791 322v-322h-728v322h183v792h-168v320h698v-320h-168v-792h183zM426 -507q-43 0 -80.5 13t-65 37.5t-43.5 59t-16 76.5q0 43 16 78.5t43.5 60.5t65 38.5t80.5 13.5q41 0 77.5 -13.5t63.5 -38.5
t43 -60.5t16 -78.5q0 -42 -16 -76.5t-43 -59t-63.5 -37.5t-77.5 -13zM426 -403q-41 0 -67.5 21t-26.5 61t26.5 62t67.5 22q37 0 63.5 -22t26.5 -62t-26.5 -61t-63.5 -21zM426 -421q21 0 40.5 7t34.5 19.5t24 31t9 42.5t-9 42.5t-24 30.5t-34.5 18.5t-40.5 6.5q-47 0 -79 -25
t-32 -73t32 -74t79 -26z" />
    <glyph glyph-name="IJ" unicode="&#x132;" horiz-adv-x="848" 
d="M201 170v-20h450v20h-213v1092h197v20h-416v-20h199v-1092h-217zM791 322v-322h-728v322h183v792h-168v320h698v-320h-168v-792h183zM1712 477q0 -117 -45 -209t-121 -155t-176 -96t-211 -33t-208.5 33t-170.5 96t-115.5 155t-42.5 209v187h346v-181q0 -42 15 -74
t40.5 -54t60.5 -33t75 -11q80 0 129 43t49 129v625h-209v326h584v-957zM780 524v-41q0 -81 29 -145t79.5 -108.5t118.5 -68.5t146 -24q79 0 149 22.5t122.5 66.5t83 108.5t30.5 148.5v801h-273v-20h250v-781q0 -81 -28 -141.5t-77 -101.5t-114.5 -61.5t-140.5 -20.5
q-74 0 -138.5 21.5t-112 63t-75 102t-27.5 138.5v41h-22z" />
    <glyph glyph-name="Ntilde" unicode="&#xd1;" horiz-adv-x="1597" 
d="M561 705v-705h-379v1440h133l725 -709v703h375v-1436h-131zM356 141h25v969q108 -103 214.5 -208t211.5 -208q103 -102 206 -202t210 -203h16v1005h-22v-970q-109 106 -215 210.5t-216 206.5q-100 103 -202 203.5t-205 200.5h-23v-1004zM539 1554q-45 17 -88.5 35.5
t-88.5 38.5q27 81 68.5 137.5t95.5 85.5t120.5 29t144.5 -31q24 -9 53.5 -20.5t57.5 -14t51.5 9.5t35.5 50q47 -20 92.5 -39t92.5 -41q-17 -75 -54.5 -131t-90.5 -88t-118 -37t-135 23q-15 6 -35.5 15.5t-43.5 17.5t-46.5 13t-44.5 2.5t-38.5 -15.5t-28.5 -40zM506 1679
q48 53 114.5 55t143.5 -32q43 -18 83 -26.5t75.5 -5.5t66.5 19t55 48l-16 8q-23 -28 -52 -41.5t-62 -15t-69.5 7.5t-74.5 26q-41 18 -80 26t-74.5 4.5t-67 -19.5t-56.5 -47z" />
    <glyph glyph-name="Ograve" unicode="&#xd2;" horiz-adv-x="1659" 
d="M274 715q0 -116 31 -208t84.5 -161.5t124.5 -115.5t151 -69.5t165 -23t165 23.5t151 69t124.5 115.5t84.5 161.5t31 208q0 115 -31 207.5t-84.5 162t-124.5 115.5t-151 69t-165 23t-165 -23.5t-151 -69.5t-124.5 -115t-84.5 -161.5t-31 -207.5zM1565 715
q0 -149 -41 -268.5t-112 -209t-165 -149t-200 -89.5t-217.5 -29.5t-217.5 30t-200 89t-165 149t-112 209t-41 268.5t41 267.5t112 208t165 149t200 89t217.5 29.5t217.5 -29.5t200 -89t165 -149t112 -208t41 -267.5zM471 715q0 -98 31 -171t81.5 -121.5t115 -73t132 -24.5
t132 24.5t115 73t81.5 121.5t31 171q0 97 -31 169.5t-81.5 121t-115 72.5t-132 24t-132 -24t-115 -72.5t-81.5 -121t-31 -169.5zM1366 715q0 -138 -46 -242t-121.5 -173.5t-171.5 -105t-196.5 -36.5t-196.5 33.5t-171.5 104t-121.5 174t-46 245.5q0 140 46 244.5
t121.5 173.5t171.5 103.5t196.5 33.5t196.5 -36t171.5 -104.5t121.5 -173.5t46 -241zM754 1763l-23 -4l109 -203h-121l-211 240v31l311 104l156 -342v-33h-113z" />
    <glyph glyph-name="Oacute" unicode="&#xd3;" horiz-adv-x="1659" 
d="M274 715q0 -116 31 -208t84.5 -161.5t124.5 -115.5t151 -69.5t165 -23t165 23.5t151 69t124.5 115.5t84.5 161.5t31 208q0 115 -31 207.5t-84.5 162t-124.5 115.5t-151 69t-165 23t-165 -23.5t-151 -69.5t-124.5 -115t-84.5 -161.5t-31 -207.5zM1565 715
q0 -149 -41 -268.5t-112 -209t-165 -149t-200 -89.5t-217.5 -29.5t-217.5 30t-200 89t-165 149t-112 209t-41 268.5t41 267.5t112 208t165 149t200 89t217.5 29.5t217.5 -29.5t200 -89t165 -149t112 -208t41 -267.5zM471 715q0 -98 31 -171t81.5 -121.5t115 -73t132 -24.5
t132 24.5t115 73t81.5 121.5t31 171q0 97 -31 169.5t-81.5 121t-115 72.5t-132 24t-132 -24t-115 -72.5t-81.5 -121t-31 -169.5zM1366 715q0 -138 -46 -242t-121.5 -173.5t-171.5 -105t-196.5 -36.5t-196.5 33.5t-171.5 104t-121.5 174t-46 245.5q0 140 46 244.5
t121.5 173.5t171.5 103.5t196.5 33.5t196.5 -36t171.5 -104.5t121.5 -173.5t46 -241zM766 1569h-113v33l156 342l311 -105v-31l-211 -239h-121l109 203l-23 4z" />
    <glyph glyph-name="Ocircumflex" unicode="&#xd4;" horiz-adv-x="1659" 
d="M274 715q0 -116 31 -208t84.5 -161.5t124.5 -115.5t151 -69.5t165 -23t165 23.5t151 69t124.5 115.5t84.5 161.5t31 208q0 115 -31 207.5t-84.5 162t-124.5 115.5t-151 69t-165 23t-165 -23.5t-151 -69.5t-124.5 -115t-84.5 -161.5t-31 -207.5zM1565 715
q0 -149 -41 -268.5t-112 -209t-165 -149t-200 -89.5t-217.5 -29.5t-217.5 30t-200 89t-165 149t-112 209t-41 268.5t41 267.5t112 208t165 149t200 89t217.5 29.5t217.5 -29.5t200 -89t165 -149t112 -208t41 -267.5zM471 715q0 -98 31 -171t81.5 -121.5t115 -73t132 -24.5
t132 24.5t115 73t81.5 121.5t31 171q0 97 -31 169.5t-81.5 121t-115 72.5t-132 24t-132 -24t-115 -72.5t-81.5 -121t-31 -169.5zM1366 715q0 -138 -46 -242t-121.5 -173.5t-171.5 -105t-196.5 -36.5t-196.5 33.5t-171.5 104t-121.5 174t-46 245.5q0 140 46 244.5
t121.5 173.5t171.5 103.5t196.5 33.5t196.5 -36t171.5 -104.5t121.5 -173.5t46 -241zM961 1563l-134 155l-125 -155h-141l176 217h-20l-178 -217h-115v32l217 293h373l219 -293v-32h-115l-176 217h-22l176 -217h-135z" />
    <glyph glyph-name="uni1ED2" unicode="&#x1ed2;" horiz-adv-x="1659" 
d="M274 715q0 -116 31 -208t84.5 -161.5t124.5 -115.5t151 -69.5t165 -23t165 23.5t151 69t124.5 115.5t84.5 161.5t31 208q0 115 -31 207.5t-84.5 162t-124.5 115.5t-151 69t-165 23t-165 -23.5t-151 -69.5t-124.5 -115t-84.5 -161.5t-31 -207.5zM1565 715
q0 -149 -41 -268.5t-112 -209t-165 -149t-200 -89.5t-217.5 -29.5t-217.5 30t-200 89t-165 149t-112 209t-41 268.5t41 267.5t112 208t165 149t200 89t217.5 29.5t217.5 -29.5t200 -89t165 -149t112 -208t41 -267.5zM471 715q0 -98 31 -171t81.5 -121.5t115 -73t132 -24.5
t132 24.5t115 73t81.5 121.5t31 171q0 97 -31 169.5t-81.5 121t-115 72.5t-132 24t-132 -24t-115 -72.5t-81.5 -121t-31 -169.5zM1366 715q0 -138 -46 -242t-121.5 -173.5t-171.5 -105t-196.5 -36.5t-196.5 33.5t-171.5 104t-121.5 174t-46 245.5q0 140 46 244.5
t121.5 173.5t171.5 103.5t196.5 33.5t196.5 -36t171.5 -104.5t121.5 -173.5t46 -241zM961 1550l-134 156l-125 -156h-141l176 217h-20l-178 -217h-115v33l217 293h373l219 -293v-33h-115l-176 217h-22l176 -217h-135zM728 2128l-23 -4l109 -203h-121l-211 240v31l311 104
l156 -342v-33h-113z" />
    <glyph glyph-name="uni1ED0" unicode="&#x1ed0;" horiz-adv-x="1659" 
d="M274 715q0 115 31 207.5t84.5 161.5t124.5 115t151 69.5t165 23.5t165 -23t151 -69t124.5 -115.5t84.5 -162t31 -207.5q0 -116 -31 -208t-84.5 -161.5t-124.5 -115.5t-151 -69t-165 -23.5t-165 23t-151 69.5t-124.5 115.5t-84.5 161.5t-31 208zM1565 715q0 149 -41 267.5
t-112 208t-165 149t-200 89t-217.5 29.5t-217.5 -29.5t-200 -89t-165 -149t-112 -208t-41 -267.5t41 -268.5t112 -209t165 -149t200 -89t217.5 -30t217.5 29.5t200 89.5t165 149t112 209t41 268.5zM471 715q0 -98 31 -171t81.5 -121.5t115 -73t132 -24.5t132 24.5t115 73
t81.5 121.5t31 171q0 97 -31 169.5t-81.5 121t-115 72.5t-132 24t-132 -24t-115 -72.5t-81.5 -121t-31 -169.5zM1366 715q0 -138 -46 -242t-121.5 -173.5t-171.5 -105t-196.5 -36.5t-196.5 33.5t-171.5 104t-121.5 174t-46 245.5q0 140 46 244.5t121.5 173.5t171.5 103.5
t196.5 33.5t196.5 -36t171.5 -104.5t121.5 -173.5t46 -241zM1096 1550l-176 217h22l176 -217h115v33l-219 293h-373l-217 -293v-33h115l178 217h20l-176 -217h141l125 156l134 -156h135zM834 1926h-113v33l156 342l311 -104v-31l-211 -240h-121l109 203l-23 4z" />
    <glyph glyph-name="uni1ED6" unicode="&#x1ed6;" horiz-adv-x="1659" 
d="M274 715q0 -116 31 -208t84.5 -161.5t124.5 -115.5t151 -69.5t165 -23t165 23.5t151 69t124.5 115.5t84.5 161.5t31 208q0 115 -31 207.5t-84.5 162t-124.5 115.5t-151 69t-165 23t-165 -23.5t-151 -69.5t-124.5 -115t-84.5 -161.5t-31 -207.5zM1565 715
q0 -149 -41 -268.5t-112 -209t-165 -149t-200 -89.5t-217.5 -29.5t-217.5 30t-200 89t-165 149t-112 209t-41 268.5t41 267.5t112 208t165 149t200 89t217.5 29.5t217.5 -29.5t200 -89t165 -149t112 -208t41 -267.5zM471 715q0 -98 31 -171t81.5 -121.5t115 -73t132 -24.5
t132 24.5t115 73t81.5 121.5t31 171q0 97 -31 169.5t-81.5 121t-115 72.5t-132 24t-132 -24t-115 -72.5t-81.5 -121t-31 -169.5zM1366 715q0 -138 -46 -242t-121.5 -173.5t-171.5 -105t-196.5 -36.5t-196.5 33.5t-171.5 104t-121.5 174t-46 245.5q0 140 46 244.5
t121.5 173.5t171.5 103.5t196.5 33.5t196.5 -36t171.5 -104.5t121.5 -173.5t46 -241zM961 1550l-134 156l-125 -156h-141l176 217h-20l-178 -217h-115v33l217 293h373l219 -293v-33h-115l-176 217h-22l176 -217h-135zM600 1929q-88 34 -176 74q27 81 68 137.5t95 85.5
t120.5 29t144.5 -31q24 -9 53.5 -21t58 -14.5t52 9.5t34.5 50q47 -20 92.5 -39t92.5 -40q-16 -75 -54 -131t-91 -88.5t-118 -37.5t-135 23q-23 9 -57 24.5t-68.5 22.5t-65 -2.5t-46.5 -50.5zM567 2054q48 53 114.5 55t143.5 -33q43 -18 83 -26.5t76 -5.5t66.5 19t55.5 48
l-17 8q-23 -27 -51.5 -40.5t-61.5 -15t-69.5 7.5t-75.5 26q-41 18 -80 26t-74.5 4.5t-67 -20t-56.5 -47.5z" />
    <glyph glyph-name="uni1ED4" unicode="&#x1ed4;" horiz-adv-x="1659" 
d="M274 715q0 -116 31 -208t84.5 -161.5t124.5 -115.5t151 -69.5t165 -23t165 23.5t151 69t124.5 115.5t84.5 161.5t31 208q0 115 -31 207.5t-84.5 162t-124.5 115.5t-151 69t-165 23t-165 -23.5t-151 -69.5t-124.5 -115t-84.5 -161.5t-31 -207.5zM1565 715
q0 -149 -41 -268.5t-112 -209t-165 -149t-200 -89.5t-217.5 -29.5t-217.5 30t-200 89t-165 149t-112 209t-41 268.5t41 267.5t112 208t165 149t200 89t217.5 29.5t217.5 -29.5t200 -89t165 -149t112 -208t41 -267.5zM471 715q0 -98 31 -171t81.5 -121.5t115 -73t132 -24.5
t132 24.5t115 73t81.5 121.5t31 171q0 97 -31 169.5t-81.5 121t-115 72.5t-132 24t-132 -24t-115 -72.5t-81.5 -121t-31 -169.5zM1366 715q0 -138 -46 -242t-121.5 -173.5t-171.5 -105t-196.5 -36.5t-196.5 33.5t-171.5 104t-121.5 174t-46 245.5q0 140 46 244.5
t121.5 173.5t171.5 103.5t196.5 33.5t196.5 -36t171.5 -104.5t121.5 -173.5t46 -241zM961 1520l-134 156l-125 -156h-141l176 217h-20l-178 -217h-115v33l217 293h373l219 -293v-33h-115l-176 217h-22l176 -217h-135zM721 1892q-4 38 2.5 67.5t19.5 54t31 44.5t36 39
q25 27 46 54.5t24 65.5v-1q0 12 -5.5 21t-14.5 15t-20.5 9t-22.5 3q-24 -1 -42.5 -18.5t-18.5 -56.5h-189q-1 68 19 118.5t55 84t82 50.5t100 19q62 1 112 -18t84.5 -52t53 -77t18.5 -94q0 -33 -7.5 -59.5t-19.5 -49t-27.5 -42t-31.5 -37.5q-13 -16 -25 -31.5t-21.5 -33.5
t-15 -39t-3.5 -47h-206zM844 1968q11 30 29 54.5t39 48.5l6 8v-1q25 32 46 64.5t23 72.5q2 30 -8 56.5t-31 46.5t-52.5 31.5t-73.5 11.5q-50 0 -90 -25t-62 -79h23q18 45 52 64t75 18q75 -2 111 -36.5t34 -84.5q-1 -18 -8 -35.5t-17 -34t-22.5 -32.5t-24.5 -29
q-19 -23 -37.5 -49.5t-34.5 -69.5h23z" />
    <glyph glyph-name="uni1ED8" unicode="&#x1ed8;" horiz-adv-x="1659" 
d="M274 715q0 -116 31 -208t84.5 -161.5t124.5 -115.5t151 -69.5t165 -23t165 23.5t151 69t124.5 115.5t84.5 161.5t31 208q0 115 -31 207.5t-84.5 162t-124.5 115.5t-151 69t-165 23t-165 -23.5t-151 -69.5t-124.5 -115t-84.5 -161.5t-31 -207.5zM1565 715
q0 -149 -41 -268.5t-112 -209t-165 -149t-200 -89.5t-217.5 -29.5t-217.5 30t-200 89t-165 149t-112 209t-41 268.5t41 267.5t112 208t165 149t200 89t217.5 29.5t217.5 -29.5t200 -89t165 -149t112 -208t41 -267.5zM471 715q0 -98 31 -171t81.5 -121.5t115 -73t132 -24.5
t132 24.5t115 73t81.5 121.5t31 171q0 97 -31 169.5t-81.5 121t-115 72.5t-132 24t-132 -24t-115 -72.5t-81.5 -121t-31 -169.5zM1366 715q0 -138 -46 -242t-121.5 -173.5t-171.5 -105t-196.5 -36.5t-196.5 33.5t-171.5 104t-121.5 174t-46 245.5q0 140 46 244.5
t121.5 173.5t171.5 103.5t196.5 33.5t196.5 -36t171.5 -104.5t121.5 -173.5t46 -241zM961 1550l-134 156l-125 -156h-141l176 217h-20l-178 -217h-115v33l217 293h373l219 -293v-33h-115l-176 217h-22l176 -217h-135zM831 -507q-43 0 -80.5 13t-65 37.5t-43.5 59t-16 76.5
q0 43 16 78.5t43.5 60.5t65 38.5t80.5 13.5q41 0 77.5 -13.5t63.5 -38.5t43 -60.5t16 -78.5q0 -42 -16 -76.5t-43 -59t-63.5 -37.5t-77.5 -13zM831 -403q-41 0 -67.5 21t-26.5 61t26.5 62t67.5 22q37 0 63.5 -22t26.5 -62t-26.5 -61t-63.5 -21zM831 -421q21 0 40.5 7
t34.5 19.5t24 31t9 42.5t-9 42.5t-24 30.5t-34.5 18.5t-40.5 6.5q-47 0 -79 -25t-32 -73t32 -74t79 -26z" />
    <glyph glyph-name="Otilde" unicode="&#xd5;" horiz-adv-x="1659" 
d="M274 715q0 -116 31 -208t84.5 -161.5t124.5 -115.5t151 -69.5t165 -23t165 23.5t151 69t124.5 115.5t84.5 161.5t31 208q0 115 -31 207.5t-84.5 162t-124.5 115.5t-151 69t-165 23t-165 -23.5t-151 -69.5t-124.5 -115t-84.5 -161.5t-31 -207.5zM1565 715
q0 -149 -41 -268.5t-112 -209t-165 -149t-200 -89.5t-217.5 -29.5t-217.5 30t-200 89t-165 149t-112 209t-41 268.5t41 267.5t112 208t165 149t200 89t217.5 29.5t217.5 -29.5t200 -89t165 -149t112 -208t41 -267.5zM471 715q0 -98 31 -171t81.5 -121.5t115 -73t132 -24.5
t132 24.5t115 73t81.5 121.5t31 171q0 97 -31 169.5t-81.5 121t-115 72.5t-132 24t-132 -24t-115 -72.5t-81.5 -121t-31 -169.5zM1366 715q0 -138 -46 -242t-121.5 -173.5t-171.5 -105t-196.5 -36.5t-196.5 33.5t-171.5 104t-121.5 174t-46 245.5q0 140 46 244.5
t121.5 173.5t171.5 103.5t196.5 33.5t196.5 -36t171.5 -104.5t121.5 -173.5t46 -241zM586 1579q-88 34 -176 74q27 81 68 137.5t95 85.5t120.5 29t144.5 -31q24 -9 53.5 -21t58 -14.5t52 9.5t34.5 50q47 -20 92.5 -39t92.5 -40q-16 -75 -54 -131t-91 -88.5t-118 -37.5
t-135 23q-23 9 -57 24.5t-68.5 22.5t-65 -2.5t-46.5 -50.5zM553 1704q48 53 114.5 55t143.5 -33q43 -18 83 -26.5t76 -5.5t66.5 19t55.5 48l-17 8q-23 -27 -51.5 -40.5t-61.5 -15t-69.5 7.5t-75.5 26q-41 18 -80 26t-74.5 4.5t-67 -20t-56.5 -47.5z" />
    <glyph glyph-name="Odieresis" unicode="&#xd6;" horiz-adv-x="1659" 
d="M274 715q0 -116 31 -208t84.5 -161.5t124.5 -115.5t151 -69.5t165 -23t165 23.5t151 69t124.5 115.5t84.5 161.5t31 208q0 115 -31 207.5t-84.5 162t-124.5 115.5t-151 69t-165 23t-165 -23.5t-151 -69.5t-124.5 -115t-84.5 -161.5t-31 -207.5zM1565 715
q0 -149 -41 -268.5t-112 -209t-165 -149t-200 -89.5t-217.5 -29.5t-217.5 30t-200 89t-165 149t-112 209t-41 268.5t41 267.5t112 208t165 149t200 89t217.5 29.5t217.5 -29.5t200 -89t165 -149t112 -208t41 -267.5zM471 715q0 -98 31 -171t81.5 -121.5t115 -73t132 -24.5
t132 24.5t115 73t81.5 121.5t31 171q0 97 -31 169.5t-81.5 121t-115 72.5t-132 24t-132 -24t-115 -72.5t-81.5 -121t-31 -169.5zM1366 715q0 -138 -46 -242t-121.5 -173.5t-171.5 -105t-196.5 -36.5t-196.5 33.5t-171.5 104t-121.5 174t-46 245.5q0 140 46 244.5
t121.5 173.5t171.5 103.5t196.5 33.5t196.5 -36t171.5 -104.5t121.5 -173.5t46 -241zM557 1536q-42 0 -79 13.5t-64.5 37.5t-43.5 58.5t-16 76.5q0 44 16 79t43.5 59.5t64.5 37.5t79 13t79.5 -13t65.5 -37.5t44 -59.5t16 -79q0 -42 -16 -76.5t-44 -58.5t-65.5 -37.5
t-79.5 -13.5zM1100 1536q-42 0 -79 13.5t-64.5 37.5t-43.5 58.5t-16 76.5q0 44 16 79t43.5 59.5t64.5 37.5t79 13q43 0 80 -13t64.5 -37.5t43 -59.5t15.5 -79q0 -42 -15.5 -76.5t-43 -58.5t-64.5 -37.5t-80 -13.5zM1100 1642q-38 0 -65 21t-27 59q0 42 27 63t65 21t66 -21
t28 -63q0 -38 -28 -59t-66 -21zM1100 1624q46 0 78 25t32 73t-32 75.5t-78 27.5q-48 0 -80.5 -27.5t-32.5 -75.5q0 -24 9 -42t25 -30.5t36 -19t43 -6.5zM557 1642q-37 0 -64.5 21t-27.5 59q0 42 27.5 63t64.5 21q40 0 67 -21t27 -63q0 -38 -27 -59t-67 -21zM557 1624
q48 0 80.5 25t32.5 73t-32.5 75.5t-80.5 27.5q-46 0 -78.5 -27.5t-32.5 -75.5t32.5 -73t78.5 -25z" />
    <glyph glyph-name="uni1ECE" unicode="&#x1ece;" horiz-adv-x="1659" 
d="M274 715q0 -116 31 -208t84.5 -161.5t124.5 -115.5t151 -69.5t165 -23t165 23.5t151 69t124.5 115.5t84.5 161.5t31 208q0 115 -31 207.5t-84.5 162t-124.5 115.5t-151 69t-165 23t-165 -23.5t-151 -69.5t-124.5 -115t-84.5 -161.5t-31 -207.5zM1565 715
q0 -149 -41 -268.5t-112 -209t-165 -149t-200 -89.5t-217.5 -29.5t-217.5 30t-200 89t-165 149t-112 209t-41 268.5t41 267.5t112 208t165 149t200 89t217.5 29.5t217.5 -29.5t200 -89t165 -149t112 -208t41 -267.5zM471 715q0 -98 31 -171t81.5 -121.5t115 -73t132 -24.5
t132 24.5t115 73t81.5 121.5t31 171q0 97 -31 169.5t-81.5 121t-115 72.5t-132 24t-132 -24t-115 -72.5t-81.5 -121t-31 -169.5zM1366 715q0 -138 -46 -242t-121.5 -173.5t-171.5 -105t-196.5 -36.5t-196.5 33.5t-171.5 104t-121.5 174t-46 245.5q0 140 46 244.5
t121.5 173.5t171.5 103.5t196.5 33.5t196.5 -36t171.5 -104.5t121.5 -173.5t46 -241zM721 1553q-4 38 2.5 67.5t19.5 54t31 44.5t36 39q25 27 46 54.5t24 65.5v-1q0 12 -5.5 21t-14.5 15t-20.5 9t-22.5 3q-24 -1 -42.5 -18.5t-18.5 -56.5h-189q-1 68 19 118.5t55 84t82 50.5
t100 19q62 1 112 -18t84.5 -52t53 -77t18.5 -94q0 -33 -7.5 -59.5t-19.5 -49t-27.5 -42t-31.5 -37.5q-13 -16 -25 -31.5t-21.5 -33.5t-15 -39t-3.5 -47h-206zM844 1629q11 30 29 54.5t39 48.5l6 8v-1q25 32 46 64.5t23 72.5q2 30 -8 56.5t-31 46.5t-52.5 31.5t-73.5 11.5
q-50 0 -90 -25t-62 -79h23q18 45 52 64t75 18q75 -2 111 -36.5t34 -84.5q-1 -18 -8 -35.5t-17 -34t-22.5 -32.5t-24.5 -29q-19 -23 -37.5 -49.5t-34.5 -69.5h23z" />
    <glyph glyph-name="uni1ECC" unicode="&#x1ecc;" horiz-adv-x="1659" 
d="M274 715q0 -116 31 -208t84.5 -161.5t124.5 -115.5t151 -69.5t165 -23t165 23.5t151 69t124.5 115.5t84.5 161.5t31 208q0 115 -31 207.5t-84.5 162t-124.5 115.5t-151 69t-165 23t-165 -23.5t-151 -69.5t-124.5 -115t-84.5 -161.5t-31 -207.5zM1565 715
q0 -149 -41 -268.5t-112 -209t-165 -149t-200 -89.5t-217.5 -29.5t-217.5 30t-200 89t-165 149t-112 209t-41 268.5t41 267.5t112 208t165 149t200 89t217.5 29.5t217.5 -29.5t200 -89t165 -149t112 -208t41 -267.5zM471 715q0 -98 31 -171t81.5 -121.5t115 -73t132 -24.5
t132 24.5t115 73t81.5 121.5t31 171q0 97 -31 169.5t-81.5 121t-115 72.5t-132 24t-132 -24t-115 -72.5t-81.5 -121t-31 -169.5zM1366 715q0 -138 -46 -242t-121.5 -173.5t-171.5 -105t-196.5 -36.5t-196.5 33.5t-171.5 104t-121.5 174t-46 245.5q0 140 46 244.5
t121.5 173.5t171.5 103.5t196.5 33.5t196.5 -36t171.5 -104.5t121.5 -173.5t46 -241zM831 -507q-43 0 -80.5 13t-65 37.5t-43.5 59t-16 76.5q0 43 16 78.5t43.5 60.5t65 38.5t80.5 13.5q41 0 77.5 -13.5t63.5 -38.5t43 -60.5t16 -78.5q0 -42 -16 -76.5t-43 -59t-63.5 -37.5
t-77.5 -13zM831 -403q-41 0 -67.5 21t-26.5 61t26.5 62t67.5 22q37 0 63.5 -22t26.5 -62t-26.5 -61t-63.5 -21zM831 -421q21 0 40.5 7t34.5 19.5t24 31t9 42.5t-9 42.5t-24 30.5t-34.5 18.5t-40.5 6.5q-47 0 -79 -25t-32 -73t32 -74t79 -26z" />
    <glyph glyph-name="Ohorn" unicode="&#x1a0;" horiz-adv-x="1659" 
d="M1565 715q0 -149 -41 -268.5t-112 -209t-165 -149t-200 -89.5t-217.5 -29.5t-217.5 30t-200 89t-165 149t-112 209t-41 268.5q0 173 55.5 306.5t148 226t212 144.5t248 63t256 -18.5t235.5 -99.5q28 0 49 8t35.5 21.5t22.5 31t10 36.5h150q-4 -63 -37.5 -119.5
t-98.5 -87.5l15 -17q68 34 104 94.5t39 129.5h168q1 -53 -13 -105t-42 -98t-70.5 -84.5t-99.5 -65.5q38 -77 61 -167.5t23 -198.5zM274 715q0 -116 31 -208t84.5 -161.5t124.5 -115.5t151 -69.5t165 -23t165 23.5t151 69t124.5 115.5t84.5 161.5t31 208q0 115 -31 207.5
t-84.5 162t-124.5 115.5t-151 69t-165 23t-165 -23.5t-151 -69.5t-124.5 -115t-84.5 -161.5t-31 -207.5zM1366 715q0 -138 -46 -242t-121.5 -173.5t-171.5 -105t-196.5 -36.5t-196.5 33.5t-171.5 104t-121.5 174t-46 245.5q0 140 46 244.5t121.5 173.5t171.5 103.5
t196.5 33.5t196.5 -36t171.5 -104.5t121.5 -173.5t46 -241zM471 715q0 -98 31 -171t81.5 -121.5t115 -73t132 -24.5t132 24.5t115 73t81.5 121.5t31 171q0 97 -31 169.5t-81.5 121t-115 72.5t-132 24t-132 -24t-115 -72.5t-81.5 -121t-31 -169.5z" />
    <glyph glyph-name="uni1EDC" unicode="&#x1edc;" horiz-adv-x="1659" 
d="M743 1761l-22 -4l108 -203h-120l-211 240v31l311 104l156 -342v-33h-113zM1565 715q0 -149 -41 -268.5t-112 -209t-165 -149t-200 -89.5t-217.5 -29.5t-217.5 30t-200 89t-165 149t-112 209t-41 268.5q0 173 55.5 306.5t148 226t212 144.5t248 63t256 -18.5t235.5 -99.5
q28 0 49 8t35.5 21.5t22.5 31t10 36.5h150q-4 -63 -37.5 -119.5t-98.5 -87.5l15 -17q68 34 104 94.5t39 129.5h168q1 -53 -13 -105t-42 -98t-70.5 -84.5t-99.5 -65.5q38 -77 61 -167.5t23 -198.5zM274 715q0 -116 31 -208t84.5 -161.5t124.5 -115.5t151 -69.5t165 -23
t165 23.5t151 69t124.5 115.5t84.5 161.5t31 208q0 115 -31 207.5t-84.5 162t-124.5 115.5t-151 69t-165 23t-165 -23.5t-151 -69.5t-124.5 -115t-84.5 -161.5t-31 -207.5zM1366 715q0 -138 -46 -242t-121.5 -173.5t-171.5 -105t-196.5 -36.5t-196.5 33.5t-171.5 104
t-121.5 174t-46 245.5q0 140 46 244.5t121.5 173.5t171.5 103.5t196.5 33.5t196.5 -36t171.5 -104.5t121.5 -173.5t46 -241zM471 715q0 -98 31 -171t81.5 -121.5t115 -73t132 -24.5t132 24.5t115 73t81.5 121.5t31 171q0 97 -31 169.5t-81.5 121t-115 72.5t-132 24t-132 -24
t-115 -72.5t-81.5 -121t-31 -169.5z" />
    <glyph glyph-name="uni1EDA" unicode="&#x1eda;" horiz-adv-x="1659" 
d="M786 1550h-112v33l155 342l312 -104v-31l-211 -240h-121l109 203l-23 4zM1565 715q0 -149 -41 -268.5t-112 -209t-165 -149t-200 -89.5t-217.5 -29.5t-217.5 30t-200 89t-165 149t-112 209t-41 268.5q0 173 55.5 306.5t148 226t212 144.5t248 63t256 -18.5t235.5 -99.5
q28 0 49 8t35.5 21.5t22.5 31t10 36.5h150q-4 -63 -37.5 -119.5t-98.5 -87.5l15 -17q68 34 104 94.5t39 129.5h168q1 -53 -13 -105t-42 -98t-70.5 -84.5t-99.5 -65.5q38 -77 61 -167.5t23 -198.5zM274 715q0 -116 31 -208t84.5 -161.5t124.5 -115.5t151 -69.5t165 -23
t165 23.5t151 69t124.5 115.5t84.5 161.5t31 208q0 115 -31 207.5t-84.5 162t-124.5 115.5t-151 69t-165 23t-165 -23.5t-151 -69.5t-124.5 -115t-84.5 -161.5t-31 -207.5zM1366 715q0 -138 -46 -242t-121.5 -173.5t-171.5 -105t-196.5 -36.5t-196.5 33.5t-171.5 104
t-121.5 174t-46 245.5q0 140 46 244.5t121.5 173.5t171.5 103.5t196.5 33.5t196.5 -36t171.5 -104.5t121.5 -173.5t46 -241zM471 715q0 -98 31 -171t81.5 -121.5t115 -73t132 -24.5t132 24.5t115 73t81.5 121.5t31 171q0 97 -31 169.5t-81.5 121t-115 72.5t-132 24t-132 -24
t-115 -72.5t-81.5 -121t-31 -169.5z" />
    <glyph glyph-name="uni1EE0" unicode="&#x1ee0;" horiz-adv-x="1659" 
d="M1565 715q0 -149 -41 -268.5t-112 -209t-165 -149t-200 -89.5t-217.5 -29.5t-217.5 30t-200 89t-165 149t-112 209t-41 268.5q0 173 55.5 306.5t148 226t212 144.5t248 63t256 -18.5t235.5 -99.5q28 0 49 8t35.5 21.5t22.5 31t10 36.5h150q-4 -63 -37.5 -119.5
t-98.5 -87.5l15 -17q68 34 104 94.5t39 129.5h168q1 -53 -13 -105t-42 -98t-70.5 -84.5t-99.5 -65.5q38 -77 61 -167.5t23 -198.5zM274 715q0 -116 31 -208t84.5 -161.5t124.5 -115.5t151 -69.5t165 -23t165 23.5t151 69t124.5 115.5t84.5 161.5t31 208q0 115 -31 207.5
t-84.5 162t-124.5 115.5t-151 69t-165 23t-165 -23.5t-151 -69.5t-124.5 -115t-84.5 -161.5t-31 -207.5zM1366 715q0 -138 -46 -242t-121.5 -173.5t-171.5 -105t-196.5 -36.5t-196.5 33.5t-171.5 104t-121.5 174t-46 245.5q0 140 46 244.5t121.5 173.5t171.5 103.5
t196.5 33.5t196.5 -36t171.5 -104.5t121.5 -173.5t46 -241zM471 715q0 -98 31 -171t81.5 -121.5t115 -73t132 -24.5t132 24.5t115 73t81.5 121.5t31 171q0 97 -31 169.5t-81.5 121t-115 72.5t-132 24t-132 -24t-115 -72.5t-81.5 -121t-31 -169.5zM600 1579q-88 34 -176 74
q27 81 68 137.5t95 85.5t120.5 29t144.5 -31q24 -9 53.5 -21t58 -14.5t52 9.5t34.5 50q47 -20 92.5 -39t92.5 -40q-16 -75 -54 -131t-91 -88.5t-118 -37.5t-135 23q-23 9 -57 24.5t-68.5 22.5t-65 -2.5t-46.5 -50.5zM567 1704q48 53 114.5 55t143.5 -33q43 -18 83 -26.5
t76 -5.5t66.5 19t55.5 48l-17 8q-23 -27 -51.5 -40.5t-61.5 -15t-69.5 7.5t-75.5 26q-41 18 -80 26t-74.5 4.5t-67 -20t-56.5 -47.5z" />
    <glyph glyph-name="uni1EDE" unicode="&#x1ede;" horiz-adv-x="1659" 
d="M1565 715q0 -149 -41 -268.5t-112 -209t-165 -149t-200 -89.5t-217.5 -29.5t-217.5 30t-200 89t-165 149t-112 209t-41 268.5q0 173 55.5 306.5t148 226t212 144.5t248 63t256 -18.5t235.5 -99.5q28 0 49 8t35.5 21.5t22.5 31t10 36.5h150q-4 -63 -37.5 -119.5
t-98.5 -87.5l15 -17q68 34 104 94.5t39 129.5h168q1 -53 -13 -105t-42 -98t-70.5 -84.5t-99.5 -65.5q38 -77 61 -167.5t23 -198.5zM274 715q0 -116 31 -208t84.5 -161.5t124.5 -115.5t151 -69.5t165 -23t165 23.5t151 69t124.5 115.5t84.5 161.5t31 208q0 115 -31 207.5
t-84.5 162t-124.5 115.5t-151 69t-165 23t-165 -23.5t-151 -69.5t-124.5 -115t-84.5 -161.5t-31 -207.5zM1366 715q0 -138 -46 -242t-121.5 -173.5t-171.5 -105t-196.5 -36.5t-196.5 33.5t-171.5 104t-121.5 174t-46 245.5q0 140 46 244.5t121.5 173.5t171.5 103.5
t196.5 33.5t196.5 -36t171.5 -104.5t121.5 -173.5t46 -241zM471 715q0 -98 31 -171t81.5 -121.5t115 -73t132 -24.5t132 24.5t115 73t81.5 121.5t31 171q0 97 -31 169.5t-81.5 121t-115 72.5t-132 24t-132 -24t-115 -72.5t-81.5 -121t-31 -169.5zM721 1553q-4 38 2.5 67.5
t19.5 54t31 44.5t36 39q25 27 46 54.5t24 65.5v-1q0 12 -5.5 21t-14.5 15t-20.5 9t-22.5 3q-24 -1 -42.5 -18.5t-18.5 -56.5h-189q-1 68 19 118.5t55 84t82 50.5t100 19q62 1 112 -18t84.5 -52t53 -77t18.5 -94q0 -33 -7.5 -59.5t-19.5 -49t-27.5 -42t-31.5 -37.5
q-13 -16 -25 -31.5t-21.5 -33.5t-15 -39t-3.5 -47h-206zM844 1629q11 30 29 54.5t39 48.5l6 8v-1q25 32 46 64.5t23 72.5q2 30 -8 56.5t-31 46.5t-52.5 31.5t-73.5 11.5q-50 0 -90 -25t-62 -79h23q18 45 52 64t75 18q75 -2 111 -36.5t34 -84.5q-1 -18 -8 -35.5t-17 -34
t-22.5 -32.5t-24.5 -29q-19 -23 -37.5 -49.5t-34.5 -69.5h23z" />
    <glyph glyph-name="uni1EE2" unicode="&#x1ee2;" horiz-adv-x="1659" 
d="M1565 715q0 -149 -41 -268.5t-112 -209t-165 -149t-200 -89.5t-217.5 -29.5t-217.5 30t-200 89t-165 149t-112 209t-41 268.5q0 173 55.5 306.5t148 226t212 144.5t248 63t256 -18.5t235.5 -99.5q28 0 49 8t35.5 21.5t22.5 31t10 36.5h150q-4 -63 -37.5 -119.5
t-98.5 -87.5l15 -17q68 34 104 94.5t39 129.5h168q1 -53 -13 -105t-42 -98t-70.5 -84.5t-99.5 -65.5q38 -77 61 -167.5t23 -198.5zM274 715q0 -116 31 -208t84.5 -161.5t124.5 -115.5t151 -69.5t165 -23t165 23.5t151 69t124.5 115.5t84.5 161.5t31 208q0 115 -31 207.5
t-84.5 162t-124.5 115.5t-151 69t-165 23t-165 -23.5t-151 -69.5t-124.5 -115t-84.5 -161.5t-31 -207.5zM1366 715q0 -138 -46 -242t-121.5 -173.5t-171.5 -105t-196.5 -36.5t-196.5 33.5t-171.5 104t-121.5 174t-46 245.5q0 140 46 244.5t121.5 173.5t171.5 103.5
t196.5 33.5t196.5 -36t171.5 -104.5t121.5 -173.5t46 -241zM471 715q0 -98 31 -171t81.5 -121.5t115 -73t132 -24.5t132 24.5t115 73t81.5 121.5t31 171q0 97 -31 169.5t-81.5 121t-115 72.5t-132 24t-132 -24t-115 -72.5t-81.5 -121t-31 -169.5zM831 -507q-43 0 -80.5 13
t-65 37.5t-43.5 59t-16 76.5q0 43 16 78.5t43.5 60.5t65 38.5t80.5 13.5q41 0 77.5 -13.5t63.5 -38.5t43 -60.5t16 -78.5q0 -42 -16 -76.5t-43 -59t-63.5 -37.5t-77.5 -13zM831 -403q-41 0 -67.5 21t-26.5 61t26.5 62t67.5 22q37 0 63.5 -22t26.5 -62t-26.5 -61t-63.5 -21z
M831 -421q21 0 40.5 7t34.5 19.5t24 31t9 42.5t-9 42.5t-24 30.5t-34.5 18.5t-40.5 6.5q-47 0 -79 -25t-32 -73t32 -74t79 -26z" />
    <glyph glyph-name="Oslash" unicode="&#xd8;" horiz-adv-x="1657" 
d="M1350 1264q97 -94 155 -229.5t58 -313.5q0 -149 -41.5 -268.5t-113 -209t-166.5 -149t-201.5 -88.5t-219 -28t-217.5 32l-86 -141h-350v41l156 254q-52 46 -94.5 104t-72.5 127.5t-46.5 151t-16.5 174.5q0 152 43 273.5t116.5 211.5t171.5 149t207 86.5t223.5 24
t221.5 -38.5l84 138h348v-39zM1253 1423l-125 -206q-66 40 -141 59.5t-153 19.5q-70 1 -139 -14.5t-131.5 -47t-116 -79.5t-92.5 -112t-61 -144.5t-22 -177.5q0 -161 61.5 -283.5t194.5 -210.5l-125 -215h21l123 203q30 -18 67.5 -31t77.5 -22t80.5 -13.5t75.5 -3.5
q102 3 199 40t172 109t121 179t46 248q0 75 -14 144.5t-43.5 131t-74.5 114t-107 93.5l129 219h-23zM473 721q0 -97 30.5 -169.5t81 -121t114.5 -72.5t131.5 -24t131.5 24t114.5 72.5t81 121t30.5 169.5t-30.5 170t-81 121.5t-114.5 72.5t-131.5 24t-131.5 -24t-114.5 -72.5
t-81 -121.5t-30.5 -170zM1366 721q0 -138 -46 -242t-121.5 -173.5t-172 -105t-197 -36t-197 34t-172 103.5t-121.5 174t-46 245t46 245t121.5 174.5t172 103.5t197 33.5t197 -36t172 -105t121.5 -173.5t46 -242z" />
    <glyph glyph-name="OE" unicode="&#x152;" horiz-adv-x="1962" 
d="M1122 1219q-68 32 -142.5 52.5t-150.5 18.5q-105 -1 -204.5 -37t-177 -107.5t-124.5 -178.5t-47 -250q0 -123 34.5 -221.5t95 -170t142 -115t175.5 -59t196 -1t203 60.5v-57h568v20h-547v557h485v21h-485v508h528v22h-549v-63zM1012 0q-114 -25 -226 -22.5t-214 34
t-189.5 91t-151.5 148t-100.5 205t-36.5 261.5t37.5 261.5t103.5 204.5t155 148t192 91.5t215 34t223 -22.5h790v-326h-510v-207h467v-326h-467v-249h529v-326h-817zM471 717q0 -80 22.5 -143.5t60.5 -110.5t88 -77.5t105 -45.5t112.5 -13.5t109.5 19.5v737
q-52 17 -109.5 19t-112.5 -12.5t-105 -45t-88 -77t-60.5 -109t-22.5 -141.5zM295 717q0 92 21 169t58 138.5t87.5 107.5t110 76.5t125 46t132.5 15.5q78 0 151 -20.5t142 -51.5v-967q-100 -45 -200 -59.5t-192 0t-171.5 56.5t-138 110.5t-92 163.5t-33.5 215z" />
    <glyph glyph-name="Ugrave" unicode="&#xd9;" horiz-adv-x="1479" 
d="M737 309q40 0 79 11t69.5 32.5t49.5 54t19 76.5v951h349v-957q0 -118 -47 -210.5t-125.5 -156t-180.5 -97t-213 -33.5q-110 0 -212 33.5t-180.5 97t-125.5 156t-47 210.5v957h346v-951q0 -44 19.5 -76.5t50.5 -54t70 -32.5t79 -11zM737 133q77 0 150 23.5t130 68
t91.5 109.5t34.5 149v813h-23v-813q0 -80 -32.5 -141t-86 -102.5t-122.5 -62.5t-142 -21t-142 21t-122.5 62.5t-86 102.5t-32.5 141v813h-22v-813q0 -84 34.5 -149t91 -109.5t129.5 -68t150 -23.5zM664 1749l-23 -4l109 -203h-121l-211 240v30l311 105l156 -342v-33h-113z
" />
    <glyph glyph-name="Uacute" unicode="&#xda;" horiz-adv-x="1479" 
d="M737 309q40 0 79 11t69.5 32.5t49.5 54t19 76.5v951h349v-957q0 -118 -47 -210.5t-125.5 -156t-180.5 -97t-213 -33.5q-110 0 -212 33.5t-180.5 97t-125.5 156t-47 210.5v957h346v-951q0 -44 19.5 -76.5t50.5 -54t70 -32.5t79 -11zM737 133q77 0 150 23.5t130 68
t91.5 109.5t34.5 149v813h-23v-813q0 -80 -32.5 -141t-86 -102.5t-122.5 -62.5t-142 -21t-142 21t-122.5 62.5t-86 102.5t-32.5 141v813h-22v-813q0 -84 34.5 -149t91 -109.5t129.5 -68t150 -23.5zM684 1542h-113v33l156 342l311 -105v-30l-211 -240h-120l108 203l-22 4z
" />
    <glyph glyph-name="Ucircumflex" unicode="&#xdb;" horiz-adv-x="1479" 
d="M737 309q40 0 79 11t69.5 32.5t49.5 54t19 76.5v951h349v-957q0 -118 -47 -210.5t-125.5 -156t-180.5 -97t-213 -33.5q-110 0 -212 33.5t-180.5 97t-125.5 156t-47 210.5v957h346v-951q0 -44 19.5 -76.5t50.5 -54t70 -32.5t79 -11zM737 133q77 0 150 23.5t130 68
t91.5 109.5t34.5 149v813h-23v-813q0 -80 -32.5 -141t-86 -102.5t-122.5 -62.5t-142 -21t-142 21t-122.5 62.5t-86 102.5t-32.5 141v813h-22v-813q0 -84 34.5 -149t91 -109.5t129.5 -68t150 -23.5zM870 1536l-133 156l-125 -156h-141l176 217h-20l-178 -217h-115v33l217 293
h373l219 -293v-33h-115l-176 217h-23l177 -217h-136z" />
    <glyph glyph-name="Utilde" unicode="&#x168;" horiz-adv-x="1479" 
d="M737 309q40 0 79 11t69.5 32.5t49.5 54t19 76.5v951h349v-957q0 -118 -47 -210.5t-125.5 -156t-180.5 -97t-213 -33.5q-110 0 -212 33.5t-180.5 97t-125.5 156t-47 210.5v957h346v-951q0 -44 19.5 -76.5t50.5 -54t70 -32.5t79 -11zM737 133q77 0 150 23.5t130 68
t91.5 109.5t34.5 149v813h-23v-813q0 -80 -32.5 -141t-86 -102.5t-122.5 -62.5t-142 -21t-142 21t-122.5 62.5t-86 102.5t-32.5 141v813h-22v-813q0 -84 34.5 -149t91 -109.5t129.5 -68t150 -23.5zM1000 1579q-88 34 -176 74q27 81 68 137.5t95 85.5t120.5 29t144.5 -31
q24 -9 53.5 -21t58 -14.5t52 9.5t34.5 50q47 -20 92.5 -39t92.5 -40q-16 -75 -54 -131t-91 -88.5t-118 -37.5t-135 23q-23 9 -57 24.5t-68.5 22.5t-65 -2.5t-46.5 -50.5zM967 1704q48 53 114.5 55t143.5 -33q43 -18 83 -26.5t76 -5.5t66.5 19t55.5 48l-17 8
q-23 -27 -51.5 -40.5t-61.5 -15t-69.5 7.5t-75.5 26q-41 18 -80 26t-74.5 4.5t-67 -20t-56.5 -47.5z" />
    <glyph glyph-name="Udieresis" unicode="&#xdc;" horiz-adv-x="1479" 
d="M737 309q40 0 79 11t69.5 32.5t49.5 54t19 76.5v951h349v-957q0 -118 -47 -210.5t-125.5 -156t-180.5 -97t-213 -33.5q-110 0 -212 33.5t-180.5 97t-125.5 156t-47 210.5v957h346v-951q0 -44 19.5 -76.5t50.5 -54t70 -32.5t79 -11zM737 133q77 0 150 23.5t130 68
t91.5 109.5t34.5 149v813h-23v-813q0 -80 -32.5 -141t-86 -102.5t-122.5 -62.5t-142 -21t-142 21t-122.5 62.5t-86 102.5t-32.5 141v813h-22v-813q0 -84 34.5 -149t91 -109.5t129.5 -68t150 -23.5zM477 1528q-42 0 -79 13.5t-64.5 37.5t-43.5 58.5t-16 76.5q0 44 16 79
t43.5 59.5t64.5 37.5t79 13t79.5 -13t65.5 -37.5t44 -59.5t16 -79q0 -42 -16 -76.5t-44 -58.5t-65.5 -37.5t-79.5 -13.5zM1020 1528q-42 0 -79 13.5t-64.5 37.5t-43.5 58.5t-16 76.5q0 44 16 79t43.5 59.5t64.5 37.5t79 13q43 0 80 -13t64.5 -37.5t43 -59.5t15.5 -79
q0 -42 -15.5 -76.5t-43 -58.5t-64.5 -37.5t-80 -13.5zM1020 1634q-38 0 -65 21t-27 59q0 42 27 63t65 21t66 -21t28 -63q0 -38 -28 -59t-66 -21zM1020 1616q46 0 78 25t32 73t-32 75.5t-78 27.5q-48 0 -80.5 -27.5t-32.5 -75.5q0 -24 9.5 -42t25 -30.5t36 -19t42.5 -6.5z
M477 1634q-37 0 -64.5 21t-27.5 59q0 42 27.5 63t64.5 21q40 0 67 -21t27 -63q0 -38 -27 -59t-67 -21zM477 1616q48 0 80.5 25t32.5 73t-32.5 75.5t-80.5 27.5q-46 0 -78 -27.5t-32 -75.5t32 -73t78 -25z" />
    <glyph glyph-name="uni1EE6" unicode="&#x1ee6;" horiz-adv-x="1479" 
d="M737 309q40 0 79 11t69.5 32.5t49.5 54t19 76.5v951h349v-957q0 -118 -47 -210.5t-125.5 -156t-180.5 -97t-213 -33.5q-110 0 -212 33.5t-180.5 97t-125.5 156t-47 210.5v957h346v-951q0 -44 19.5 -76.5t50.5 -54t70 -32.5t79 -11zM737 133q77 0 150 23.5t130 68
t91.5 109.5t34.5 149v813h-23v-813q0 -80 -32.5 -141t-86 -102.5t-122.5 -62.5t-142 -21t-142 21t-122.5 62.5t-86 102.5t-32.5 141v813h-22v-813q0 -84 34.5 -149t91 -109.5t129.5 -68t150 -23.5zM631 1553q-4 38 2.5 67.5t19.5 54t31 44.5t36 39q25 27 46 54.5t24 65.5v-1
q0 12 -5.5 21t-14.5 15t-20.5 9t-22.5 3q-24 -1 -42.5 -18.5t-18.5 -56.5h-189q-1 68 19 118.5t55 84t82 50.5t100 19q62 1 112 -18t84.5 -52t53 -77t18.5 -94q0 -33 -7.5 -59.5t-19.5 -49t-27.5 -42t-31.5 -37.5q-13 -16 -25 -31.5t-21.5 -33.5t-15 -39t-3.5 -47h-206z
M754 1629q11 30 29 54.5t39 48.5l6 8v-1q25 32 46 64.5t23 72.5q2 30 -8 56.5t-31 46.5t-52.5 31.5t-73.5 11.5q-50 0 -90 -25t-62 -79h23q18 45 52 64t75 18q75 -2 111 -36.5t34 -84.5q-1 -18 -8 -35.5t-17 -34t-22.5 -32.5t-24.5 -29q-19 -23 -37.5 -49.5t-34.5 -69.5h23z
" />
    <glyph glyph-name="uni1EE4" unicode="&#x1ee4;" horiz-adv-x="1479" 
d="M737 309q40 0 79 11t69.5 32.5t49.5 54t19 76.5v951h349v-957q0 -118 -47 -210.5t-125.5 -156t-180.5 -97t-213 -33.5q-110 0 -212 33.5t-180.5 97t-125.5 156t-47 210.5v957h346v-951q0 -44 19.5 -76.5t50.5 -54t70 -32.5t79 -11zM737 133q77 0 150 23.5t130 68
t91.5 109.5t34.5 149v813h-23v-813q0 -80 -32.5 -141t-86 -102.5t-122.5 -62.5t-142 -21t-142 21t-122.5 62.5t-86 102.5t-32.5 141v813h-22v-813q0 -84 34.5 -149t91 -109.5t129.5 -68t150 -23.5zM741 -507q-43 0 -80.5 13t-65 37.5t-43.5 59t-16 76.5q0 43 16 78.5
t43.5 60.5t65 38.5t80.5 13.5q41 0 77.5 -13.5t63.5 -38.5t43 -60.5t16 -78.5q0 -42 -16 -76.5t-43 -59t-63.5 -37.5t-77.5 -13zM741 -403q-41 0 -67.5 21t-26.5 61t26.5 62t67.5 22q37 0 63.5 -22t26.5 -62t-26.5 -61t-63.5 -21zM741 -421q21 0 40.5 7t34.5 19.5t24 31
t9 42.5t-9 42.5t-24 30.5t-34.5 18.5t-40.5 6.5q-47 0 -79 -25t-32 -73t32 -74t79 -26z" />
    <glyph glyph-name="Uhorn" unicode="&#x1af;" horiz-adv-x="1628" 
d="M737 309q40 0 79 11t69.5 32.5t49.5 54t19 76.5v951h349v-95q43 7 66 35t26 60h149q-2 -42 -18.5 -82.5t-46.5 -72.5t-74 -53.5t-102 -25.5v-20q64 4 112 27t81 58t51 79t20 90h168q1 -72 -25.5 -142.5t-80.5 -126.5t-135.5 -91.5t-190.5 -39.5v-557q0 -118 -47 -210.5
t-125.5 -156t-180.5 -97t-213 -33.5q-110 0 -212 33.5t-180.5 97t-125.5 156t-47 210.5v957h346v-951q0 -44 19.5 -76.5t50.5 -54t70 -32.5t79 -11zM737 133q77 0 150 23.5t130 68t91.5 109.5t34.5 149v813h-23v-813q0 -80 -32.5 -141t-86 -102.5t-122.5 -62.5t-142 -21
t-142 21t-122.5 62.5t-86 102.5t-32.5 141v813h-22v-813q0 -84 34.5 -149t91 -109.5t129.5 -68t150 -23.5z" />
    <glyph glyph-name="uni1EEA" unicode="&#x1eea;" horiz-adv-x="1628" 
d="M664 1741l-23 -4l109 -203h-121l-211 240v30l311 105l156 -342v-33h-113zM753 309q40 0 79 11t69.5 32.5t49.5 54t19 76.5v951h349v-95q43 7 66 35t26 60h149q-2 -42 -18.5 -82.5t-46.5 -72.5t-74 -53.5t-102 -25.5v-20q64 4 112 27t81 58t51 79t20 90h168
q1 -72 -25.5 -142.5t-80.5 -126.5t-135.5 -91.5t-190.5 -39.5v-557q0 -118 -47 -210.5t-125.5 -156t-180.5 -97t-213 -33.5q-110 0 -212 33.5t-180.5 97t-125.5 156t-47 210.5v957h346v-951q0 -44 19.5 -76.5t50.5 -54t70 -32.5t79 -11zM753 133q77 0 150 23.5t130 68
t91.5 109.5t34.5 149v813h-23v-813q0 -80 -32.5 -141t-86 -102.5t-122.5 -62.5t-142 -21t-142 21t-122.5 62.5t-86 102.5t-32.5 141v813h-22v-813q0 -84 34.5 -149t91 -109.5t129.5 -68t150 -23.5z" />
    <glyph glyph-name="uni1EE8" unicode="&#x1ee8;" horiz-adv-x="1628" 
d="M707 1532h-113v33l156 342l311 -105v-30l-211 -240h-121l109 203l-23 4zM737 309q40 0 79 11t69.5 32.5t49.5 54t19 76.5v951h349v-95q43 7 66 35t26 60h149q-2 -42 -18.5 -82.5t-46.5 -72.5t-74 -53.5t-102 -25.5v-20q64 4 112 27t81 58t51 79t20 90h168
q1 -72 -25.5 -142.5t-80.5 -126.5t-135.5 -91.5t-190.5 -39.5v-557q0 -118 -47 -210.5t-125.5 -156t-180.5 -97t-213 -33.5q-110 0 -212 33.5t-180.5 97t-125.5 156t-47 210.5v957h346v-951q0 -44 19.5 -76.5t50.5 -54t70 -32.5t79 -11zM737 133q77 0 150 23.5t130 68
t91.5 109.5t34.5 149v813h-23v-813q0 -80 -32.5 -141t-86 -102.5t-122.5 -62.5t-142 -21t-142 21t-122.5 62.5t-86 102.5t-32.5 141v813h-22v-813q0 -84 34.5 -149t91 -109.5t129.5 -68t150 -23.5z" />
    <glyph glyph-name="uni1EEE" unicode="&#x1eee;" horiz-adv-x="1628" 
d="M737 309q40 0 79 11t69.5 32.5t49.5 54t19 76.5v951h349v-95q43 7 66 35t26 60h149q-2 -42 -18.5 -82.5t-46.5 -72.5t-74 -53.5t-102 -25.5v-20q64 4 112 27t81 58t51 79t20 90h168q1 -72 -25.5 -142.5t-80.5 -126.5t-135.5 -91.5t-190.5 -39.5v-557q0 -118 -47 -210.5
t-125.5 -156t-180.5 -97t-213 -33.5q-110 0 -212 33.5t-180.5 97t-125.5 156t-47 210.5v957h346v-951q0 -44 19.5 -76.5t50.5 -54t70 -32.5t79 -11zM737 133q77 0 150 23.5t130 68t91.5 109.5t34.5 149v813h-23v-813q0 -80 -32.5 -141t-86 -102.5t-122.5 -62.5t-142 -21
t-142 21t-122.5 62.5t-86 102.5t-32.5 141v813h-22v-813q0 -84 34.5 -149t91 -109.5t129.5 -68t150 -23.5zM510 1579q-88 34 -176 74q27 81 68 137.5t95 85.5t120.5 29t144.5 -31q24 -9 53.5 -21t58 -14.5t52 9.5t34.5 50q47 -20 92.5 -39t92.5 -40q-16 -75 -54 -131
t-91 -88.5t-118 -37.5t-135 23q-23 9 -57 24.5t-68.5 22.5t-65 -2.5t-46.5 -50.5zM477 1704q48 53 114.5 55t143.5 -33q43 -18 83 -26.5t76 -5.5t66.5 19t55.5 48l-17 8q-23 -27 -51.5 -40.5t-61.5 -15t-69.5 7.5t-75.5 26q-41 18 -80 26t-74.5 4.5t-67 -20t-56.5 -47.5z
" />
    <glyph glyph-name="uni1EEC" unicode="&#x1eec;" horiz-adv-x="1628" 
d="M737 309q40 0 79 11t69.5 32.5t49.5 54t19 76.5v951h349v-95q43 7 66 35t26 60h149q-2 -42 -18.5 -82.5t-46.5 -72.5t-74 -53.5t-102 -25.5v-20q64 4 112 27t81 58t51 79t20 90h168q1 -72 -25.5 -142.5t-80.5 -126.5t-135.5 -91.5t-190.5 -39.5v-557q0 -118 -47 -210.5
t-125.5 -156t-180.5 -97t-213 -33.5q-110 0 -212 33.5t-180.5 97t-125.5 156t-47 210.5v957h346v-951q0 -44 19.5 -76.5t50.5 -54t70 -32.5t79 -11zM737 133q77 0 150 23.5t130 68t91.5 109.5t34.5 149v813h-23v-813q0 -80 -32.5 -141t-86 -102.5t-122.5 -62.5t-142 -21
t-142 21t-122.5 62.5t-86 102.5t-32.5 141v813h-22v-813q0 -84 34.5 -149t91 -109.5t129.5 -68t150 -23.5zM631 1553q-4 38 2.5 67.5t19.5 54t31 44.5t36 39q25 27 46 54.5t24 65.5v-1q0 12 -5.5 21t-14.5 15t-20.5 9t-22.5 3q-24 -1 -42.5 -18.5t-18.5 -56.5h-189
q-1 68 19 118.5t55 84t82 50.5t100 19q62 1 112 -18t84.5 -52t53 -77t18.5 -94q0 -33 -7.5 -59.5t-19.5 -49t-27.5 -42t-31.5 -37.5q-13 -16 -25 -31.5t-21.5 -33.5t-15 -39t-3.5 -47h-206zM754 1629q11 30 29 54.5t39 48.5l6 8v-1q25 32 46 64.5t23 72.5q2 30 -8 56.5
t-31 46.5t-52.5 31.5t-73.5 11.5q-50 0 -90 -25t-62 -79h23q18 45 52 64t75 18q75 -2 111 -36.5t34 -84.5q-1 -18 -8 -35.5t-17 -34t-22.5 -32.5t-24.5 -29q-19 -23 -37.5 -49.5t-34.5 -69.5h23z" />
    <glyph glyph-name="uni1EF0" unicode="&#x1ef0;" horiz-adv-x="1628" 
d="M737 309q40 0 79 11t69.5 32.5t49.5 54t19 76.5v951h349v-95q43 7 66 35t26 60h149q-2 -42 -18.5 -82.5t-46.5 -72.5t-74 -53.5t-102 -25.5v-20q64 4 112 27t81 58t51 79t20 90h168q1 -72 -25.5 -142.5t-80.5 -126.5t-135.5 -91.5t-190.5 -39.5v-557q0 -118 -47 -210.5
t-125.5 -156t-180.5 -97t-213 -33.5q-110 0 -212 33.5t-180.5 97t-125.5 156t-47 210.5v957h346v-951q0 -44 19.5 -76.5t50.5 -54t70 -32.5t79 -11zM737 133q77 0 150 23.5t130 68t91.5 109.5t34.5 149v813h-23v-813q0 -80 -32.5 -141t-86 -102.5t-122.5 -62.5t-142 -21
t-142 21t-122.5 62.5t-86 102.5t-32.5 141v813h-22v-813q0 -84 34.5 -149t91 -109.5t129.5 -68t150 -23.5zM741 -507q-43 0 -80.5 13t-65 37.5t-43.5 59t-16 76.5q0 43 16 78.5t43.5 60.5t65 38.5t80.5 13.5q41 0 77.5 -13.5t63.5 -38.5t43 -60.5t16 -78.5q0 -42 -16 -76.5
t-43 -59t-63.5 -37.5t-77.5 -13zM741 -403q-41 0 -67.5 21t-26.5 61t26.5 62t67.5 22q37 0 63.5 -22t26.5 -62t-26.5 -61t-63.5 -21zM741 -421q21 0 40.5 7t34.5 19.5t24 31t9 42.5t-9 42.5t-24 30.5t-34.5 18.5t-40.5 6.5q-47 0 -79 -25t-32 -73t32 -74t79 -26z" />
    <glyph glyph-name="Ygrave" unicode="&#x1ef2;" horiz-adv-x="1362" 
d="M670 649v-512h22v512l402 647h-27l-385 -622l-387 622h-27zM862 0h-362v602l-482 776v56h396l260 -478h14l260 478h398v-56l-484 -776v-602zM579 1763l-23 -4l109 -203h-121l-211 240v31l311 104l156 -342v-33h-113z" />
    <glyph glyph-name="Yacute" unicode="&#xdd;" horiz-adv-x="1362" 
d="M670 649v-512h22v512l402 647h-27l-385 -622l-387 622h-27zM862 0h-362v602l-482 776v56h396l260 -478h14l260 478h398v-56l-484 -776v-602zM616 1534h-112v33l155 342l312 -105v-30l-211 -240h-121l109 203l-23 4z" />
    <glyph glyph-name="uni1EF8" unicode="&#x1ef8;" horiz-adv-x="1362" 
d="M670 649v-512h22v512l402 647h-27l-385 -622l-387 622h-27zM862 0h-362v602l-482 776v56h396l260 -478h14l260 478h398v-56l-484 -776v-602zM452 1579q-88 34 -176 74q27 81 68 137.5t95 85.5t120.5 29t144.5 -31q24 -9 53.5 -21t58 -14.5t52 9.5t34.5 50
q47 -20 92.5 -39t92.5 -40q-16 -75 -54 -131t-91 -88.5t-118 -37.5t-135 23q-23 9 -57 24.5t-68.5 22.5t-65 -2.5t-46.5 -50.5zM419 1704q48 53 114.5 55t143.5 -33q43 -18 83 -26.5t76 -5.5t66.5 19t55.5 48l-17 8q-23 -27 -51.5 -40.5t-61.5 -15t-69.5 7.5t-75.5 26
q-41 18 -80 26t-74.5 4.5t-67 -20t-56.5 -47.5z" />
    <glyph glyph-name="Ydieresis" unicode="&#x178;" horiz-adv-x="1362" 
d="M670 649v-512h22v512l402 647h-27l-385 -622l-387 622h-27zM862 0h-362v602l-482 776v56h396l260 -478h14l260 478h398v-56l-484 -776v-602zM410 1530q-42 0 -79 13.5t-64.5 37.5t-43.5 58.5t-16 76.5q0 44 16 79t43.5 59.5t64.5 37.5t79 13t79 -13t65 -37.5t44 -59.5
t16 -79q0 -42 -16 -76.5t-44 -58.5t-65 -37.5t-79 -13.5zM952 1530q-42 0 -79 13.5t-64 37.5t-43 58.5t-16 76.5q0 44 16 79t43 59.5t64 37.5t79 13q43 0 80 -13t64.5 -37.5t43 -59.5t15.5 -79q0 -42 -15.5 -76.5t-43 -58.5t-64.5 -37.5t-80 -13.5zM952 1636q-38 0 -65 21
t-27 59q0 42 27 63t65 21q39 0 67 -21t28 -63q0 -38 -28 -59t-67 -21zM952 1618q47 0 79 25t32 73t-32 75.5t-79 27.5q-48 0 -80 -27.5t-32 -75.5q0 -24 9 -42t24.5 -30.5t36 -19t42.5 -6.5zM410 1636q-38 0 -65.5 21t-27.5 59q0 42 27.5 63t65.5 21q40 0 67 -21t27 -63
q0 -38 -27 -59t-67 -21zM410 1618q48 0 80 25t32 73t-32 75.5t-80 27.5q-47 0 -79 -27.5t-32 -75.5t32 -73t79 -25z" />
    <glyph glyph-name="uni1EF6" unicode="&#x1ef6;" horiz-adv-x="1362" 
d="M670 649v-512h22v512l402 647h-27l-385 -622l-387 622h-27zM862 0h-362v602l-482 776v56h396l260 -478h14l260 478h398v-56l-484 -776v-602zM573 1553q-4 38 2.5 67.5t19.5 54t31 44.5t36 39q25 27 46 54.5t24 65.5v-1q0 12 -5.5 21t-14.5 15t-20.5 9t-22.5 3
q-24 -1 -42.5 -18.5t-18.5 -56.5h-189q-1 68 19 118.5t55 84t82 50.5t100 19q62 1 112 -18t84.5 -52t53 -77t18.5 -94q0 -33 -7.5 -59.5t-19.5 -49t-27.5 -42t-31.5 -37.5q-13 -16 -25 -31.5t-21.5 -33.5t-15 -39t-3.5 -47h-206zM696 1629q11 30 29 54.5t39 48.5l6 8v-1
q25 32 46 64.5t23 72.5q2 30 -8 56.5t-31 46.5t-52.5 31.5t-73.5 11.5q-50 0 -90 -25t-62 -79h23q18 45 52 64t75 18q75 -2 111 -36.5t34 -84.5q-1 -18 -8 -35.5t-17 -34t-22.5 -32.5t-24.5 -29q-19 -23 -37.5 -49.5t-34.5 -69.5h23z" />
    <glyph glyph-name="uni1EF4" unicode="&#x1ef4;" horiz-adv-x="1362" 
d="M670 649v-512h22v512l402 647h-27l-385 -622l-387 622h-27zM862 0h-362v602l-482 776v56h396l260 -478h14l260 478h398v-56l-484 -776v-602zM683 -507q-43 0 -80.5 13t-65 37.5t-43.5 59t-16 76.5q0 43 16 78.5t43.5 60.5t65 38.5t80.5 13.5q41 0 77.5 -13.5t63.5 -38.5
t43 -60.5t16 -78.5q0 -42 -16 -76.5t-43 -59t-63.5 -37.5t-77.5 -13zM683 -403q-41 0 -67.5 21t-26.5 61t26.5 62t67.5 22q37 0 63.5 -22t26.5 -62t-26.5 -61t-63.5 -21zM683 -421q21 0 40.5 7t34.5 19.5t24 31t9 42.5t-9 42.5t-24 30.5t-34.5 18.5t-40.5 6.5q-47 0 -79 -25
t-32 -73t32 -74t79 -26z" />
    <glyph glyph-name="Eth" unicode="&#xd0;" horiz-adv-x="1520" 
d="M182 874v560h541q140 -1 252 -41t196 -109t140 -160.5t84 -194.5t28.5 -212t-28 -212t-84.5 -194.5t-140 -160.5t-196 -109t-252 -41h-541v553h-172v321h172zM549 874h188v-321h-188v-219h174q86 0 150 33t107 87t64.5 122.5t21.5 140.5t-21.5 140.5t-64.5 122.5t-107 87
t-150 33h-174v-226zM360 723h-213v-18h213v-551h359q134 0 234 48.5t167 127.5t100.5 180t33.5 207t-33.5 207t-100.5 180t-167 127.5t-234 48.5h-359v-557zM379 723v537h340q103 -1 185.5 -31.5t144.5 -83t103.5 -121.5t62 -147t20.5 -160t-20.5 -160t-62 -147t-103.5 -121
t-144.5 -82.5t-185.5 -30.5h-340v529h219v18h-219z" />
    <glyph glyph-name="Thorn" unicode="&#xde;" horiz-adv-x="1421" 
d="M182 1434h367v-183h264q103 0 185.5 -30t144 -81.5t102.5 -120t61.5 -145t21 -157.5t-20.5 -158t-62 -145t-102.5 -119t-144 -81t-185.5 -30h-264v-184h-367v1434zM375 1296h-23v-1159h23v201h440q85 1 149 34t107 86.5t64.5 121.5t21.5 138.5t-21 138.5t-64 121
t-107 85.5t-150 32.5h-440v200zM815 1077q79 0 139 -30.5t100 -81t60.5 -114.5t21 -131.5t-19.5 -131.5t-60 -114.5t-100 -81t-141 -30.5h-440v715h440zM811 514q50 0 84.5 30t52 75.5t18.5 98.5t-15.5 98.5t-51.5 76t-88 31.5q-65 2 -132 1t-130 -1v-410h262z" />
    <glyph glyph-name="a" unicode="a" 
d="M725 1198h2l389 -833h-776zM1010 180h-566l-84 -180h-358v53l645 1399h158l647 -1399v-53h-358zM731 1243h-12l-510 -1104h27l96 203h792l95 -203h26zM725 840l-147 -330h299z" />
    <glyph glyph-name="b" unicode="b" horiz-adv-x="1405" 
d="M793 1262q54 0 101 -22t82 -58.5t55 -85.5t20 -103t-19.5 -102.5t-54 -85t-82 -57.5t-102.5 -21h-418v535h418zM1241 993q0 -32 -8 -67t-22.5 -68t-35.5 -62t-47 -51q88 -45 130 -120.5t42 -171.5q-1 -94 -29.5 -176.5t-84.5 -144t-139 -97t-193 -35.5h-672v1434h613
q93 0 174 -34t141.5 -93.5t95.5 -140t35 -173.5zM354 1280v-1128h496q58 0 109.5 25.5t89 67.5t59.5 96t22 112q0 51 -18.5 98t-50.5 84t-76.5 60.5t-95.5 25.5v8q39 9 72.5 36.5t57.5 65t38 80t14 82.5q0 58 -22 110.5t-59.5 91.5t-88.5 62t-108 23h-439zM850 709
q53 0 100 -19.5t82.5 -54t56.5 -81.5t21 -101q0 -55 -21 -105.5t-56.5 -89.5t-82.5 -62.5t-100 -23.5h-475v537h475zM827 561h-290v-235h292q37 0 61.5 17.5t36.5 43.5t12 56.5t-12.5 56.5t-37.5 43.5t-62 17.5zM537 1106v-227h231q36 0 60.5 17t36.5 42t11.5 54.5
t-12.5 54.5t-36.5 42t-61.5 17h-229z" />
    <glyph glyph-name="c" unicode="c" horiz-adv-x="1610" 
d="M96 717q0 122 29.5 223.5t81 183t121.5 142.5t151.5 102t171 61.5t180.5 20.5q74 0 149 -14t145.5 -42.5t133.5 -72.5t113 -104.5t84.5 -138t48.5 -173.5h-360q-38 110 -118 160.5t-196 50.5q-81 0 -146.5 -29t-112 -81.5t-72 -126t-25.5 -162.5q0 -79 25 -150.5
t71.5 -126.5t112.5 -87.5t147 -33.5q58 0 110 14.5t94 43.5t71.5 72.5t44.5 101.5h360q-20 -152 -85.5 -259.5t-159.5 -175.5t-207 -99t-228 -31q-91 0 -180.5 20t-171 60.5t-151.5 101.5t-121.5 142.5t-81 183t-29.5 223.5zM1270 422q-68 -131 -181.5 -194.5t-257.5 -63.5
q-99 0 -195 36t-171 106.5t-121.5 173.5t-46.5 237t46.5 238t121.5 175t171 107.5t195 36.5q140 0 251 -58.5t180 -179.5h24q-35 64 -83.5 112t-107 80t-125.5 48t-139 16q-104 0 -203.5 -37.5t-177.5 -110t-126 -180t-48 -247.5q0 -139 48 -246.5t126 -180.5t177.5 -110.5
t203.5 -36.5q74 0 143.5 18.5t129.5 53.5t109 87t81 120h-24z" />
    <glyph glyph-name="d" unicode="d" horiz-adv-x="1520" 
d="M723 1434q140 -1 252 -41t196 -109t140 -160.5t84 -194.5t28.5 -212t-28 -212t-84.5 -194.5t-140 -160.5t-196 -109t-252 -41h-541v1434h541zM360 154h359q134 0 234 48.5t167 127.5t100.5 180t33.5 207t-33.5 207t-100.5 180t-167 127.5t-234 48.5h-359v-1126zM719 176
h-340v1084h340q103 -1 185.5 -31.5t144.5 -83t103.5 -121.5t62 -147t20.5 -160t-20.5 -160t-62 -147t-103.5 -121t-144.5 -82.5t-185.5 -30.5zM549 334h174q86 0 150 33t107 87t64.5 122.5t21.5 140.5t-21.5 140.5t-64.5 122.5t-107 87t-150 33h-174v-766z" />
    <glyph glyph-name="e" unicode="e" horiz-adv-x="1229" 
d="M354 152h602v20h-579v559h520v21h-520v510h561v20h-584v-1130zM1077 1106h-530v-203h487v-325h-487v-252h549v-326h-914v1434h895v-328z" />
    <glyph glyph-name="f" unicode="f" horiz-adv-x="1176" 
d="M555 465v-465h-373v1434h893v-328h-520v-313h461v-328h-461zM938 1280h-582v-1141h23v477h498v23h-498v623h559v18z" />
    <glyph glyph-name="g" unicode="g" horiz-adv-x="1618" 
d="M94 717q0 122 29.5 224t81 184t121.5 143t151.5 102t171 61.5t180.5 20.5q108 -1 215 -30.5t197 -91t156 -157.5t92 -229h-361q-44 92 -117 132t-182 40q-87 0 -153.5 -31.5t-111.5 -86t-68 -127t-23 -154.5q0 -89 25 -161.5t71.5 -124t112.5 -79.5t147 -28q55 0 101 8
t83.5 28t68 54t55.5 86h-306v317h678q7 -107 1.5 -211t-42.5 -209q-38 -112 -105.5 -190.5t-153 -128t-183.5 -72t-197 -22.5q-91 0 -180.5 20.5t-171 61t-151.5 101.5t-121.5 142.5t-81 183t-29.5 224.5zM971 653h356q-2 -111 -39.5 -201t-104 -154t-157 -99t-197.5 -35
q-117 0 -215 41.5t-169 115t-110.5 175t-39.5 221.5q0 118 39.5 220t110.5 176.5t169 117t215 41.5q63 0 124 -14t116 -41.5t101 -68.5t79 -95h25q-35 60 -84.5 104.5t-108.5 74t-123.5 44t-128.5 14.5q-104 0 -204 -37t-178.5 -109.5t-126.5 -179.5t-48 -247t48 -247.5
t126.5 -180t178.5 -110t204 -36.5q109 0 204 37.5t165.5 105t111 161t40.5 206.5v23h-379v-23z" />
    <glyph glyph-name="h" unicode="h" horiz-adv-x="1561" 
d="M1376 0h-375v575h-442v-575h-375v1434h375v-521h442v521h375v-1434zM381 139v592h799v-592h20v1157h-20v-540h-799v540h-23v-1157h23z" />
    <glyph glyph-name="i" unicode="i" horiz-adv-x="848" 
d="M201 170v-20h450v20h-213v1092h197v20h-416v-20h199v-1092h-217zM791 322v-322h-728v322h183v792h-168v320h698v-320h-168v-792h183z" />
    <glyph glyph-name="j" unicode="j" horiz-adv-x="1356" 
d="M1184 477q0 -117 -45 -209t-121 -155t-176 -96t-211 -33t-208.5 33t-170.5 96t-115.5 155t-42.5 209v187h346v-181q0 -42 15 -74t40.5 -54t60.5 -33t75 -11q80 0 129 43t49 129v625h-209v326h584v-957zM252 524v-41q0 -81 29 -145t79.5 -108.5t118.5 -68.5t146 -24
q79 0 149 22.5t122.5 66.5t83 108.5t30.5 148.5v801h-273v-20h250v-781q0 -81 -28 -141.5t-77 -101.5t-114.5 -61.5t-140.5 -20.5q-74 0 -138.5 21.5t-112 63t-75 102t-27.5 138.5v41h-22z" />
    <glyph glyph-name="k" unicode="k" horiz-adv-x="1450" 
d="M588 709q46 0 98.5 7t97.5 19l363 -594h24l-368 602q94 32 157.5 88.5t101.5 129t53.5 158t14.5 175.5h-20q0 -177 -57 -305t-185 -196q-55 -29 -128.5 -48.5t-153.5 -19.5h-203v569h-27v-1153h27v568h205zM184 0v1434h373v-543h27q91 0 152.5 21.5t100.5 59.5t58.5 89.5
t27.5 112t8.5 127t0.5 133.5h377q0 -73 -0.5 -144t-8 -139t-23.5 -131.5t-46.5 -122t-79 -111.5t-119.5 -98l389 -631v-57h-407l-316 555q-37 -6 -71.5 -7t-69.5 -1v-547h-373z" />
    <glyph glyph-name="l" unicode="l" horiz-adv-x="1139" 
d="M549 330h520v-330h-889v1434h369v-1104zM930 174h-553v1120h-23v-1138h576v18z" />
    <glyph glyph-name="m" unicode="m" horiz-adv-x="1761" 
d="M1448 1438h131v-1438h-375v639l-305 -320h-41l-303 320v-639h-375v1438h135l562 -623zM1403 141v951h-29l-497 -525l-492 525h-27v-951h21v924l498 -528l505 528v-924h21z" />
    <glyph glyph-name="n" unicode="n" horiz-adv-x="1597" 
d="M561 705v-705h-379v1440h133l725 -709v703h375v-1436h-131zM356 141h25v969q108 -103 214.5 -208t211.5 -208q103 -102 206 -202t210 -203h16v1005h-22v-970q-109 106 -215 210.5t-216 206.5q-100 103 -202 203.5t-205 200.5h-23v-1004z" />
    <glyph glyph-name="o" unicode="o" horiz-adv-x="1659" 
d="M274 715q0 -116 31 -208t84.5 -161.5t124.5 -115.5t151 -69.5t165 -23t165 23.5t151 69t124.5 115.5t84.5 161.5t31 208q0 115 -31 207.5t-84.5 162t-124.5 115.5t-151 69t-165 23t-165 -23.5t-151 -69.5t-124.5 -115t-84.5 -161.5t-31 -207.5zM1565 715
q0 -149 -41 -268.5t-112 -209t-165 -149t-200 -89.5t-217.5 -29.5t-217.5 30t-200 89t-165 149t-112 209t-41 268.5t41 267.5t112 208t165 149t200 89t217.5 29.5t217.5 -29.5t200 -89t165 -149t112 -208t41 -267.5zM471 715q0 -98 31 -171t81.5 -121.5t115 -73t132 -24.5
t132 24.5t115 73t81.5 121.5t31 171q0 97 -31 169.5t-81.5 121t-115 72.5t-132 24t-132 -24t-115 -72.5t-81.5 -121t-31 -169.5zM1366 715q0 -138 -46 -242t-121.5 -173.5t-171.5 -105t-196.5 -36.5t-196.5 33.5t-171.5 104t-121.5 174t-46 245.5q0 140 46 244.5
t121.5 173.5t171.5 103.5t196.5 33.5t196.5 -36t171.5 -104.5t121.5 -173.5t46 -241z" />
    <glyph glyph-name="p" unicode="p" horiz-adv-x="1421" 
d="M815 520q85 1 149 34t107 86.5t64.5 121.5t21.5 138.5t-21 138.5t-64 121t-107 85.5t-150 32.5h-463v-1141h23v383h440zM182 0v1434h631q103 0 185.5 -30t144 -81.5t102.5 -120t61.5 -145t21 -157.5t-20.5 -158t-62 -145t-102.5 -119t-144 -81t-185.5 -30h-264v-367h-367
zM815 1260q79 0 139 -30.5t100 -81t60.5 -114.5t21 -131.5t-19.5 -131.5t-60 -114.5t-100 -81t-141 -30.5h-440v715h440zM811 696q50 0 84.5 30t52 75.5t18.5 98.5t-15.5 98.5t-51.5 76t-88 31.5q-65 2 -132 1t-130 -1v-410h262z" />
    <glyph glyph-name="q" unicode="q" horiz-adv-x="1667" 
d="M1227 0l-35 66q-109 -58 -232 -78.5t-245 -3.5t-234 71.5t-197.5 145.5t-136.5 219.5t-51 294.5q0 149 41 267.5t112 208t165 149t200 89t217.5 29.5t217.5 -29.5t200 -89t165 -149t112 -208t41 -267.5q0 -128 -30.5 -233.5t-84.5 -190.5l147 -244v-47h-372zM1370 135
l-125 176q66 73 105 173t39 231q0 144 -48 252.5t-126 180.5t-178 108t-204.5 36t-204.5 -36.5t-178 -108.5t-126 -180t-48 -252q0 -147 49.5 -256.5t130 -182t183 -107.5t208.5 -32.5t206.5 42t177.5 116.5l110 -160h29zM473 715q0 -98 31 -171t81 -121.5t114.5 -73
t132 -24.5t132 24.5t114.5 73t81 121.5t31 171q0 97 -31 169.5t-81 121t-114.5 72.5t-132 24t-132 -24t-114.5 -72.5t-81 -121t-31 -169.5zM1370 715q0 -138 -46 -242t-121.5 -173.5t-172 -105t-197 -36.5t-197 33.5t-172 104t-121.5 174t-46 245.5q0 140 46 244.5
t121.5 173.5t172 103.5t197 33.5t197 -36t172 -104.5t121.5 -173.5t46 -241z" />
    <glyph glyph-name="r" unicode="r" horiz-adv-x="1432" 
d="M811 1260q80 0 140 -28.5t100.5 -75t60.5 -106t20.5 -121.5t-19.5 -121.5t-60 -106t-100.5 -75t-141.5 -28.5h-440v662h440zM811 575q11 0 21.5 1.5t19.5 1.5l266 -443h25l-207 338l-62 109q73 12 127 48t88.5 87t50.5 112.5t12.5 124t-26.5 121t-65.5 103.5t-105 72.5
t-144.5 27.5h-461v-1141h21v438h440zM1393 53v-53h-410l-246 422h-190v-422h-367v1434h629q106 0 190 -30t146 -81t103 -118t60 -142.5t16 -154t-27 -152t-70.5 -138t-114.5 -110.5zM809 752q50 0 83.5 26t51 65t18.5 85t-15.5 85.5t-51 65.5t-86.5 27q-65 2 -131 1t-131 -1
v-354h262z" />
    <glyph glyph-name="s" unicode="s" horiz-adv-x="1327" 
d="M436 438q0 -34 19.5 -59.5t51 -42.5t71.5 -25.5t82.5 -9t82.5 7.5t71.5 24t51 39.5t19.5 55.5q0 37 -21 60.5t-56.5 36.5t-83 19t-101.5 9q-117 8 -212.5 34t-163.5 77.5t-106 131.5t-39 197q-2 116 44 203t123 145t176 87t202.5 29t202.5 -29t176.5 -87t124 -145
t45.5 -203h-348q0 48 -28.5 78.5t-71.5 45t-94 13.5t-95 -16.5t-74.5 -45t-33.5 -71.5q-3 -41 13.5 -66.5t48 -41.5t74.5 -24t91 -13q71 -8 140.5 -17.5t132 -27t116 -46t92 -73t60.5 -109t22 -153.5q0 -90 -32.5 -163t-88.5 -127.5t-130.5 -91.5t-158.5 -55.5t-172.5 -19
t-172 18t-157.5 56t-129.5 93.5t-87 131t-30.5 170h354zM1001 1124q-29 54 -76 91.5t-104.5 58.5t-122 26.5t-126.5 -4t-118.5 -34t-99 -62.5t-67.5 -90t-23 -117q2 -92 33.5 -148t84 -87.5t122 -44.5t147.5 -19q50 -4 98.5 -7.5t93 -12.5t82 -25.5t65.5 -44.5t43.5 -71
t15.5 -105q0 -59 -25 -106.5t-67.5 -82.5t-98.5 -57t-118 -31t-125.5 -4t-121.5 24.5t-106 53t-78 82.5h-24q28 -55 76 -93t108.5 -60.5t128.5 -29t135 2.5t128 32.5t108 61.5t74.5 90t27.5 117q0 95 -35.5 150t-94 83.5t-133.5 39t-153 16.5q-75 5 -141.5 16.5t-116.5 40.5
t-79 81t-29 138q0 60 23 108.5t62 84t90.5 58t109 31.5t116.5 4.5t112.5 -23t98.5 -51.5t74 -81h26z" />
    <glyph glyph-name="t" unicode="t" horiz-adv-x="1151" 
d="M41 1106v328h1065v-328h-350v-1106h-363v1106h-352zM586 137q0 284 -1 563t-3 562h385v18h-789v-18h387v-1125h21z" />
    <glyph glyph-name="u" unicode="u" horiz-adv-x="1479" 
d="M737 309q40 0 79 11t69.5 32.5t49.5 54t19 76.5v951h349v-957q0 -118 -47 -210.5t-125.5 -156t-180.5 -97t-213 -33.5q-110 0 -212 33.5t-180.5 97t-125.5 156t-47 210.5v957h346v-951q0 -44 19.5 -76.5t50.5 -54t70 -32.5t79 -11zM737 133q77 0 150 23.5t130 68
t91.5 109.5t34.5 149v813h-23v-813q0 -80 -32.5 -141t-86 -102.5t-122.5 -62.5t-142 -21t-142 21t-122.5 62.5t-86 102.5t-32.5 141v813h-22v-813q0 -84 34.5 -149t91 -109.5t129.5 -68t150 -23.5z" />
    <glyph glyph-name="v" unicode="v" horiz-adv-x="1438" 
d="M723 236h-2l-463 1060h-27l486 -1106h10l477 1106h-24zM717 608h10l328 826h352v-56l-608 -1394h-156l-614 1394v56h352z" />
    <glyph glyph-name="w" unicode="w" horiz-adv-x="1944" 
d="M1059 1411l244 -762h6l63 244l182 541h357v-56l-498 -1392h-211l-229 690h-6l-230 -690h-202l-504 1392v56h356l184 -541l64 -244h6l242 762h176zM639 236l-381 1060h-25l400 -1106h14l324 961l323 -961h15l401 1106h-29l-378 -1060h-3l-321 946h-18l-320 -946h-2z" />
    <glyph glyph-name="x" unicode="x" horiz-adv-x="1378" 
d="M350 1296h-22l350 -536l-404 -623h29l385 598l387 -598h25l-402 623l349 536h-23l-336 -512zM682 451l-262 -451h-395v55l462 705l-413 618v56h381l227 -373h10l230 373h378v-56l-413 -618l465 -705v-55h-396l-262 451h-12z" />
    <glyph glyph-name="y" unicode="y" horiz-adv-x="1362" 
d="M670 649v-512h22v512l402 647h-27l-385 -622l-387 622h-27zM862 0h-362v602l-482 776v56h396l260 -478h14l260 478h398v-56l-484 -776v-602z" />
    <glyph glyph-name="z" unicode="z" horiz-adv-x="1251" 
d="M1186 1378l-582 -1050h588v-328h-1145v55l580 1051h-527v328h1086v-56zM899 1260l-588 -1106h727v18h-696l588 1108h-707v-20h676z" />
    <glyph glyph-name="agrave" unicode="&#xe0;" 
d="M725 1198h2l389 -833h-776zM1010 180h-566l-84 -180h-358v53l645 1399h158l647 -1399v-53h-358zM731 1243h-12l-510 -1104h27l96 203h792l95 -203h26zM725 840l-147 -330h299zM647 1745l-22 -4l108 -203h-121l-211 240v30l312 105l155 -342v-33h-112z" />
    <glyph glyph-name="aacute" unicode="&#xe1;" 
d="M725 1198h2l389 -833h-776zM1010 180h-566l-84 -180h-358v53l645 1399h158l647 -1399v-53h-358zM731 1243h-12l-510 -1104h27l96 203h792l95 -203h26zM725 840l-147 -330h299zM707 1542h-113v33l156 342l311 -105v-30l-211 -240h-121l109 203l-23 4z" />
    <glyph glyph-name="acircumflex" unicode="&#xe2;" 
d="M725 1198h2l389 -833h-776zM1010 180h-566l-84 -180h-358v53l645 1399h158l647 -1399v-53h-358zM731 1243h-12l-510 -1104h27l96 203h792l95 -203h26zM725 840l-147 -330h299zM860 1522l-133 155l-125 -155h-141l176 217h-21l-178 -217h-114v32l217 293h372l220 -293v-32
h-115l-176 217h-23l176 -217h-135z" />
    <glyph glyph-name="uni1EA7" unicode="&#x1ea7;" 
d="M725 1198h2l389 -833h-776zM1010 180h-566l-84 -180h-358v53l645 1399h158l647 -1399v-53h-358zM731 1243h-12l-510 -1104h27l96 203h792l95 -203h26zM725 840l-147 -330h299zM860 1522l-133 155l-125 -155h-141l176 217h-21l-178 -217h-114v32l217 293h372l220 -293v-32
h-115l-176 217h-23l176 -217h-135zM630 2128l-23 -4l109 -203h-121l-211 240v31l311 104l156 -342v-33h-113z" />
    <glyph glyph-name="uni1EA5" unicode="&#x1ea5;" 
d="M725 1198h2l389 -833h-776zM1094 0h358v53l-647 1399h-158l-645 -1399v-53h358l84 180h566zM1245 139h-26l-95 203h-792l-96 -203h-27l510 1104h12zM725 840l-147 -330h299zM995 1522l-176 217h23l176 -217h115v32l-220 293h-372l-217 -293v-32h114l178 217h21l-176 -217
h141l125 155l133 -155h135zM723 1926h-113v33l156 342l311 -104v-31l-211 -240h-121l109 203l-23 4z" />
    <glyph glyph-name="uni1EAB" unicode="&#x1eab;" 
d="M725 1198h2l389 -833h-776zM1010 180h-566l-84 -180h-358v53l645 1399h158l647 -1399v-53h-358zM731 1243h-12l-510 -1104h27l96 203h792l95 -203h26zM725 840l-147 -330h299zM860 1522l-133 155l-125 -155h-141l176 217h-21l-178 -217h-114v32l217 293h372l220 -293v-32
h-115l-176 217h-23l176 -217h-135zM500 1929q-88 34 -176 74q27 81 68 137.5t95 85.5t120.5 29t144.5 -31q24 -9 53.5 -21t58 -14.5t52 9.5t34.5 50q47 -20 92.5 -39t92.5 -40q-16 -75 -54 -131t-91 -88.5t-118 -37.5t-135 23q-23 9 -57 24.5t-68.5 22.5t-65 -2.5
t-46.5 -50.5zM467 2054q48 53 114.5 55t143.5 -33q43 -18 83 -26.5t76 -5.5t66.5 19t55.5 48l-17 8q-23 -27 -51.5 -40.5t-61.5 -15t-69.5 7.5t-75.5 26q-41 18 -80 26t-74.5 4.5t-67 -20t-56.5 -47.5z" />
    <glyph glyph-name="uni1EA9" unicode="&#x1ea9;" 
d="M725 1198h2l389 -833h-776zM1010 180h-566l-84 -180h-358v53l645 1399h158l647 -1399v-53h-358zM731 1243h-12l-510 -1104h27l96 203h792l95 -203h26zM725 840l-147 -330h299zM860 1522l-133 155l-125 -155h-141l176 217h-21l-178 -217h-114v32l217 293h372l220 -293v-32
h-115l-176 217h-23l176 -217h-135zM621 1892q-4 38 2.5 67.5t19.5 54t31 44.5t36 39q25 27 46 54.5t24 65.5v-1q0 12 -5.5 21t-14.5 15t-20.5 9t-22.5 3q-24 -1 -42.5 -18.5t-18.5 -56.5h-189q-1 68 19 118.5t55 84t82 50.5t100 19q62 1 112 -18t84.5 -52t53 -77t18.5 -94
q0 -33 -7.5 -59.5t-19.5 -49t-27.5 -42t-31.5 -37.5q-13 -16 -25 -31.5t-21.5 -33.5t-15 -39t-3.5 -47h-206zM744 1968q11 30 29 54.5t39 48.5l6 8v-1q25 32 46 64.5t23 72.5q2 30 -8 56.5t-31 46.5t-52.5 31.5t-73.5 11.5q-50 0 -90 -25t-62 -79h23q18 45 52 64t75 18
q75 -2 111 -36.5t34 -84.5q-1 -18 -8 -35.5t-17 -34t-22.5 -32.5t-24.5 -29q-19 -23 -37.5 -49.5t-34.5 -69.5h23z" />
    <glyph glyph-name="uni1EAD" unicode="&#x1ead;" 
d="M725 1198h2l389 -833h-776zM1010 180h-566l-84 -180h-358v53l645 1399h158l647 -1399v-53h-358zM731 1243h-12l-510 -1104h27l96 203h792l95 -203h26zM725 840l-147 -330h299zM860 1522l-133 155l-125 -155h-141l176 217h-21l-178 -217h-114v32l217 293h372l220 -293v-32
h-115l-176 217h-23l176 -217h-135zM731 -507q-43 0 -80.5 13t-65 37.5t-43.5 59t-16 76.5q0 43 16 78.5t43.5 60.5t65 38.5t80.5 13.5q41 0 77.5 -13.5t63.5 -38.5t43 -60.5t16 -78.5q0 -42 -16 -76.5t-43 -59t-63.5 -37.5t-77.5 -13zM731 -403q-41 0 -67.5 21t-26.5 61
t26.5 62t67.5 22q37 0 63.5 -22t26.5 -62t-26.5 -61t-63.5 -21zM731 -421q21 0 40.5 7t34.5 19.5t24 31t9 42.5t-9 42.5t-24 30.5t-34.5 18.5t-40.5 6.5q-47 0 -79 -25t-32 -73t32 -74t79 -26z" />
    <glyph glyph-name="atilde" unicode="&#xe3;" 
d="M725 1198h2l389 -833h-776zM1010 180h-566l-84 -180h-358v53l645 1399h158l647 -1399v-53h-358zM731 1243h-12l-510 -1104h27l96 203h792l95 -203h26zM725 840l-147 -330h299zM500 1534q-45 17 -88 35.5t-88 38.5q27 81 68 137.5t95 85.5t120.5 29t144.5 -31
q24 -9 53.5 -21t58 -14.5t52 9.5t34.5 50q47 -20 92.5 -39t92.5 -40q-16 -75 -54 -131t-91 -88.5t-118 -37.5t-135 23q-23 9 -57 24.5t-68.5 22.5t-65 -3t-46.5 -50zM467 1659q47 52 114 54t144 -32q43 -18 83 -26.5t76 -5.5t66.5 19t55.5 48l-17 8q-23 -27 -51.5 -40.5
t-61.5 -15t-69.5 7.5t-75.5 26q-41 18 -80 26t-74.5 4.5t-67 -20t-56.5 -47.5z" />
    <glyph glyph-name="adieresis" unicode="&#xe4;" 
d="M725 1198h2l389 -833h-776zM1010 180h-566l-84 -180h-358v53l645 1399h158l647 -1399v-53h-358zM731 1243h-12l-510 -1104h27l96 203h792l95 -203h26zM725 840l-147 -330h299zM457 1499q-42 0 -79 13.5t-64.5 38t-43.5 59t-16 76.5q0 43 16 78t43.5 59.5t64.5 37.5t79 13
t79.5 -13t65 -37.5t44 -59.5t16.5 -78q0 -42 -16.5 -76.5t-44 -59t-65 -38t-79.5 -13.5zM999 1499q-42 0 -79 13.5t-64 38t-43 59t-16 76.5q0 43 16 78t43 59.5t64 37.5t79 13q43 0 80 -13t64.5 -37.5t43 -59.5t15.5 -78q0 -42 -15.5 -76.5t-43 -59t-64.5 -38t-80 -13.5z
M999 1606q-38 0 -65 20.5t-27 59.5q0 42 27 62.5t65 20.5q39 0 67 -20.5t28 -62.5q0 -39 -28 -59.5t-67 -20.5zM999 1587q47 0 79 25.5t32 73.5t-32 75t-79 27q-48 0 -80 -27t-32 -75q0 -24 9 -42.5t24.5 -31t36 -19t42.5 -6.5zM457 1606q-37 0 -64.5 20.5t-27.5 59.5
q0 42 27.5 62.5t64.5 20.5q40 0 67 -20.5t27 -62.5q0 -39 -27 -59.5t-67 -20.5zM457 1587q48 0 80 25.5t32 73.5t-32 75t-80 27q-47 0 -79 -27t-32 -75t32 -73.5t79 -25.5z" />
    <glyph glyph-name="abreve" unicode="&#x103;" 
d="M725 1198h2l389 -833h-776zM1010 180h-566l-84 -180h-358v53l645 1399h158l647 -1399v-53h-358zM731 1243h-12l-510 -1104h27l96 203h792l95 -203h26zM725 840l-147 -330h299zM723 1534q-90 0 -157.5 27t-112 71t-66 99t-18.5 112h129q1 -37 16 -72t43.5 -62.5t70 -44.5
t95.5 -17t95.5 17t70 44.5t43 62.5t16.5 72h127q1 -57 -20 -112t-64.5 -99t-110.5 -71t-157 -27zM723 1665q-51 0 -89 15t-64.5 40t-40.5 57t-15 66h113q1 -13 8 -26.5t19 -24.5t29.5 -18t39.5 -7q21 0 38 7t28.5 18t17.5 24.5t6 26.5h115q-1 -34 -14.5 -66t-39 -57
t-63.5 -40t-88 -15z" />
    <glyph glyph-name="uni1EB1" unicode="&#x1eb1;" 
d="M725 1198h2l389 -833h-776zM1010 180h-566l-84 -180h-358v53l645 1399h158l647 -1399v-53h-358zM731 1243h-12l-510 -1104h27l96 203h792l95 -203h26zM725 840l-147 -330h299zM723 1534q-90 0 -157.5 27t-112 71t-66 99t-18.5 112h129q1 -37 16 -72t43.5 -62.5t70 -44.5
t95.5 -17t95.5 17t70 44.5t43 62.5t16.5 72h127q1 -57 -20 -112t-64.5 -99t-110.5 -71t-157 -27zM723 1665q-51 0 -89 15t-64.5 40t-40.5 57t-15 66h113q1 -13 8 -26.5t19 -24.5t29.5 -18t39.5 -7q21 0 38 7t28.5 18t17.5 24.5t6 26.5h115q-1 -34 -14.5 -66t-39 -57
t-63.5 -40t-88 -15zM631 2128l-23 -4l109 -203h-121l-211 240v31l311 104l156 -342v-33h-113z" />
    <glyph glyph-name="uni1EAF" unicode="&#x1eaf;" 
d="M725 1198h2l389 -833h-776zM1094 0h358v53l-647 1399h-158l-645 -1399v-53h358l84 180h566zM1245 139h-26l-95 203h-792l-96 -203h-27l510 1104h12zM725 840l-147 -330h299zM723 1534q90 0 157 27t110.5 71t64.5 99t20 112h-127q-2 -37 -16.5 -72t-43 -62.5t-70 -44.5
t-95.5 -17t-95.5 17t-70 44.5t-43.5 62.5t-16 72h-129q-3 -57 18.5 -112t66 -99t112 -71t157.5 -27zM723 1665q50 0 88 15t63.5 40t39 57t14.5 66h-115q0 -13 -6 -26.5t-17.5 -24.5t-28.5 -18t-38 -7q-22 0 -39.5 7t-29.5 18t-19 24.5t-8 26.5h-113q1 -34 15 -66t40.5 -57
t64.5 -40t89 -15zM720 1926h-113v33l156 342l311 -104v-31l-211 -240h-121l109 203l-23 4z" />
    <glyph glyph-name="uni1EB5" unicode="&#x1eb5;" 
d="M725 1198h2l389 -833h-776zM1010 180h-566l-84 -180h-358v53l645 1399h158l647 -1399v-53h-358zM731 1243h-12l-510 -1104h27l96 203h792l95 -203h26zM725 840l-147 -330h299zM723 1534q-90 0 -157.5 27t-112 71t-66 99t-18.5 112h129q1 -37 16 -72t43.5 -62.5t70 -44.5
t95.5 -17t95.5 17t70 44.5t43 62.5t16.5 72h127q1 -57 -20 -112t-64.5 -99t-110.5 -71t-157 -27zM723 1665q-51 0 -89 15t-64.5 40t-40.5 57t-15 66h113q1 -13 8 -26.5t19 -24.5t29.5 -18t39.5 -7q21 0 38 7t28.5 18t17.5 24.5t6 26.5h115q-1 -34 -14.5 -66t-39 -57
t-63.5 -40t-88 -15zM500 1929q-88 34 -176 74q27 81 68 137.5t95 85.5t120.5 29t144.5 -31q24 -9 53.5 -21t58 -14.5t52 9.5t34.5 50q47 -20 92.5 -39t92.5 -40q-16 -75 -54 -131t-91 -88.5t-118 -37.5t-135 23q-23 9 -57 24.5t-68.5 22.5t-65 -2.5t-46.5 -50.5zM467 2054
q48 53 114.5 55t143.5 -33q43 -18 83 -26.5t76 -5.5t66.5 19t55.5 48l-17 8q-23 -27 -51.5 -40.5t-61.5 -15t-69.5 7.5t-75.5 26q-41 18 -80 26t-74.5 4.5t-67 -20t-56.5 -47.5z" />
    <glyph glyph-name="uni1EB3" unicode="&#x1eb3;" 
d="M725 1198h2l389 -833h-776zM1010 180h-566l-84 -180h-358v53l645 1399h158l647 -1399v-53h-358zM731 1243h-12l-510 -1104h27l96 203h792l95 -203h26zM725 840l-147 -330h299zM723 1534q-90 0 -157.5 27t-112 71t-66 99t-18.5 112h129q1 -37 16 -72t43.5 -62.5t70 -44.5
t95.5 -17t95.5 17t70 44.5t43 62.5t16.5 72h127q1 -57 -20 -112t-64.5 -99t-110.5 -71t-157 -27zM723 1665q-51 0 -89 15t-64.5 40t-40.5 57t-15 66h113q1 -13 8 -26.5t19 -24.5t29.5 -18t39.5 -7q21 0 38 7t28.5 18t17.5 24.5t6 26.5h115q-1 -34 -14.5 -66t-39 -57
t-63.5 -40t-88 -15zM621 1892q-4 38 2.5 67.5t19.5 54t31 44.5t36 39q25 27 46 54.5t24 65.5v-1q0 12 -5.5 21t-14.5 15t-20.5 9t-22.5 3q-24 -1 -42.5 -18.5t-18.5 -56.5h-189q-1 68 19 118.5t55 84t82 50.5t100 19q62 1 112 -18t84.5 -52t53 -77t18.5 -94
q0 -33 -7.5 -59.5t-19.5 -49t-27.5 -42t-31.5 -37.5q-13 -16 -25 -31.5t-21.5 -33.5t-15 -39t-3.5 -47h-206zM744 1968q11 30 29 54.5t39 48.5l6 8v-1q25 32 46 64.5t23 72.5q2 30 -8 56.5t-31 46.5t-52.5 31.5t-73.5 11.5q-50 0 -90 -25t-62 -79h23q18 45 52 64t75 18
q75 -2 111 -36.5t34 -84.5q-1 -18 -8 -35.5t-17 -34t-22.5 -32.5t-24.5 -29q-19 -23 -37.5 -49.5t-34.5 -69.5h23z" />
    <glyph glyph-name="uni1EB7" unicode="&#x1eb7;" 
d="M725 1198h2l389 -833h-776zM1010 180h-566l-84 -180h-358v53l645 1399h158l647 -1399v-53h-358zM731 1243h-12l-510 -1104h27l96 203h792l95 -203h26zM725 840l-147 -330h299zM723 1534q-90 0 -157.5 27t-112 71t-66 99t-18.5 112h129q1 -37 16 -72t43.5 -62.5t70 -44.5
t95.5 -17t95.5 17t70 44.5t43 62.5t16.5 72h127q1 -57 -20 -112t-64.5 -99t-110.5 -71t-157 -27zM723 1665q-51 0 -89 15t-64.5 40t-40.5 57t-15 66h113q1 -13 8 -26.5t19 -24.5t29.5 -18t39.5 -7q21 0 38 7t28.5 18t17.5 24.5t6 26.5h115q-1 -34 -14.5 -66t-39 -57
t-63.5 -40t-88 -15zM731 -507q-43 0 -80.5 13t-65 37.5t-43.5 59t-16 76.5q0 43 16 78.5t43.5 60.5t65 38.5t80.5 13.5q41 0 77.5 -13.5t63.5 -38.5t43 -60.5t16 -78.5q0 -42 -16 -76.5t-43 -59t-63.5 -37.5t-77.5 -13zM731 -403q-41 0 -67.5 21t-26.5 61t26.5 62t67.5 22
q37 0 63.5 -22t26.5 -62t-26.5 -61t-63.5 -21zM731 -421q21 0 40.5 7t34.5 19.5t24 31t9 42.5t-9 42.5t-24 30.5t-34.5 18.5t-40.5 6.5q-47 0 -79 -25t-32 -73t32 -74t79 -26z" />
    <glyph glyph-name="aring" unicode="&#xe5;" 
d="M725 1198h2l389 -833h-776zM731 1243h-12l-510 -1104h27l96 203h792l95 -203h26zM725 840l-147 -330h299zM727 1505q-53 0 -89 28.5t-36 82.5q0 53 36 81.5t89 28.5q25 0 47 -7.5t39 -21.5t27 -34.5t10 -46.5q0 -27 -10 -47.5t-27 -35t-39 -21.5t-47 -7zM727 1481
q30 0 56.5 9t47 26t32 42.5t11.5 57.5q0 31 -11.5 56t-32 42t-47 26t-56.5 9q-32 0 -59 -9t-47 -26t-31.5 -42t-11.5 -56q0 -32 11.5 -57.5t31.5 -42.5t47 -26t59 -9zM1010 180h-566l-84 -180h-358v53l612 1329q-72 28 -116.5 87.5t-44.5 146.5q0 57 21.5 102.5t58.5 78
t87 50t107 17.5q56 0 105.5 -17.5t86 -50t57.5 -78t21 -102.5q0 -87 -45 -146.5t-116 -87.5l616 -1329v-53h-358z" />
    <glyph glyph-name="uni1EA3" unicode="&#x1ea3;" 
d="M725 1198h2l389 -833h-776zM1010 180h-566l-84 -180h-358v53l645 1399h158l647 -1399v-53h-358zM731 1243h-12l-510 -1104h27l96 203h792l95 -203h26zM725 840l-147 -330h299zM621 1553q-4 38 2.5 67.5t19.5 54t31 44.5t36 39q25 27 46 54.5t24 65.5v-1q0 12 -5.5 21
t-14.5 15t-20.5 9t-22.5 3q-24 -1 -42.5 -18.5t-18.5 -56.5h-189q-1 68 19 118.5t55 84t82 50.5t100 19q62 1 112 -18t84.5 -52t53 -77t18.5 -94q0 -33 -7.5 -59.5t-19.5 -49t-27.5 -42t-31.5 -37.5q-13 -16 -25 -31.5t-21.5 -33.5t-15 -39t-3.5 -47h-206zM744 1629
q11 30 29 54.5t39 48.5l6 8v-1q25 32 46 64.5t23 72.5q2 30 -8 56.5t-31 46.5t-52.5 31.5t-73.5 11.5q-50 0 -90 -25t-62 -79h23q18 45 52 64t75 18q75 -2 111 -36.5t34 -84.5q-1 -18 -8 -35.5t-17 -34t-22.5 -32.5t-24.5 -29q-19 -23 -37.5 -49.5t-34.5 -69.5h23z" />
    <glyph glyph-name="uni1EA1" unicode="&#x1ea1;" 
d="M725 1198h2l389 -833h-776zM1010 180h-566l-84 -180h-358v53l645 1399h158l647 -1399v-53h-358zM731 1243h-12l-510 -1104h27l96 203h792l95 -203h26zM725 840l-147 -330h299zM731 -507q-43 0 -80.5 13t-65 37.5t-43.5 59t-16 76.5q0 43 16 78.5t43.5 60.5t65 38.5
t80.5 13.5q41 0 77.5 -13.5t63.5 -38.5t43 -60.5t16 -78.5q0 -42 -16 -76.5t-43 -59t-63.5 -37.5t-77.5 -13zM731 -403q-41 0 -67.5 21t-26.5 61t26.5 62t67.5 22q37 0 63.5 -22t26.5 -62t-26.5 -61t-63.5 -21zM731 -421q21 0 40.5 7t34.5 19.5t24 31t9 42.5t-9 42.5
t-24 30.5t-34.5 18.5t-40.5 6.5q-47 0 -79 -25t-32 -73t32 -74t79 -26z" />
    <glyph glyph-name="ae" unicode="&#xe6;" horiz-adv-x="1774" 
d="M500 313q-34 -78 -67 -156.5t-71 -156.5h-360v55l641 1379h979v-326h-467v-207h426v-326h-426v-249h485v-326h-827v313h-313zM641 645h172l6 424h-2zM975 1260v-762h-565q88 193 177.5 381.5t180.5 380.5h207zM975 479v-325h526v20h-508v557h449v21h-449v508h490v22h-727
l-539 -1143h19q42 85 82.5 170t80.5 170h576z" />
    <glyph glyph-name="aeacute" unicode="&#x1fd;" horiz-adv-x="1815" 
d="M500 313q-34 -78 -67 -156.5t-71 -156.5h-360v55l641 1379h979v-326h-467v-207h426v-326h-426v-249h485v-326h-827v313h-313zM641 645h172l6 424h-2zM975 1260v-762h-565q88 193 177.5 381.5t180.5 380.5h207zM975 479v-325h526v20h-508v557h449v21h-449v508h490v22h-727
l-539 -1143h19q42 85 82.5 170t80.5 170h576zM823 1534h-112v33l155 342l311 -105v-30l-210 -240h-121l108 203l-22 4z" />
    <glyph glyph-name="uni01E3" unicode="&#x1e3;" horiz-adv-x="1815" 
d="M1397 1245v94h-606v-94h606zM500 313q-34 -78 -67 -156.5t-71 -156.5h-360v55l641 1379h979v-326h-467v-207h426v-326h-426v-249h485v-326h-827v313h-313zM641 645h172l6 424h-2zM975 1260v-762h-565q88 193 177.5 381.5t180.5 380.5h207zM975 479v-325h526v20h-508v557
h449v21h-449v508h490v22h-727l-539 -1143h19q42 85 82.5 170t80.5 170h576z" />
    <glyph glyph-name="ccedilla" unicode="&#xe7;" horiz-adv-x="1610" 
d="M713 -6q-121 16 -232 69.5t-196.5 144t-136.5 218t-52 291.5q0 122 29.5 223.5t81 183t121.5 142.5t151.5 102t171 61.5t180.5 20.5q74 0 149 -14t145.5 -42.5t133.5 -72.5t113 -104.5t84.5 -138t48.5 -173.5h-360q-38 110 -118 160.5t-196 50.5q-81 0 -146.5 -29
t-112 -81.5t-72 -126t-25.5 -162.5q0 -79 25 -150.5t71.5 -126.5t112.5 -87.5t147 -33.5q58 0 110 14.5t94 43.5t71.5 72.5t44.5 101.5h360q-18 -135 -70.5 -235t-129 -167.5t-171 -106t-194.5 -50.5l-20 -92q49 -8 81 -32.5t47 -58.5t14 -74.5t-17 -80.5q-19 -45 -50.5 -76
t-71 -48.5t-85 -22.5t-91 0t-88.5 19.5t-79 37.5l16 190q17 -14 43.5 -21t52.5 -6t47 11t27 31t-2 35t-24 22t-35.5 11t-36.5 3zM797 -133q30 -8 55.5 -21.5t41.5 -33.5t21 -46t-6 -59q-11 -34 -34 -53.5t-52 -28.5t-61.5 -8.5t-63.5 8.5l-4 -18q35 -9 72 -10.5t69 9
t57.5 33.5t37.5 62q10 34 5.5 63t-20 52t-40.5 39.5t-56 25.5l45 262q142 5 254.5 76.5t175.5 202.5h-24q-68 -131 -181.5 -194.5t-257.5 -63.5q-99 0 -195 36t-171 106.5t-121.5 173.5t-46.5 237t46.5 238t121.5 175t171 107.5t195 36.5q140 0 251 -58.5t180 -179.5h24
q-35 64 -83.5 112t-107 80t-125.5 48t-139 16q-104 0 -203.5 -37.5t-177.5 -110t-126 -180t-48 -247.5q0 -139 48 -246.5t126 -180.5t177.5 -110.5t203.5 -36.5h15z" />
    <glyph glyph-name="dcroat" unicode="&#x111;" horiz-adv-x="1520" 
d="M182 874v560h541q140 -1 252 -41t196 -109t140 -160.5t84 -194.5t28.5 -212t-28 -212t-84.5 -194.5t-140 -160.5t-196 -109t-252 -41h-541v553h-172v321h172zM549 874h188v-321h-188v-219h174q86 0 150 33t107 87t64.5 122.5t21.5 140.5t-21.5 140.5t-64.5 122.5t-107 87
t-150 33h-174v-226zM360 723h-213v-18h213v-551h359q134 0 234 48.5t167 127.5t100.5 180t33.5 207t-33.5 207t-100.5 180t-167 127.5t-234 48.5h-359v-557zM379 723v537h340q103 -1 185.5 -31.5t144.5 -83t103.5 -121.5t62 -147t20.5 -160t-20.5 -160t-62 -147t-103.5 -121
t-144.5 -82.5t-185.5 -30.5h-340v529h219v18h-219z" />
    <glyph glyph-name="egrave" unicode="&#xe8;" horiz-adv-x="1229" 
d="M354 152h602v20h-579v559h520v21h-520v510h561v20h-584v-1130zM1077 1106h-530v-203h487v-325h-487v-252h549v-326h-914v1434h895v-328zM588 1739l-23 -4l109 -203h-121l-211 240v30l311 105l156 -342v-33h-113z" />
    <glyph glyph-name="eacute" unicode="&#xe9;" horiz-adv-x="1229" 
d="M354 152h602v20h-579v559h520v21h-520v510h561v20h-584v-1130zM1077 1106h-530v-203h487v-325h-487v-252h549v-326h-914v1434h895v-328zM578 1528h-113v33l156 342l311 -105v-31l-211 -239h-121l109 203l-23 4z" />
    <glyph glyph-name="ecircumflex" unicode="&#xea;" horiz-adv-x="1229" 
d="M354 152h602v20h-579v559h520v21h-520v510h561v20h-584v-1130zM1077 1106h-530v-203h487v-325h-487v-252h549v-326h-914v1434h895v-328zM760 1532l-133 156l-125 -156h-142l177 217h-21l-178 -217h-115v33l217 293h373l219 -293v-33h-114l-177 217h-22l176 -217h-135z
" />
    <glyph glyph-name="uni1EC1" unicode="&#x1ec1;" horiz-adv-x="1229" 
d="M354 152h602v20h-579v559h520v21h-520v510h561v20h-584v-1130zM1077 1106h-530v-203h487v-325h-487v-252h549v-326h-914v1434h895v-328zM760 1532l-133 156l-125 -156h-142l177 217h-21l-178 -217h-115v33l217 293h373l219 -293v-33h-114l-177 217h-22l176 -217h-135z
M520 2128l-23 -4l109 -203h-121l-211 240v31l311 104l156 -342v-33h-113z" />
    <glyph glyph-name="uni1EBF" unicode="&#x1ebf;" horiz-adv-x="1229" 
d="M354 1282h584v-20h-561v-510h520v-21h-520v-559h579v-20h-602v1130zM1077 1434h-895v-1434h914v326h-549v252h487v325h-487v203h530v328zM895 1532l-176 217h22l177 -217h114v33l-219 293h-373l-217 -293v-33h115l178 217h21l-177 -217h142l125 156l133 -156h135z
M626 1926h-113v33l156 342l311 -104v-31l-211 -240h-121l109 203l-23 4z" />
    <glyph glyph-name="uni1EC5" unicode="&#x1ec5;" horiz-adv-x="1229" 
d="M354 152h602v20h-579v559h520v21h-520v510h561v20h-584v-1130zM1077 1106h-530v-203h487v-325h-487v-252h549v-326h-914v1434h895v-328zM760 1532l-133 156l-125 -156h-142l177 217h-21l-178 -217h-115v33l217 293h373l219 -293v-33h-114l-177 217h-22l176 -217h-135z
M385 1929q-88 34 -176 74q27 81 68 137.5t95 85.5t120.5 29t144.5 -31q24 -9 53.5 -21t58 -14.5t52 9.5t34.5 50q47 -20 92.5 -39t92.5 -40q-16 -75 -54 -131t-91 -88.5t-118 -37.5t-135 23q-23 9 -57 24.5t-68.5 22.5t-65 -2.5t-46.5 -50.5zM352 2054q48 53 114.5 55
t143.5 -33q43 -18 83 -26.5t76 -5.5t66.5 19t55.5 48l-17 8q-23 -27 -51.5 -40.5t-61.5 -15t-69.5 7.5t-75.5 26q-41 18 -80 26t-74.5 4.5t-67 -20t-56.5 -47.5z" />
    <glyph glyph-name="uni1EC3" unicode="&#x1ec3;" horiz-adv-x="1229" 
d="M354 152h602v20h-579v559h520v21h-520v510h561v20h-584v-1130zM1077 1106h-530v-203h487v-325h-487v-252h549v-326h-914v1434h895v-328zM760 1532l-133 156l-125 -156h-142l177 217h-21l-178 -217h-115v33l217 293h373l219 -293v-33h-114l-177 217h-22l176 -217h-135z
M506 1892q-4 38 2.5 67.5t19.5 54t31 44.5t36 39q25 27 46 54.5t24 65.5v-1q0 12 -5.5 21t-14.5 15t-20.5 9t-22.5 3q-24 -1 -42.5 -18.5t-18.5 -56.5h-189q-1 68 19 118.5t55 84t82 50.5t100 19q62 1 112 -18t84.5 -52t53 -77t18.5 -94q0 -33 -7.5 -59.5t-19.5 -49
t-27.5 -42t-31.5 -37.5q-13 -16 -25 -31.5t-21.5 -33.5t-15 -39t-3.5 -47h-206zM629 1968q11 30 29 54.5t39 48.5l6 8v-1q25 32 46 64.5t23 72.5q2 30 -8 56.5t-31 46.5t-52.5 31.5t-73.5 11.5q-50 0 -90 -25t-62 -79h23q18 45 52 64t75 18q75 -2 111 -36.5t34 -84.5
q-1 -18 -8 -35.5t-17 -34t-22.5 -32.5t-24.5 -29q-19 -23 -37.5 -49.5t-34.5 -69.5h23z" />
    <glyph glyph-name="uni1EC7" unicode="&#x1ec7;" horiz-adv-x="1229" 
d="M354 152h602v20h-579v559h520v21h-520v510h561v20h-584v-1130zM1077 1106h-530v-203h487v-325h-487v-252h549v-326h-914v1434h895v-328zM760 1532l-133 156l-125 -156h-142l177 217h-21l-178 -217h-115v33l217 293h373l219 -293v-33h-114l-177 217h-22l176 -217h-135z
M616 -507q-43 0 -80.5 13t-65 37.5t-43.5 59t-16 76.5q0 43 16 78.5t43.5 60.5t65 38.5t80.5 13.5q41 0 77.5 -13.5t63.5 -38.5t43 -60.5t16 -78.5q0 -42 -16 -76.5t-43 -59t-63.5 -37.5t-77.5 -13zM616 -403q-41 0 -67.5 21t-26.5 61t26.5 62t67.5 22q37 0 63.5 -22
t26.5 -62t-26.5 -61t-63.5 -21zM616 -421q21 0 40.5 7t34.5 19.5t24 31t9 42.5t-9 42.5t-24 30.5t-34.5 18.5t-40.5 6.5q-47 0 -79 -25t-32 -73t32 -74t79 -26z" />
    <glyph glyph-name="uni1EBD" unicode="&#x1ebd;" horiz-adv-x="1229" 
d="M354 152h602v20h-579v559h520v21h-520v510h561v20h-584v-1130zM1077 1106h-530v-203h487v-325h-487v-252h549v-326h-914v1434h895v-328zM449 1579q-88 34 -176 74q27 81 68 137.5t95 85.5t120.5 29t144.5 -31q24 -9 53.5 -21t58 -14.5t52 9.5t34.5 50q47 -20 92.5 -39
t92.5 -40q-16 -75 -54 -131t-91 -88.5t-118 -37.5t-135 23q-23 9 -57 24.5t-68.5 22.5t-65 -2.5t-46.5 -50.5zM416 1704q48 53 114.5 55t143.5 -33q43 -18 83 -26.5t76 -5.5t66.5 19t55.5 48l-17 8q-23 -27 -51.5 -40.5t-61.5 -15t-69.5 7.5t-75.5 26q-41 18 -80 26
t-74.5 4.5t-67 -20t-56.5 -47.5z" />
    <glyph glyph-name="edieresis" unicode="&#xeb;" horiz-adv-x="1229" 
d="M354 152h602v20h-579v559h520v21h-520v510h561v20h-584v-1130zM1077 1106h-530v-203h487v-325h-487v-252h549v-326h-914v1434h895v-328zM381 1522q-40 0 -75 12.5t-60.5 35t-40.5 55t-15 71.5q0 41 15 74t40.5 56t60.5 35.5t75 12.5t75 -12.5t61 -35.5t41 -56t15 -74
q0 -39 -15 -71.5t-41 -55t-61 -35t-75 -12.5zM891 1522q-40 0 -75 12.5t-60.5 35t-40.5 55t-15 71.5q0 41 15 74t40.5 56t60.5 35.5t75 12.5t75 -12.5t60.5 -35.5t40 -56t14.5 -74q0 -39 -14.5 -71.5t-40 -55t-60.5 -35t-75 -12.5zM891 1622q-35 0 -60.5 19.5t-25.5 54.5
q0 40 25.5 60t60.5 20q37 0 62.5 -20t25.5 -60q0 -35 -25.5 -54.5t-62.5 -19.5zM891 1604q43 0 73.5 23.5t30.5 68.5q0 46 -30.5 71t-73.5 25q-45 0 -76 -25t-31 -71q0 -23 9 -40t24 -28.5t34 -17.5t40 -6zM381 1622q-34 0 -60 19.5t-26 54.5q0 40 26 60t60 20q38 0 63 -20
t25 -60q0 -35 -25 -54.5t-63 -19.5zM381 1604q45 0 75.5 23.5t30.5 68.5q0 46 -30.5 71t-75.5 25q-43 0 -74 -25t-31 -71q0 -45 31 -68.5t74 -23.5z" />
    <glyph glyph-name="uni1EBB" unicode="&#x1ebb;" horiz-adv-x="1229" 
d="M354 152h602v20h-579v559h520v21h-520v510h561v20h-584v-1130zM1077 1106h-530v-203h487v-325h-487v-252h549v-326h-914v1434h895v-328zM495 1553q-4 38 2.5 67.5t19.5 54t31 44.5t36 39q25 27 46 54.5t24 65.5v-1q0 12 -5.5 21t-14.5 15t-20.5 9t-22.5 3
q-24 -1 -42.5 -18.5t-18.5 -56.5h-189q-1 68 19 118.5t55 84t82 50.5t100 19q62 1 112 -18t84.5 -52t53 -77t18.5 -94q0 -33 -7.5 -59.5t-19.5 -49t-27.5 -42t-31.5 -37.5q-13 -16 -25 -31.5t-21.5 -33.5t-15 -39t-3.5 -47h-206zM618 1629q11 30 29 54.5t39 48.5l6 8v-1
q25 32 46 64.5t23 72.5q2 30 -8 56.5t-31 46.5t-52.5 31.5t-73.5 11.5q-50 0 -90 -25t-62 -79h23q18 45 52 64t75 18q75 -2 111 -36.5t34 -84.5q-1 -18 -8 -35.5t-17 -34t-22.5 -32.5t-24.5 -29q-19 -23 -37.5 -49.5t-34.5 -69.5h23z" />
    <glyph glyph-name="uni1EB9" unicode="&#x1eb9;" horiz-adv-x="1229" 
d="M354 152h602v20h-579v559h520v21h-520v510h561v20h-584v-1130zM1077 1106h-530v-203h487v-325h-487v-252h549v-326h-914v1434h895v-328zM616 -507q-43 0 -80.5 13t-65 37.5t-43.5 59t-16 76.5q0 43 16 78.5t43.5 60.5t65 38.5t80.5 13.5q41 0 77.5 -13.5t63.5 -38.5
t43 -60.5t16 -78.5q0 -42 -16 -76.5t-43 -59t-63.5 -37.5t-77.5 -13zM616 -403q-41 0 -67.5 21t-26.5 61t26.5 62t67.5 22q37 0 63.5 -22t26.5 -62t-26.5 -61t-63.5 -21zM616 -421q21 0 40.5 7t34.5 19.5t24 31t9 42.5t-9 42.5t-24 30.5t-34.5 18.5t-40.5 6.5q-47 0 -79 -25
t-32 -73t32 -74t79 -26z" />
    <glyph glyph-name="igrave" unicode="&#xec;" horiz-adv-x="848" 
d="M201 170v-20h450v20h-213v1092h197v20h-416v-20h199v-1092h-217zM791 322v-322h-728v322h183v792h-168v320h698v-320h-168v-792h183zM344 1735l-22 -4l108 -203h-121l-211 239v31l312 105l155 -342v-33h-112z" />
    <glyph glyph-name="iacute" unicode="&#xed;" horiz-adv-x="848" 
d="M201 170v-20h450v20h-213v1092h197v20h-416v-20h199v-1092h-217zM791 322v-322h-728v322h183v792h-168v320h698v-320h-168v-792h183zM383 1532h-113v33l156 342l311 -105v-30l-211 -240h-120l108 203l-22 4z" />
    <glyph glyph-name="icircumflex" unicode="&#xee;" horiz-adv-x="848" 
d="M201 170v-20h450v20h-213v1092h197v20h-416v-20h199v-1092h-217zM791 322v-322h-728v322h183v792h-168v320h698v-320h-168v-792h183zM557 1532l-133 156l-125 -156h-141l176 217h-21l-178 -217h-115v33l218 293h372l219 -293v-33h-114l-176 217h-23l176 -217h-135z" />
    <glyph glyph-name="idieresis" unicode="&#xef;" horiz-adv-x="848" 
d="M201 170v-20h450v20h-213v1092h197v20h-416v-20h199v-1092h-217zM791 322v-322h-728v322h183v792h-168v320h698v-320h-168v-792h183zM154 1520q-42 0 -79 13t-64.5 37.5t-43.5 59t-16 76.5q0 44 16 79t43.5 59t64.5 37t79 13t79 -13t65 -37t44 -59t16 -79
q0 -42 -16 -76.5t-44 -59t-65 -37.5t-79 -13zM696 1520q-42 0 -79 13t-64 37.5t-43 59t-16 76.5q0 44 16 79t43 59t64 37t79 13q43 0 80 -13t64.5 -37t43 -59t15.5 -79q0 -42 -15.5 -76.5t-43 -59t-64.5 -37.5t-80 -13zM696 1626q-38 0 -65 21t-27 59q0 42 27 63t65 21
q39 0 67 -21t28 -63q0 -38 -28 -59t-67 -21zM696 1608q47 0 79 25t32 73t-32 75t-79 27q-48 0 -80 -27t-32 -75q0 -24 9 -42.5t24.5 -30.5t36 -18.5t42.5 -6.5zM154 1626q-38 0 -65.5 21t-27.5 59q0 42 27.5 63t65.5 21q40 0 67 -21t27 -63q0 -38 -27 -59t-67 -21zM154 1608
q48 0 80 25t32 73t-32 75t-80 27q-47 0 -79 -27t-32 -75t32 -73t79 -25z" />
    <glyph glyph-name="uni1EC9" unicode="&#x1ec9;" horiz-adv-x="848" 
d="M215 170v-20h450v20h-213v1092h197v20h-416v-20h199v-1092h-217zM805 322v-322h-728v322h183v792h-168v320h698v-320h-168v-792h183zM316 1553q-4 38 2.5 67.5t19.5 54t31 44.5t36 39q25 27 46 54.5t24 65.5v-1q0 12 -5.5 21t-14.5 15t-20.5 9t-22.5 3
q-24 -1 -42.5 -18.5t-18.5 -56.5h-189q-1 68 19 118.5t55 84t82 50.5t100 19q62 1 112 -18t84.5 -52t53 -77t18.5 -94q0 -33 -7.5 -59.5t-19.5 -49t-27.5 -42t-31.5 -37.5q-13 -16 -25 -31.5t-21.5 -33.5t-15 -39t-3.5 -47h-206zM439 1629q11 30 29 54.5t39 48.5l6 8v-1
q25 32 46 64.5t23 72.5q2 30 -8 56.5t-31 46.5t-52.5 31.5t-73.5 11.5q-50 0 -90 -25t-62 -79h23q18 45 52 64t75 18q75 -2 111 -36.5t34 -84.5q-1 -18 -8 -35.5t-17 -34t-22.5 -32.5t-24.5 -29q-19 -23 -37.5 -49.5t-34.5 -69.5h23z" />
    <glyph glyph-name="uni1ECB" unicode="&#x1ecb;" horiz-adv-x="848" 
d="M201 170v-20h450v20h-213v1092h197v20h-416v-20h199v-1092h-217zM791 322v-322h-728v322h183v792h-168v320h698v-320h-168v-792h183zM426 -507q-43 0 -80.5 13t-65 37.5t-43.5 59t-16 76.5q0 43 16 78.5t43.5 60.5t65 38.5t80.5 13.5q41 0 77.5 -13.5t63.5 -38.5
t43 -60.5t16 -78.5q0 -42 -16 -76.5t-43 -59t-63.5 -37.5t-77.5 -13zM426 -403q-41 0 -67.5 21t-26.5 61t26.5 62t67.5 22q37 0 63.5 -22t26.5 -62t-26.5 -61t-63.5 -21zM426 -421q21 0 40.5 7t34.5 19.5t24 31t9 42.5t-9 42.5t-24 30.5t-34.5 18.5t-40.5 6.5q-47 0 -79 -25
t-32 -73t32 -74t79 -26z" />
    <glyph glyph-name="dotlessi" unicode="&#x131;" horiz-adv-x="848" 
d="M201 170v-20h450v20h-213v1092h197v20h-416v-20h199v-1092h-217zM791 322v-322h-728v322h183v792h-168v320h698v-320h-168v-792h183z" />
    <glyph glyph-name="ij" unicode="&#x133;" horiz-adv-x="848" 
d="M201 170v-20h450v20h-213v1092h197v20h-416v-20h199v-1092h-217zM791 322v-322h-728v322h183v792h-168v320h698v-320h-168v-792h183zM1635 477q0 -117 -45 -209t-121 -155t-176 -96t-211 -33t-208.5 33t-170.5 96t-115.5 155t-42.5 209v187h346v-181q0 -42 15 -74
t40.5 -54t60.5 -33t75 -11q80 0 129 43t49 129v625h-209v326h584v-957zM703 524v-41q0 -81 29 -145t79.5 -108.5t118.5 -68.5t146 -24q79 0 149 22.5t122.5 66.5t83 108.5t30.5 148.5v801h-273v-20h250v-781q0 -81 -28 -141.5t-77 -101.5t-114.5 -61.5t-140.5 -20.5
q-74 0 -138.5 21.5t-112 63t-75 102t-27.5 138.5v41h-22z" />
    <glyph glyph-name="ntilde" unicode="&#xf1;" horiz-adv-x="1597" 
d="M561 705v-705h-379v1440h133l725 -709v703h375v-1436h-131zM356 141h25v969q108 -103 214.5 -208t211.5 -208q103 -102 206 -202t210 -203h16v1005h-22v-970q-109 106 -215 210.5t-216 206.5q-100 103 -202 203.5t-205 200.5h-23v-1004zM569 1550q-86 34 -176 74
q27 81 68 137.5t95 85.5t120.5 29t144.5 -31q24 -9 53.5 -20.5t58 -14.5t52 9t35.5 51q46 -20 92 -39t92 -41q-16 -75 -54 -131t-91 -88t-117.5 -37t-134.5 22q-16 6 -36.5 15.5t-43.5 18t-46.5 13.5t-44.5 2.5t-38.5 -15.5t-28.5 -40zM537 1675q48 53 114 55t144 -32
q43 -18 83 -26.5t75.5 -5.5t66.5 19t55 48l-16 8q-23 -28 -52 -41.5t-62 -15t-69.5 7.5t-74.5 26q-41 18 -80 26t-75 4.5t-67.5 -20t-56.5 -47.5z" />
    <glyph glyph-name="ograve" unicode="&#xf2;" horiz-adv-x="1659" 
d="M274 715q0 -116 31 -208t84.5 -161.5t124.5 -115.5t151 -69.5t165 -23t165 23.5t151 69t124.5 115.5t84.5 161.5t31 208q0 115 -31 207.5t-84.5 162t-124.5 115.5t-151 69t-165 23t-165 -23.5t-151 -69.5t-124.5 -115t-84.5 -161.5t-31 -207.5zM1565 715
q0 -149 -41 -268.5t-112 -209t-165 -149t-200 -89.5t-217.5 -29.5t-217.5 30t-200 89t-165 149t-112 209t-41 268.5t41 267.5t112 208t165 149t200 89t217.5 29.5t217.5 -29.5t200 -89t165 -149t112 -208t41 -267.5zM471 715q0 -98 31 -171t81.5 -121.5t115 -73t132 -24.5
t132 24.5t115 73t81.5 121.5t31 171q0 97 -31 169.5t-81.5 121t-115 72.5t-132 24t-132 -24t-115 -72.5t-81.5 -121t-31 -169.5zM1366 715q0 -138 -46 -242t-121.5 -173.5t-171.5 -105t-196.5 -36.5t-196.5 33.5t-171.5 104t-121.5 174t-46 245.5q0 140 46 244.5
t121.5 173.5t171.5 103.5t196.5 33.5t196.5 -36t171.5 -104.5t121.5 -173.5t46 -241zM743 1761l-22 -4l108 -203h-120l-211 240v31l311 104l156 -342v-33h-113z" />
    <glyph glyph-name="oacute" unicode="&#xf3;" horiz-adv-x="1659" 
d="M274 715q0 -116 31 -208t84.5 -161.5t124.5 -115.5t151 -69.5t165 -23t165 23.5t151 69t124.5 115.5t84.5 161.5t31 208q0 115 -31 207.5t-84.5 162t-124.5 115.5t-151 69t-165 23t-165 -23.5t-151 -69.5t-124.5 -115t-84.5 -161.5t-31 -207.5zM1565 715
q0 -149 -41 -268.5t-112 -209t-165 -149t-200 -89.5t-217.5 -29.5t-217.5 30t-200 89t-165 149t-112 209t-41 268.5t41 267.5t112 208t165 149t200 89t217.5 29.5t217.5 -29.5t200 -89t165 -149t112 -208t41 -267.5zM471 715q0 -98 31 -171t81.5 -121.5t115 -73t132 -24.5
t132 24.5t115 73t81.5 121.5t31 171q0 97 -31 169.5t-81.5 121t-115 72.5t-132 24t-132 -24t-115 -72.5t-81.5 -121t-31 -169.5zM1366 715q0 -138 -46 -242t-121.5 -173.5t-171.5 -105t-196.5 -36.5t-196.5 33.5t-171.5 104t-121.5 174t-46 245.5q0 140 46 244.5
t121.5 173.5t171.5 103.5t196.5 33.5t196.5 -36t171.5 -104.5t121.5 -173.5t46 -241zM786 1550h-112v33l155 342l312 -104v-31l-211 -240h-121l109 203l-23 4z" />
    <glyph glyph-name="ocircumflex" unicode="&#xf4;" horiz-adv-x="1659" 
d="M274 715q0 -116 31 -208t84.5 -161.5t124.5 -115.5t151 -69.5t165 -23t165 23.5t151 69t124.5 115.5t84.5 161.5t31 208q0 115 -31 207.5t-84.5 162t-124.5 115.5t-151 69t-165 23t-165 -23.5t-151 -69.5t-124.5 -115t-84.5 -161.5t-31 -207.5zM1565 715
q0 -149 -41 -268.5t-112 -209t-165 -149t-200 -89.5t-217.5 -29.5t-217.5 30t-200 89t-165 149t-112 209t-41 268.5t41 267.5t112 208t165 149t200 89t217.5 29.5t217.5 -29.5t200 -89t165 -149t112 -208t41 -267.5zM471 715q0 -98 31 -171t81.5 -121.5t115 -73t132 -24.5
t132 24.5t115 73t81.5 121.5t31 171q0 97 -31 169.5t-81.5 121t-115 72.5t-132 24t-132 -24t-115 -72.5t-81.5 -121t-31 -169.5zM1366 715q0 -138 -46 -242t-121.5 -173.5t-171.5 -105t-196.5 -36.5t-196.5 33.5t-171.5 104t-121.5 174t-46 245.5q0 140 46 244.5
t121.5 173.5t171.5 103.5t196.5 33.5t196.5 -36t171.5 -104.5t121.5 -173.5t46 -241zM961 1550l-134 156l-125 -156h-141l176 217h-20l-178 -217h-115v33l217 293h373l219 -293v-33h-115l-176 217h-22l176 -217h-135z" />
    <glyph glyph-name="uni1ED3" unicode="&#x1ed3;" horiz-adv-x="1659" 
d="M274 715q0 -116 31 -208t84.5 -161.5t124.5 -115.5t151 -69.5t165 -23t165 23.5t151 69t124.5 115.5t84.5 161.5t31 208q0 115 -31 207.5t-84.5 162t-124.5 115.5t-151 69t-165 23t-165 -23.5t-151 -69.5t-124.5 -115t-84.5 -161.5t-31 -207.5zM1565 715
q0 -149 -41 -268.5t-112 -209t-165 -149t-200 -89.5t-217.5 -29.5t-217.5 30t-200 89t-165 149t-112 209t-41 268.5t41 267.5t112 208t165 149t200 89t217.5 29.5t217.5 -29.5t200 -89t165 -149t112 -208t41 -267.5zM471 715q0 -98 31 -171t81.5 -121.5t115 -73t132 -24.5
t132 24.5t115 73t81.5 121.5t31 171q0 97 -31 169.5t-81.5 121t-115 72.5t-132 24t-132 -24t-115 -72.5t-81.5 -121t-31 -169.5zM1366 715q0 -138 -46 -242t-121.5 -173.5t-171.5 -105t-196.5 -36.5t-196.5 33.5t-171.5 104t-121.5 174t-46 245.5q0 140 46 244.5
t121.5 173.5t171.5 103.5t196.5 33.5t196.5 -36t171.5 -104.5t121.5 -173.5t46 -241zM961 1550l-134 156l-125 -156h-141l176 217h-20l-178 -217h-115v33l217 293h373l219 -293v-33h-115l-176 217h-22l176 -217h-135zM728 2128l-23 -4l109 -203h-121l-211 240v31l311 104
l156 -342v-33h-113z" />
    <glyph glyph-name="uni1ED1" unicode="&#x1ed1;" horiz-adv-x="1659" 
d="M274 715q0 115 31 207.5t84.5 161.5t124.5 115t151 69.5t165 23.5t165 -23t151 -69t124.5 -115.5t84.5 -162t31 -207.5q0 -116 -31 -208t-84.5 -161.5t-124.5 -115.5t-151 -69t-165 -23.5t-165 23t-151 69.5t-124.5 115.5t-84.5 161.5t-31 208zM1565 715q0 149 -41 267.5
t-112 208t-165 149t-200 89t-217.5 29.5t-217.5 -29.5t-200 -89t-165 -149t-112 -208t-41 -267.5t41 -268.5t112 -209t165 -149t200 -89t217.5 -30t217.5 29.5t200 89.5t165 149t112 209t41 268.5zM471 715q0 -98 31 -171t81.5 -121.5t115 -73t132 -24.5t132 24.5t115 73
t81.5 121.5t31 171q0 97 -31 169.5t-81.5 121t-115 72.5t-132 24t-132 -24t-115 -72.5t-81.5 -121t-31 -169.5zM1366 715q0 -138 -46 -242t-121.5 -173.5t-171.5 -105t-196.5 -36.5t-196.5 33.5t-171.5 104t-121.5 174t-46 245.5q0 140 46 244.5t121.5 173.5t171.5 103.5
t196.5 33.5t196.5 -36t171.5 -104.5t121.5 -173.5t46 -241zM1096 1550l-176 217h22l176 -217h115v33l-219 293h-373l-217 -293v-33h115l178 217h20l-176 -217h141l125 156l134 -156h135zM834 1926h-113v33l156 342l311 -104v-31l-211 -240h-121l109 203l-23 4z" />
    <glyph glyph-name="uni1ED7" unicode="&#x1ed7;" horiz-adv-x="1659" 
d="M274 715q0 -116 31 -208t84.5 -161.5t124.5 -115.5t151 -69.5t165 -23t165 23.5t151 69t124.5 115.5t84.5 161.5t31 208q0 115 -31 207.5t-84.5 162t-124.5 115.5t-151 69t-165 23t-165 -23.5t-151 -69.5t-124.5 -115t-84.5 -161.5t-31 -207.5zM1565 715
q0 -149 -41 -268.5t-112 -209t-165 -149t-200 -89.5t-217.5 -29.5t-217.5 30t-200 89t-165 149t-112 209t-41 268.5t41 267.5t112 208t165 149t200 89t217.5 29.5t217.5 -29.5t200 -89t165 -149t112 -208t41 -267.5zM471 715q0 -98 31 -171t81.5 -121.5t115 -73t132 -24.5
t132 24.5t115 73t81.5 121.5t31 171q0 97 -31 169.5t-81.5 121t-115 72.5t-132 24t-132 -24t-115 -72.5t-81.5 -121t-31 -169.5zM1366 715q0 -138 -46 -242t-121.5 -173.5t-171.5 -105t-196.5 -36.5t-196.5 33.5t-171.5 104t-121.5 174t-46 245.5q0 140 46 244.5
t121.5 173.5t171.5 103.5t196.5 33.5t196.5 -36t171.5 -104.5t121.5 -173.5t46 -241zM961 1550l-134 156l-125 -156h-141l176 217h-20l-178 -217h-115v33l217 293h373l219 -293v-33h-115l-176 217h-22l176 -217h-135zM600 1929q-88 34 -176 74q27 81 68 137.5t95 85.5
t120.5 29t144.5 -31q24 -9 53.5 -21t58 -14.5t52 9.5t34.5 50q47 -20 92.5 -39t92.5 -40q-16 -75 -54 -131t-91 -88.5t-118 -37.5t-135 23q-23 9 -57 24.5t-68.5 22.5t-65 -2.5t-46.5 -50.5zM567 2054q48 53 114.5 55t143.5 -33q43 -18 83 -26.5t76 -5.5t66.5 19t55.5 48
l-17 8q-23 -27 -51.5 -40.5t-61.5 -15t-69.5 7.5t-75.5 26q-41 18 -80 26t-74.5 4.5t-67 -20t-56.5 -47.5z" />
    <glyph glyph-name="uni1ED5" unicode="&#x1ed5;" horiz-adv-x="1659" 
d="M274 715q0 -116 31 -208t84.5 -161.5t124.5 -115.5t151 -69.5t165 -23t165 23.5t151 69t124.5 115.5t84.5 161.5t31 208q0 115 -31 207.5t-84.5 162t-124.5 115.5t-151 69t-165 23t-165 -23.5t-151 -69.5t-124.5 -115t-84.5 -161.5t-31 -207.5zM1565 715
q0 -149 -41 -268.5t-112 -209t-165 -149t-200 -89.5t-217.5 -29.5t-217.5 30t-200 89t-165 149t-112 209t-41 268.5t41 267.5t112 208t165 149t200 89t217.5 29.5t217.5 -29.5t200 -89t165 -149t112 -208t41 -267.5zM471 715q0 -98 31 -171t81.5 -121.5t115 -73t132 -24.5
t132 24.5t115 73t81.5 121.5t31 171q0 97 -31 169.5t-81.5 121t-115 72.5t-132 24t-132 -24t-115 -72.5t-81.5 -121t-31 -169.5zM1366 715q0 -138 -46 -242t-121.5 -173.5t-171.5 -105t-196.5 -36.5t-196.5 33.5t-171.5 104t-121.5 174t-46 245.5q0 140 46 244.5
t121.5 173.5t171.5 103.5t196.5 33.5t196.5 -36t171.5 -104.5t121.5 -173.5t46 -241zM961 1520l-134 156l-125 -156h-141l176 217h-20l-178 -217h-115v33l217 293h373l219 -293v-33h-115l-176 217h-22l176 -217h-135zM721 1892q-4 38 2.5 67.5t19.5 54t31 44.5t36 39
q25 27 46 54.5t24 65.5v-1q0 12 -5.5 21t-14.5 15t-20.5 9t-22.5 3q-24 -1 -42.5 -18.5t-18.5 -56.5h-189q-1 68 19 118.5t55 84t82 50.5t100 19q62 1 112 -18t84.5 -52t53 -77t18.5 -94q0 -33 -7.5 -59.5t-19.5 -49t-27.5 -42t-31.5 -37.5q-13 -16 -25 -31.5t-21.5 -33.5
t-15 -39t-3.5 -47h-206zM844 1968q11 30 29 54.5t39 48.5l6 8v-1q25 32 46 64.5t23 72.5q2 30 -8 56.5t-31 46.5t-52.5 31.5t-73.5 11.5q-50 0 -90 -25t-62 -79h23q18 45 52 64t75 18q75 -2 111 -36.5t34 -84.5q-1 -18 -8 -35.5t-17 -34t-22.5 -32.5t-24.5 -29
q-19 -23 -37.5 -49.5t-34.5 -69.5h23z" />
    <glyph glyph-name="uni1ED9" unicode="&#x1ed9;" horiz-adv-x="1659" 
d="M274 715q0 -116 31 -208t84.5 -161.5t124.5 -115.5t151 -69.5t165 -23t165 23.5t151 69t124.5 115.5t84.5 161.5t31 208q0 115 -31 207.5t-84.5 162t-124.5 115.5t-151 69t-165 23t-165 -23.5t-151 -69.5t-124.5 -115t-84.5 -161.5t-31 -207.5zM1565 715
q0 -149 -41 -268.5t-112 -209t-165 -149t-200 -89.5t-217.5 -29.5t-217.5 30t-200 89t-165 149t-112 209t-41 268.5t41 267.5t112 208t165 149t200 89t217.5 29.5t217.5 -29.5t200 -89t165 -149t112 -208t41 -267.5zM471 715q0 -98 31 -171t81.5 -121.5t115 -73t132 -24.5
t132 24.5t115 73t81.5 121.5t31 171q0 97 -31 169.5t-81.5 121t-115 72.5t-132 24t-132 -24t-115 -72.5t-81.5 -121t-31 -169.5zM1366 715q0 -138 -46 -242t-121.5 -173.5t-171.5 -105t-196.5 -36.5t-196.5 33.5t-171.5 104t-121.5 174t-46 245.5q0 140 46 244.5
t121.5 173.5t171.5 103.5t196.5 33.5t196.5 -36t171.5 -104.5t121.5 -173.5t46 -241zM961 1550l-134 156l-125 -156h-141l176 217h-20l-178 -217h-115v33l217 293h373l219 -293v-33h-115l-176 217h-22l176 -217h-135zM831 -507q-43 0 -80.5 13t-65 37.5t-43.5 59t-16 76.5
q0 43 16 78.5t43.5 60.5t65 38.5t80.5 13.5q41 0 77.5 -13.5t63.5 -38.5t43 -60.5t16 -78.5q0 -42 -16 -76.5t-43 -59t-63.5 -37.5t-77.5 -13zM831 -403q-41 0 -67.5 21t-26.5 61t26.5 62t67.5 22q37 0 63.5 -22t26.5 -62t-26.5 -61t-63.5 -21zM831 -421q21 0 40.5 7
t34.5 19.5t24 31t9 42.5t-9 42.5t-24 30.5t-34.5 18.5t-40.5 6.5q-47 0 -79 -25t-32 -73t32 -74t79 -26z" />
    <glyph glyph-name="otilde" unicode="&#xf5;" horiz-adv-x="1659" 
d="M274 715q0 -116 31 -208t84.5 -161.5t124.5 -115.5t151 -69.5t165 -23t165 23.5t151 69t124.5 115.5t84.5 161.5t31 208q0 115 -31 207.5t-84.5 162t-124.5 115.5t-151 69t-165 23t-165 -23.5t-151 -69.5t-124.5 -115t-84.5 -161.5t-31 -207.5zM1565 715
q0 -149 -41 -268.5t-112 -209t-165 -149t-200 -89.5t-217.5 -29.5t-217.5 30t-200 89t-165 149t-112 209t-41 268.5t41 267.5t112 208t165 149t200 89t217.5 29.5t217.5 -29.5t200 -89t165 -149t112 -208t41 -267.5zM471 715q0 -98 31 -171t81.5 -121.5t115 -73t132 -24.5
t132 24.5t115 73t81.5 121.5t31 171q0 97 -31 169.5t-81.5 121t-115 72.5t-132 24t-132 -24t-115 -72.5t-81.5 -121t-31 -169.5zM1366 715q0 -138 -46 -242t-121.5 -173.5t-171.5 -105t-196.5 -36.5t-196.5 33.5t-171.5 104t-121.5 174t-46 245.5q0 140 46 244.5
t121.5 173.5t171.5 103.5t196.5 33.5t196.5 -36t171.5 -104.5t121.5 -173.5t46 -241zM600 1559q-45 17 -88 35t-88 38q27 81 68 137.5t95 85.5t120.5 29t144.5 -31q24 -9 53.5 -20.5t58 -14t52 9.5t35.5 50q46 -20 92 -39t92 -41q-16 -75 -54 -131t-91 -88t-117.5 -37
t-134.5 23q-23 9 -57 24.5t-69 22t-65.5 -3t-46.5 -49.5zM567 1683q48 52 114.5 54.5t143.5 -31.5q43 -18 83 -26.5t76 -5.5t66.5 19t55.5 48l-16 8q-23 -28 -52 -41.5t-62 -15t-69.5 7.5t-75.5 26q-41 18 -79.5 26.5t-74.5 5t-67.5 -20t-56.5 -47.5z" />
    <glyph glyph-name="odieresis" unicode="&#xf6;" horiz-adv-x="1659" 
d="M274 715q0 -116 31 -208t84.5 -161.5t124.5 -115.5t151 -69.5t165 -23t165 23.5t151 69t124.5 115.5t84.5 161.5t31 208q0 115 -31 207.5t-84.5 162t-124.5 115.5t-151 69t-165 23t-165 -23.5t-151 -69.5t-124.5 -115t-84.5 -161.5t-31 -207.5zM1565 715
q0 -149 -41 -268.5t-112 -209t-165 -149t-200 -89.5t-217.5 -29.5t-217.5 30t-200 89t-165 149t-112 209t-41 268.5t41 267.5t112 208t165 149t200 89t217.5 29.5t217.5 -29.5t200 -89t165 -149t112 -208t41 -267.5zM471 715q0 -98 31 -171t81.5 -121.5t115 -73t132 -24.5
t132 24.5t115 73t81.5 121.5t31 171q0 97 -31 169.5t-81.5 121t-115 72.5t-132 24t-132 -24t-115 -72.5t-81.5 -121t-31 -169.5zM1366 715q0 -138 -46 -242t-121.5 -173.5t-171.5 -105t-196.5 -36.5t-196.5 33.5t-171.5 104t-121.5 174t-46 245.5q0 140 46 244.5
t121.5 173.5t171.5 103.5t196.5 33.5t196.5 -36t171.5 -104.5t121.5 -173.5t46 -241zM557 1532q-42 0 -79 13.5t-64.5 37.5t-43.5 58.5t-16 76.5q0 44 16 79t43.5 59.5t64.5 37.5t79 13t79.5 -13t65.5 -37.5t44 -59.5t16 -79q0 -42 -16 -76.5t-44 -58.5t-65.5 -37.5
t-79.5 -13.5zM1100 1532q-42 0 -79 13.5t-64.5 37.5t-43.5 58.5t-16 76.5q0 44 16 79t43.5 59.5t64.5 37.5t79 13q43 0 80 -13t64.5 -37.5t43 -59.5t15.5 -79q0 -42 -15.5 -76.5t-43 -58.5t-64.5 -37.5t-80 -13.5zM1100 1638q-38 0 -65 21t-27 59q0 42 27 63t65 21t66 -21
t28 -63q0 -38 -28 -59t-66 -21zM1100 1620q46 0 78 25t32 73t-32 75.5t-78 27.5q-48 0 -80.5 -27.5t-32.5 -75.5q0 -24 9 -42t25 -30.5t36 -19t43 -6.5zM557 1638q-37 0 -64.5 21t-27.5 59q0 42 27.5 63t64.5 21q40 0 67 -21t27 -63q0 -38 -27 -59t-67 -21zM557 1620
q48 0 80.5 25t32.5 73t-32.5 75.5t-80.5 27.5q-46 0 -78.5 -27.5t-32.5 -75.5t32.5 -73t78.5 -25z" />
    <glyph glyph-name="uni1ECF" unicode="&#x1ecf;" horiz-adv-x="1659" 
d="M274 715q0 -116 31 -208t84.5 -161.5t124.5 -115.5t151 -69.5t165 -23t165 23.5t151 69t124.5 115.5t84.5 161.5t31 208q0 115 -31 207.5t-84.5 162t-124.5 115.5t-151 69t-165 23t-165 -23.5t-151 -69.5t-124.5 -115t-84.5 -161.5t-31 -207.5zM1565 715
q0 -149 -41 -268.5t-112 -209t-165 -149t-200 -89.5t-217.5 -29.5t-217.5 30t-200 89t-165 149t-112 209t-41 268.5t41 267.5t112 208t165 149t200 89t217.5 29.5t217.5 -29.5t200 -89t165 -149t112 -208t41 -267.5zM471 715q0 -98 31 -171t81.5 -121.5t115 -73t132 -24.5
t132 24.5t115 73t81.5 121.5t31 171q0 97 -31 169.5t-81.5 121t-115 72.5t-132 24t-132 -24t-115 -72.5t-81.5 -121t-31 -169.5zM1366 715q0 -138 -46 -242t-121.5 -173.5t-171.5 -105t-196.5 -36.5t-196.5 33.5t-171.5 104t-121.5 174t-46 245.5q0 140 46 244.5
t121.5 173.5t171.5 103.5t196.5 33.5t196.5 -36t171.5 -104.5t121.5 -173.5t46 -241zM721 1553q-4 38 2.5 67.5t19.5 54t31 44.5t36 39q25 27 46 54.5t24 65.5v-1q0 12 -5.5 21t-14.5 15t-20.5 9t-22.5 3q-24 -1 -42.5 -18.5t-18.5 -56.5h-189q-1 68 19 118.5t55 84t82 50.5
t100 19q62 1 112 -18t84.5 -52t53 -77t18.5 -94q0 -33 -7.5 -59.5t-19.5 -49t-27.5 -42t-31.5 -37.5q-13 -16 -25 -31.5t-21.5 -33.5t-15 -39t-3.5 -47h-206zM844 1629q11 30 29 54.5t39 48.5l6 8v-1q25 32 46 64.5t23 72.5q2 30 -8 56.5t-31 46.5t-52.5 31.5t-73.5 11.5
q-50 0 -90 -25t-62 -79h23q18 45 52 64t75 18q75 -2 111 -36.5t34 -84.5q-1 -18 -8 -35.5t-17 -34t-22.5 -32.5t-24.5 -29q-19 -23 -37.5 -49.5t-34.5 -69.5h23z" />
    <glyph glyph-name="uni1ECD" unicode="&#x1ecd;" horiz-adv-x="1659" 
d="M274 715q0 -116 31 -208t84.5 -161.5t124.5 -115.5t151 -69.5t165 -23t165 23.5t151 69t124.5 115.5t84.5 161.5t31 208q0 115 -31 207.5t-84.5 162t-124.5 115.5t-151 69t-165 23t-165 -23.5t-151 -69.5t-124.5 -115t-84.5 -161.5t-31 -207.5zM1565 715
q0 -149 -41 -268.5t-112 -209t-165 -149t-200 -89.5t-217.5 -29.5t-217.5 30t-200 89t-165 149t-112 209t-41 268.5t41 267.5t112 208t165 149t200 89t217.5 29.5t217.5 -29.5t200 -89t165 -149t112 -208t41 -267.5zM471 715q0 -98 31 -171t81.5 -121.5t115 -73t132 -24.5
t132 24.5t115 73t81.5 121.5t31 171q0 97 -31 169.5t-81.5 121t-115 72.5t-132 24t-132 -24t-115 -72.5t-81.5 -121t-31 -169.5zM1366 715q0 -138 -46 -242t-121.5 -173.5t-171.5 -105t-196.5 -36.5t-196.5 33.5t-171.5 104t-121.5 174t-46 245.5q0 140 46 244.5
t121.5 173.5t171.5 103.5t196.5 33.5t196.5 -36t171.5 -104.5t121.5 -173.5t46 -241zM831 -507q-43 0 -80.5 13t-65 37.5t-43.5 59t-16 76.5q0 43 16 78.5t43.5 60.5t65 38.5t80.5 13.5q41 0 77.5 -13.5t63.5 -38.5t43 -60.5t16 -78.5q0 -42 -16 -76.5t-43 -59t-63.5 -37.5
t-77.5 -13zM831 -403q-41 0 -67.5 21t-26.5 61t26.5 62t67.5 22q37 0 63.5 -22t26.5 -62t-26.5 -61t-63.5 -21zM831 -421q21 0 40.5 7t34.5 19.5t24 31t9 42.5t-9 42.5t-24 30.5t-34.5 18.5t-40.5 6.5q-47 0 -79 -25t-32 -73t32 -74t79 -26z" />
    <glyph glyph-name="ohorn" unicode="&#x1a1;" horiz-adv-x="1659" 
d="M1565 715q0 -149 -41 -268.5t-112 -209t-165 -149t-200 -89.5t-217.5 -29.5t-217.5 30t-200 89t-165 149t-112 209t-41 268.5q0 173 55.5 306.5t148 226t212 144.5t248 63t256 -18.5t235.5 -99.5q28 0 49 8t35.5 21.5t22.5 31t10 36.5h150q-4 -63 -37.5 -119.5
t-98.5 -87.5l15 -17q68 34 104 94.5t39 129.5h168q1 -53 -13 -105t-42 -98t-70.5 -84.5t-99.5 -65.5q38 -77 61 -167.5t23 -198.5zM274 715q0 -116 31 -208t84.5 -161.5t124.5 -115.5t151 -69.5t165 -23t165 23.5t151 69t124.5 115.5t84.5 161.5t31 208q0 115 -31 207.5
t-84.5 162t-124.5 115.5t-151 69t-165 23t-165 -23.5t-151 -69.5t-124.5 -115t-84.5 -161.5t-31 -207.5zM1366 715q0 -138 -46 -242t-121.5 -173.5t-171.5 -105t-196.5 -36.5t-196.5 33.5t-171.5 104t-121.5 174t-46 245.5q0 140 46 244.5t121.5 173.5t171.5 103.5
t196.5 33.5t196.5 -36t171.5 -104.5t121.5 -173.5t46 -241zM471 715q0 -98 31 -171t81.5 -121.5t115 -73t132 -24.5t132 24.5t115 73t81.5 121.5t31 171q0 97 -31 169.5t-81.5 121t-115 72.5t-132 24t-132 -24t-115 -72.5t-81.5 -121t-31 -169.5z" />
    <glyph glyph-name="uni1EDD" unicode="&#x1edd;" horiz-adv-x="1659" 
d="M743 1761l-22 -4l108 -203h-120l-211 240v31l311 104l156 -342v-33h-113zM1565 715q0 -149 -41 -268.5t-112 -209t-165 -149t-200 -89.5t-217.5 -29.5t-217.5 30t-200 89t-165 149t-112 209t-41 268.5q0 173 55.5 306.5t148 226t212 144.5t248 63t256 -18.5t235.5 -99.5
q28 0 49 8t35.5 21.5t22.5 31t10 36.5h150q-4 -63 -37.5 -119.5t-98.5 -87.5l15 -17q68 34 104 94.5t39 129.5h168q1 -53 -13 -105t-42 -98t-70.5 -84.5t-99.5 -65.5q38 -77 61 -167.5t23 -198.5zM274 715q0 -116 31 -208t84.5 -161.5t124.5 -115.5t151 -69.5t165 -23
t165 23.5t151 69t124.5 115.5t84.5 161.5t31 208q0 115 -31 207.5t-84.5 162t-124.5 115.5t-151 69t-165 23t-165 -23.5t-151 -69.5t-124.5 -115t-84.5 -161.5t-31 -207.5zM1366 715q0 -138 -46 -242t-121.5 -173.5t-171.5 -105t-196.5 -36.5t-196.5 33.5t-171.5 104
t-121.5 174t-46 245.5q0 140 46 244.5t121.5 173.5t171.5 103.5t196.5 33.5t196.5 -36t171.5 -104.5t121.5 -173.5t46 -241zM471 715q0 -98 31 -171t81.5 -121.5t115 -73t132 -24.5t132 24.5t115 73t81.5 121.5t31 171q0 97 -31 169.5t-81.5 121t-115 72.5t-132 24t-132 -24
t-115 -72.5t-81.5 -121t-31 -169.5z" />
    <glyph glyph-name="uni1EDB" unicode="&#x1edb;" horiz-adv-x="1659" 
d="M786 1550h-112v33l155 342l312 -104v-31l-211 -240h-121l109 203l-23 4zM1565 715q0 -149 -41 -268.5t-112 -209t-165 -149t-200 -89.5t-217.5 -29.5t-217.5 30t-200 89t-165 149t-112 209t-41 268.5q0 173 55.5 306.5t148 226t212 144.5t248 63t256 -18.5t235.5 -99.5
q28 0 49 8t35.5 21.5t22.5 31t10 36.5h150q-4 -63 -37.5 -119.5t-98.5 -87.5l15 -17q68 34 104 94.5t39 129.5h168q1 -53 -13 -105t-42 -98t-70.5 -84.5t-99.5 -65.5q38 -77 61 -167.5t23 -198.5zM274 715q0 -116 31 -208t84.5 -161.5t124.5 -115.5t151 -69.5t165 -23
t165 23.5t151 69t124.5 115.5t84.5 161.5t31 208q0 115 -31 207.5t-84.5 162t-124.5 115.5t-151 69t-165 23t-165 -23.5t-151 -69.5t-124.5 -115t-84.5 -161.5t-31 -207.5zM1366 715q0 -138 -46 -242t-121.5 -173.5t-171.5 -105t-196.5 -36.5t-196.5 33.5t-171.5 104
t-121.5 174t-46 245.5q0 140 46 244.5t121.5 173.5t171.5 103.5t196.5 33.5t196.5 -36t171.5 -104.5t121.5 -173.5t46 -241zM471 715q0 -98 31 -171t81.5 -121.5t115 -73t132 -24.5t132 24.5t115 73t81.5 121.5t31 171q0 97 -31 169.5t-81.5 121t-115 72.5t-132 24t-132 -24
t-115 -72.5t-81.5 -121t-31 -169.5z" />
    <glyph glyph-name="uni1EE1" unicode="&#x1ee1;" horiz-adv-x="1659" 
d="M1565 715q0 -149 -41 -268.5t-112 -209t-165 -149t-200 -89.5t-217.5 -29.5t-217.5 30t-200 89t-165 149t-112 209t-41 268.5q0 173 55.5 306.5t148 226t212 144.5t248 63t256 -18.5t235.5 -99.5q28 0 49 8t35.5 21.5t22.5 31t10 36.5h150q-4 -63 -37.5 -119.5
t-98.5 -87.5l15 -17q68 34 104 94.5t39 129.5h168q1 -53 -13 -105t-42 -98t-70.5 -84.5t-99.5 -65.5q38 -77 61 -167.5t23 -198.5zM274 715q0 -116 31 -208t84.5 -161.5t124.5 -115.5t151 -69.5t165 -23t165 23.5t151 69t124.5 115.5t84.5 161.5t31 208q0 115 -31 207.5
t-84.5 162t-124.5 115.5t-151 69t-165 23t-165 -23.5t-151 -69.5t-124.5 -115t-84.5 -161.5t-31 -207.5zM1366 715q0 -138 -46 -242t-121.5 -173.5t-171.5 -105t-196.5 -36.5t-196.5 33.5t-171.5 104t-121.5 174t-46 245.5q0 140 46 244.5t121.5 173.5t171.5 103.5
t196.5 33.5t196.5 -36t171.5 -104.5t121.5 -173.5t46 -241zM471 715q0 -98 31 -171t81.5 -121.5t115 -73t132 -24.5t132 24.5t115 73t81.5 121.5t31 171q0 97 -31 169.5t-81.5 121t-115 72.5t-132 24t-132 -24t-115 -72.5t-81.5 -121t-31 -169.5zM600 1579q-88 34 -176 74
q27 81 68 137.5t95 85.5t120.5 29t144.5 -31q24 -9 53.5 -21t58 -14.5t52 9.5t34.5 50q47 -20 92.5 -39t92.5 -40q-16 -75 -54 -131t-91 -88.5t-118 -37.5t-135 23q-23 9 -57 24.5t-68.5 22.5t-65 -2.5t-46.5 -50.5zM567 1704q48 53 114.5 55t143.5 -33q43 -18 83 -26.5
t76 -5.5t66.5 19t55.5 48l-17 8q-23 -27 -51.5 -40.5t-61.5 -15t-69.5 7.5t-75.5 26q-41 18 -80 26t-74.5 4.5t-67 -20t-56.5 -47.5z" />
    <glyph glyph-name="uni1EDF" unicode="&#x1edf;" horiz-adv-x="1659" 
d="M1565 715q0 -149 -41 -268.5t-112 -209t-165 -149t-200 -89.5t-217.5 -29.5t-217.5 30t-200 89t-165 149t-112 209t-41 268.5q0 173 55.5 306.5t148 226t212 144.5t248 63t256 -18.5t235.5 -99.5q28 0 49 8t35.5 21.5t22.5 31t10 36.5h150q-4 -63 -37.5 -119.5
t-98.5 -87.5l15 -17q68 34 104 94.5t39 129.5h168q1 -53 -13 -105t-42 -98t-70.5 -84.5t-99.5 -65.5q38 -77 61 -167.5t23 -198.5zM274 715q0 -116 31 -208t84.5 -161.5t124.5 -115.5t151 -69.5t165 -23t165 23.5t151 69t124.5 115.5t84.5 161.5t31 208q0 115 -31 207.5
t-84.5 162t-124.5 115.5t-151 69t-165 23t-165 -23.5t-151 -69.5t-124.5 -115t-84.5 -161.5t-31 -207.5zM1366 715q0 -138 -46 -242t-121.5 -173.5t-171.5 -105t-196.5 -36.5t-196.5 33.5t-171.5 104t-121.5 174t-46 245.5q0 140 46 244.5t121.5 173.5t171.5 103.5
t196.5 33.5t196.5 -36t171.5 -104.5t121.5 -173.5t46 -241zM471 715q0 -98 31 -171t81.5 -121.5t115 -73t132 -24.5t132 24.5t115 73t81.5 121.5t31 171q0 97 -31 169.5t-81.5 121t-115 72.5t-132 24t-132 -24t-115 -72.5t-81.5 -121t-31 -169.5zM721 1553q-4 38 2.5 67.5
t19.5 54t31 44.5t36 39q25 27 46 54.5t24 65.5v-1q0 12 -5.5 21t-14.5 15t-20.5 9t-22.5 3q-24 -1 -42.5 -18.5t-18.5 -56.5h-189q-1 68 19 118.5t55 84t82 50.5t100 19q62 1 112 -18t84.5 -52t53 -77t18.5 -94q0 -33 -7.5 -59.5t-19.5 -49t-27.5 -42t-31.5 -37.5
q-13 -16 -25 -31.5t-21.5 -33.5t-15 -39t-3.5 -47h-206zM844 1629q11 30 29 54.5t39 48.5l6 8v-1q25 32 46 64.5t23 72.5q2 30 -8 56.5t-31 46.5t-52.5 31.5t-73.5 11.5q-50 0 -90 -25t-62 -79h23q18 45 52 64t75 18q75 -2 111 -36.5t34 -84.5q-1 -18 -8 -35.5t-17 -34
t-22.5 -32.5t-24.5 -29q-19 -23 -37.5 -49.5t-34.5 -69.5h23z" />
    <glyph glyph-name="uni1EE3" unicode="&#x1ee3;" horiz-adv-x="1659" 
d="M1565 715q0 -149 -41 -268.5t-112 -209t-165 -149t-200 -89.5t-217.5 -29.5t-217.5 30t-200 89t-165 149t-112 209t-41 268.5q0 173 55.5 306.5t148 226t212 144.5t248 63t256 -18.5t235.5 -99.5q28 0 49 8t35.5 21.5t22.5 31t10 36.5h150q-4 -63 -37.5 -119.5
t-98.5 -87.5l15 -17q68 34 104 94.5t39 129.5h168q1 -53 -13 -105t-42 -98t-70.5 -84.5t-99.5 -65.5q38 -77 61 -167.5t23 -198.5zM274 715q0 -116 31 -208t84.5 -161.5t124.5 -115.5t151 -69.5t165 -23t165 23.5t151 69t124.5 115.5t84.5 161.5t31 208q0 115 -31 207.5
t-84.5 162t-124.5 115.5t-151 69t-165 23t-165 -23.5t-151 -69.5t-124.5 -115t-84.5 -161.5t-31 -207.5zM1366 715q0 -138 -46 -242t-121.5 -173.5t-171.5 -105t-196.5 -36.5t-196.5 33.5t-171.5 104t-121.5 174t-46 245.5q0 140 46 244.5t121.5 173.5t171.5 103.5
t196.5 33.5t196.5 -36t171.5 -104.5t121.5 -173.5t46 -241zM471 715q0 -98 31 -171t81.5 -121.5t115 -73t132 -24.5t132 24.5t115 73t81.5 121.5t31 171q0 97 -31 169.5t-81.5 121t-115 72.5t-132 24t-132 -24t-115 -72.5t-81.5 -121t-31 -169.5zM831 -507q-43 0 -80.5 13
t-65 37.5t-43.5 59t-16 76.5q0 43 16 78.5t43.5 60.5t65 38.5t80.5 13.5q41 0 77.5 -13.5t63.5 -38.5t43 -60.5t16 -78.5q0 -42 -16 -76.5t-43 -59t-63.5 -37.5t-77.5 -13zM831 -403q-41 0 -67.5 21t-26.5 61t26.5 62t67.5 22q37 0 63.5 -22t26.5 -62t-26.5 -61t-63.5 -21z
M831 -421q21 0 40.5 7t34.5 19.5t24 31t9 42.5t-9 42.5t-24 30.5t-34.5 18.5t-40.5 6.5q-47 0 -79 -25t-32 -73t32 -74t79 -26z" />
    <glyph glyph-name="oslash" unicode="&#xf8;" horiz-adv-x="1657" 
d="M1350 1264q97 -94 155 -229.5t58 -313.5q0 -149 -41.5 -268.5t-113 -209t-166.5 -149t-201.5 -88.5t-219 -28t-217.5 32l-86 -141h-350v41l156 254q-52 46 -94.5 104t-72.5 127.5t-46.5 151t-16.5 174.5q0 152 43 273.5t116.5 211.5t171.5 149t207 86.5t223.5 24
t221.5 -38.5l84 138h348v-39zM1253 1423l-125 -206q-66 40 -141 59.5t-153 19.5q-70 1 -139 -14.5t-131.5 -47t-116 -79.5t-92.5 -112t-61 -144.5t-22 -177.5q0 -161 61.5 -283.5t194.5 -210.5l-125 -215h21l123 203q30 -18 67.5 -31t77.5 -22t80.5 -13.5t75.5 -3.5
q102 3 199 40t172 109t121 179t46 248q0 75 -14 144.5t-43.5 131t-74.5 114t-107 93.5l129 219h-23zM473 721q0 -97 30.5 -169.5t81 -121t114.5 -72.5t131.5 -24t131.5 24t114.5 72.5t81 121t30.5 169.5t-30.5 170t-81 121.5t-114.5 72.5t-131.5 24t-131.5 -24t-114.5 -72.5
t-81 -121.5t-30.5 -170zM1366 721q0 -138 -46 -242t-121.5 -173.5t-172 -105t-197 -36t-197 34t-172 103.5t-121.5 174t-46 245t46 245t121.5 174.5t172 103.5t197 33.5t197 -36t172 -105t121.5 -173.5t46 -242z" />
    <glyph glyph-name="oe" unicode="&#x153;" horiz-adv-x="1962" 
d="M1122 1219q-68 32 -142.5 52.5t-150.5 18.5q-105 -1 -204.5 -37t-177 -107.5t-124.5 -178.5t-47 -250q0 -123 34.5 -221.5t95 -170t142 -115t175.5 -59t196 -1t203 60.5v-57h568v20h-547v557h485v21h-485v508h528v22h-549v-63zM1012 0q-114 -25 -226 -22.5t-214 34
t-189.5 91t-151.5 148t-100.5 205t-36.5 261.5t37.5 261.5t103.5 204.5t155 148t192 91.5t215 34t223 -22.5h790v-326h-510v-207h467v-326h-467v-249h529v-326h-817zM471 717q0 -80 22.5 -143.5t60.5 -110.5t88 -77.5t105 -45.5t112.5 -13.5t109.5 19.5v737
q-52 17 -109.5 19t-112.5 -12.5t-105 -45t-88 -77t-60.5 -109t-22.5 -141.5zM295 717q0 92 21 169t58 138.5t87.5 107.5t110 76.5t125 46t132.5 15.5q78 0 151 -20.5t142 -51.5v-967q-100 -45 -200 -59.5t-192 0t-171.5 56.5t-138 110.5t-92 163.5t-33.5 215z" />
    <glyph glyph-name="ugrave" unicode="&#xf9;" horiz-adv-x="1479" 
d="M737 309q40 0 79 11t69.5 32.5t49.5 54t19 76.5v951h349v-957q0 -118 -47 -210.5t-125.5 -156t-180.5 -97t-213 -33.5q-110 0 -212 33.5t-180.5 97t-125.5 156t-47 210.5v957h346v-951q0 -44 19.5 -76.5t50.5 -54t70 -32.5t79 -11zM737 133q77 0 150 23.5t130 68
t91.5 109.5t34.5 149v813h-23v-813q0 -80 -32.5 -141t-86 -102.5t-122.5 -62.5t-142 -21t-142 21t-122.5 62.5t-86 102.5t-32.5 141v813h-22v-813q0 -84 34.5 -149t91 -109.5t129.5 -68t150 -23.5zM664 1741l-23 -4l109 -203h-121l-211 240v30l311 105l156 -342v-33h-113z
" />
    <glyph glyph-name="uacute" unicode="&#xfa;" horiz-adv-x="1479" 
d="M737 309q40 0 79 11t69.5 32.5t49.5 54t19 76.5v951h349v-957q0 -118 -47 -210.5t-125.5 -156t-180.5 -97t-213 -33.5q-110 0 -212 33.5t-180.5 97t-125.5 156t-47 210.5v957h346v-951q0 -44 19.5 -76.5t50.5 -54t70 -32.5t79 -11zM737 133q77 0 150 23.5t130 68
t91.5 109.5t34.5 149v813h-23v-813q0 -80 -32.5 -141t-86 -102.5t-122.5 -62.5t-142 -21t-142 21t-122.5 62.5t-86 102.5t-32.5 141v813h-22v-813q0 -84 34.5 -149t91 -109.5t129.5 -68t150 -23.5zM707 1532h-113v33l156 342l311 -105v-30l-211 -240h-121l109 203l-23 4z
" />
    <glyph glyph-name="ucircumflex" unicode="&#xfb;" horiz-adv-x="1479" 
d="M737 309q40 0 79 11t69.5 32.5t49.5 54t19 76.5v951h349v-957q0 -118 -47 -210.5t-125.5 -156t-180.5 -97t-213 -33.5q-110 0 -212 33.5t-180.5 97t-125.5 156t-47 210.5v957h346v-951q0 -44 19.5 -76.5t50.5 -54t70 -32.5t79 -11zM737 133q77 0 150 23.5t130 68
t91.5 109.5t34.5 149v813h-23v-813q0 -80 -32.5 -141t-86 -102.5t-122.5 -62.5t-142 -21t-142 21t-122.5 62.5t-86 102.5t-32.5 141v813h-22v-813q0 -84 34.5 -149t91 -109.5t129.5 -68t150 -23.5zM870 1528l-133 155l-125 -155h-141l176 217h-20l-178 -217h-115v33l217 292
h373l219 -292v-33h-115l-176 217h-23l177 -217h-136z" />
    <glyph glyph-name="utilde" unicode="&#x169;" horiz-adv-x="1479" 
d="M737 309q40 0 79 11t69.5 32.5t49.5 54t19 76.5v951h349v-957q0 -118 -47 -210.5t-125.5 -156t-180.5 -97t-213 -33.5q-110 0 -212 33.5t-180.5 97t-125.5 156t-47 210.5v957h346v-951q0 -44 19.5 -76.5t50.5 -54t70 -32.5t79 -11zM737 133q77 0 150 23.5t130 68
t91.5 109.5t34.5 149v813h-23v-813q0 -80 -32.5 -141t-86 -102.5t-122.5 -62.5t-142 -21t-142 21t-122.5 62.5t-86 102.5t-32.5 141v813h-22v-813q0 -84 34.5 -149t91 -109.5t129.5 -68t150 -23.5zM510 1579q-88 34 -176 74q27 81 68 137.5t95 85.5t120.5 29t144.5 -31
q24 -9 53.5 -21t58 -14.5t52 9.5t34.5 50q47 -20 92.5 -39t92.5 -40q-16 -75 -54 -131t-91 -88.5t-118 -37.5t-135 23q-23 9 -57 24.5t-68.5 22.5t-65 -2.5t-46.5 -50.5zM477 1704q48 53 114.5 55t143.5 -33q43 -18 83 -26.5t76 -5.5t66.5 19t55.5 48l-17 8
q-23 -27 -51.5 -40.5t-61.5 -15t-69.5 7.5t-75.5 26q-41 18 -80 26t-74.5 4.5t-67 -20t-56.5 -47.5z" />
    <glyph glyph-name="uni1EE7" unicode="&#x1ee7;" horiz-adv-x="1479" 
d="M737 309q40 0 79 11t69.5 32.5t49.5 54t19 76.5v951h349v-957q0 -118 -47 -210.5t-125.5 -156t-180.5 -97t-213 -33.5q-110 0 -212 33.5t-180.5 97t-125.5 156t-47 210.5v957h346v-951q0 -44 19.5 -76.5t50.5 -54t70 -32.5t79 -11zM737 133q77 0 150 23.5t130 68
t91.5 109.5t34.5 149v813h-23v-813q0 -80 -32.5 -141t-86 -102.5t-122.5 -62.5t-142 -21t-142 21t-122.5 62.5t-86 102.5t-32.5 141v813h-22v-813q0 -84 34.5 -149t91 -109.5t129.5 -68t150 -23.5zM631 1553q-4 38 2.5 67.5t19.5 54t31 44.5t36 39q25 27 46 54.5t24 65.5v-1
q0 12 -5.5 21t-14.5 15t-20.5 9t-22.5 3q-24 -1 -42.5 -18.5t-18.5 -56.5h-189q-1 68 19 118.5t55 84t82 50.5t100 19q62 1 112 -18t84.5 -52t53 -77t18.5 -94q0 -33 -7.5 -59.5t-19.5 -49t-27.5 -42t-31.5 -37.5q-13 -16 -25 -31.5t-21.5 -33.5t-15 -39t-3.5 -47h-206z
M754 1629q11 30 29 54.5t39 48.5l6 8v-1q25 32 46 64.5t23 72.5q2 30 -8 56.5t-31 46.5t-52.5 31.5t-73.5 11.5q-50 0 -90 -25t-62 -79h23q18 45 52 64t75 18q75 -2 111 -36.5t34 -84.5q-1 -18 -8 -35.5t-17 -34t-22.5 -32.5t-24.5 -29q-19 -23 -37.5 -49.5t-34.5 -69.5h23z
" />
    <glyph glyph-name="uni1EE5" unicode="&#x1ee5;" horiz-adv-x="1479" 
d="M737 309q40 0 79 11t69.5 32.5t49.5 54t19 76.5v951h349v-957q0 -118 -47 -210.5t-125.5 -156t-180.5 -97t-213 -33.5q-110 0 -212 33.5t-180.5 97t-125.5 156t-47 210.5v957h346v-951q0 -44 19.5 -76.5t50.5 -54t70 -32.5t79 -11zM737 133q77 0 150 23.5t130 68
t91.5 109.5t34.5 149v813h-23v-813q0 -80 -32.5 -141t-86 -102.5t-122.5 -62.5t-142 -21t-142 21t-122.5 62.5t-86 102.5t-32.5 141v813h-22v-813q0 -84 34.5 -149t91 -109.5t129.5 -68t150 -23.5zM741 -507q-43 0 -80.5 13t-65 37.5t-43.5 59t-16 76.5q0 43 16 78.5
t43.5 60.5t65 38.5t80.5 13.5q41 0 77.5 -13.5t63.5 -38.5t43 -60.5t16 -78.5q0 -42 -16 -76.5t-43 -59t-63.5 -37.5t-77.5 -13zM741 -403q-41 0 -67.5 21t-26.5 61t26.5 62t67.5 22q37 0 63.5 -22t26.5 -62t-26.5 -61t-63.5 -21zM741 -421q21 0 40.5 7t34.5 19.5t24 31
t9 42.5t-9 42.5t-24 30.5t-34.5 18.5t-40.5 6.5q-47 0 -79 -25t-32 -73t32 -74t79 -26z" />
    <glyph glyph-name="uhorn" unicode="&#x1b0;" horiz-adv-x="1628" 
d="M737 309q40 0 79 11t69.5 32.5t49.5 54t19 76.5v951h349v-95q43 7 66 35t26 60h149q-2 -42 -18.5 -82.5t-46.5 -72.5t-74 -53.5t-102 -25.5v-20q64 4 112 27t81 58t51 79t20 90h168q1 -72 -25.5 -142.5t-80.5 -126.5t-135.5 -91.5t-190.5 -39.5v-557q0 -118 -47 -210.5
t-125.5 -156t-180.5 -97t-213 -33.5q-110 0 -212 33.5t-180.5 97t-125.5 156t-47 210.5v957h346v-951q0 -44 19.5 -76.5t50.5 -54t70 -32.5t79 -11zM737 133q77 0 150 23.5t130 68t91.5 109.5t34.5 149v813h-23v-813q0 -80 -32.5 -141t-86 -102.5t-122.5 -62.5t-142 -21
t-142 21t-122.5 62.5t-86 102.5t-32.5 141v813h-22v-813q0 -84 34.5 -149t91 -109.5t129.5 -68t150 -23.5z" />
    <glyph glyph-name="uni1EEB" unicode="&#x1eeb;" horiz-adv-x="1628" 
d="M664 1741l-23 -4l109 -203h-121l-211 240v30l311 105l156 -342v-33h-113zM753 309q40 0 79 11t69.5 32.5t49.5 54t19 76.5v951h349v-95q43 7 66 35t26 60h149q-2 -42 -18.5 -82.5t-46.5 -72.5t-74 -53.5t-102 -25.5v-20q64 4 112 27t81 58t51 79t20 90h168
q1 -72 -25.5 -142.5t-80.5 -126.5t-135.5 -91.5t-190.5 -39.5v-557q0 -118 -47 -210.5t-125.5 -156t-180.5 -97t-213 -33.5q-110 0 -212 33.5t-180.5 97t-125.5 156t-47 210.5v957h346v-951q0 -44 19.5 -76.5t50.5 -54t70 -32.5t79 -11zM753 133q77 0 150 23.5t130 68
t91.5 109.5t34.5 149v813h-23v-813q0 -80 -32.5 -141t-86 -102.5t-122.5 -62.5t-142 -21t-142 21t-122.5 62.5t-86 102.5t-32.5 141v813h-22v-813q0 -84 34.5 -149t91 -109.5t129.5 -68t150 -23.5z" />
    <glyph glyph-name="uni1EE9" unicode="&#x1ee9;" horiz-adv-x="1628" 
d="M707 1532h-113v33l156 342l311 -105v-30l-211 -240h-121l109 203l-23 4zM737 309q40 0 79 11t69.5 32.5t49.5 54t19 76.5v951h349v-95q43 7 66 35t26 60h149q-2 -42 -18.5 -82.5t-46.5 -72.5t-74 -53.5t-102 -25.5v-20q64 4 112 27t81 58t51 79t20 90h168
q1 -72 -25.5 -142.5t-80.5 -126.5t-135.5 -91.5t-190.5 -39.5v-557q0 -118 -47 -210.5t-125.5 -156t-180.5 -97t-213 -33.5q-110 0 -212 33.5t-180.5 97t-125.5 156t-47 210.5v957h346v-951q0 -44 19.5 -76.5t50.5 -54t70 -32.5t79 -11zM737 133q77 0 150 23.5t130 68
t91.5 109.5t34.5 149v813h-23v-813q0 -80 -32.5 -141t-86 -102.5t-122.5 -62.5t-142 -21t-142 21t-122.5 62.5t-86 102.5t-32.5 141v813h-22v-813q0 -84 34.5 -149t91 -109.5t129.5 -68t150 -23.5z" />
    <glyph glyph-name="uni1EEF" unicode="&#x1eef;" horiz-adv-x="1628" 
d="M737 309q40 0 79 11t69.5 32.5t49.5 54t19 76.5v951h349v-95q43 7 66 35t26 60h149q-2 -42 -18.5 -82.5t-46.5 -72.5t-74 -53.5t-102 -25.5v-20q64 4 112 27t81 58t51 79t20 90h168q1 -72 -25.5 -142.5t-80.5 -126.5t-135.5 -91.5t-190.5 -39.5v-557q0 -118 -47 -210.5
t-125.5 -156t-180.5 -97t-213 -33.5q-110 0 -212 33.5t-180.5 97t-125.5 156t-47 210.5v957h346v-951q0 -44 19.5 -76.5t50.5 -54t70 -32.5t79 -11zM737 133q77 0 150 23.5t130 68t91.5 109.5t34.5 149v813h-23v-813q0 -80 -32.5 -141t-86 -102.5t-122.5 -62.5t-142 -21
t-142 21t-122.5 62.5t-86 102.5t-32.5 141v813h-22v-813q0 -84 34.5 -149t91 -109.5t129.5 -68t150 -23.5zM510 1579q-88 34 -176 74q27 81 68 137.5t95 85.5t120.5 29t144.5 -31q24 -9 53.5 -21t58 -14.5t52 9.5t34.5 50q47 -20 92.5 -39t92.5 -40q-16 -75 -54 -131
t-91 -88.5t-118 -37.5t-135 23q-23 9 -57 24.5t-68.5 22.5t-65 -2.5t-46.5 -50.5zM477 1704q48 53 114.5 55t143.5 -33q43 -18 83 -26.5t76 -5.5t66.5 19t55.5 48l-17 8q-23 -27 -51.5 -40.5t-61.5 -15t-69.5 7.5t-75.5 26q-41 18 -80 26t-74.5 4.5t-67 -20t-56.5 -47.5z
" />
    <glyph glyph-name="uni1EED" unicode="&#x1eed;" horiz-adv-x="1628" 
d="M737 309q40 0 79 11t69.5 32.5t49.5 54t19 76.5v951h349v-95q43 7 66 35t26 60h149q-2 -42 -18.5 -82.5t-46.5 -72.5t-74 -53.5t-102 -25.5v-20q64 4 112 27t81 58t51 79t20 90h168q1 -72 -25.5 -142.5t-80.5 -126.5t-135.5 -91.5t-190.5 -39.5v-557q0 -118 -47 -210.5
t-125.5 -156t-180.5 -97t-213 -33.5q-110 0 -212 33.5t-180.5 97t-125.5 156t-47 210.5v957h346v-951q0 -44 19.5 -76.5t50.5 -54t70 -32.5t79 -11zM737 133q77 0 150 23.5t130 68t91.5 109.5t34.5 149v813h-23v-813q0 -80 -32.5 -141t-86 -102.5t-122.5 -62.5t-142 -21
t-142 21t-122.5 62.5t-86 102.5t-32.5 141v813h-22v-813q0 -84 34.5 -149t91 -109.5t129.5 -68t150 -23.5zM631 1553q-4 38 2.5 67.5t19.5 54t31 44.5t36 39q25 27 46 54.5t24 65.5v-1q0 12 -5.5 21t-14.5 15t-20.5 9t-22.5 3q-24 -1 -42.5 -18.5t-18.5 -56.5h-189
q-1 68 19 118.5t55 84t82 50.5t100 19q62 1 112 -18t84.5 -52t53 -77t18.5 -94q0 -33 -7.5 -59.5t-19.5 -49t-27.5 -42t-31.5 -37.5q-13 -16 -25 -31.5t-21.5 -33.5t-15 -39t-3.5 -47h-206zM754 1629q11 30 29 54.5t39 48.5l6 8v-1q25 32 46 64.5t23 72.5q2 30 -8 56.5
t-31 46.5t-52.5 31.5t-73.5 11.5q-50 0 -90 -25t-62 -79h23q18 45 52 64t75 18q75 -2 111 -36.5t34 -84.5q-1 -18 -8 -35.5t-17 -34t-22.5 -32.5t-24.5 -29q-19 -23 -37.5 -49.5t-34.5 -69.5h23z" />
    <glyph glyph-name="uni1EF1" unicode="&#x1ef1;" horiz-adv-x="1628" 
d="M737 309q40 0 79 11t69.5 32.5t49.5 54t19 76.5v951h349v-95q43 7 66 35t26 60h149q-2 -42 -18.5 -82.5t-46.5 -72.5t-74 -53.5t-102 -25.5v-20q64 4 112 27t81 58t51 79t20 90h168q1 -72 -25.5 -142.5t-80.5 -126.5t-135.5 -91.5t-190.5 -39.5v-557q0 -118 -47 -210.5
t-125.5 -156t-180.5 -97t-213 -33.5q-110 0 -212 33.5t-180.5 97t-125.5 156t-47 210.5v957h346v-951q0 -44 19.5 -76.5t50.5 -54t70 -32.5t79 -11zM737 133q77 0 150 23.5t130 68t91.5 109.5t34.5 149v813h-23v-813q0 -80 -32.5 -141t-86 -102.5t-122.5 -62.5t-142 -21
t-142 21t-122.5 62.5t-86 102.5t-32.5 141v813h-22v-813q0 -84 34.5 -149t91 -109.5t129.5 -68t150 -23.5zM741 -507q-43 0 -80.5 13t-65 37.5t-43.5 59t-16 76.5q0 43 16 78.5t43.5 60.5t65 38.5t80.5 13.5q41 0 77.5 -13.5t63.5 -38.5t43 -60.5t16 -78.5q0 -42 -16 -76.5
t-43 -59t-63.5 -37.5t-77.5 -13zM741 -403q-41 0 -67.5 21t-26.5 61t26.5 62t67.5 22q37 0 63.5 -22t26.5 -62t-26.5 -61t-63.5 -21zM741 -421q21 0 40.5 7t34.5 19.5t24 31t9 42.5t-9 42.5t-24 30.5t-34.5 18.5t-40.5 6.5q-47 0 -79 -25t-32 -73t32 -74t79 -26z" />
    <glyph glyph-name="ygrave" unicode="&#x1ef3;" horiz-adv-x="1362" 
d="M670 649v-512h22v512l402 647h-27l-385 -622l-387 622h-27zM862 0h-362v602l-482 776v56h396l260 -478h14l260 478h398v-56l-484 -776v-602zM579 1763l-23 -4l109 -203h-121l-211 240v31l311 104l156 -342v-33h-113z" />
    <glyph glyph-name="yacute" unicode="&#xfd;" horiz-adv-x="1362" 
d="M670 649v-512h22v512l402 647h-27l-385 -622l-387 622h-27zM862 0h-362v602l-482 776v56h396l260 -478h14l260 478h398v-56l-484 -776v-602zM621 1528h-113v33l156 342l311 -105v-31l-211 -239h-121l109 203l-23 4z" />
    <glyph glyph-name="uni1EF9" unicode="&#x1ef9;" horiz-adv-x="1362" 
d="M670 649v-512h22v512l402 647h-27l-385 -622l-387 622h-27zM862 0h-362v602l-482 776v56h396l260 -478h14l260 478h398v-56l-484 -776v-602zM452 1579q-88 34 -176 74q27 81 68 137.5t95 85.5t120.5 29t144.5 -31q24 -9 53.5 -21t58 -14.5t52 9.5t34.5 50
q47 -20 92.5 -39t92.5 -40q-16 -75 -54 -131t-91 -88.5t-118 -37.5t-135 23q-23 9 -57 24.5t-68.5 22.5t-65 -2.5t-46.5 -50.5zM419 1704q48 53 114.5 55t143.5 -33q43 -18 83 -26.5t76 -5.5t66.5 19t55.5 48l-17 8q-23 -27 -51.5 -40.5t-61.5 -15t-69.5 7.5t-75.5 26
q-41 18 -80 26t-74.5 4.5t-67 -20t-56.5 -47.5z" />
    <glyph glyph-name="ydieresis" unicode="&#xff;" horiz-adv-x="1362" 
d="M670 649v-512h22v512l402 647h-27l-385 -622l-387 622h-27zM862 0h-362v602l-482 776v56h396l260 -478h14l260 478h398v-56l-484 -776v-602zM410 1530q-42 0 -79 13.5t-64.5 37.5t-43.5 58.5t-16 76.5q0 44 16 79t43.5 59.5t64.5 37.5t79 13t79 -13t65 -37.5t44 -59.5
t16 -79q0 -42 -16 -76.5t-44 -58.5t-65 -37.5t-79 -13.5zM952 1530q-42 0 -79 13.5t-64 37.5t-43 58.5t-16 76.5q0 44 16 79t43 59.5t64 37.5t79 13q43 0 80 -13t64.5 -37.5t43 -59.5t15.5 -79q0 -42 -15.5 -76.5t-43 -58.5t-64.5 -37.5t-80 -13.5zM952 1636q-38 0 -65 21
t-27 59q0 42 27 63t65 21q39 0 67 -21t28 -63q0 -38 -28 -59t-67 -21zM952 1618q47 0 79 25t32 73t-32 75.5t-79 27.5q-48 0 -80 -27.5t-32 -75.5q0 -24 9 -42t24.5 -30.5t36 -19t42.5 -6.5zM410 1636q-38 0 -65.5 21t-27.5 59q0 42 27.5 63t65.5 21q40 0 67 -21t27 -63
q0 -38 -27 -59t-67 -21zM410 1618q48 0 80 25t32 73t-32 75.5t-80 27.5q-47 0 -79 -27.5t-32 -75.5t32 -73t79 -25z" />
    <glyph glyph-name="uni1EF7" unicode="&#x1ef7;" horiz-adv-x="1362" 
d="M670 649v-512h22v512l402 647h-27l-385 -622l-387 622h-27zM862 0h-362v602l-482 776v56h396l260 -478h14l260 478h398v-56l-484 -776v-602zM573 1553q-4 38 2.5 67.5t19.5 54t31 44.5t36 39q25 27 46 54.5t24 65.5v-1q0 12 -5.5 21t-14.5 15t-20.5 9t-22.5 3
q-24 -1 -42.5 -18.5t-18.5 -56.5h-189q-1 68 19 118.5t55 84t82 50.5t100 19q62 1 112 -18t84.5 -52t53 -77t18.5 -94q0 -33 -7.5 -59.5t-19.5 -49t-27.5 -42t-31.5 -37.5q-13 -16 -25 -31.5t-21.5 -33.5t-15 -39t-3.5 -47h-206zM696 1629q11 30 29 54.5t39 48.5l6 8v-1
q25 32 46 64.5t23 72.5q2 30 -8 56.5t-31 46.5t-52.5 31.5t-73.5 11.5q-50 0 -90 -25t-62 -79h23q18 45 52 64t75 18q75 -2 111 -36.5t34 -84.5q-1 -18 -8 -35.5t-17 -34t-22.5 -32.5t-24.5 -29q-19 -23 -37.5 -49.5t-34.5 -69.5h23z" />
    <glyph glyph-name="uni1EF5" unicode="&#x1ef5;" horiz-adv-x="1362" 
d="M670 649v-512h22v512l402 647h-27l-385 -622l-387 622h-27zM862 0h-362v602l-482 776v56h396l260 -478h14l260 478h398v-56l-484 -776v-602zM683 -507q-43 0 -80.5 13t-65 37.5t-43.5 59t-16 76.5q0 43 16 78.5t43.5 60.5t65 38.5t80.5 13.5q41 0 77.5 -13.5t63.5 -38.5
t43 -60.5t16 -78.5q0 -42 -16 -76.5t-43 -59t-63.5 -37.5t-77.5 -13zM683 -403q-41 0 -67.5 21t-26.5 61t26.5 62t67.5 22q37 0 63.5 -22t26.5 -62t-26.5 -61t-63.5 -21zM683 -421q21 0 40.5 7t34.5 19.5t24 31t9 42.5t-9 42.5t-24 30.5t-34.5 18.5t-40.5 6.5q-47 0 -79 -25
t-32 -73t32 -74t79 -26z" />
    <glyph glyph-name="eth" unicode="&#xf0;" horiz-adv-x="1520" 
d="M182 874v560h541q140 -1 252 -41t196 -109t140 -160.5t84 -194.5t28.5 -212t-28 -212t-84.5 -194.5t-140 -160.5t-196 -109t-252 -41h-541v553h-172v321h172zM549 874h188v-321h-188v-219h174q86 0 150 33t107 87t64.5 122.5t21.5 140.5t-21.5 140.5t-64.5 122.5t-107 87
t-150 33h-174v-226zM360 723h-213v-18h213v-551h359q134 0 234 48.5t167 127.5t100.5 180t33.5 207t-33.5 207t-100.5 180t-167 127.5t-234 48.5h-359v-557zM379 723v537h340q103 -1 185.5 -31.5t144.5 -83t103.5 -121.5t62 -147t20.5 -160t-20.5 -160t-62 -147t-103.5 -121
t-144.5 -82.5t-185.5 -30.5h-340v529h219v18h-219z" />
    <glyph glyph-name="thorn" unicode="&#xfe;" horiz-adv-x="1421" 
d="M182 1434h367v-183h264q103 0 185.5 -30t144 -81.5t102.5 -120t61.5 -145t21 -157.5t-20.5 -158t-62 -145t-102.5 -119t-144 -81t-185.5 -30h-264v-184h-367v1434zM375 1296h-23v-1159h23v201h440q85 1 149 34t107 86.5t64.5 121.5t21.5 138.5t-21 138.5t-64 121
t-107 85.5t-150 32.5h-440v200zM815 1077q79 0 139 -30.5t100 -81t60.5 -114.5t21 -131.5t-19.5 -131.5t-60 -114.5t-100 -81t-141 -30.5h-440v715h440zM811 514q50 0 84.5 30t52 75.5t18.5 98.5t-15.5 98.5t-51.5 76t-88 31.5q-65 2 -132 1t-130 -1v-410h262z" />
    <glyph glyph-name="ampersand" unicode="&#x26;" horiz-adv-x="1331" 
d="M770 1073q0 38 -29.5 60t-89.5 22q-39 0 -65.5 -16t-40 -40t-13.5 -52.5t13.5 -52.5t40.5 -40t69 -16h62v-299h-66q-61 0 -102 -26t-61.5 -65.5t-20.5 -85.5t20.5 -85.5t61.5 -65.5t102 -26q40 0 74.5 12.5t59.5 36t39 57.5t14 76v477h446v-317h-127v-160
q0 -120 -35 -212t-101 -154t-159.5 -94t-210.5 -32q-110 0 -198 26t-154 70t-111 103.5t-68 126.5t-24 137.5t19.5 138t63 128t106.5 106.5q-52 57 -76 127t-21 142t33.5 140t88.5 121t143 85t198 32q94 0 176.5 -23.5t143 -71t94 -120t29.5 -170.5h-324zM915 1171
q-13 31 -36 57t-56 45t-76.5 29.5t-97.5 10.5q-88 0 -149 -33t-95.5 -84.5t-42 -113.5t11.5 -120t65 -104.5t118 -66.5v-3q-74 -15 -128 -51.5t-88 -86t-48.5 -107.5t-9 -116t31 -112t71 -96t111.5 -67t152 -25q77 0 142.5 23t113.5 67t75.5 107t27.5 143v307h174v19h-193
v-326q0 -76 -26 -136t-71.5 -101t-108 -63t-134.5 -22q-87 0 -152.5 26t-109 68t-66 97t-23.5 112.5t18.5 113.5t59 101.5t99 76t139.5 36.5v23q-80 9 -133.5 49t-79 95t-23.5 116.5t32.5 114t90 86.5t148.5 34q88 0 154.5 -28t97.5 -95h14z" />
    <glyph glyph-name="comma" unicode="," horiz-adv-x="582" 
d="M483 160q0 -22 -4 -38t-10 -38l-90 -266h-207l51 162q-63 15 -104 62t-41 118q0 43 16 78t43 60t63.5 38.5t78.5 13.5q43 0 80 -13.5t64.5 -38.5t43.5 -60t16 -78zM279 78q-38 0 -64.5 20.5t-26.5 61.5q0 40 26.5 62t64.5 22q40 0 67 -22t27 -62q0 -41 -27 -61.5
t-67 -20.5zM279 59q21 0 40.5 7t34.5 16l-57 -176h16l68 200q3 16 5.5 27t2.5 27q0 48 -32 73t-78 25q-45 0 -77 -25t-32 -73t32 -74.5t77 -26.5z" />
    <glyph glyph-name="semicolon" unicode=";" horiz-adv-x="612" 
d="M295 651q-43 0 -80.5 13.5t-65 38t-43.5 59t-16 76.5q0 43 16 78t43.5 60t65 38.5t80.5 13.5q42 0 78.5 -13.5t63.5 -38.5t43 -60t16 -78q0 -42 -16 -76.5t-43 -59t-63.5 -38t-78.5 -13.5zM295 756q-40 0 -67 20.5t-27 61.5q0 40 27 62t67 22q37 0 63.5 -22t26.5 -62
q0 -41 -26.5 -61.5t-63.5 -20.5zM295 737q21 0 40.5 7t34.5 19.5t24 31.5t9 43t-9 42t-24 30.5t-34.5 19t-40.5 6.5q-47 0 -79 -25t-32 -73t32 -74.5t79 -26.5zM496 172q0 -22 -4.5 -38t-10.5 -38l-90 -266h-207l52 162q-32 7 -58.5 23t-46 39t-30.5 53t-11 65q0 43 16 78
t43 60t63.5 38.5t78.5 13.5q43 0 80.5 -13.5t65 -38.5t43.5 -60t16 -78zM291 90q-37 0 -63.5 21t-26.5 61t26.5 62t63.5 22q40 0 67 -22t27 -62t-27 -61t-67 -21zM291 72q21 0 40.5 6.5t35.5 15.5l-58 -176h17l67 201q3 15 5.5 26.5t2.5 26.5q0 48 -32 73t-78 25
q-45 0 -77 -25t-32 -73t32 -74t77 -26z" />
    <glyph glyph-name="colon" unicode=":" horiz-adv-x="635" 
d="M309 -12q-43 0 -80.5 13t-65 37.5t-43.5 59t-16 76.5q0 43 16 78.5t43.5 60.5t65 38.5t80.5 13.5q42 0 78.5 -13.5t63.5 -38.5t43 -60.5t16 -78.5q0 -42 -16 -76.5t-43 -59t-63.5 -37.5t-78.5 -13zM309 92q-40 0 -67 21t-27 61t27 62t67 22q37 0 63.5 -22t26.5 -62
t-26.5 -61t-63.5 -21zM309 74q22 0 41.5 7t34.5 19.5t24 31t9 42.5t-9 42.5t-24 30.5t-34.5 18.5t-41.5 6.5q-46 0 -78 -25t-32 -73t32 -74t78 -26zM309 651q-43 0 -80.5 13.5t-65 38t-43.5 59t-16 76.5q0 43 16 78t43.5 60t65 38.5t80.5 13.5q42 0 78.5 -13.5t63.5 -38.5
t43 -60t16 -78q0 -42 -16 -76.5t-43 -59t-63.5 -38t-78.5 -13.5zM309 756q-40 0 -67 20.5t-27 61.5q0 40 27 62t67 22q37 0 63.5 -22t26.5 -62q0 -41 -26.5 -61.5t-63.5 -20.5zM309 737q22 0 41.5 7t34.5 19.5t24 31.5t9 43t-9 42t-24 30.5t-34.5 19t-41.5 6.5
q-46 0 -78 -25t-32 -73t32 -74.5t78 -26.5z" />
    <glyph glyph-name="period" unicode="." horiz-adv-x="582" 
d="M287 -12q-43 0 -80.5 13t-65 37.5t-43.5 59t-16 76.5q0 43 16 78.5t43.5 60.5t65 38.5t80.5 13.5q41 0 77.5 -13.5t63.5 -38.5t43 -60.5t16 -78.5q0 -42 -16 -76.5t-43 -59t-63.5 -37.5t-77.5 -13zM287 92q-41 0 -67.5 21t-26.5 61t26.5 62t67.5 22q37 0 63.5 -22
t26.5 -62t-26.5 -61t-63.5 -21zM287 74q21 0 40.5 7t34.5 19.5t24 31t9 42.5t-9 42.5t-24 30.5t-34.5 18.5t-40.5 6.5q-47 0 -79 -25t-32 -73t32 -74t79 -26z" />
    <glyph glyph-name="ellipsis" unicode="&#x2026;" horiz-adv-x="1636" 
d="M272 -12q-43 0 -80 13t-64.5 37.5t-43.5 59t-16 76.5q0 43 16 78.5t43.5 60.5t64.5 38.5t80 13.5q42 0 78.5 -13.5t63.5 -38.5t43 -60.5t16 -78.5q0 -42 -16 -76.5t-43 -59t-63.5 -37.5t-78.5 -13zM272 92q-40 0 -67 21t-27 61t27 62t67 22q38 0 64 -22t26 -62t-26 -61
t-64 -21zM272 74q22 0 41.5 7t34.5 19.5t24 31t9 42.5t-9 42.5t-24 30.5t-34.5 18.5t-41.5 6.5q-46 0 -78 -25t-32 -73t32 -74t78 -26zM799 -12q-43 0 -80.5 13t-65 37.5t-43.5 59t-16 76.5q0 43 16 78.5t43.5 60.5t65 38.5t80.5 13.5q41 0 77.5 -13.5t63.5 -38.5t43 -60.5
t16 -78.5q0 -42 -16 -76.5t-43 -59t-63.5 -37.5t-77.5 -13zM799 92q-41 0 -67.5 21t-26.5 61t26.5 62t67.5 22q37 0 63.5 -22t26.5 -62t-26.5 -61t-63.5 -21zM799 74q21 0 40.5 7t34.5 19.5t24 31t9 42.5t-9 42.5t-24 30.5t-34.5 18.5t-40.5 6.5q-47 0 -79 -25t-32 -73
t32 -74t79 -26zM1327 -12q-43 0 -80.5 13t-65 37.5t-43.5 59t-16 76.5q0 43 16 78.5t43.5 60.5t65 38.5t80.5 13.5q42 0 78.5 -13.5t63.5 -38.5t43 -60.5t16 -78.5q0 -42 -16 -76.5t-43 -59t-63.5 -37.5t-78.5 -13zM1327 92q-40 0 -67 21t-27 61t27 62t67 22q37 0 63.5 -22
t26.5 -62t-26.5 -61t-63.5 -21zM1327 74q21 0 41 7t35 19.5t24 31t9 42.5t-9 42.5t-24 30.5t-35 18.5t-41 6.5q-46 0 -78 -25t-32 -73t32 -74t78 -26z" />
    <glyph glyph-name="exclam" unicode="!" horiz-adv-x="723" 
d="M367 10q-42 0 -79 13.5t-64 38t-42.5 59t-15.5 76.5q0 43 15.5 77.5t42.5 59t64 38t79 13.5t78.5 -13.5t63.5 -38t42.5 -59t15.5 -77.5q0 -42 -15.5 -76.5t-42.5 -59t-63.5 -38t-78.5 -13.5zM158 1464h409l-22 -1026h-357zM375 580v743h-19v-743h19zM367 115
q-38 0 -65.5 21.5t-27.5 60.5q0 38 27.5 61t65.5 23t65 -23t27 -61q0 -39 -27 -60.5t-65 -21.5zM367 96q46 0 78 26.5t32 74.5t-32 74t-78 26q-47 0 -79 -26t-32 -74t32 -74.5t79 -26.5z" />
    <glyph glyph-name="exclamdown" unicode="&#xa1;" horiz-adv-x="723" 
d="M358 1051q42 0 79 -13.5t64 -38t42.5 -59t15.5 -76.5q0 -43 -15.5 -77.5t-42.5 -59t-64 -38t-79 -13.5t-78.5 13.5t-63.5 38t-42.5 59t-15.5 77.5q0 42 15.5 76.5t42.5 59t63.5 38t78.5 13.5zM567 -403h-409l22 1026h357zM350 481v-743h19v743h-19zM358 946
q38 0 65.5 -22t27.5 -60t-27.5 -61t-65.5 -23t-65 23t-27 61t27 60t65 22zM358 965q-46 0 -78 -26.5t-32 -74.5t32 -74t78 -26q47 0 79 26t32 74t-32 74.5t-79 26.5z" />
    <glyph glyph-name="question" unicode="?" horiz-adv-x="1126" 
d="M389 438q-9 81 8.5 141.5t49.5 109t71.5 88.5t75.5 81t62 86t30 103q1 28 -11 49.5t-32 35.5t-45.5 21.5t-50.5 7.5q-27 -1 -52 -9t-44.5 -25.5t-31 -43.5t-11.5 -63h-310q-2 117 33.5 203t98.5 143.5t147.5 87t179.5 31.5q112 3 201 -30t151.5 -92t95.5 -138.5
t33 -169.5q0 -76 -22 -134t-55.5 -106t-71.5 -90t-69.5 -85t-51.5 -92t-16 -110h-363zM569 10q-41 0 -77.5 13.5t-63.5 38t-43 59t-16 76.5q0 43 16 77.5t43 59t63.5 38t77.5 13.5q42 0 79 -13.5t64.5 -38t43.5 -59t16 -77.5q0 -42 -16 -76.5t-43.5 -59t-64.5 -38t-79 -13.5
zM569 115q-37 0 -63.5 21.5t-26.5 60.5q0 38 26.5 61t63.5 23q41 0 68 -23t27 -61q0 -39 -27 -60.5t-68 -21.5zM569 96q48 0 80.5 26.5t32.5 74.5t-32.5 74t-80.5 26q-46 0 -78 -26t-32 -74t32 -74.5t78 -26.5zM592 563q15 43 41.5 83t57.5 78t63 75.5t59 77.5t45 83.5
t21 92.5q2 58 -17.5 109t-60.5 88.5t-103 59.5t-143 23q-102 2 -178.5 -42.5t-110.5 -141.5h23q16 45 43 76.5t61 52t74.5 29.5t83.5 8q78 -2 137 -23t97.5 -56t56.5 -82t16 -101q-3 -49 -21 -91.5t-45 -81.5t-59 -76t-63.5 -75t-58.5 -78.5t-42 -87.5h23z" />
    <glyph glyph-name="questiondown" unicode="&#xbf;" horiz-adv-x="1112" 
d="M727 637q9 -81 -8.5 -141.5t-49.5 -109t-71.5 -88.5t-75.5 -80.5t-62 -85.5t-30 -103q-2 -29 10.5 -50.5t32.5 -35.5t45.5 -21.5t50.5 -7.5q27 1 52 9t44.5 25.5t31.5 43.5t12 63h309q2 -117 -33.5 -203t-98.5 -143.5t-147.5 -86.5t-179.5 -32q-112 -3 -201 30t-151.5 92
t-95.5 138.5t-33 169.5q0 76 22 134t55.5 106t71.5 90t70 85t51.5 91.5t16.5 110.5h362zM547 1065q41 0 77.5 -13.5t64 -37.5t43.5 -58.5t16 -76.5q0 -43 -16 -78t-43.5 -59.5t-64 -38t-77.5 -13.5q-42 0 -79 13.5t-64.5 38t-43.5 59.5t-16 78q0 42 16 76.5t43.5 58.5
t64.5 37.5t79 13.5zM547 961q37 0 63.5 -22t26.5 -60q0 -39 -26.5 -61.5t-63.5 -22.5q-40 0 -67 22.5t-27 61.5q0 38 27 60t67 22zM547 979q-48 0 -80.5 -26t-32.5 -74t32.5 -74.5t80.5 -26.5q46 0 78 26.5t32 74.5t-32 74t-78 26zM524 512q-15 -43 -41.5 -83t-57.5 -78
t-63 -75.5t-59 -77.5t-45 -83t-20 -92q-3 -59 17 -109.5t60.5 -88.5t102.5 -60t143 -23q102 -2 178.5 42.5t110.5 141.5h-23q-16 -45 -43 -76.5t-61 -52t-74.5 -29.5t-83.5 -8q-78 1 -137 22.5t-97.5 56.5t-56.5 82.5t-16 101.5q2 49 20.5 91.5t45.5 81t59 75.5t63.5 75
t58 78.5t42.5 87.5h-23z" />
    <glyph glyph-name="grave" unicode="`" horiz-adv-x="715" 
d="M344 1763l-23 -4l109 -203h-121l-211 240v31l311 104l156 -342v-33h-113z" />
    <glyph glyph-name="acute" unicode="&#xb4;" horiz-adv-x="688" 
d="M241 1534h-112v33l155 342l311 -105v-30l-210 -240h-121l108 203l-22 4z" />
    <glyph glyph-name="circumflex" unicode="&#x2c6;" horiz-adv-x="985" 
d="M621 1198l-134 156l-125 -156h-141l176 217h-20l-178 -217h-115v33l217 293h373l219 -293v-33h-115l-176 217h-22l176 -217h-135z" />
    <glyph glyph-name="caron" unicode="&#x2c7;" horiz-adv-x="993" 
d="M358 1526l134 -156l124 156h142l-176 -217h20l178 217h115v-33l-217 -293h-373l-219 293v33h115l176 -217h22l-176 217h135z" />
    <glyph glyph-name="tilde" unicode="&#x2dc;" horiz-adv-x="981" 
d="M265 1579q-88 34 -176 74q27 81 68 137.5t95 85.5t120.5 29t144.5 -31q24 -9 53.5 -21t58 -14.5t52 9.5t34.5 50q47 -20 92.5 -39t92.5 -40q-16 -75 -54 -131t-91 -88.5t-118 -37.5t-135 23q-23 9 -57 24.5t-68.5 22.5t-65 -2.5t-46.5 -50.5zM232 1704q48 53 114.5 55
t143.5 -33q43 -18 83 -26.5t76 -5.5t66.5 19t55.5 48l-17 8q-23 -27 -51.5 -40.5t-61.5 -15t-69.5 7.5t-75.5 26q-41 18 -80 26t-74.5 4.5t-67 -20t-56.5 -47.5z" />
    <glyph glyph-name="dieresis" unicode="&#xa8;" horiz-adv-x="1233" 
d="M336 1161q-42 0 -79 13.5t-64.5 38t-43.5 59t-16 76.5q0 43 16 78t43.5 59.5t64.5 37.5t79 13t79.5 -13t65.5 -37.5t44 -59.5t16 -78q0 -42 -16 -76.5t-44 -59t-65.5 -38t-79.5 -13.5zM879 1161q-42 0 -79 13.5t-64.5 38t-43.5 59t-16 76.5q0 43 16 78t43.5 59.5
t64.5 37.5t79 13q43 0 80 -13t64 -37.5t42.5 -59.5t15.5 -78q0 -42 -15.5 -76.5t-42.5 -59t-64 -38t-80 -13.5zM879 1268q-39 0 -66 20.5t-27 59.5q0 42 27 63t66 21q38 0 66 -21t28 -63q0 -39 -28 -59.5t-66 -20.5zM879 1249q46 0 78 25.5t32 73.5t-32 75t-78 27
q-48 0 -80.5 -27t-32.5 -75q0 -24 9 -42.5t25 -31t36 -19t43 -6.5zM336 1268q-37 0 -64.5 20.5t-27.5 59.5q0 42 27.5 63t64.5 21q40 0 67 -21t27 -63q0 -39 -27 -59.5t-67 -20.5zM336 1249q48 0 80.5 25.5t32.5 73.5t-32.5 75t-80.5 27q-47 0 -79 -27t-32 -75t32 -73.5
t79 -25.5z" />
    <glyph glyph-name="breve" unicode="&#x2d8;" horiz-adv-x="1024" 
d="M533 1534q-90 0 -157.5 27t-112 71t-66 99t-18.5 112h129q1 -37 16 -72t43.5 -62.5t70 -44.5t95.5 -17t95.5 17t70 44.5t43 62.5t16.5 72h127q1 -57 -20 -112t-64.5 -99t-110.5 -71t-157 -27zM533 1665q-51 0 -89 15t-64.5 40t-40.5 57t-15 66h113q1 -13 8 -26.5
t19 -24.5t29.5 -18t39.5 -7q21 0 38 7t28.5 18t17.5 24.5t6 26.5h115q-1 -34 -14.5 -66t-39 -57t-63.5 -40t-88 -15z" />
    <glyph glyph-name="ring" unicode="&#x2da;" horiz-adv-x="745" 
d="M360 1083q-57 0 -106.5 18t-87 51t-59 79.5t-21.5 103.5t21.5 103t59 78t87 49.5t106.5 17.5q56 0 105.5 -17.5t86 -49.5t58 -78t21.5 -103t-21.5 -103.5t-58 -79.5t-86 -51t-105.5 -18zM360 1225q-52 0 -88 28t-36 82q0 53 36 82t88 29q25 0 47 -7.5t39 -22t27 -35
t10 -46.5q0 -27 -10 -47.5t-27 -34.5t-39 -21t-47 -7zM360 1200q30 0 57 9t47 26t32 42.5t12 57.5q0 31 -12 56t-32 42t-47 26t-57 9q-32 0 -59 -9t-47 -26t-31.5 -42t-11.5 -56q0 -32 11.5 -57.5t31.5 -42.5t47 -26t59 -9z" />
    <glyph glyph-name="cedilla" unicode="&#xb8;" horiz-adv-x="711" 
d="M260 31l100 -2l-30 -174q30 -8 55.5 -21.5t41.5 -33.5t21 -46t-6 -59q-11 -34 -34 -54t-52 -29t-61.5 -8t-63.5 9l-4 -19q36 -9 72.5 -10t68.5 9t57.5 33.5t37.5 62.5q11 34 7 63t-19.5 52.5t-40.5 40.5t-56 26l27 156l108 -4l-30 -136q49 -8 81 -32t47 -58t14 -74.5
t-17 -80.5q-18 -46 -50 -76.5t-71.5 -48.5t-85 -23t-91 0t-88.5 19.5t-79 37.5l16 191q17 -14 43.5 -21t52.5 -6.5t47 10.5t27 31q6 22 -2 36t-24 22t-35.5 11t-36.5 3z" />
    <glyph glyph-name="gravecomb" unicode="&#x300;" horiz-adv-x="715" 
d="M344 1763l-23 -4l109 -203h-121l-211 240v31l311 104l156 -342v-33h-113z" />
    <glyph glyph-name="acutecomb" unicode="&#x301;" horiz-adv-x="688" 
d="M241 1534h-112v33l155 342l311 -105v-30l-210 -240h-121l108 203l-22 4z" />
    <glyph glyph-name="tildecomb" unicode="&#x303;" horiz-adv-x="981" 
d="M265 1579q-88 34 -176 74q27 81 68 137.5t95 85.5t120.5 29t144.5 -31q24 -9 53.5 -21t58 -14.5t52 9.5t34.5 50q47 -20 92.5 -39t92.5 -40q-16 -75 -54 -131t-91 -88.5t-118 -37.5t-135 23q-23 9 -57 24.5t-68.5 22.5t-65 -2.5t-46.5 -50.5zM232 1704q48 53 114.5 55
t143.5 -33q43 -18 83 -26.5t76 -5.5t66.5 19t55.5 48l-17 8q-23 -27 -51.5 -40.5t-61.5 -15t-69.5 7.5t-75.5 26q-41 18 -80 26t-74.5 4.5t-67 -20t-56.5 -47.5z" />
    <glyph glyph-name="hookabovecomb" unicode="&#x309;" horiz-adv-x="0" 
d="M-121 1553q-4 38 2.5 67.5t19.5 54t31 44.5t36 39q25 27 46 54.5t24 65.5v-1q0 12 -5.5 21t-14.5 15t-20.5 9t-22.5 3q-24 -1 -42.5 -18.5t-18.5 -56.5h-189q-1 68 19 118.5t55 84t82 50.5t100 19q62 1 112 -18t84.5 -52t53 -77t18.5 -94q0 -33 -7.5 -59.5t-19.5 -49
t-27.5 -42t-31.5 -37.5q-13 -16 -25 -31.5t-21.5 -33.5t-15 -39t-3.5 -47h-206zM2 1629q11 30 29 54.5t39 48.5l6 8v-1q25 32 46 64.5t23 72.5q2 30 -8 56.5t-31 46.5t-52.5 31.5t-73.5 11.5q-50 0 -90 -25t-62 -79h23q18 45 52 64t75 18q75 -2 111 -36.5t34 -84.5
q-1 -18 -8 -35.5t-17 -34t-22.5 -32.5t-24.5 -29q-19 -23 -37.5 -49.5t-34.5 -69.5h23z" />
    <glyph glyph-name="dotbelowcomb" unicode="&#x323;" horiz-adv-x="0" 
d="M0 -507q-43 0 -80.5 13t-65 37.5t-43.5 59t-16 76.5q0 43 16 78.5t43.5 60.5t65 38.5t80.5 13.5q41 0 77.5 -13.5t63.5 -38.5t43 -60.5t16 -78.5q0 -42 -16 -76.5t-43 -59t-63.5 -37.5t-77.5 -13zM0 -403q-41 0 -67.5 21t-26.5 61t26.5 62t67.5 22q37 0 63.5 -22
t26.5 -62t-26.5 -61t-63.5 -21zM0 -421q21 0 40.5 7t34.5 19.5t24 31t9 42.5t-9 42.5t-24 30.5t-34.5 18.5t-40.5 6.5q-47 0 -79 -25t-32 -73t32 -74t79 -26z" />
    <glyph glyph-name="at" unicode="@" horiz-adv-x="1765" 
d="M967 555q9 -103 61.5 -195t132.5 -161q-62 -39 -133.5 -59.5t-146.5 -20.5q-105 0 -199 40.5t-165 110t-113 163.5t-42 202q0 107 40.5 201t111 164.5t165 111.5t202.5 41q107 0 202 -41t165.5 -111.5t111.5 -164.5t41 -201v-297q-46 20 -82.5 50.5t-61.5 69.5t-38 84
t-13 93q0 67 -25.5 126.5t-69.5 104t-103.5 70t-126.5 25.5q-69 0 -128.5 -25.5t-104 -70t-70 -104t-25.5 -126.5q0 -70 26 -130t70.5 -104t104 -69t127.5 -25h24t23 2l-6 21q-11 -2 -20.5 -2h-20.5q-63 0 -119 24t-98 65t-66.5 97t-24.5 121q0 63 24 118t66 96.5t98 65
t120 23.5q63 0 118.5 -23.5t97 -65t65.5 -96.5t24 -118q0 -53 14.5 -103.5t42.5 -93t69 -76t95 -51.5q45 69 70.5 151t25.5 173q0 128 -49 241.5t-133.5 198t-198 133.5t-241.5 49t-240.5 -49t-197.5 -133.5t-134 -198t-49 -241.5q0 -129 49 -242t134 -197.5t197.5 -133
t240.5 -48.5q97 0 182.5 27.5t161.5 77.5q45 -25 99.5 -47t107.5 -27q-60 -64 -119.5 -106.5t-125.5 -68t-141 -36t-165 -10.5q-114 0 -218 29t-193.5 81.5t-162.5 126.5t-125 164t-80 194t-28 216q0 111 28.5 214.5t81 193.5t126 164t163.5 126.5t193 81.5t215 29
q111 0 214.5 -29t193.5 -81.5t164 -126.5t126.5 -164t81.5 -193.5t29 -214.5q0 -70 -11.5 -143t-36.5 -142t-64 -131t-93 -110q-64 2 -125.5 24t-116 58.5t-100.5 86t-79 106t-51 119t-16 126.5q1 24 -8.5 46.5t-25.5 39.5t-37 27t-45 10t-46 -10t-38.5 -26.5t-26 -38.5
t-8.5 -46q0 -23 9.5 -44t26 -37t38 -26t45.5 -10q28 0 48.5 12t37.5 29z" />
    <glyph glyph-name="zero" unicode="0" horiz-adv-x="1393" 
d="M692 1460q111 0 209.5 -33t171.5 -96t115.5 -155t42.5 -209v-502q0 -117 -42.5 -209t-115.5 -155.5t-171.5 -96.5t-209.5 -33q-109 0 -206 33t-170 96.5t-115.5 155.5t-42.5 209v502q0 117 42.5 209t115.5 155t170 96t206 33zM692 125q78 0 146.5 23.5t119.5 68.5
t81 109.5t30 146.5v488q0 83 -30 147.5t-81 108.5t-119.5 67t-146.5 23q-75 0 -142.5 -23t-119 -67t-81.5 -108.5t-30 -147.5v-488q0 -82 30 -146.5t81.5 -109.5t119 -68.5t142.5 -23.5zM692 297q41 0 76 11t61 33t41 55t15 77v488q0 42 -15 74t-41 54t-61 33t-76 11
q-39 0 -73 -11t-59 -33t-39.5 -54t-14.5 -74v-488q0 -44 14.5 -77t39.5 -55t59 -33t73 -11zM692 1288q74 0 138 -21.5t111.5 -63t75 -102.5t27.5 -140v-488q0 -78 -27.5 -139.5t-75 -104t-111.5 -64.5t-138 -22q-71 0 -134.5 22t-111.5 64.5t-76 104t-28 139.5v488
q0 79 28 140t76 102.5t111.5 63t134.5 21.5z" />
    <glyph glyph-name="one" unicode="1" horiz-adv-x="877" 
d="M63 1124v310h551v-1123h228v-311h-809v311h225v813h-195zM444 1294h-245v-16h227v-1122h-256v-17h535v17h-261v1138z" />
    <glyph glyph-name="two" unicode="2" horiz-adv-x="1122" 
d="M590 844q18 24 33.5 54.5t24.5 62t10 61.5t-11 53.5t-38.5 38t-71.5 14.5q-31 0 -57 -7.5t-45 -24t-29.5 -43t-10.5 -64.5h-311q-2 116 34 202.5t98.5 144.5t147 88t179.5 32q103 2 185.5 -27.5t142.5 -83t95.5 -125.5t43.5 -153.5t-13.5 -168.5t-74.5 -169l-289 -401
h426v-328h-1008v55zM770 784q40 58 61 119t22 118.5t-18 108t-58.5 88.5t-98.5 61t-139 24q-49 1 -94 -9.5t-82.5 -33t-66 -57.5t-46.5 -83h22q17 44 44.5 75.5t62 52t75.5 29t85 7.5q76 -2 131.5 -23t92 -57t53.5 -84t15.5 -101.5t-21.5 -111t-58 -112.5l-439 -641h590v20
h-555z" />
    <glyph glyph-name="three" unicode="3" horiz-adv-x="1167" 
d="M406 438q2 -71 44.5 -106t116.5 -35q38 0 67 13.5t49 36.5t30.5 54.5t11.5 67.5q-1 52 -17 86.5t-43.5 56.5t-63.5 33t-76 15.5t-82 3.5t-81 -2v49l191 397h-414v326h912v-54l-265 -483q85 -21 141.5 -64.5t90.5 -101t47.5 -124.5t13.5 -136q0 -61 -14 -122t-42 -116.5
t-70.5 -103t-99 -83t-126 -55.5t-152.5 -20q-81 0 -142 16.5t-114 45.5q-51 28 -94 69t-74.5 93t-49 113t-17.5 130h322zM276 1264h519l-238 -463q75 0 136 -20t104.5 -61.5t67.5 -104t26 -146.5q-2 -68 -27 -127t-68.5 -103t-102.5 -69.5t-128 -26.5q-49 0 -94 11.5
t-82 33.5t-65 53t-43 70h-21q17 -42 46.5 -76.5t69 -58.5t87 -37.5t100.5 -13.5q73 1 135.5 28t109 73.5t73 109t28.5 133.5q0 77 -23 140.5t-66 109.5t-103 71t-133 25l243 465h-551v-16z" />
    <glyph glyph-name="four" unicode="4" horiz-adv-x="1180" 
d="M1008 0h-340v272h-625v160l571 1002h394v-863h122v-299h-122v-272zM846 137v273h153v16h-153v864h-141l-486 -858v-22h606v-273h21zM475 571h207v215l27 220h-4zM240 426l475 848h110v-848h-585z" />
    <glyph glyph-name="five" unicode="5" horiz-adv-x="1184" 
d="M436 940q83 5 164.5 2t154.5 -19.5t135.5 -49.5t108 -86.5t71 -131.5t26.5 -184q1 -92 -31 -182t-95.5 -160.5t-158.5 -114t-219 -43.5q-84 0 -144.5 16t-111.5 44q-50 28 -93 69t-75 93t-50.5 113.5t-19.5 131.5h326q2 -71 44.5 -105t115.5 -34q37 0 66 13t49 36
t30.5 54.5t11.5 68.5q-4 61 -38.5 97t-88.5 54.5t-120 23.5t-132.5 2.5t-127 -7.5t-101.5 -6v799h893v-312h-590v-182zM272 1288v-497q64 2 135.5 5t141.5 -1.5t134 -21t113 -53t78.5 -97t30.5 -152.5q-1 -68 -26 -127.5t-69 -104t-103 -70t-127 -26.5q-48 -1 -92.5 11
t-81.5 34.5t-64.5 54t-42.5 70.5h-20q15 -43 44 -77.5t68.5 -59t87.5 -37.5t101 -12q72 0 134.5 26.5t109 73t73.5 109.5t27 135q0 93 -28.5 155t-76.5 101.5t-111.5 58.5t-134 25.5t-143.5 4t-139 -6.5v461h604v18h-623z" />
    <glyph glyph-name="six" unicode="6" horiz-adv-x="1264" 
d="M1004 471q0 81 -29 143.5t-79.5 105t-118 65t-144.5 22.5q-72 0 -137 -19.5t-113 -54.5l-4 2q83 146 168.5 288.5t169.5 289.5h-21l-387 -656q-26 -46 -38.5 -89t-12.5 -97q0 -81 29 -144.5t79.5 -107.5t119 -67t147.5 -23q77 0 144.5 23t118 67t79.5 107.5t29 144.5z
M979 1446l-303 -516q114 8 207 -20t159 -87.5t102 -148.5t36 -203q0 -128 -41.5 -221.5t-115 -154t-173.5 -89.5t-217 -29q-119 0 -219.5 29t-174.5 89.5t-115.5 154t-41.5 221.5q0 74 17 146t59 135l413 694h408zM633 289q91 0 134.5 47t43.5 135q0 87 -43.5 133.5
t-134.5 46.5q-93 0 -138.5 -46.5t-45.5 -133.5q0 -88 45.5 -135t138.5 -47zM633 788q73 0 137 -21t111.5 -61.5t74.5 -99.5t27 -135q0 -78 -27 -137.5t-74.5 -100.5t-111.5 -62t-137 -21q-75 0 -140 21t-112.5 62t-74.5 100.5t-27 137.5q0 76 27 135t74.5 99.5t112.5 61.5
t140 21z" />
    <glyph glyph-name="seven" unicode="7" horiz-adv-x="1100" 
d="M1090 1378l-580 -1378h-377l461 1106h-551v328h1047v-56zM385 133l481 1147h-702v-18h672l-474 -1129h23z" />
    <glyph glyph-name="eight" unicode="8" horiz-adv-x="1239" 
d="M983 815q84 -62 130.5 -148.5t54.5 -179.5t-22 -185t-98.5 -164.5t-175 -117.5t-251.5 -45q-110 0 -197.5 26t-153.5 71t-110.5 104.5t-67 127t-23.5 139t19.5 139.5t63 128.5t106.5 106.5q-52 57 -76.5 126.5t-21.5 140.5t33.5 138.5t88.5 120t142.5 84t196.5 31.5
q111 0 196 -32t142.5 -84.5t87.5 -120.5t33 -139.5t-21 -141t-76 -125.5zM522 793q-74 -15 -128 -52t-88 -86.5t-47.5 -108t-7 -117t32.5 -113t72.5 -96.5t112.5 -67.5t152 -25.5q85 0 151 25.5t111.5 67.5t71.5 97t31.5 114t-8.5 117.5t-48.5 108.5t-89 86.5t-129.5 51.5
q74 19 121 65t66.5 103.5t11.5 119.5t-42.5 113t-96.5 84t-150 33t-149.5 -32.5t-96.5 -83t-43 -111.5t10.5 -118.5t63 -104t116.5 -66.5v-4zM621 145q-88 0 -153.5 27.5t-109 72.5t-65.5 102.5t-22 117t22 117t65.5 102.5t109 72.5t153.5 27.5q87 0 152 -27.5t108.5 -72.5
t65.5 -102.5t22 -117t-22 -117t-65.5 -102.5t-108.5 -72.5t-152 -27.5zM621 801q-90 0 -150.5 36.5t-90.5 91t-30 118t30 118t90.5 91t150.5 36.5t150 -36.5t90 -91t30 -118t-30 -118t-90 -91t-150 -36.5zM621 285q62 0 103 26.5t61.5 66t20.5 85.5t-20.5 85.5t-61.5 66
t-103 26.5t-102.5 -26.5t-61.5 -66t-20.5 -85.5t20.5 -85.5t61 -66t103 -26.5zM621 946q40 0 66.5 15.5t39.5 38.5t13 50.5t-13 50.5t-39.5 38.5t-66.5 15.5q-41 0 -68 -15.5t-40.5 -38.5t-13.5 -50.5t14 -50.5t40.5 -38.5t67.5 -15.5z" />
    <glyph glyph-name="nine" unicode="9" horiz-adv-x="1247" 
d="M246 963q0 -81 29 -144t79 -106.5t117.5 -66.5t144.5 -23q72 0 136.5 21t115.5 56l2 -2q-85 -145 -170 -290.5t-170 -290.5h25l383 659q26 45 38.5 88t12.5 99q0 80 -28.5 142.5t-79 106t-118.5 66t-147 22.5q-78 0 -145.5 -22.5t-117.5 -66t-78.5 -106t-28.5 -142.5z
M266 -14l305 518q-114 -9 -206 19t-157 88t-100.5 149t-35.5 203q0 126 40.5 218.5t113 153t172.5 90t218 29.5t218.5 -29.5t174.5 -90t116 -153t42 -218.5q0 -75 -16 -147.5t-59 -135.5l-418 -694h-408zM616 1141q-91 0 -135.5 -46.5t-44.5 -131.5q0 -88 44.5 -134.5
t135.5 -46.5q94 0 137.5 46.5t43.5 134.5q0 85 -43.5 131.5t-137.5 46.5zM616 643q-74 0 -138.5 21t-112.5 62t-75.5 100.5t-27.5 136.5q0 76 27.5 135t75.5 100t112.5 62.5t138.5 21.5q75 0 139.5 -21.5t112 -62.5t74.5 -100t27 -135q0 -77 -27 -136.5t-74.5 -100.5
t-112 -62t-139.5 -21z" />
    <glyph glyph-name="uni2007" unicode="&#x2007;" horiz-adv-x="1139" 
 />
    <glyph glyph-name="_32" unicode=" " horiz-adv-x="522" 
 />
    <glyph glyph-name="uniF8FF" unicode="&#xf8ff;" horiz-adv-x="0" 
 />
    <glyph glyph-name="itilde" unicode="&#x129;" horiz-adv-x="848" 
d="M213 170v-20h450v20h-213v1092h197v20h-416v-20h199v-1092h-217zM803 322v-322h-728v322h183v792h-168v320h698v-320h-168v-792h183zM195 1579q-88 34 -176 74q27 81 68 137.5t95 85.5t120.5 29t144.5 -31q24 -9 53.5 -21t58 -14.5t52 9.5t34.5 50q47 -20 92.5 -39
t92.5 -40q-16 -75 -54 -131t-91 -88.5t-118 -37.5t-135 23q-23 9 -57 24.5t-68.5 22.5t-65 -2.5t-46.5 -50.5zM162 1704q48 53 114.5 55t143.5 -33q43 -18 83 -26.5t76 -5.5t66.5 19t55.5 48l-17 8q-23 -27 -51.5 -40.5t-61.5 -15t-69.5 7.5t-75.5 26q-41 18 -80 26
t-74.5 4.5t-67 -20t-56.5 -47.5z" />
    <glyph glyph-name="udieresis" unicode="&#xfc;" horiz-adv-x="1479" 
d="M737 309q40 0 79 11t69.5 32.5t49.5 54t19 76.5v951h349v-957q0 -118 -47 -210.5t-125.5 -156t-180.5 -97t-213 -33.5q-110 0 -212 33.5t-180.5 97t-125.5 156t-47 210.5v957h346v-951q0 -44 19.5 -76.5t50.5 -54t70 -32.5t79 -11zM737 133q77 0 150 23.5t130 68
t91.5 109.5t34.5 149v813h-23v-813q0 -80 -32.5 -141t-86 -102.5t-122.5 -62.5t-142 -21t-142 21t-122.5 62.5t-86 102.5t-32.5 141v813h-22v-813q0 -84 34.5 -149t91 -109.5t129.5 -68t150 -23.5zM467 1526q-42 0 -79 13t-64.5 37.5t-43.5 59t-16 76.5q0 44 16 79
t43.5 59.5t64.5 37.5t79 13t79.5 -13t65.5 -37.5t44 -59.5t16 -79q0 -42 -16 -76.5t-44 -59t-65.5 -37.5t-79.5 -13zM1010 1526q-42 0 -79 13t-64.5 37.5t-43.5 59t-16 76.5q0 44 16 79t43.5 59.5t64.5 37.5t79 13q43 0 80 -13t64 -37.5t42.5 -59.5t15.5 -79
q0 -42 -15.5 -76.5t-42.5 -59t-64 -37.5t-80 -13zM1010 1632q-39 0 -65.5 21t-26.5 59q0 42 26.5 63t65.5 21q38 0 66 -21t28 -63q0 -38 -28 -59t-66 -21zM1010 1614q46 0 78 25t32 73t-32 75.5t-78 27.5q-48 0 -80.5 -27.5t-32.5 -75.5q0 -24 9 -42t25 -30.5t36 -19
t43 -6.5zM467 1632q-37 0 -64.5 21t-27.5 59q0 42 27.5 63t64.5 21q40 0 67 -21t27 -63q0 -38 -27 -59t-67 -21zM467 1614q48 0 80.5 25t32.5 73t-32.5 75.5t-80.5 27.5q-46 0 -78.5 -27.5t-32.5 -75.5t32.5 -73t78.5 -25z" />
    <glyph glyph-name="uni1EBE" unicode="&#x1ebe;" horiz-adv-x="1229" 
d="M354 1282h584v-20h-561v-510h520v-21h-520v-559h579v-20h-602v1130zM1077 1434h-895v-1434h914v326h-549v252h487v325h-487v203h530v328zM895 1532l-176 217h22l177 -217h114v33l-219 293h-373l-217 -293v-33h115l178 217h21l-177 -217h142l125 156l133 -156h135z
M626 1926h-113v33l156 342l311 -104v-31l-211 -240h-121l109 203l-23 4z" />
    <glyph glyph-name="Ecircumflex" unicode="&#xca;" horiz-adv-x="1229" 
d="M354 152h602v20h-579v559h520v21h-520v510h561v20h-584v-1130zM1077 1106h-530v-203h487v-325h-487v-252h549v-326h-914v1434h895v-328zM760 1536l-133 156l-125 -156h-142l177 217h-21l-178 -217h-115v33l217 293h373l219 -293v-33h-114l-177 217h-22l176 -217h-135z
" />
    <glyph glyph-name="hookabovecombHOA" unicode="&#x2bc;" horiz-adv-x="0" 
d="M-121 1553q-4 38 2.5 67.5t19.5 54t31 44.5t36 39q25 27 46 54.5t24 65.5v-1q0 12 -5.5 21t-14.5 15t-20.5 9t-22.5 3q-24 -1 -42.5 -18.5t-18.5 -56.5h-189q-1 68 19 118.5t55 84t82 50.5t100 19q62 1 112 -18t84.5 -52t53 -77t18.5 -94q0 -33 -7.5 -59.5t-19.5 -49
t-27.5 -42t-31.5 -37.5q-13 -16 -25 -31.5t-21.5 -33.5t-15 -39t-3.5 -47h-206zM2 1629q11 30 29 54.5t39 48.5l6 8v-1q25 32 46 64.5t23 72.5q2 30 -8 56.5t-31 46.5t-52.5 31.5t-73.5 11.5q-50 0 -90 -25t-62 -79h23q18 45 52 64t75 18q75 -2 111 -36.5t34 -84.5
q-1 -18 -8 -35.5t-17 -34t-22.5 -32.5t-24.5 -29q-19 -23 -37.5 -49.5t-34.5 -69.5h23z" />
    <glyph glyph-name="zcaron" unicode="&#x17e;" horiz-adv-x="1251" 
d="M1186 1378l-582 -1050h588v-328h-1145v55l580 1051h-527v328h1086v-56zM899 1260l-588 -1106h727v18h-696l588 1108h-707v-20h676zM530 1858l134 -156l124 156h142l-176 -218h20l178 218h115v-33l-217 -293h-373l-219 293v33h115l176 -218h22l-176 218h135z" />
    <glyph glyph-name="Zcaron" unicode="&#x17d;" horiz-adv-x="1251" 
d="M1186 1378l-582 -1050h588v-328h-1145v55l580 1051h-527v328h1086v-56zM899 1260l-588 -1106h727v18h-696l588 1108h-707v-20h676zM528 1878l134 -156l124 156h142l-176 -217h20l178 217h115v-33l-217 -293h-373l-219 293v33h115l176 -217h22l-176 217h135z" />
    <glyph glyph-name="lslash" unicode="&#x142;" horiz-adv-x="1139" 
d="M549 950l88 56l160 -252l-248 -156v-268h520v-330h-889v348l-69 -45l-160 252l229 145v734h369v-484zM354 633v-477h576v18h-553v471l233 148l-10 14l-223 -139v626h-23v-641l-217 -137l10 -14z" />
    <glyph glyph-name="Lslash" unicode="&#x141;" horiz-adv-x="1139" 
d="M549 950l88 56l160 -252l-248 -156v-268h520v-330h-889v348l-69 -45l-160 252l229 145v734h369v-484zM354 633v-477h576v18h-553v471l233 148l-10 14l-223 -139v626h-23v-641l-217 -137l10 -14z" />
    <glyph glyph-name="Scaron" unicode="&#x160;" horiz-adv-x="1327" 
d="M436 438q0 -34 19.5 -59.5t51 -42.5t71.5 -25.5t82.5 -9t82.5 7.5t71.5 24t51 39.5t19.5 55.5q0 37 -21 60.5t-56.5 36.5t-83 19t-101.5 9q-117 8 -212.5 34t-163.5 77.5t-106 131.5t-39 197q-2 116 44 203t123 145t176 87t202.5 29t202.5 -29t176.5 -87t124 -145
t45.5 -203h-348q0 48 -28.5 78.5t-71.5 45t-94 13.5t-95 -16.5t-74.5 -44.5t-33.5 -72q-3 -41 13.5 -66.5t48 -41.5t74.5 -24t91 -13q71 -8 140.5 -17.5t132 -27t116 -46t92 -73t60.5 -109t22 -153.5q0 -90 -32.5 -163t-88.5 -127.5t-130.5 -91.5t-158.5 -55.5t-172.5 -19
t-172 18t-157.5 56t-129.5 93.5t-87 131t-30.5 170h354zM1001 1124q-29 54 -76 91.5t-104.5 58.5t-122 26.5t-126.5 -4t-118.5 -34t-99 -62.5t-67.5 -90t-23 -117q2 -92 33.5 -148t84 -87.5t122 -44.5t147.5 -19q50 -4 98.5 -7.5t93 -12.5t82 -25.5t65.5 -44.5t43.5 -71
t15.5 -105q0 -59 -25 -106.5t-67.5 -82.5t-98.5 -57t-118 -31t-125.5 -4t-121.5 24.5t-106 53t-78 82.5h-24q28 -55 76 -93t108.5 -60.5t128.5 -29t135 2.5t128 32.5t108 61.5t74.5 90t27.5 117q0 95 -35.5 150t-94 83.5t-133.5 39t-153 16.5q-75 5 -141.5 16.5t-116.5 40.5
t-79 81t-29 138q0 60 23 108.5t62 84t90.5 58t109 31.5t116.5 4.5t112.5 -23t98.5 -51.5t74 -81h26zM535 1901l133 -156l125 156h141l-176 -218h20l178 218h115v-33l-217 -293h-373l-219 293v33h115l176 -218h22l-176 218h136z" />
    <glyph glyph-name="scaron" unicode="&#x161;" horiz-adv-x="1327" 
d="M436 438q0 -34 19.5 -59.5t51 -42.5t71.5 -25.5t82.5 -9t82.5 7.5t71.5 24t51 39.5t19.5 55.5q0 37 -21 60.5t-56.5 36.5t-83 19t-101.5 9q-117 8 -212.5 34t-163.5 77.5t-106 131.5t-39 197q-2 116 44 203t123 145t176 87t202.5 29t202.5 -29t176.5 -87t124 -145
t45.5 -203h-348q0 48 -28.5 78.5t-71.5 45t-94 13.5t-95 -16.5t-74.5 -44.5t-33.5 -72q-3 -41 13.5 -66.5t48 -41.5t74.5 -24t91 -13q71 -8 140.5 -17.5t132 -27t116 -46t92 -73t60.5 -109t22 -153.5q0 -90 -32.5 -163t-88.5 -127.5t-130.5 -91.5t-158.5 -55.5t-172.5 -19
t-172 18t-157.5 56t-129.5 93.5t-87 131t-30.5 170h354zM1001 1124q-29 54 -76 91.5t-104.5 58.5t-122 26.5t-126.5 -4t-118.5 -34t-99 -62.5t-67.5 -90t-23 -117q2 -92 33.5 -148t84 -87.5t122 -44.5t147.5 -19q50 -4 98.5 -7.5t93 -12.5t82 -25.5t65.5 -44.5t43.5 -71
t15.5 -105q0 -59 -25 -106.5t-67.5 -82.5t-98.5 -57t-118 -31t-125.5 -4t-121.5 24.5t-106 53t-78 82.5h-24q28 -55 76 -93t108.5 -60.5t128.5 -29t135 2.5t128 32.5t108 61.5t74.5 90t27.5 117q0 95 -35.5 150t-94 83.5t-133.5 39t-153 16.5q-75 5 -141.5 16.5t-116.5 40.5
t-79 81t-29 138q0 60 23 108.5t62 84t90.5 58t109 31.5t116.5 4.5t112.5 -23t98.5 -51.5t74 -81h26zM516 1886l133 -155l125 155h141l-176 -217h21l178 217h115v-33l-217 -292h-373l-219 292v33h114l177 -217h22l-176 217h135z" />
    <glyph glyph-name="afii10052" unicode="&#x403;" horiz-adv-x="1176" 
d="M555 0h-373v1434h893v-328h-520v-1106zM938 1280h-582v-1141h23v1123h559v18zM606 1530h-112v33l155 342l312 -105v-31l-211 -239h-121l108 203l-22 4z" />
    <glyph glyph-name="afii10100" unicode="&#x453;" horiz-adv-x="1176" 
d="M555 0h-373v1434h893v-328h-520v-1106zM938 1280h-582v-1141h23v1123h559v18zM606 1530h-112v33l155 342l312 -105v-31l-211 -239h-121l108 203l-22 4z" />
    <glyph glyph-name="afii10061" unicode="&#x40c;" horiz-adv-x="1450" 
d="M588 709q46 0 98.5 7t97.5 19l363 -594h24l-368 602q94 32 157.5 88.5t101.5 129t53.5 158t14.5 175.5h-20q0 -177 -57 -305t-185 -196q-55 -29 -128.5 -48.5t-153.5 -19.5h-203v569h-27v-1153h27v568h205zM184 0v1434h373v-543h27q91 0 152.5 21.5t100.5 59.5t58.5 89.5
t27.5 112t8.5 127t0.5 133.5h377q0 -73 -0.5 -144t-8 -139t-23.5 -131.5t-46.5 -122t-79 -111.5t-119.5 -98l389 -631v-57h-407l-316 555q-37 -6 -71.5 -7t-69.5 -1v-547h-373zM692 1536h-112v33l155 342l312 -105v-30l-211 -240h-121l108 203l-22 4z" />
    <glyph glyph-name="afii10145" unicode="&#x40f;" horiz-adv-x="1561" 
d="M969 0v-209h-375v209h-410v1434h375v-1096h442v1096h375v-1434h-407zM1202 158v1136h-22v-1114h-799v1114h-21v-1136h408v-228h23v228h411z" />
    <glyph glyph-name="afii10109" unicode="&#x45c;" horiz-adv-x="1450" 
d="M588 709q46 0 98.5 7t97.5 19l363 -594h24l-368 602q94 32 157.5 88.5t101.5 129t53.5 158t14.5 175.5h-20q0 -177 -57 -305t-185 -196q-55 -29 -128.5 -48.5t-153.5 -19.5h-203v569h-27v-1153h27v568h205zM184 0v1434h373v-543h27q91 0 152.5 21.5t100.5 59.5t58.5 89.5
t27.5 112t8.5 127t0.5 133.5h377q0 -73 -0.5 -144t-8 -139t-23.5 -131.5t-46.5 -122t-79 -111.5t-119.5 -98l389 -631v-57h-407l-316 555q-37 -6 -71.5 -7t-69.5 -1v-547h-373zM692 1536h-112v33l155 342l312 -105v-30l-211 -240h-121l108 203l-22 4z" />
    <glyph glyph-name="afii10193" unicode="&#x45f;" horiz-adv-x="1561" 
d="M969 0v-209h-375v209h-410v1434h375v-1096h442v1096h375v-1434h-407zM1202 158v1136h-22v-1114h-799v1114h-21v-1136h408v-228h23v228h411z" />
    <glyph glyph-name="afii10062" unicode="&#x40e;" horiz-adv-x="1362" 
d="M690 498l-174 -361h23l565 1159h-27l-375 -774l-407 774h-27zM270 39l226 463l-484 876v56h410l270 -529h10l246 529h398v-56l-680 -1378h-396v39zM530 1882q5 -57 41 -85t101 -28q31 0 57 5.5t45.5 18.5t31.5 35t17 54q54 -3 106.5 -8.5t104.5 -11.5
q-6 -174 -96.5 -262.5t-261.5 -88.5q-166 0 -259 89t-98 262q53 6 105 11.5t106 8.5zM436 1761q32 -69 93.5 -103.5t146.5 -31.5q81 0 146.5 33.5t97.5 101.5l-21 2q-16 -32 -40.5 -54.5t-53.5 -36t-62 -19.5t-67 -6q-71 0 -128 25t-91 91z" />
    <glyph glyph-name="afii10110" unicode="&#x45e;" horiz-adv-x="1362" 
d="M690 498l-174 -361h23l565 1159h-27l-375 -774l-407 774h-27zM270 39l226 463l-484 876v56h410l270 -529h10l246 529h398v-56l-680 -1378h-396v39zM530 1882q5 -57 41 -85t101 -28q31 0 57 5.5t45.5 18.5t31.5 35t17 54q54 -3 106.5 -8.5t104.5 -11.5
q-6 -174 -96.5 -262.5t-261.5 -88.5q-166 0 -259 89t-98 262q53 6 105 11.5t106 8.5zM436 1761q32 -69 93.5 -103.5t146.5 -31.5q81 0 146.5 33.5t97.5 101.5l-21 2q-16 -32 -40.5 -54.5t-53.5 -36t-62 -19.5t-67 -6q-71 0 -128 25t-91 91z" />
    <glyph glyph-name="afii10057" unicode="&#x408;" horiz-adv-x="1356" 
d="M1184 477q0 -117 -45 -209t-121 -155t-176 -96t-211 -33t-208.5 33t-170.5 96t-115.5 155t-42.5 209v187h346v-181q0 -42 15 -74t40.5 -54t60.5 -33t75 -11q80 0 129 43t49 129v625h-209v326h584v-957zM252 524v-41q0 -81 29 -145t79.5 -108.5t118.5 -68.5t146 -24
q79 0 149 22.5t122.5 66.5t83 108.5t30.5 148.5v801h-273v-20h250v-781q0 -81 -28 -141.5t-77 -101.5t-114.5 -61.5t-140.5 -20.5q-74 0 -138.5 21.5t-112 63t-75 102t-27.5 138.5v41h-22z" />
    <glyph glyph-name="afii10050" unicode="&#x490;" horiz-adv-x="1159" 
d="M555 1106v-1106h-373v1434h584v170h309v-498h-520zM928 1466h-19v-186h-553v-1141h23v1123h549v204z" />
    <glyph glyph-name="afii10023" unicode="&#x401;" horiz-adv-x="1229" 
d="M354 152h602v20h-579v559h520v21h-520v510h561v20h-584v-1130zM1077 1106h-530v-203h487v-325h-487v-252h549v-326h-914v1434h895v-328zM381 1526q-42 0 -78 13t-63 36.5t-42.5 56.5t-15.5 74q0 42 15.5 76t42.5 58t63 37t78 13q40 0 76.5 -13t63.5 -37t43 -58t16 -76
q0 -41 -16 -74t-43 -56.5t-63.5 -36.5t-76.5 -13zM909 1526q-41 0 -77 13t-63 36.5t-42.5 56.5t-15.5 74q0 42 15.5 76t42.5 58t63 37t77 13q42 0 78 -13t62.5 -37t41.5 -58t15 -76q0 -41 -15 -74t-41.5 -56.5t-62.5 -36.5t-78 -13zM909 1628q-37 0 -63.5 20.5t-26.5 57.5
q0 40 26.5 61t63.5 21t64.5 -21t27.5 -61q0 -37 -27.5 -57.5t-64.5 -20.5zM909 1610q45 0 76 25t31 71t-31 73t-76 27q-46 0 -78 -27t-32 -73q0 -23 9 -41t24.5 -30t35.5 -18.5t41 -6.5zM381 1628q-37 0 -63.5 20.5t-26.5 57.5q0 40 26.5 61t63.5 21q38 0 65 -21t27 -61
q0 -37 -27 -57.5t-65 -20.5zM381 1610q46 0 77 25t31 71t-31 73t-77 27q-22 0 -42 -7t-35 -20t-23.5 -31.5t-8.5 -41.5t8.5 -41t23.5 -30t35 -18.5t42 -6.5z" />
    <glyph glyph-name="afii10053" unicode="&#x404;" horiz-adv-x="1585" 
d="M827 1116q-62 0 -116.5 -17.5t-99 -49.5t-76.5 -78t-50 -103h471v-309h-464q19 -52 51 -95.5t75 -75.5t96 -50t113 -19q58 0 110 14.5t94 43.5t71.5 72.5t44.5 101.5h360q-20 -152 -85.5 -259.5t-159.5 -175.5t-207 -99t-228 -31q-91 0 -180.5 20t-171 60.5t-151.5 101.5
t-121.5 142.5t-81 183t-29.5 223.5q1 122 30 223.5t80.5 183t121.5 142.5t151.5 102t171 61.5t180.5 20.5q74 0 149 -14t145.5 -42.5t133.5 -72.5t113 -104.5t84.5 -138t48.5 -173.5h-360q-38 110 -118 160.5t-196 50.5zM819 707v18h-526q0 89 21.5 164.5t59 136.5t88 107
t110 77.5t124.5 47.5t131 16q140 0 251 -58.5t179 -179.5h25q-35 64 -83.5 112t-107 80t-125.5 48t-139 16q-104 0 -203.5 -37.5t-177.5 -110t-126 -180t-48 -247.5q0 -139 48 -246.5t126 -180.5t177.5 -110.5t203.5 -36.5q74 0 143.5 18.5t129.5 53.5t109 87t81 120h-24
q-68 -131 -181.5 -194.5t-257.5 -63.5q-66 0 -130.5 16t-123.5 47t-109.5 77t-88.5 106.5t-59.5 134.5t-22.5 162h526z" />
    <glyph glyph-name="afii10056" unicode="&#x407;" horiz-adv-x="848" 
d="M201 170v-20h450v20h-213v1092h197v20h-416v-20h199v-1092h-217zM791 322v-322h-728v322h183v792h-168v320h698v-320h-168v-792h183zM158 1536q-42 0 -79 13.5t-64.5 37.5t-43.5 58.5t-16 76.5q0 44 16 79t43.5 59.5t64.5 37.5t79 13t79 -13t65 -37.5t44 -59.5t16 -79
q0 -42 -16 -76.5t-44 -58.5t-65 -37.5t-79 -13.5zM700 1536q-42 0 -79 13.5t-64 37.5t-43 58.5t-16 76.5q0 44 16 79t43 59.5t64 37.5t79 13q43 0 80 -13t64.5 -37.5t43 -59.5t15.5 -79q0 -42 -15.5 -76.5t-43 -58.5t-64.5 -37.5t-80 -13.5zM700 1642q-38 0 -65 21t-27 59
q0 42 27 63t65 21q39 0 67 -21t28 -63q0 -38 -28 -59t-67 -21zM700 1624q47 0 79 25t32 73t-32 75.5t-79 27.5q-48 0 -80 -27.5t-32 -75.5q0 -24 9 -42t24.5 -30.5t36 -19t42.5 -6.5zM158 1642q-37 0 -64.5 21t-27.5 59q0 42 27.5 63t64.5 21q40 0 67 -21t27 -63
q0 -38 -27 -59t-67 -21zM158 1624q48 0 80 25t32 73t-32 75.5t-80 27.5q-47 0 -79 -27.5t-32 -75.5t32 -73t79 -25z" />
    <glyph glyph-name="afii10055" unicode="&#x406;" horiz-adv-x="848" 
d="M201 170v-20h450v20h-213v1092h197v20h-416v-20h199v-1092h-217zM791 322v-322h-728v322h183v792h-168v320h698v-320h-168v-792h183z" />
    <glyph glyph-name="afii10103" unicode="&#x456;" horiz-adv-x="848" 
d="M201 170v-20h450v20h-213v1092h197v20h-416v-20h199v-1092h-217zM791 322v-322h-728v322h183v792h-168v320h698v-320h-168v-792h183z" />
    <glyph glyph-name="afii10098" unicode="&#x491;" horiz-adv-x="1159" 
d="M555 1106v-1106h-373v1434h584v170h309v-498h-520zM928 1466h-19v-186h-553v-1141h23v1123h549v204z" />
    <glyph glyph-name="afii10071" unicode="&#x451;" horiz-adv-x="1229" 
d="M354 152h602v20h-579v559h520v21h-520v510h561v20h-584v-1130zM1077 1106h-530v-203h487v-325h-487v-252h549v-326h-914v1434h895v-328zM381 1526q-42 0 -78 13t-63 36.5t-42.5 56.5t-15.5 74q0 42 15.5 76t42.5 58t63 37t78 13q40 0 76.5 -13t63.5 -37t43 -58t16 -76
q0 -41 -16 -74t-43 -56.5t-63.5 -36.5t-76.5 -13zM909 1526q-41 0 -77 13t-63 36.5t-42.5 56.5t-15.5 74q0 42 15.5 76t42.5 58t63 37t77 13q42 0 78 -13t62.5 -37t41.5 -58t15 -76q0 -41 -15 -74t-41.5 -56.5t-62.5 -36.5t-78 -13zM909 1628q-37 0 -63.5 20.5t-26.5 57.5
q0 40 26.5 61t63.5 21t64.5 -21t27.5 -61q0 -37 -27.5 -57.5t-64.5 -20.5zM909 1610q45 0 76 25t31 71t-31 73t-76 27q-46 0 -78 -27t-32 -73q0 -23 9 -41t24.5 -30t35.5 -18.5t41 -6.5zM381 1628q-37 0 -63.5 20.5t-26.5 57.5q0 40 26.5 61t63.5 21q38 0 65 -21t27 -61
q0 -37 -27 -57.5t-65 -20.5zM381 1610q46 0 77 25t31 71t-31 73t-77 27q-22 0 -42 -7t-35 -20t-23.5 -31.5t-8.5 -41.5t8.5 -41t23.5 -30t35 -18.5t42 -6.5z" />
    <glyph glyph-name="afii10101" unicode="&#x454;" horiz-adv-x="1585" 
d="M827 1116q-62 0 -116.5 -17.5t-99 -49.5t-76.5 -78t-50 -103h471v-309h-464q19 -52 51 -95.5t75 -75.5t96 -50t113 -19q58 0 110 14.5t94 43.5t71.5 72.5t44.5 101.5h360q-20 -152 -85.5 -259.5t-159.5 -175.5t-207 -99t-228 -31q-91 0 -180.5 20t-171 60.5t-151.5 101.5
t-121.5 142.5t-81 183t-29.5 223.5q1 122 30 223.5t80.5 183t121.5 142.5t151.5 102t171 61.5t180.5 20.5q74 0 149 -14t145.5 -42.5t133.5 -72.5t113 -104.5t84.5 -138t48.5 -173.5h-360q-38 110 -118 160.5t-196 50.5zM819 707v18h-526q0 89 21.5 164.5t59 136.5t88 107
t110 77.5t124.5 47.5t131 16q140 0 251 -58.5t179 -179.5h25q-35 64 -83.5 112t-107 80t-125.5 48t-139 16q-104 0 -203.5 -37.5t-177.5 -110t-126 -180t-48 -247.5q0 -139 48 -246.5t126 -180.5t177.5 -110.5t203.5 -36.5q74 0 143.5 18.5t129.5 53.5t109 87t81 120h-24
q-68 -131 -181.5 -194.5t-257.5 -63.5q-66 0 -130.5 16t-123.5 47t-109.5 77t-88.5 106.5t-59.5 134.5t-22.5 162h526z" />
    <glyph glyph-name="afii10105" unicode="&#x458;" horiz-adv-x="1356" 
d="M1184 477q0 -117 -45 -209t-121 -155t-176 -96t-211 -33t-208.5 33t-170.5 96t-115.5 155t-42.5 209v187h346v-181q0 -42 15 -74t40.5 -54t60.5 -33t75 -11q80 0 129 43t49 129v625h-209v326h584v-957zM252 524v-41q0 -81 29 -145t79.5 -108.5t118.5 -68.5t146 -24
q79 0 149 22.5t122.5 66.5t83 108.5t30.5 148.5v801h-273v-20h250v-781q0 -81 -28 -141.5t-77 -101.5t-114.5 -61.5t-140.5 -20.5q-74 0 -138.5 21.5t-112 63t-75 102t-27.5 138.5v41h-22z" />
    <glyph glyph-name="afii10054" unicode="&#x405;" horiz-adv-x="1327" 
d="M436 438q0 -34 19.5 -59.5t51 -42.5t71.5 -25.5t82.5 -9t82.5 7.5t71.5 24t51 39.5t19.5 55.5q0 37 -21 60.5t-56.5 36.5t-83 19t-101.5 9q-117 8 -212.5 34t-163.5 77.5t-106 131.5t-39 197q-2 116 44 203t123 145t176 87t202.5 29t202.5 -29t176.5 -87t124 -145
t45.5 -203h-348q0 48 -28.5 78.5t-71.5 45t-94 13.5t-95 -16.5t-74.5 -45t-33.5 -71.5q-3 -41 13.5 -66.5t48 -41.5t74.5 -24t91 -13q71 -8 140.5 -17.5t132 -27t116 -46t92 -73t60.5 -109t22 -153.5q0 -90 -32.5 -163t-88.5 -127.5t-130.5 -91.5t-158.5 -55.5t-172.5 -19
t-172 18t-157.5 56t-129.5 93.5t-87 131t-30.5 170h354zM1001 1124q-29 54 -76 91.5t-104.5 58.5t-122 26.5t-126.5 -4t-118.5 -34t-99 -62.5t-67.5 -90t-23 -117q2 -92 33.5 -148t84 -87.5t122 -44.5t147.5 -19q50 -4 98.5 -7.5t93 -12.5t82 -25.5t65.5 -44.5t43.5 -71
t15.5 -105q0 -59 -25 -106.5t-67.5 -82.5t-98.5 -57t-118 -31t-125.5 -4t-121.5 24.5t-106 53t-78 82.5h-24q28 -55 76 -93t108.5 -60.5t128.5 -29t135 2.5t128 32.5t108 61.5t74.5 90t27.5 117q0 95 -35.5 150t-94 83.5t-133.5 39t-153 16.5q-75 5 -141.5 16.5t-116.5 40.5
t-79 81t-29 138q0 60 23 108.5t62 84t90.5 58t109 31.5t116.5 4.5t112.5 -23t98.5 -51.5t74 -81h26z" />
    </font>
</defs>
</svg>
